<?xml version="1.0" encoding="UTF-8"?>
<svg xmlns="http://www.w3.org/2000/svg" xmlns:xlink="http://www.w3.org/1999/xlink" width="375pt" height="374.999991pt" viewBox="0 0 375 374.999991" version="1.2">
<defs>
<clipPath id="clip1">
  <path d="M 4 52 L 371.25 52 L 371.25 306 L 4 306 Z M 4 52 "/>
</clipPath>
</defs>
<g id="surface1">
<g clip-path="url(#clip1)" clip-rule="nonzero">
<path style=" stroke:none;fill-rule:nonzero;fill:rgb(100%,100%,100%);fill-opacity:1;" d="M 371.207031 171.851562 L 227.722656 172.257812 L 221.699219 149.277344 L 196.371094 149.554688 C 196.347656 149.046875 196.320312 148.515625 196.269531 147.90625 C 195.964844 142.859375 178.917969 145.417969 178.917969 145.417969 C 161.667969 142.933594 162.988281 134.28125 162.988281 134.28125 C 174.648438 124.210938 172.515625 104.144531 173.074219 103.257812 C 173.632812 102.371094 179.78125 97.042969 181.433594 95.824219 C 183.085938 94.582031 185.167969 96.128906 186.285156 96.484375 C 194.464844 99.199219 191.976562 92.351562 191.976562 92.351562 C 194.363281 91.613281 192.816406 88.824219 192.816406 88.824219 C 195.277344 89.128906 194.3125 84.839844 194.566406 84.839844 C 194.820312 84.839844 196.550781 85.527344 197.210938 84.992188 C 199.265625 83.320312 195.558594 77.507812 195.558594 77.507812 C 195.558594 77.507812 196.398438 77.585938 196.777344 74.847656 C 197.132812 72.105469 195.558594 66.5 195.558594 66.5 L 198.785156 66.980469 C 198.785156 66.980469 198.046875 52.925781 179.527344 52.445312 C 161.007812 51.964844 163.320312 72.003906 163.320312 76.519531 C 163.320312 81.0625 163.625 82.558594 161.847656 85.753906 L 158.976562 85.246094 C 158.976562 85.246094 138.957031 87.199219 126.941406 106.960938 C 122.0625 115.003906 115.609375 123.679688 109.207031 132.023438 C 95.183594 140.269531 76.613281 148.566406 76.613281 148.566406 C 76.613281 148.566406 85.605469 148.792969 95.464844 150.011719 C 91.703125 155.085938 88.578125 159.625 86.699219 163.253906 C 80.09375 175.9375 85.707031 194.125 85.707031 194.125 L 84.132812 224.796875 C 76.6875 216.476562 37.183594 212.339844 37.183594 212.339844 C 36.703125 209.296875 36.167969 211.25 29.183594 206.125 C 22.222656 201 15.792969 215.285156 7.917969 227.179688 C 0.0429688 239.078125 7.917969 255.390625 11.398438 246.410156 C 14.878906 237.429688 31.390625 230.480469 31.390625 230.480469 L 37.082031 231.570312 C 52.859375 232.304688 82.558594 248.589844 94.117188 248.414062 C 105.675781 248.238281 115.582031 211.425781 115.582031 211.425781 C 118.53125 212.925781 124.195312 232.992188 124.195312 232.992188 C 114.847656 245.066406 109.511719 266.324219 104.203125 277.867188 C 98.894531 289.410156 101.253906 302.550781 101.253906 304.757812 C 101.253906 306.964844 120.511719 302.21875 134.460938 304.425781 C 148.40625 306.632812 148.941406 297.652344 141.800781 297.832031 C 134.636719 298.007812 121.808594 293.976562 121.25 292.328125 C 120.691406 290.675781 123.460938 283.726562 123.460938 283.726562 C 123.105469 267.796875 149.144531 239.027344 151.710938 229.691406 C 154.277344 220.355469 133.289062 182.40625 132.933594 180.328125 C 132.578125 178.246094 135.398438 172.996094 135.398438 172.996094 C 138.957031 160.03125 149.449219 154.984375 149.449219 154.984375 L 152.320312 156.203125 C 157.527344 159.5 181.660156 158.585938 183.695312 158.585938 C 185.726562 158.585938 186.082031 156.503906 189.386719 159.601562 C 191.265625 161.351562 192.816406 159.347656 193.832031 157.242188 L 215.804688 156.988281 L 237.070312 238.191406 L 245.378906 271.804688 C 242 275.328125 239.941406 280.125 239.941406 285.375 C 239.941406 296.234375 248.78125 305.085938 259.679688 305.085938 C 270.554688 305.085938 279.417969 296.257812 279.417969 285.375 C 279.417969 280.808594 277.871094 276.625 275.253906 273.273438 L 308.8125 273.273438 C 306.195312 276.625 304.648438 280.808594 304.648438 285.375 C 304.648438 296.234375 313.488281 305.085938 324.386719 305.085938 C 335.285156 305.085938 344.125 296.257812 344.125 285.375 C 344.125 274.519531 335.285156 265.664062 324.386719 265.664062 C 323.625 265.664062 322.886719 265.714844 322.152344 265.792969 L 322.152344 265.664062 L 251.78125 265.664062 L 245.632812 241.007812 L 353.019531 241.007812 Z M 355.914062 200.089844 L 336.683594 200.367188 L 342.144531 179.539062 L 361.351562 179.488281 Z M 264.710938 206.480469 L 293.136719 206.074219 L 293.136719 233.394531 L 271.746094 233.394531 Z M 266.515625 233.394531 L 243.726562 233.394531 L 236.789062 206.886719 L 259.476562 206.558594 Z M 263.390625 201.433594 L 257.722656 179.769531 L 293.136719 179.667969 L 293.136719 201 Z M 298.21875 206 L 330.050781 205.542969 L 322.785156 233.394531 L 298.21875 233.394531 Z M 298.21875 200.925781 L 298.21875 179.667969 L 336.859375 179.566406 L 331.398438 200.46875 Z M 252.492188 179.792969 L 258.179688 201.507812 L 235.496094 201.839844 L 229.753906 179.871094 Z M 271.773438 285.324219 C 271.773438 291.996094 266.335938 297.425781 259.65625 297.425781 C 252.972656 297.425781 247.535156 291.996094 247.535156 285.324219 C 247.535156 278.652344 252.972656 273.222656 259.65625 273.222656 C 266.335938 273.25 271.773438 278.679688 271.773438 285.324219 Z M 336.453125 285.324219 C 336.453125 291.996094 331.015625 297.425781 324.335938 297.425781 C 317.652344 297.425781 312.21875 291.996094 312.21875 285.324219 C 312.21875 278.652344 317.652344 273.222656 324.335938 273.222656 C 331.015625 273.222656 336.453125 278.679688 336.453125 285.324219 Z M 328.042969 233.394531 L 335.363281 205.464844 L 354.59375 205.1875 L 347.148438 233.394531 Z M 328.042969 233.394531 "/>
</g>
</g>
</svg>
