<?xml version="1.0" encoding="UTF-8"?>
<svg xmlns="http://www.w3.org/2000/svg" xmlns:xlink="http://www.w3.org/1999/xlink" width="375pt" height="374.999991pt" viewBox="0 0 375 374.999991" version="1.2">
<defs>
<clipPath id="clip1">
  <path d="M 19.914062 10.609375 L 364.164062 10.609375 L 364.164062 354.859375 L 19.914062 354.859375 Z M 19.914062 10.609375 "/>
</clipPath>
</defs>
<g id="surface1">
<g clip-path="url(#clip1)" clip-rule="nonzero">
<path style=" stroke:none;fill-rule:nonzero;fill:rgb(100%,100%,100%);fill-opacity:1;" d="M 115.539062 10.609375 L 77.289062 10.609375 C 75.410156 10.609375 73.535156 10.699219 71.664062 10.882812 C 69.792969 11.070312 67.9375 11.34375 66.09375 11.710938 C 64.25 12.078125 62.429688 12.53125 60.632812 13.078125 C 58.835938 13.625 57.066406 14.257812 55.332031 14.976562 C 53.59375 15.695312 51.898438 16.496094 50.242188 17.382812 C 48.585938 18.269531 46.976562 19.234375 45.414062 20.277344 C 43.851562 21.320312 42.34375 22.4375 40.890625 23.632812 C 39.4375 24.824219 38.046875 26.082031 36.71875 27.414062 C 35.390625 28.742188 34.128906 30.132812 32.9375 31.585938 C 31.746094 33.039062 30.625 34.542969 29.582031 36.105469 C 28.539062 37.667969 27.574219 39.28125 26.6875 40.9375 C 25.800781 42.59375 25 44.289062 24.28125 46.027344 C 23.5625 47.761719 22.929688 49.53125 22.382812 51.328125 C 21.839844 53.125 21.382812 54.945312 21.015625 56.789062 C 20.648438 58.632812 20.375 60.488281 20.1875 62.359375 C 20.003906 64.230469 19.914062 66.105469 19.914062 67.984375 L 19.914062 106.234375 C 19.914062 108.113281 20.003906 109.988281 20.1875 111.855469 C 20.375 113.726562 20.648438 115.582031 21.015625 117.425781 C 21.382812 119.269531 21.839844 121.089844 22.382812 122.886719 C 22.929688 124.6875 23.5625 126.453125 24.28125 128.1875 C 25 129.925781 25.800781 131.621094 26.6875 133.28125 C 27.574219 134.9375 28.539062 136.546875 29.582031 138.109375 C 30.625 139.671875 31.746094 141.179688 32.9375 142.632812 C 34.128906 144.082031 35.390625 145.472656 36.71875 146.804688 C 38.046875 148.132812 39.4375 149.390625 40.890625 150.585938 C 42.34375 151.777344 43.851562 152.894531 45.414062 153.9375 C 46.976562 154.984375 48.585938 155.949219 50.242188 156.832031 C 51.898438 157.71875 53.59375 158.519531 55.332031 159.242188 C 57.066406 159.960938 58.835938 160.59375 60.632812 161.136719 C 62.429688 161.683594 64.25 162.140625 66.09375 162.503906 C 67.9375 162.871094 69.792969 163.148438 71.664062 163.332031 C 73.535156 163.515625 75.410156 163.609375 77.289062 163.609375 L 115.539062 163.609375 C 117.417969 163.609375 119.292969 163.515625 121.160156 163.332031 C 123.03125 163.148438 124.886719 162.871094 126.730469 162.503906 C 128.574219 162.140625 130.394531 161.683594 132.191406 161.136719 C 133.992188 160.59375 135.757812 159.960938 137.496094 159.242188 C 139.230469 158.519531 140.925781 157.71875 142.585938 156.832031 C 144.242188 155.949219 145.851562 154.984375 147.414062 153.9375 C 148.976562 152.894531 150.484375 151.777344 151.9375 150.585938 C 153.390625 149.390625 154.78125 148.132812 156.109375 146.804688 C 157.4375 145.472656 158.699219 144.082031 159.890625 142.632812 C 161.082031 141.179688 162.199219 139.671875 163.242188 138.109375 C 164.289062 136.546875 165.253906 134.9375 166.136719 133.28125 C 167.023438 131.621094 167.828125 129.925781 168.546875 128.1875 C 169.265625 126.453125 169.898438 124.6875 170.441406 122.886719 C 170.988281 121.089844 171.445312 119.269531 171.8125 117.425781 C 172.175781 115.582031 172.453125 113.726562 172.636719 111.855469 C 172.820312 109.988281 172.914062 108.113281 172.914062 106.234375 L 172.914062 67.984375 C 172.914062 66.105469 172.820312 64.230469 172.636719 62.359375 C 172.453125 60.488281 172.175781 58.632812 171.8125 56.789062 C 171.445312 54.945312 170.988281 53.125 170.441406 51.328125 C 169.898438 49.53125 169.265625 47.761719 168.546875 46.027344 C 167.828125 44.289062 167.023438 42.59375 166.136719 40.9375 C 165.253906 39.28125 164.289062 37.667969 163.242188 36.105469 C 162.199219 34.542969 161.082031 33.039062 159.890625 31.585938 C 158.699219 30.132812 157.4375 28.742188 156.109375 27.414062 C 154.78125 26.082031 153.390625 24.824219 151.9375 23.632812 C 150.484375 22.4375 148.976562 21.320312 147.414062 20.277344 C 145.851562 19.234375 144.242188 18.269531 142.585938 17.382812 C 140.925781 16.496094 139.230469 15.695312 137.496094 14.976562 C 135.757812 14.257812 133.992188 13.625 132.191406 13.078125 C 130.394531 12.53125 128.574219 12.078125 126.730469 11.710938 C 124.886719 11.34375 123.03125 11.070312 121.160156 10.882812 C 119.292969 10.699219 117.417969 10.609375 115.539062 10.609375 Z M 134.664062 106.234375 C 134.664062 106.859375 134.632812 107.484375 134.570312 108.109375 C 134.507812 108.730469 134.417969 109.351562 134.296875 109.964844 C 134.171875 110.578125 134.019531 111.183594 133.839844 111.785156 C 133.65625 112.382812 133.445312 112.972656 133.207031 113.550781 C 132.96875 114.128906 132.699219 114.695312 132.40625 115.25 C 132.109375 115.800781 131.789062 116.335938 131.441406 116.859375 C 131.09375 117.378906 130.71875 117.882812 130.320312 118.367188 C 129.925781 118.851562 129.503906 119.3125 129.0625 119.757812 C 128.617188 120.199219 128.15625 120.621094 127.671875 121.015625 C 127.1875 121.414062 126.683594 121.785156 126.164062 122.136719 C 125.644531 122.484375 125.105469 122.804688 124.554688 123.101562 C 124 123.394531 123.4375 123.664062 122.855469 123.902344 C 122.277344 124.140625 121.6875 124.351562 121.089844 124.535156 C 120.492188 124.714844 119.882812 124.867188 119.269531 124.992188 C 118.65625 125.113281 118.035156 125.203125 117.414062 125.265625 C 116.789062 125.328125 116.164062 125.359375 115.539062 125.359375 L 77.289062 125.359375 C 76.660156 125.359375 76.035156 125.328125 75.414062 125.265625 C 74.789062 125.203125 74.171875 125.113281 73.558594 124.992188 C 72.941406 124.867188 72.335938 124.714844 71.738281 124.535156 C 71.136719 124.351562 70.546875 124.140625 69.96875 123.902344 C 69.390625 123.664062 68.824219 123.394531 68.273438 123.101562 C 67.71875 122.804688 67.183594 122.484375 66.664062 122.136719 C 66.140625 121.785156 65.640625 121.414062 65.15625 121.015625 C 64.671875 120.621094 64.207031 120.199219 63.765625 119.757812 C 63.320312 119.3125 62.902344 118.851562 62.503906 118.367188 C 62.105469 117.882812 61.734375 117.378906 61.386719 116.859375 C 61.039062 116.335938 60.714844 115.800781 60.421875 115.25 C 60.125 114.695312 59.859375 114.128906 59.617188 113.550781 C 59.378906 112.972656 59.167969 112.382812 58.988281 111.785156 C 58.804688 111.183594 58.652344 110.578125 58.53125 109.964844 C 58.410156 109.351562 58.316406 108.730469 58.253906 108.109375 C 58.195312 107.484375 58.164062 106.859375 58.164062 106.234375 L 58.164062 67.984375 C 58.164062 67.355469 58.195312 66.730469 58.253906 66.109375 C 58.316406 65.484375 58.410156 64.867188 58.53125 64.25 C 58.652344 63.636719 58.804688 63.03125 58.988281 62.429688 C 59.167969 61.832031 59.378906 61.242188 59.617188 60.664062 C 59.859375 60.085938 60.125 59.519531 60.421875 58.96875 C 60.714844 58.414062 61.039062 57.878906 61.386719 57.359375 C 61.734375 56.835938 62.105469 56.335938 62.503906 55.851562 C 62.902344 55.367188 63.320312 54.902344 63.765625 54.460938 C 64.207031 54.015625 64.671875 53.597656 65.15625 53.199219 C 65.640625 52.800781 66.140625 52.429688 66.664062 52.082031 C 67.183594 51.734375 67.71875 51.410156 68.273438 51.117188 C 68.824219 50.820312 69.390625 50.554688 69.96875 50.3125 C 70.546875 50.074219 71.136719 49.863281 71.738281 49.679688 C 72.335938 49.5 72.941406 49.347656 73.558594 49.226562 C 74.171875 49.101562 74.789062 49.011719 75.414062 48.949219 C 76.035156 48.886719 76.660156 48.859375 77.289062 48.859375 L 115.539062 48.859375 C 116.164062 48.859375 116.789062 48.886719 117.414062 48.949219 C 118.035156 49.011719 118.65625 49.101562 119.269531 49.226562 C 119.882812 49.347656 120.492188 49.5 121.089844 49.679688 C 121.6875 49.863281 122.277344 50.074219 122.855469 50.3125 C 123.4375 50.554688 124 50.820312 124.554688 51.117188 C 125.105469 51.410156 125.644531 51.734375 126.164062 52.082031 C 126.683594 52.429688 127.1875 52.800781 127.671875 53.199219 C 128.15625 53.597656 128.617188 54.015625 129.0625 54.460938 C 129.503906 54.902344 129.925781 55.367188 130.320312 55.851562 C 130.71875 56.335938 131.09375 56.835938 131.441406 57.359375 C 131.789062 57.878906 132.109375 58.414062 132.40625 58.96875 C 132.699219 59.519531 132.96875 60.085938 133.207031 60.664062 C 133.445312 61.242188 133.65625 61.832031 133.839844 62.429688 C 134.019531 63.03125 134.171875 63.636719 134.296875 64.25 C 134.417969 64.867188 134.507812 65.484375 134.570312 66.109375 C 134.632812 66.730469 134.664062 67.355469 134.664062 67.984375 Z M 115.539062 201.859375 L 77.289062 201.859375 C 75.410156 201.859375 73.535156 201.949219 71.664062 202.132812 C 69.792969 202.320312 67.9375 202.59375 66.09375 202.960938 C 64.25 203.328125 62.429688 203.78125 60.632812 204.328125 C 58.835938 204.875 57.066406 205.507812 55.332031 206.226562 C 53.59375 206.945312 51.898438 207.746094 50.242188 208.632812 C 48.585938 209.519531 46.976562 210.484375 45.414062 211.527344 C 43.851562 212.570312 42.34375 213.6875 40.890625 214.882812 C 39.4375 216.074219 38.046875 217.332031 36.71875 218.664062 C 35.390625 219.992188 34.128906 221.382812 32.9375 222.835938 C 31.746094 224.289062 30.625 225.792969 29.582031 227.355469 C 28.539062 228.917969 27.574219 230.53125 26.6875 232.1875 C 25.800781 233.84375 25 235.539062 24.28125 237.277344 C 23.5625 239.011719 22.929688 240.78125 22.382812 242.578125 C 21.839844 244.375 21.382812 246.195312 21.015625 248.039062 C 20.648438 249.882812 20.375 251.738281 20.1875 253.609375 C 20.003906 255.480469 19.914062 257.355469 19.914062 259.234375 L 19.914062 297.484375 C 19.914062 299.363281 20.003906 301.238281 20.1875 303.105469 C 20.375 304.976562 20.648438 306.832031 21.015625 308.675781 C 21.382812 310.519531 21.839844 312.339844 22.382812 314.136719 C 22.929688 315.9375 23.5625 317.703125 24.28125 319.4375 C 25 321.175781 25.800781 322.871094 26.6875 324.527344 C 27.574219 326.1875 28.539062 327.796875 29.582031 329.359375 C 30.625 330.921875 31.746094 332.429688 32.9375 333.882812 C 34.128906 335.332031 35.390625 336.722656 36.71875 338.054688 C 38.046875 339.382812 39.4375 340.640625 40.890625 341.835938 C 42.34375 343.027344 43.851562 344.144531 45.414062 345.1875 C 46.976562 346.234375 48.585938 347.199219 50.242188 348.082031 C 51.898438 348.96875 53.59375 349.769531 55.332031 350.492188 C 57.066406 351.210938 58.835938 351.84375 60.632812 352.386719 C 62.429688 352.933594 64.25 353.390625 66.09375 353.753906 C 67.9375 354.121094 69.792969 354.398438 71.664062 354.582031 C 73.535156 354.765625 75.410156 354.859375 77.289062 354.859375 L 115.539062 354.859375 C 117.417969 354.859375 119.292969 354.765625 121.160156 354.582031 C 123.03125 354.398438 124.886719 354.121094 126.730469 353.753906 C 128.574219 353.390625 130.394531 352.933594 132.191406 352.386719 C 133.992188 351.84375 135.757812 351.210938 137.496094 350.492188 C 139.230469 349.769531 140.925781 348.96875 142.585938 348.082031 C 144.242188 347.199219 145.851562 346.234375 147.414062 345.1875 C 148.976562 344.144531 150.484375 343.027344 151.9375 341.835938 C 153.390625 340.640625 154.78125 339.382812 156.109375 338.054688 C 157.4375 336.722656 158.699219 335.332031 159.890625 333.882812 C 161.082031 332.429688 162.199219 330.921875 163.242188 329.359375 C 164.289062 327.796875 165.253906 326.1875 166.136719 324.527344 C 167.023438 322.871094 167.828125 321.175781 168.546875 319.4375 C 169.265625 317.703125 169.898438 315.9375 170.441406 314.136719 C 170.988281 312.339844 171.445312 310.519531 171.8125 308.675781 C 172.175781 306.832031 172.453125 304.976562 172.636719 303.105469 C 172.820312 301.238281 172.914062 299.363281 172.914062 297.484375 L 172.914062 259.234375 C 172.914062 257.355469 172.820312 255.480469 172.636719 253.609375 C 172.453125 251.738281 172.175781 249.882812 171.8125 248.039062 C 171.445312 246.195312 170.988281 244.375 170.441406 242.578125 C 169.898438 240.78125 169.265625 239.011719 168.546875 237.277344 C 167.828125 235.539062 167.023438 233.84375 166.136719 232.1875 C 165.253906 230.53125 164.289062 228.917969 163.242188 227.355469 C 162.199219 225.792969 161.082031 224.289062 159.890625 222.835938 C 158.699219 221.382812 157.4375 219.992188 156.109375 218.664062 C 154.78125 217.332031 153.390625 216.074219 151.9375 214.882812 C 150.484375 213.6875 148.976562 212.570312 147.414062 211.527344 C 145.851562 210.484375 144.242188 209.519531 142.585938 208.632812 C 140.925781 207.746094 139.230469 206.945312 137.496094 206.226562 C 135.757812 205.507812 133.992188 204.875 132.191406 204.328125 C 130.394531 203.78125 128.574219 203.328125 126.730469 202.960938 C 124.886719 202.59375 123.03125 202.320312 121.160156 202.132812 C 119.292969 201.949219 117.417969 201.859375 115.539062 201.859375 Z M 134.664062 297.484375 C 134.664062 298.109375 134.632812 298.734375 134.570312 299.359375 C 134.507812 299.980469 134.417969 300.601562 134.296875 301.214844 C 134.171875 301.828125 134.019531 302.433594 133.839844 303.035156 C 133.65625 303.632812 133.445312 304.222656 133.207031 304.800781 C 132.96875 305.378906 132.699219 305.945312 132.40625 306.5 C 132.109375 307.050781 131.789062 307.585938 131.441406 308.109375 C 131.09375 308.628906 130.71875 309.132812 130.320312 309.617188 C 129.925781 310.101562 129.503906 310.5625 129.0625 311.007812 C 128.617188 311.449219 128.15625 311.871094 127.671875 312.265625 C 127.1875 312.664062 126.683594 313.035156 126.164062 313.382812 C 125.644531 313.734375 125.105469 314.054688 124.554688 314.351562 C 124 314.644531 123.4375 314.914062 122.855469 315.152344 C 122.277344 315.390625 121.6875 315.601562 121.089844 315.785156 C 120.492188 315.964844 119.882812 316.117188 119.269531 316.242188 C 118.65625 316.363281 118.035156 316.453125 117.414062 316.515625 C 116.789062 316.578125 116.164062 316.609375 115.539062 316.609375 L 77.289062 316.609375 C 76.660156 316.609375 76.035156 316.578125 75.414062 316.515625 C 74.789062 316.453125 74.171875 316.363281 73.558594 316.242188 C 72.941406 316.117188 72.335938 315.964844 71.738281 315.785156 C 71.136719 315.601562 70.546875 315.390625 69.96875 315.152344 C 69.390625 314.914062 68.824219 314.644531 68.273438 314.351562 C 67.71875 314.054688 67.183594 313.734375 66.664062 313.382812 C 66.140625 313.035156 65.640625 312.664062 65.15625 312.265625 C 64.671875 311.871094 64.207031 311.449219 63.765625 311.007812 C 63.320312 310.5625 62.902344 310.101562 62.503906 309.617188 C 62.105469 309.132812 61.734375 308.628906 61.386719 308.109375 C 61.039062 307.585938 60.714844 307.050781 60.421875 306.5 C 60.125 305.945312 59.859375 305.378906 59.617188 304.800781 C 59.378906 304.222656 59.167969 303.632812 58.988281 303.035156 C 58.804688 302.433594 58.652344 301.828125 58.53125 301.214844 C 58.410156 300.601562 58.316406 299.980469 58.253906 299.359375 C 58.195312 298.734375 58.164062 298.109375 58.164062 297.484375 L 58.164062 259.234375 C 58.164062 258.605469 58.195312 257.980469 58.253906 257.359375 C 58.316406 256.734375 58.410156 256.117188 58.53125 255.5 C 58.652344 254.886719 58.804688 254.28125 58.988281 253.679688 C 59.167969 253.082031 59.378906 252.492188 59.617188 251.914062 C 59.859375 251.335938 60.125 250.769531 60.421875 250.21875 C 60.714844 249.664062 61.039062 249.128906 61.386719 248.609375 C 61.734375 248.085938 62.105469 247.585938 62.503906 247.101562 C 62.902344 246.617188 63.320312 246.152344 63.765625 245.710938 C 64.207031 245.265625 64.671875 244.847656 65.15625 244.449219 C 65.640625 244.050781 66.140625 243.679688 66.664062 243.332031 C 67.183594 242.984375 67.71875 242.660156 68.273438 242.367188 C 68.824219 242.070312 69.390625 241.804688 69.96875 241.5625 C 70.546875 241.324219 71.136719 241.113281 71.738281 240.929688 C 72.335938 240.75 72.941406 240.597656 73.558594 240.476562 C 74.171875 240.351562 74.789062 240.261719 75.414062 240.199219 C 76.035156 240.136719 76.660156 240.109375 77.289062 240.109375 L 115.539062 240.109375 C 116.164062 240.109375 116.789062 240.136719 117.414062 240.199219 C 118.035156 240.261719 118.65625 240.351562 119.269531 240.476562 C 119.882812 240.597656 120.492188 240.75 121.089844 240.929688 C 121.6875 241.113281 122.277344 241.324219 122.855469 241.5625 C 123.4375 241.804688 124 242.070312 124.554688 242.367188 C 125.105469 242.660156 125.644531 242.984375 126.164062 243.332031 C 126.683594 243.679688 127.1875 244.050781 127.671875 244.449219 C 128.15625 244.847656 128.617188 245.265625 129.0625 245.710938 C 129.503906 246.152344 129.925781 246.617188 130.320312 247.101562 C 130.71875 247.585938 131.09375 248.085938 131.441406 248.609375 C 131.789062 249.128906 132.109375 249.664062 132.40625 250.21875 C 132.699219 250.769531 132.96875 251.335938 133.207031 251.914062 C 133.445312 252.492188 133.65625 253.082031 133.839844 253.679688 C 134.019531 254.28125 134.171875 254.886719 134.296875 255.5 C 134.417969 256.117188 134.507812 256.734375 134.570312 257.359375 C 134.632812 257.980469 134.664062 258.605469 134.664062 259.234375 Z M 306.789062 10.609375 L 268.539062 10.609375 C 266.660156 10.609375 264.785156 10.699219 262.914062 10.882812 C 261.042969 11.070312 259.1875 11.34375 257.34375 11.710938 C 255.5 12.078125 253.679688 12.53125 251.882812 13.078125 C 250.085938 13.625 248.316406 14.257812 246.582031 14.976562 C 244.84375 15.695312 243.148438 16.496094 241.492188 17.382812 C 239.835938 18.269531 238.226562 19.234375 236.664062 20.277344 C 235.101562 21.320312 233.59375 22.4375 232.140625 23.632812 C 230.6875 24.824219 229.296875 26.082031 227.96875 27.414062 C 226.640625 28.742188 225.378906 30.132812 224.1875 31.585938 C 222.996094 33.039062 221.875 34.542969 220.832031 36.105469 C 219.789062 37.667969 218.824219 39.28125 217.9375 40.9375 C 217.050781 42.59375 216.25 44.289062 215.53125 46.027344 C 214.8125 47.761719 214.179688 49.53125 213.632812 51.328125 C 213.089844 53.125 212.632812 54.945312 212.265625 56.789062 C 211.898438 58.632812 211.625 60.488281 211.4375 62.359375 C 211.253906 64.230469 211.164062 66.105469 211.164062 67.984375 L 211.164062 106.234375 C 211.164062 108.113281 211.253906 109.988281 211.4375 111.855469 C 211.625 113.726562 211.898438 115.582031 212.265625 117.425781 C 212.632812 119.269531 213.089844 121.089844 213.632812 122.886719 C 214.179688 124.6875 214.8125 126.453125 215.53125 128.1875 C 216.25 129.925781 217.050781 131.621094 217.9375 133.28125 C 218.824219 134.9375 219.789062 136.546875 220.832031 138.109375 C 221.875 139.671875 222.996094 141.179688 224.1875 142.632812 C 225.378906 144.082031 226.640625 145.472656 227.96875 146.804688 C 229.296875 148.132812 230.6875 149.390625 232.140625 150.585938 C 233.59375 151.777344 235.101562 152.894531 236.664062 153.9375 C 238.226562 154.984375 239.835938 155.949219 241.492188 156.832031 C 243.148438 157.71875 244.84375 158.519531 246.582031 159.242188 C 248.316406 159.960938 250.085938 160.59375 251.882812 161.136719 C 253.679688 161.683594 255.5 162.140625 257.34375 162.503906 C 259.1875 162.871094 261.042969 163.148438 262.914062 163.332031 C 264.785156 163.515625 266.660156 163.609375 268.539062 163.609375 L 306.789062 163.609375 C 308.667969 163.609375 310.542969 163.515625 312.410156 163.332031 C 314.28125 163.148438 316.136719 162.871094 317.980469 162.503906 C 319.824219 162.140625 321.644531 161.683594 323.441406 161.136719 C 325.242188 160.59375 327.007812 159.960938 328.746094 159.242188 C 330.480469 158.519531 332.175781 157.71875 333.835938 156.832031 C 335.492188 155.949219 337.101562 154.984375 338.664062 153.9375 C 340.226562 152.894531 341.734375 151.777344 343.1875 150.585938 C 344.640625 149.390625 346.03125 148.132812 347.359375 146.804688 C 348.6875 145.472656 349.949219 144.082031 351.140625 142.632812 C 352.332031 141.179688 353.449219 139.671875 354.492188 138.109375 C 355.539062 136.546875 356.503906 134.9375 357.386719 133.28125 C 358.273438 131.621094 359.078125 129.925781 359.796875 128.1875 C 360.515625 126.453125 361.148438 124.6875 361.691406 122.886719 C 362.238281 121.089844 362.695312 119.269531 363.0625 117.425781 C 363.425781 115.582031 363.703125 113.726562 363.886719 111.855469 C 364.070312 109.988281 364.164062 108.113281 364.164062 106.234375 L 364.164062 67.984375 C 364.164062 66.105469 364.070312 64.230469 363.886719 62.359375 C 363.703125 60.488281 363.425781 58.632812 363.0625 56.789062 C 362.695312 54.945312 362.238281 53.125 361.691406 51.328125 C 361.148438 49.53125 360.515625 47.761719 359.796875 46.027344 C 359.078125 44.289062 358.273438 42.59375 357.386719 40.9375 C 356.503906 39.28125 355.539062 37.667969 354.492188 36.105469 C 353.449219 34.542969 352.332031 33.039062 351.140625 31.585938 C 349.949219 30.132812 348.6875 28.742188 347.359375 27.414062 C 346.03125 26.082031 344.640625 24.824219 343.1875 23.632812 C 341.734375 22.4375 340.226562 21.320312 338.664062 20.277344 C 337.101562 19.234375 335.492188 18.269531 333.835938 17.382812 C 332.175781 16.496094 330.480469 15.695312 328.746094 14.976562 C 327.007812 14.257812 325.242188 13.625 323.441406 13.078125 C 321.644531 12.53125 319.824219 12.078125 317.980469 11.710938 C 316.136719 11.34375 314.28125 11.070312 312.410156 10.882812 C 310.542969 10.699219 308.667969 10.609375 306.789062 10.609375 Z M 325.914062 106.234375 C 325.914062 106.859375 325.882812 107.484375 325.820312 108.109375 C 325.757812 108.730469 325.667969 109.351562 325.546875 109.964844 C 325.421875 110.578125 325.269531 111.183594 325.089844 111.785156 C 324.90625 112.382812 324.695312 112.972656 324.457031 113.550781 C 324.21875 114.128906 323.949219 114.695312 323.65625 115.25 C 323.359375 115.800781 323.039062 116.335938 322.691406 116.859375 C 322.34375 117.378906 321.96875 117.882812 321.570312 118.367188 C 321.175781 118.851562 320.753906 119.3125 320.3125 119.757812 C 319.867188 120.199219 319.40625 120.621094 318.921875 121.015625 C 318.4375 121.414062 317.933594 121.785156 317.414062 122.136719 C 316.894531 122.484375 316.355469 122.804688 315.804688 123.101562 C 315.25 123.394531 314.6875 123.664062 314.105469 123.902344 C 313.527344 124.140625 312.9375 124.351562 312.339844 124.535156 C 311.742188 124.714844 311.132812 124.867188 310.519531 124.992188 C 309.90625 125.113281 309.285156 125.203125 308.664062 125.265625 C 308.039062 125.328125 307.414062 125.359375 306.789062 125.359375 L 268.539062 125.359375 C 267.910156 125.359375 267.285156 125.328125 266.664062 125.265625 C 266.039062 125.203125 265.421875 125.113281 264.808594 124.992188 C 264.191406 124.867188 263.585938 124.714844 262.988281 124.535156 C 262.386719 124.351562 261.796875 124.140625 261.21875 123.902344 C 260.640625 123.664062 260.074219 123.394531 259.523438 123.101562 C 258.96875 122.804688 258.433594 122.484375 257.914062 122.136719 C 257.390625 121.785156 256.890625 121.414062 256.40625 121.015625 C 255.921875 120.621094 255.457031 120.199219 255.015625 119.757812 C 254.570312 119.3125 254.152344 118.851562 253.753906 118.367188 C 253.355469 117.882812 252.984375 117.378906 252.636719 116.859375 C 252.289062 116.335938 251.964844 115.800781 251.671875 115.25 C 251.375 114.695312 251.109375 114.128906 250.867188 113.550781 C 250.628906 112.972656 250.417969 112.382812 250.238281 111.785156 C 250.054688 111.183594 249.902344 110.578125 249.78125 109.964844 C 249.660156 109.351562 249.566406 108.730469 249.503906 108.109375 C 249.445312 107.484375 249.414062 106.859375 249.414062 106.234375 L 249.414062 67.984375 C 249.414062 67.355469 249.445312 66.730469 249.503906 66.109375 C 249.566406 65.484375 249.660156 64.867188 249.78125 64.25 C 249.902344 63.636719 250.054688 63.03125 250.238281 62.429688 C 250.417969 61.832031 250.628906 61.242188 250.867188 60.664062 C 251.109375 60.085938 251.375 59.519531 251.671875 58.96875 C 251.964844 58.414062 252.289062 57.878906 252.636719 57.359375 C 252.984375 56.835938 253.355469 56.335938 253.753906 55.851562 C 254.152344 55.367188 254.570312 54.902344 255.015625 54.460938 C 255.457031 54.015625 255.921875 53.597656 256.40625 53.199219 C 256.890625 52.800781 257.390625 52.429688 257.914062 52.082031 C 258.433594 51.734375 258.96875 51.410156 259.523438 51.117188 C 260.074219 50.820312 260.640625 50.554688 261.21875 50.3125 C 261.796875 50.074219 262.386719 49.863281 262.988281 49.679688 C 263.585938 49.5 264.191406 49.347656 264.808594 49.226562 C 265.421875 49.101562 266.039062 49.011719 266.664062 48.949219 C 267.285156 48.886719 267.910156 48.859375 268.539062 48.859375 L 306.789062 48.859375 C 307.414062 48.859375 308.039062 48.886719 308.664062 48.949219 C 309.285156 49.011719 309.90625 49.101562 310.519531 49.226562 C 311.132812 49.347656 311.742188 49.5 312.339844 49.679688 C 312.9375 49.863281 313.527344 50.074219 314.105469 50.3125 C 314.6875 50.554688 315.25 50.820312 315.804688 51.117188 C 316.355469 51.410156 316.894531 51.734375 317.414062 52.082031 C 317.933594 52.429688 318.4375 52.800781 318.921875 53.199219 C 319.40625 53.597656 319.867188 54.015625 320.3125 54.460938 C 320.753906 54.902344 321.175781 55.367188 321.570312 55.851562 C 321.96875 56.335938 322.34375 56.835938 322.691406 57.359375 C 323.039062 57.878906 323.359375 58.414062 323.65625 58.96875 C 323.949219 59.519531 324.21875 60.085938 324.457031 60.664062 C 324.695312 61.242188 324.90625 61.832031 325.089844 62.429688 C 325.269531 63.03125 325.421875 63.636719 325.546875 64.25 C 325.667969 64.867188 325.757812 65.484375 325.820312 66.109375 C 325.882812 66.730469 325.914062 67.355469 325.914062 67.984375 Z M 364.164062 278.359375 C 364.164062 278.984375 364.132812 279.609375 364.070312 280.234375 C 364.007812 280.855469 363.917969 281.476562 363.796875 282.089844 C 363.671875 282.703125 363.519531 283.308594 363.339844 283.910156 C 363.15625 284.507812 362.945312 285.097656 362.707031 285.675781 C 362.46875 286.253906 362.199219 286.820312 361.90625 287.375 C 361.609375 287.925781 361.289062 288.460938 360.941406 288.984375 C 360.59375 289.503906 360.21875 290.007812 359.820312 290.492188 C 359.425781 290.976562 359.003906 291.4375 358.5625 291.882812 C 358.117188 292.324219 357.65625 292.746094 357.171875 293.140625 C 356.6875 293.539062 356.183594 293.910156 355.664062 294.257812 C 355.140625 294.609375 354.605469 294.929688 354.054688 295.226562 C 353.5 295.519531 352.9375 295.789062 352.355469 296.027344 C 351.777344 296.265625 351.1875 296.476562 350.589844 296.660156 C 349.992188 296.839844 349.382812 296.992188 348.769531 297.117188 C 348.15625 297.238281 347.535156 297.328125 346.914062 297.390625 C 346.289062 297.453125 345.664062 297.484375 345.039062 297.484375 L 306.789062 297.484375 L 306.789062 335.734375 C 306.789062 336.359375 306.757812 336.984375 306.695312 337.609375 C 306.632812 338.230469 306.542969 338.851562 306.421875 339.464844 C 306.296875 340.078125 306.144531 340.683594 305.964844 341.285156 C 305.78125 341.882812 305.570312 342.472656 305.332031 343.050781 C 305.09375 343.628906 304.824219 344.195312 304.53125 344.75 C 304.234375 345.300781 303.914062 345.835938 303.566406 346.359375 C 303.21875 346.878906 302.84375 347.382812 302.445312 347.867188 C 302.050781 348.351562 301.628906 348.8125 301.1875 349.257812 C 300.742188 349.699219 300.28125 350.121094 299.796875 350.515625 C 299.3125 350.914062 298.808594 351.285156 298.289062 351.632812 C 297.769531 351.984375 297.230469 352.304688 296.679688 352.601562 C 296.125 352.894531 295.5625 353.164062 294.980469 353.402344 C 294.402344 353.640625 293.8125 353.851562 293.214844 354.035156 C 292.617188 354.214844 292.007812 354.367188 291.394531 354.492188 C 290.78125 354.613281 290.160156 354.703125 289.539062 354.765625 C 288.914062 354.828125 288.289062 354.859375 287.664062 354.859375 C 287.035156 354.859375 286.410156 354.828125 285.789062 354.765625 C 285.164062 354.703125 284.546875 354.613281 283.933594 354.492188 C 283.316406 354.367188 282.710938 354.214844 282.113281 354.035156 C 281.511719 353.851562 280.921875 353.640625 280.34375 353.402344 C 279.765625 353.164062 279.199219 352.894531 278.648438 352.601562 C 278.09375 352.304688 277.558594 351.984375 277.039062 351.632812 C 276.515625 351.285156 276.015625 350.914062 275.53125 350.515625 C 275.046875 350.121094 274.582031 349.699219 274.140625 349.257812 C 273.695312 348.8125 273.277344 348.351562 272.878906 347.867188 C 272.480469 347.382812 272.109375 346.878906 271.761719 346.359375 C 271.414062 345.835938 271.089844 345.300781 270.796875 344.75 C 270.5 344.195312 270.234375 343.628906 269.992188 343.050781 C 269.753906 342.472656 269.542969 341.882812 269.363281 341.285156 C 269.179688 340.683594 269.027344 340.078125 268.90625 339.464844 C 268.785156 338.851562 268.691406 338.230469 268.628906 337.609375 C 268.570312 336.984375 268.539062 336.359375 268.539062 335.734375 L 268.539062 297.484375 L 230.289062 297.484375 C 229.660156 297.484375 229.035156 297.453125 228.414062 297.390625 C 227.789062 297.328125 227.171875 297.238281 226.558594 297.117188 C 225.941406 296.992188 225.335938 296.839844 224.738281 296.660156 C 224.136719 296.476562 223.546875 296.265625 222.96875 296.027344 C 222.390625 295.789062 221.824219 295.519531 221.273438 295.226562 C 220.71875 294.929688 220.183594 294.609375 219.664062 294.257812 C 219.140625 293.910156 218.640625 293.539062 218.15625 293.140625 C 217.671875 292.746094 217.207031 292.324219 216.765625 291.882812 C 216.320312 291.4375 215.902344 290.976562 215.503906 290.492188 C 215.105469 290.007812 214.734375 289.503906 214.386719 288.984375 C 214.039062 288.460938 213.714844 287.925781 213.421875 287.375 C 213.125 286.820312 212.859375 286.253906 212.617188 285.675781 C 212.378906 285.097656 212.167969 284.507812 211.988281 283.910156 C 211.804688 283.308594 211.652344 282.703125 211.53125 282.089844 C 211.410156 281.476562 211.316406 280.855469 211.253906 280.234375 C 211.195312 279.609375 211.164062 278.984375 211.164062 278.359375 C 211.164062 277.730469 211.195312 277.105469 211.253906 276.484375 C 211.316406 275.859375 211.410156 275.242188 211.53125 274.625 C 211.652344 274.011719 211.804688 273.40625 211.988281 272.804688 C 212.167969 272.207031 212.378906 271.617188 212.617188 271.039062 C 212.859375 270.460938 213.125 269.894531 213.421875 269.34375 C 213.714844 268.789062 214.039062 268.253906 214.386719 267.734375 C 214.734375 267.210938 215.105469 266.710938 215.503906 266.226562 C 215.902344 265.742188 216.320312 265.277344 216.765625 264.835938 C 217.207031 264.390625 217.671875 263.972656 218.15625 263.574219 C 218.640625 263.175781 219.140625 262.804688 219.664062 262.457031 C 220.183594 262.109375 220.71875 261.785156 221.273438 261.492188 C 221.824219 261.195312 222.390625 260.929688 222.96875 260.6875 C 223.546875 260.449219 224.136719 260.238281 224.738281 260.054688 C 225.335938 259.875 225.941406 259.722656 226.558594 259.601562 C 227.171875 259.476562 227.789062 259.386719 228.414062 259.324219 C 229.035156 259.261719 229.660156 259.234375 230.289062 259.234375 L 268.539062 259.234375 L 268.539062 220.984375 C 268.539062 220.355469 268.570312 219.730469 268.628906 219.109375 C 268.691406 218.484375 268.785156 217.867188 268.90625 217.25 C 269.027344 216.636719 269.179688 216.03125 269.363281 215.429688 C 269.542969 214.832031 269.753906 214.242188 269.992188 213.664062 C 270.234375 213.085938 270.5 212.519531 270.796875 211.96875 C 271.089844 211.414062 271.414062 210.878906 271.761719 210.359375 C 272.109375 209.835938 272.480469 209.335938 272.878906 208.851562 C 273.277344 208.367188 273.695312 207.902344 274.140625 207.460938 C 274.582031 207.015625 275.046875 206.597656 275.53125 206.199219 C 276.015625 205.800781 276.515625 205.429688 277.039062 205.082031 C 277.558594 204.734375 278.09375 204.410156 278.648438 204.117188 C 279.199219 203.820312 279.765625 203.554688 280.34375 203.3125 C 280.921875 203.074219 281.511719 202.863281 282.113281 202.679688 C 282.710938 202.5 283.316406 202.347656 283.933594 202.226562 C 284.546875 202.101562 285.164062 202.011719 285.789062 201.949219 C 286.410156 201.886719 287.035156 201.859375 287.664062 201.859375 C 288.289062 201.859375 288.914062 201.886719 289.539062 201.949219 C 290.160156 202.011719 290.78125 202.101562 291.394531 202.226562 C 292.007812 202.347656 292.617188 202.5 293.214844 202.679688 C 293.8125 202.863281 294.402344 203.074219 294.980469 203.3125 C 295.5625 203.554688 296.125 203.820312 296.679688 204.117188 C 297.230469 204.410156 297.769531 204.734375 298.289062 205.082031 C 298.808594 205.429688 299.3125 205.800781 299.796875 206.199219 C 300.28125 206.597656 300.742188 207.015625 301.1875 207.460938 C 301.628906 207.902344 302.050781 208.367188 302.445312 208.851562 C 302.84375 209.335938 303.21875 209.835938 303.566406 210.359375 C 303.914062 210.878906 304.234375 211.414062 304.53125 211.96875 C 304.824219 212.519531 305.09375 213.085938 305.332031 213.664062 C 305.570312 214.242188 305.78125 214.832031 305.964844 215.429688 C 306.144531 216.03125 306.296875 216.636719 306.421875 217.25 C 306.542969 217.867188 306.632812 218.484375 306.695312 219.109375 C 306.757812 219.730469 306.789062 220.355469 306.789062 220.984375 L 306.789062 259.234375 L 345.039062 259.234375 C 345.664062 259.234375 346.289062 259.261719 346.914062 259.324219 C 347.535156 259.386719 348.15625 259.476562 348.769531 259.601562 C 349.382812 259.722656 349.992188 259.875 350.589844 260.054688 C 351.1875 260.238281 351.777344 260.449219 352.355469 260.6875 C 352.9375 260.929688 353.5 261.195312 354.054688 261.492188 C 354.605469 261.785156 355.140625 262.109375 355.664062 262.457031 C 356.183594 262.804688 356.6875 263.175781 357.171875 263.574219 C 357.65625 263.972656 358.117188 264.390625 358.5625 264.835938 C 359.003906 265.277344 359.425781 265.742188 359.820312 266.226562 C 360.21875 266.710938 360.59375 267.210938 360.941406 267.734375 C 361.289062 268.253906 361.609375 268.789062 361.90625 269.34375 C 362.199219 269.894531 362.46875 270.460938 362.707031 271.039062 C 362.945312 271.617188 363.15625 272.207031 363.339844 272.804688 C 363.519531 273.40625 363.671875 274.011719 363.796875 274.625 C 363.917969 275.242188 364.007812 275.859375 364.070312 276.484375 C 364.132812 277.105469 364.164062 277.730469 364.164062 278.359375 Z M 364.164062 278.359375 "/>
</g>
</g>
</svg>
