<?xml version="1.0" encoding="UTF-8"?>
<svg xmlns="http://www.w3.org/2000/svg" xmlns:xlink="http://www.w3.org/1999/xlink" width="375pt" height="374.999991pt" viewBox="0 0 375 374.999991" version="1.2">
<defs>
<clipPath id="clip1">
  <path d="M 9.777344 9.777344 L 363.777344 9.777344 L 363.777344 363.777344 L 9.777344 363.777344 Z M 9.777344 9.777344 "/>
</clipPath>
</defs>
<g id="surface1">
<g clip-path="url(#clip1)" clip-rule="nonzero">
<path style=" stroke:none;fill-rule:nonzero;fill:rgb(100%,100%,100%);fill-opacity:1;" d="M 186.777344 9.800781 C 89.1875 9.800781 9.800781 89.1875 9.800781 186.777344 C 9.800781 284.367188 89.1875 363.757812 186.777344 363.757812 C 284.359375 363.757812 363.757812 284.367188 363.757812 186.777344 C 363.757812 89.1875 284.359375 9.800781 186.777344 9.800781 Z M 266.109375 199.605469 L 201.476562 199.605469 L 201.476562 262.378906 C 201.476562 269.464844 195.730469 275.207031 188.652344 275.207031 C 181.5625 275.207031 175.824219 269.464844 175.824219 262.378906 L 175.824219 199.605469 L 111.183594 199.605469 C 104.09375 199.605469 98.355469 193.863281 98.355469 186.777344 C 98.355469 179.695312 104.09375 173.953125 111.183594 173.953125 L 175.820312 173.953125 L 175.820312 107.449219 C 175.820312 100.363281 181.558594 94.625 188.648438 94.625 C 195.726562 94.625 201.472656 100.363281 201.472656 107.449219 L 201.472656 173.953125 L 266.105469 173.953125 C 273.183594 173.953125 278.929688 179.695312 278.929688 186.777344 C 278.929688 193.863281 273.1875 199.605469 266.109375 199.605469 Z M 266.109375 199.605469 "/>
</g>
</g>
</svg>
