<?xml version="1.0" encoding="UTF-8"?>
<svg xmlns="http://www.w3.org/2000/svg" xmlns:xlink="http://www.w3.org/1999/xlink" width="375pt" height="374.999991pt" viewBox="0 0 375 374.999991" version="1.2">
<defs>
<clipPath id="clip1">
  <path d="M 107 0 L 367.921875 0 L 367.921875 375 L 107 375 Z M 107 0 "/>
</clipPath>
<clipPath id="clip2">
  <path d="M 12.421875 178 L 216 178 L 216 375 L 12.421875 375 Z M 12.421875 178 "/>
</clipPath>
</defs>
<g id="surface1">
<g clip-path="url(#clip1)" clip-rule="nonzero">
<path style=" stroke:none;fill-rule:nonzero;fill:rgb(100%,100%,100%);fill-opacity:1;" d="M 329.539062 381 L 114.152344 381 C 113.738281 381 113.324219 380.960938 112.917969 380.878906 C 112.507812 380.796875 112.113281 380.675781 111.730469 380.515625 C 111.34375 380.359375 110.980469 380.164062 110.632812 379.929688 C 110.289062 379.699219 109.96875 379.4375 109.671875 379.144531 C 109.378906 378.847656 109.117188 378.527344 108.886719 378.183594 C 108.65625 377.835938 108.460938 377.472656 108.300781 377.085938 C 108.140625 376.703125 108.019531 376.304688 107.941406 375.898438 C 107.859375 375.488281 107.816406 375.078125 107.816406 374.660156 C 107.816406 374.246094 107.859375 373.832031 107.941406 373.421875 C 108.019531 373.015625 108.140625 372.617188 108.300781 372.234375 C 108.460938 371.851562 108.65625 371.484375 108.886719 371.136719 C 109.117188 370.792969 109.378906 370.472656 109.671875 370.179688 C 109.96875 369.882812 110.289062 369.621094 110.632812 369.390625 C 110.980469 369.15625 111.34375 368.964844 111.730469 368.804688 C 112.113281 368.644531 112.507812 368.523438 112.917969 368.441406 C 113.324219 368.363281 113.738281 368.320312 114.152344 368.320312 L 329.539062 368.320312 C 330.371094 368.320312 331.199219 368.28125 332.023438 368.199219 C 332.847656 368.117188 333.667969 367.996094 334.484375 367.832031 C 335.296875 367.671875 336.101562 367.46875 336.894531 367.230469 C 337.6875 366.988281 338.46875 366.707031 339.238281 366.390625 C 340.003906 366.074219 340.753906 365.71875 341.484375 365.328125 C 342.214844 364.933594 342.925781 364.507812 343.617188 364.046875 C 344.308594 363.585938 344.972656 363.09375 345.613281 362.566406 C 346.257812 362.039062 346.871094 361.480469 347.457031 360.894531 C 348.042969 360.308594 348.601562 359.691406 349.128906 359.050781 C 349.652344 358.40625 350.148438 357.742188 350.609375 357.050781 C 351.070312 356.359375 351.496094 355.648438 351.886719 354.917969 C 352.277344 354.183594 352.632812 353.433594 352.949219 352.667969 C 353.269531 351.898438 353.546875 351.117188 353.789062 350.324219 C 354.027344 349.53125 354.230469 348.726562 354.390625 347.910156 C 354.554688 347.097656 354.675781 346.273438 354.757812 345.449219 C 354.839844 344.621094 354.878906 343.792969 354.878906 342.964844 L 354.878906 38.671875 C 354.878906 37.839844 354.839844 37.011719 354.757812 36.183594 C 354.675781 35.359375 354.554688 34.539062 354.390625 33.722656 C 354.230469 32.910156 354.027344 32.105469 353.789062 31.308594 C 353.546875 30.515625 353.269531 29.734375 352.949219 28.964844 C 352.632812 28.199219 352.277344 27.449219 351.886719 26.71875 C 351.496094 25.984375 351.070312 25.273438 350.609375 24.582031 C 350.148438 23.890625 349.652344 23.226562 349.128906 22.582031 C 348.601562 21.941406 348.042969 21.328125 347.457031 20.738281 C 346.871094 20.152344 346.257812 19.59375 345.613281 19.070312 C 344.972656 18.542969 344.308594 18.046875 343.617188 17.585938 C 342.925781 17.125 342.214844 16.699219 341.484375 16.308594 C 340.753906 15.914062 340.003906 15.5625 339.238281 15.242188 C 338.46875 14.925781 337.6875 14.644531 336.894531 14.40625 C 336.101562 14.164062 335.296875 13.960938 334.484375 13.800781 C 333.667969 13.636719 332.847656 13.515625 332.023438 13.433594 C 331.199219 13.351562 330.371094 13.3125 329.539062 13.3125 L 177.503906 13.3125 C 177.085938 13.3125 176.675781 13.273438 176.265625 13.191406 C 175.859375 13.109375 175.460938 12.988281 175.078125 12.832031 C 174.695312 12.671875 174.328125 12.476562 173.984375 12.246094 C 173.636719 12.011719 173.316406 11.75 173.023438 11.457031 C 172.726562 11.160156 172.464844 10.839844 172.234375 10.496094 C 172.003906 10.148438 171.808594 9.785156 171.648438 9.398438 C 171.488281 9.015625 171.371094 8.617188 171.289062 8.210938 C 171.207031 7.800781 171.167969 7.390625 171.167969 6.972656 C 171.167969 6.558594 171.207031 6.144531 171.289062 5.738281 C 171.371094 5.328125 171.488281 4.933594 171.648438 4.546875 C 171.808594 4.164062 172.003906 3.796875 172.234375 3.453125 C 172.464844 3.105469 172.726562 2.785156 173.023438 2.492188 C 173.316406 2.195312 173.636719 1.933594 173.984375 1.703125 C 174.328125 1.472656 174.695312 1.277344 175.078125 1.117188 C 175.460938 0.957031 175.859375 0.835938 176.265625 0.753906 C 176.675781 0.675781 177.085938 0.632812 177.503906 0.632812 L 329.539062 0.632812 C 330.785156 0.636719 332.027344 0.699219 333.265625 0.820312 C 334.503906 0.945312 335.730469 1.128906 336.953125 1.371094 C 338.171875 1.613281 339.378906 1.917969 340.570312 2.28125 C 341.757812 2.640625 342.929688 3.0625 344.078125 3.539062 C 345.230469 4.015625 346.351562 4.550781 347.449219 5.136719 C 348.546875 5.722656 349.613281 6.363281 350.648438 7.054688 C 351.683594 7.75 352.679688 8.488281 353.640625 9.28125 C 354.605469 10.070312 355.523438 10.90625 356.40625 11.785156 C 357.285156 12.667969 358.121094 13.589844 358.910156 14.550781 C 359.699219 15.511719 360.441406 16.511719 361.132812 17.546875 C 361.824219 18.582031 362.460938 19.648438 363.050781 20.746094 C 363.636719 21.847656 364.167969 22.96875 364.644531 24.121094 C 365.121094 25.269531 365.542969 26.441406 365.902344 27.632812 C 366.265625 28.824219 366.570312 30.03125 366.8125 31.253906 C 367.054688 32.472656 367.238281 33.703125 367.363281 34.945312 C 367.484375 36.183594 367.546875 37.425781 367.550781 38.671875 L 367.550781 342.964844 C 367.546875 344.207031 367.484375 345.449219 367.363281 346.691406 C 367.238281 347.929688 367.054688 349.160156 366.8125 350.382812 C 366.570312 351.601562 366.265625 352.808594 365.902344 354 C 365.542969 355.191406 365.121094 356.363281 364.644531 357.511719 C 364.167969 358.664062 363.636719 359.789062 363.050781 360.886719 C 362.460938 361.984375 361.824219 363.050781 361.132812 364.085938 C 360.441406 365.121094 359.699219 366.121094 358.910156 367.082031 C 358.121094 368.046875 357.285156 368.96875 356.40625 369.847656 C 355.523438 370.730469 354.605469 371.5625 353.640625 372.355469 C 352.679688 373.144531 351.683594 373.886719 350.648438 374.578125 C 349.613281 375.269531 348.546875 375.910156 347.449219 376.496094 C 346.351562 377.085938 345.230469 377.617188 344.078125 378.09375 C 342.929688 378.570312 341.757812 378.992188 340.570312 379.355469 C 339.378906 379.714844 338.171875 380.019531 336.953125 380.261719 C 335.730469 380.507812 334.503906 380.691406 333.265625 380.8125 C 332.027344 380.9375 330.785156 381 329.539062 381 Z M 329.539062 381 "/>
</g>
<path style=" stroke:none;fill-rule:nonzero;fill:rgb(100%,100%,100%);fill-opacity:1;" d="M 82.480469 190.816406 C 82.0625 190.816406 81.652344 190.777344 81.242188 190.695312 C 80.835938 190.613281 80.4375 190.492188 80.054688 190.335938 C 79.671875 190.175781 79.304688 189.980469 78.960938 189.75 C 78.613281 189.515625 78.292969 189.253906 78 188.960938 C 77.707031 188.664062 77.441406 188.34375 77.210938 188 C 76.980469 187.652344 76.785156 187.289062 76.625 186.902344 C 76.464844 186.519531 76.347656 186.121094 76.265625 185.714844 C 76.183594 185.304688 76.144531 184.894531 76.144531 184.476562 L 76.144531 102.066406 C 76.144531 101.648438 76.183594 101.238281 76.265625 100.828125 C 76.347656 100.417969 76.464844 100.023438 76.625 99.640625 C 76.785156 99.253906 76.980469 98.890625 77.210938 98.542969 C 77.441406 98.195312 77.707031 97.875 78 97.582031 C 78.292969 97.289062 78.613281 97.023438 78.960938 96.792969 C 79.304688 96.5625 79.671875 96.367188 80.054688 96.207031 C 80.4375 96.046875 80.835938 95.929688 81.242188 95.847656 C 81.652344 95.765625 82.0625 95.726562 82.480469 95.726562 C 82.894531 95.726562 83.304688 95.765625 83.714844 95.847656 C 84.121094 95.929688 84.519531 96.046875 84.902344 96.207031 C 85.289062 96.367188 85.652344 96.5625 86 96.792969 C 86.34375 97.023438 86.664062 97.289062 86.957031 97.582031 C 87.253906 97.875 87.515625 98.195312 87.746094 98.542969 C 87.976562 98.890625 88.171875 99.253906 88.332031 99.640625 C 88.492188 100.023438 88.609375 100.417969 88.691406 100.828125 C 88.773438 101.238281 88.8125 101.648438 88.8125 102.066406 L 88.8125 184.476562 C 88.8125 184.894531 88.773438 185.304688 88.691406 185.714844 C 88.609375 186.121094 88.492188 186.519531 88.332031 186.902344 C 88.171875 187.289062 87.976562 187.652344 87.746094 188 C 87.515625 188.34375 87.253906 188.664062 86.957031 188.960938 C 86.664062 189.253906 86.34375 189.515625 86 189.75 C 85.652344 189.980469 85.289062 190.175781 84.902344 190.335938 C 84.519531 190.492188 84.121094 190.613281 83.714844 190.695312 C 83.304688 190.777344 82.894531 190.816406 82.480469 190.816406 Z M 82.480469 190.816406 "/>
<path style=" stroke:none;fill-rule:nonzero;fill:rgb(100%,100%,100%);fill-opacity:1;" d="M 158.496094 108.40625 L 82.480469 108.40625 C 81.851562 108.402344 81.238281 108.3125 80.640625 108.132812 C 80.039062 107.949219 79.480469 107.683594 78.960938 107.335938 C 78.4375 106.988281 77.980469 106.570312 77.582031 106.085938 C 77.183594 105.601562 76.867188 105.070312 76.628906 104.492188 C 76.386719 103.910156 76.238281 103.308594 76.175781 102.6875 C 76.113281 102.0625 76.144531 101.441406 76.265625 100.828125 C 76.390625 100.214844 76.597656 99.628906 76.894531 99.078125 C 77.1875 98.523438 77.558594 98.027344 78 97.582031 L 173.023438 2.492188 C 173.464844 2.046875 173.964844 1.679688 174.515625 1.382812 C 175.070312 1.089844 175.652344 0.878906 176.265625 0.757812 C 176.882812 0.636719 177.5 0.605469 178.125 0.664062 C 178.746094 0.726562 179.347656 0.878906 179.925781 1.117188 C 180.503906 1.359375 181.035156 1.675781 181.519531 2.074219 C 182.003906 2.472656 182.421875 2.929688 182.769531 3.453125 C 183.117188 3.972656 183.382812 4.535156 183.5625 5.132812 C 183.746094 5.734375 183.835938 6.347656 183.835938 6.972656 L 183.835938 83.046875 C 183.863281 83.882812 183.84375 84.71875 183.78125 85.554688 C 183.722656 86.390625 183.617188 87.21875 183.472656 88.042969 C 183.328125 88.867188 183.140625 89.683594 182.914062 90.488281 C 182.683594 91.296875 182.417969 92.085938 182.109375 92.867188 C 181.800781 93.644531 181.453125 94.402344 181.066406 95.148438 C 180.679688 95.890625 180.253906 96.609375 179.796875 97.308594 C 179.335938 98.011719 178.84375 98.683594 178.3125 99.332031 C 177.785156 99.984375 177.226562 100.605469 176.632812 101.195312 C 176.042969 101.789062 175.421875 102.347656 174.773438 102.878906 C 174.125 103.40625 173.449219 103.902344 172.75 104.359375 C 172.050781 104.820312 171.332031 105.242188 170.589844 105.628906 C 169.847656 106.015625 169.085938 106.363281 168.308594 106.675781 C 167.53125 106.984375 166.742188 107.25 165.933594 107.480469 C 165.128906 107.707031 164.316406 107.894531 163.492188 108.039062 C 162.667969 108.1875 161.839844 108.289062 161.003906 108.351562 C 160.167969 108.410156 159.332031 108.429688 158.496094 108.40625 Z M 97.769531 95.726562 L 158.496094 95.726562 C 158.917969 95.753906 159.339844 95.757812 159.765625 95.742188 C 160.1875 95.722656 160.605469 95.683594 161.023438 95.621094 C 161.441406 95.558594 161.855469 95.472656 162.265625 95.367188 C 162.675781 95.261719 163.078125 95.132812 163.472656 94.984375 C 163.867188 94.835938 164.253906 94.664062 164.632812 94.476562 C 165.011719 94.285156 165.375 94.074219 165.730469 93.847656 C 166.085938 93.617188 166.429688 93.367188 166.757812 93.101562 C 167.085938 92.835938 167.402344 92.554688 167.699219 92.257812 C 168 91.957031 168.28125 91.644531 168.546875 91.3125 C 168.8125 90.984375 169.058594 90.640625 169.289062 90.285156 C 169.519531 89.929688 169.726562 89.5625 169.917969 89.1875 C 170.109375 88.808594 170.277344 88.421875 170.425781 88.027344 C 170.574219 87.628906 170.703125 87.226562 170.808594 86.816406 C 170.914062 86.40625 171 85.992188 171.0625 85.574219 C 171.125 85.15625 171.164062 84.738281 171.183594 84.3125 C 171.199219 83.890625 171.195312 83.46875 171.167969 83.046875 L 171.167969 22.277344 Z M 97.769531 95.726562 "/>
<path style=" stroke:none;fill-rule:nonzero;fill:rgb(100%,100%,100%);fill-opacity:1;" d="M 304.199219 203.496094 L 209.175781 203.496094 C 208.761719 203.496094 208.347656 203.457031 207.941406 203.375 C 207.53125 203.292969 207.136719 203.171875 206.753906 203.011719 C 206.367188 202.855469 206.003906 202.660156 205.65625 202.425781 C 205.3125 202.195312 204.992188 201.933594 204.695312 201.640625 C 204.402344 201.34375 204.140625 201.023438 203.910156 200.679688 C 203.679688 200.332031 203.484375 199.96875 203.324219 199.582031 C 203.164062 199.199219 203.042969 198.800781 202.964844 198.394531 C 202.882812 197.984375 202.839844 197.574219 202.839844 197.15625 C 202.839844 196.738281 202.882812 196.328125 202.964844 195.917969 C 203.042969 195.511719 203.164062 195.113281 203.324219 194.730469 C 203.484375 194.347656 203.679688 193.980469 203.910156 193.632812 C 204.140625 193.289062 204.402344 192.96875 204.695312 192.671875 C 204.992188 192.378906 205.3125 192.117188 205.65625 191.886719 C 206.003906 191.652344 206.367188 191.457031 206.753906 191.300781 C 207.136719 191.140625 207.53125 191.019531 207.941406 190.9375 C 208.347656 190.859375 208.761719 190.816406 209.175781 190.816406 L 304.199219 190.816406 C 304.617188 190.816406 305.027344 190.859375 305.4375 190.9375 C 305.84375 191.019531 306.238281 191.140625 306.625 191.300781 C 307.007812 191.457031 307.375 191.652344 307.71875 191.886719 C 308.066406 192.117188 308.386719 192.378906 308.679688 192.671875 C 308.972656 192.96875 309.234375 193.289062 309.46875 193.632812 C 309.699219 193.980469 309.894531 194.347656 310.050781 194.730469 C 310.210938 195.113281 310.332031 195.511719 310.414062 195.917969 C 310.496094 196.328125 310.535156 196.738281 310.535156 197.15625 C 310.535156 197.574219 310.496094 197.984375 310.414062 198.394531 C 310.332031 198.800781 310.210938 199.199219 310.050781 199.582031 C 309.894531 199.96875 309.699219 200.332031 309.46875 200.679688 C 309.234375 201.023438 308.972656 201.34375 308.679688 201.640625 C 308.386719 201.933594 308.066406 202.195312 307.71875 202.425781 C 307.375 202.660156 307.007812 202.855469 306.625 203.011719 C 306.238281 203.171875 305.84375 203.292969 305.4375 203.375 C 305.027344 203.457031 304.617188 203.496094 304.199219 203.496094 Z M 304.199219 203.496094 "/>
<path style=" stroke:none;fill-rule:nonzero;fill:rgb(100%,100%,100%);fill-opacity:1;" d="M 304.199219 241.53125 L 234.515625 241.53125 C 234.101562 241.53125 233.6875 241.492188 233.28125 241.410156 C 232.871094 241.328125 232.476562 241.210938 232.09375 241.050781 C 231.707031 240.890625 231.34375 240.695312 230.996094 240.464844 C 230.652344 240.234375 230.332031 239.96875 230.035156 239.675781 C 229.742188 239.382812 229.480469 239.0625 229.25 238.714844 C 229.019531 238.367188 228.824219 238.003906 228.664062 237.617188 C 228.503906 237.234375 228.382812 236.839844 228.304688 236.429688 C 228.222656 236.023438 228.179688 235.609375 228.179688 235.191406 C 228.179688 234.777344 228.222656 234.363281 228.304688 233.957031 C 228.382812 233.546875 228.503906 233.152344 228.664062 232.765625 C 228.824219 232.382812 229.019531 232.015625 229.25 231.671875 C 229.480469 231.324219 229.742188 231.003906 230.035156 230.710938 C 230.332031 230.414062 230.652344 230.152344 230.996094 229.921875 C 231.34375 229.691406 231.707031 229.496094 232.09375 229.335938 C 232.476562 229.175781 232.871094 229.054688 233.28125 228.976562 C 233.6875 228.894531 234.101562 228.855469 234.515625 228.855469 L 304.199219 228.855469 C 304.617188 228.855469 305.027344 228.894531 305.4375 228.976562 C 305.84375 229.054688 306.238281 229.175781 306.625 229.335938 C 307.007812 229.496094 307.375 229.691406 307.71875 229.921875 C 308.066406 230.152344 308.386719 230.414062 308.679688 230.710938 C 308.972656 231.003906 309.234375 231.324219 309.46875 231.671875 C 309.699219 232.015625 309.894531 232.382812 310.050781 232.765625 C 310.210938 233.152344 310.332031 233.546875 310.414062 233.957031 C 310.496094 234.363281 310.535156 234.777344 310.535156 235.191406 C 310.535156 235.609375 310.496094 236.023438 310.414062 236.429688 C 310.332031 236.839844 310.210938 237.234375 310.050781 237.617188 C 309.894531 238.003906 309.699219 238.367188 309.46875 238.714844 C 309.234375 239.0625 308.972656 239.382812 308.679688 239.675781 C 308.386719 239.96875 308.066406 240.234375 307.71875 240.464844 C 307.375 240.695312 307.007812 240.890625 306.625 241.050781 C 306.238281 241.210938 305.84375 241.328125 305.4375 241.410156 C 305.027344 241.492188 304.617188 241.53125 304.199219 241.53125 Z M 304.199219 241.53125 "/>
<path style=" stroke:none;fill-rule:nonzero;fill:rgb(100%,100%,100%);fill-opacity:1;" d="M 304.199219 279.570312 L 234.515625 279.570312 C 234.101562 279.570312 233.6875 279.527344 233.28125 279.445312 C 232.871094 279.367188 232.476562 279.246094 232.09375 279.085938 C 231.707031 278.925781 231.34375 278.730469 230.996094 278.5 C 230.652344 278.269531 230.332031 278.007812 230.035156 277.710938 C 229.742188 277.417969 229.480469 277.097656 229.25 276.75 C 229.019531 276.40625 228.824219 276.039062 228.664062 275.65625 C 228.503906 275.269531 228.382812 274.875 228.304688 274.464844 C 228.222656 274.058594 228.179688 273.644531 228.179688 273.230469 C 228.179688 272.8125 228.222656 272.402344 228.304688 271.992188 C 228.382812 271.585938 228.503906 271.1875 228.664062 270.804688 C 228.824219 270.417969 229.019531 270.054688 229.25 269.707031 C 229.480469 269.363281 229.742188 269.042969 230.035156 268.746094 C 230.332031 268.453125 230.652344 268.191406 230.996094 267.957031 C 231.34375 267.726562 231.707031 267.53125 232.09375 267.371094 C 232.476562 267.214844 232.871094 267.09375 233.28125 267.011719 C 233.6875 266.929688 234.101562 266.890625 234.515625 266.890625 L 304.199219 266.890625 C 304.617188 266.890625 305.027344 266.929688 305.4375 267.011719 C 305.84375 267.09375 306.238281 267.214844 306.625 267.371094 C 307.007812 267.53125 307.375 267.726562 307.71875 267.957031 C 308.066406 268.191406 308.386719 268.453125 308.679688 268.746094 C 308.972656 269.042969 309.234375 269.363281 309.46875 269.707031 C 309.699219 270.054688 309.894531 270.417969 310.050781 270.804688 C 310.210938 271.1875 310.332031 271.585938 310.414062 271.992188 C 310.496094 272.402344 310.535156 272.8125 310.535156 273.230469 C 310.535156 273.644531 310.496094 274.058594 310.414062 274.464844 C 310.332031 274.875 310.210938 275.269531 310.050781 275.65625 C 309.894531 276.039062 309.699219 276.40625 309.46875 276.75 C 309.234375 277.097656 308.972656 277.417969 308.679688 277.710938 C 308.386719 278.007812 308.066406 278.269531 307.71875 278.5 C 307.375 278.730469 307.007812 278.925781 306.625 279.085938 C 306.238281 279.246094 305.84375 279.367188 305.4375 279.445312 C 305.027344 279.527344 304.617188 279.570312 304.199219 279.570312 Z M 304.199219 279.570312 "/>
<path style=" stroke:none;fill-rule:nonzero;fill:rgb(100%,100%,100%);fill-opacity:1;" d="M 304.199219 317.605469 L 228.179688 317.605469 C 227.765625 317.605469 227.351562 317.566406 226.945312 317.484375 C 226.539062 317.402344 226.140625 317.28125 225.757812 317.121094 C 225.371094 316.964844 225.007812 316.769531 224.660156 316.539062 C 224.316406 316.304688 223.996094 316.042969 223.703125 315.75 C 223.40625 315.453125 223.144531 315.132812 222.914062 314.789062 C 222.683594 314.441406 222.488281 314.078125 222.328125 313.691406 C 222.167969 313.308594 222.050781 312.910156 221.96875 312.503906 C 221.886719 312.09375 221.847656 311.683594 221.847656 311.265625 C 221.847656 310.851562 221.886719 310.4375 221.96875 310.03125 C 222.050781 309.621094 222.167969 309.226562 222.328125 308.839844 C 222.488281 308.457031 222.683594 308.089844 222.914062 307.746094 C 223.144531 307.398438 223.40625 307.078125 223.703125 306.785156 C 223.996094 306.488281 224.316406 306.226562 224.660156 305.996094 C 225.007812 305.765625 225.371094 305.570312 225.757812 305.410156 C 226.140625 305.25 226.539062 305.128906 226.945312 305.046875 C 227.351562 304.96875 227.765625 304.925781 228.179688 304.925781 L 304.199219 304.925781 C 304.617188 304.925781 305.027344 304.96875 305.4375 305.046875 C 305.84375 305.128906 306.238281 305.25 306.625 305.410156 C 307.007812 305.570312 307.375 305.765625 307.71875 305.996094 C 308.066406 306.226562 308.386719 306.488281 308.679688 306.785156 C 308.972656 307.078125 309.234375 307.398438 309.46875 307.746094 C 309.699219 308.089844 309.894531 308.457031 310.050781 308.839844 C 310.210938 309.226562 310.332031 309.621094 310.414062 310.03125 C 310.496094 310.4375 310.535156 310.851562 310.535156 311.265625 C 310.535156 311.683594 310.496094 312.09375 310.414062 312.503906 C 310.332031 312.910156 310.210938 313.308594 310.050781 313.691406 C 309.894531 314.078125 309.699219 314.441406 309.46875 314.789062 C 309.234375 315.132812 308.972656 315.453125 308.679688 315.75 C 308.386719 316.042969 308.066406 316.304688 307.71875 316.539062 C 307.375 316.769531 307.007812 316.964844 306.625 317.121094 C 306.238281 317.28125 305.84375 317.402344 305.4375 317.484375 C 305.027344 317.566406 304.617188 317.605469 304.199219 317.605469 Z M 304.199219 317.605469 "/>
<path style=" stroke:none;fill-rule:nonzero;fill:rgb(100%,100%,100%);fill-opacity:1;" d="M 310.535156 159.121094 C 310.535156 159.535156 310.496094 159.949219 310.414062 160.355469 C 310.332031 160.765625 310.210938 161.160156 310.050781 161.546875 C 309.894531 161.929688 309.699219 162.296875 309.46875 162.640625 C 309.234375 162.988281 308.972656 163.308594 308.679688 163.601562 C 308.386719 163.898438 308.066406 164.160156 307.71875 164.390625 C 307.375 164.621094 307.007812 164.816406 306.625 164.976562 C 306.238281 165.136719 305.84375 165.257812 305.4375 165.335938 C 305.027344 165.417969 304.617188 165.460938 304.199219 165.460938 C 303.785156 165.460938 303.371094 165.417969 302.964844 165.335938 C 302.554688 165.257812 302.160156 165.136719 301.777344 164.976562 C 301.390625 164.816406 301.027344 164.621094 300.679688 164.390625 C 300.335938 164.160156 300.015625 163.898438 299.71875 163.601562 C 299.425781 163.308594 299.164062 162.988281 298.933594 162.640625 C 298.703125 162.296875 298.507812 161.929688 298.347656 161.546875 C 298.1875 161.160156 298.066406 160.765625 297.988281 160.355469 C 297.90625 159.949219 297.863281 159.535156 297.863281 159.121094 C 297.863281 158.703125 297.90625 158.292969 297.988281 157.882812 C 298.066406 157.476562 298.1875 157.078125 298.347656 156.695312 C 298.507812 156.308594 298.703125 155.945312 298.933594 155.597656 C 299.164062 155.25 299.425781 154.929688 299.71875 154.636719 C 300.015625 154.34375 300.335938 154.078125 300.679688 153.847656 C 301.027344 153.617188 301.390625 153.421875 301.777344 153.261719 C 302.160156 153.105469 302.554688 152.984375 302.964844 152.902344 C 303.371094 152.820312 303.785156 152.78125 304.199219 152.78125 C 304.617188 152.78125 305.027344 152.820312 305.4375 152.902344 C 305.84375 152.984375 306.238281 153.105469 306.625 153.261719 C 307.007812 153.421875 307.375 153.617188 307.71875 153.847656 C 308.066406 154.078125 308.386719 154.34375 308.679688 154.636719 C 308.972656 154.929688 309.234375 155.25 309.46875 155.597656 C 309.699219 155.945312 309.894531 156.308594 310.050781 156.695312 C 310.210938 157.078125 310.332031 157.476562 310.414062 157.882812 C 310.496094 158.292969 310.535156 158.703125 310.535156 159.121094 Z M 310.535156 159.121094 "/>
<path style=" stroke:none;fill-rule:nonzero;fill:rgb(100%,100%,100%);fill-opacity:1;" d="M 285.195312 159.121094 C 285.195312 159.535156 285.15625 159.949219 285.074219 160.355469 C 284.992188 160.765625 284.871094 161.160156 284.714844 161.546875 C 284.554688 161.929688 284.359375 162.296875 284.128906 162.640625 C 283.898438 162.988281 283.632812 163.308594 283.339844 163.601562 C 283.046875 163.898438 282.726562 164.160156 282.378906 164.390625 C 282.035156 164.621094 281.667969 164.816406 281.285156 164.976562 C 280.898438 165.136719 280.503906 165.257812 280.097656 165.335938 C 279.6875 165.417969 279.277344 165.460938 278.859375 165.460938 C 278.445312 165.460938 278.03125 165.417969 277.625 165.335938 C 277.214844 165.257812 276.820312 165.136719 276.4375 164.976562 C 276.050781 164.816406 275.6875 164.621094 275.339844 164.390625 C 274.996094 164.160156 274.675781 163.898438 274.382812 163.601562 C 274.085938 163.308594 273.824219 162.988281 273.59375 162.640625 C 273.363281 162.296875 273.167969 161.929688 273.007812 161.546875 C 272.847656 161.160156 272.726562 160.765625 272.648438 160.355469 C 272.566406 159.949219 272.527344 159.535156 272.527344 159.121094 C 272.527344 158.703125 272.566406 158.292969 272.648438 157.882812 C 272.726562 157.476562 272.847656 157.078125 273.007812 156.695312 C 273.167969 156.308594 273.363281 155.945312 273.59375 155.597656 C 273.824219 155.25 274.085938 154.929688 274.382812 154.636719 C 274.675781 154.34375 274.996094 154.078125 275.339844 153.847656 C 275.6875 153.617188 276.050781 153.421875 276.4375 153.261719 C 276.820312 153.105469 277.214844 152.984375 277.625 152.902344 C 278.03125 152.820312 278.445312 152.78125 278.859375 152.78125 C 279.277344 152.78125 279.6875 152.820312 280.097656 152.902344 C 280.503906 152.984375 280.898438 153.105469 281.285156 153.261719 C 281.667969 153.421875 282.035156 153.617188 282.378906 153.847656 C 282.726562 154.078125 283.046875 154.34375 283.339844 154.636719 C 283.632812 154.929688 283.898438 155.25 284.128906 155.597656 C 284.359375 155.945312 284.554688 156.308594 284.714844 156.695312 C 284.871094 157.078125 284.992188 157.476562 285.074219 157.882812 C 285.15625 158.292969 285.195312 158.703125 285.195312 159.121094 Z M 285.195312 159.121094 "/>
<path style=" stroke:none;fill-rule:nonzero;fill:rgb(100%,100%,100%);fill-opacity:1;" d="M 247.1875 133.761719 C 246.5625 133.761719 245.941406 133.730469 245.324219 133.671875 C 244.703125 133.609375 244.089844 133.519531 243.476562 133.398438 C 242.867188 133.273438 242.265625 133.125 241.667969 132.941406 C 241.074219 132.761719 240.488281 132.550781 239.914062 132.3125 C 239.339844 132.074219 238.777344 131.808594 238.226562 131.515625 C 237.679688 131.222656 237.144531 130.902344 236.628906 130.558594 C 236.109375 130.210938 235.609375 129.839844 235.128906 129.445312 C 234.648438 129.050781 234.1875 128.632812 233.746094 128.191406 C 233.308594 127.75 232.890625 127.289062 232.496094 126.808594 C 232.101562 126.328125 231.730469 125.828125 231.382812 125.308594 C 231.039062 124.792969 230.71875 124.257812 230.425781 123.707031 C 230.132812 123.160156 229.867188 122.597656 229.628906 122.023438 C 229.390625 121.445312 229.179688 120.859375 229 120.265625 C 228.820312 119.667969 228.667969 119.066406 228.546875 118.453125 C 228.425781 117.84375 228.332031 117.226562 228.273438 116.609375 C 228.210938 115.988281 228.179688 115.367188 228.179688 114.742188 C 228.179688 114.121094 228.210938 113.5 228.273438 112.878906 C 228.332031 112.257812 228.425781 111.644531 228.546875 111.035156 C 228.667969 110.421875 228.820312 109.820312 229 109.222656 C 229.179688 108.628906 229.390625 108.042969 229.628906 107.464844 C 229.867188 106.890625 230.132812 106.328125 230.425781 105.777344 C 230.71875 105.230469 231.039062 104.695312 231.382812 104.179688 C 231.730469 103.660156 232.101562 103.160156 232.496094 102.679688 C 232.890625 102.195312 233.308594 101.734375 233.746094 101.296875 C 234.1875 100.855469 234.648438 100.4375 235.128906 100.042969 C 235.609375 99.648438 236.109375 99.277344 236.628906 98.929688 C 237.144531 98.585938 237.679688 98.265625 238.226562 97.972656 C 238.777344 97.675781 239.339844 97.410156 239.914062 97.171875 C 240.488281 96.933594 241.074219 96.726562 241.667969 96.542969 C 242.265625 96.363281 242.867188 96.210938 243.476562 96.089844 C 244.089844 95.96875 244.703125 95.878906 245.324219 95.816406 C 245.941406 95.757812 246.5625 95.726562 247.1875 95.726562 C 247.808594 95.726562 248.429688 95.757812 249.046875 95.816406 C 249.667969 95.878906 250.28125 95.96875 250.894531 96.089844 C 251.503906 96.210938 252.105469 96.363281 252.703125 96.542969 C 253.296875 96.726562 253.882812 96.933594 254.457031 97.171875 C 255.035156 97.410156 255.597656 97.675781 256.144531 97.972656 C 256.695312 98.265625 257.226562 98.585938 257.746094 98.929688 C 258.261719 99.277344 258.761719 99.648438 259.242188 100.042969 C 259.722656 100.4375 260.183594 100.855469 260.625 101.296875 C 261.0625 101.734375 261.480469 102.195312 261.875 102.679688 C 262.273438 103.160156 262.640625 103.660156 262.988281 104.179688 C 263.332031 104.695312 263.652344 105.230469 263.945312 105.777344 C 264.238281 106.328125 264.503906 106.890625 264.742188 107.464844 C 264.980469 108.042969 265.191406 108.628906 265.371094 109.222656 C 265.554688 109.820312 265.703125 110.421875 265.824219 111.035156 C 265.945312 111.644531 266.039062 112.257812 266.097656 112.878906 C 266.160156 113.5 266.191406 114.121094 266.191406 114.742188 C 266.191406 115.367188 266.160156 115.988281 266.097656 116.609375 C 266.039062 117.226562 265.945312 117.84375 265.824219 118.453125 C 265.703125 119.066406 265.554688 119.667969 265.371094 120.265625 C 265.191406 120.859375 264.980469 121.445312 264.742188 122.023438 C 264.503906 122.597656 264.238281 123.160156 263.945312 123.707031 C 263.652344 124.257812 263.332031 124.792969 262.988281 125.308594 C 262.640625 125.828125 262.273438 126.328125 261.875 126.808594 C 261.480469 127.289062 261.0625 127.75 260.625 128.191406 C 260.183594 128.632812 259.722656 129.050781 259.242188 129.445312 C 258.761719 129.839844 258.261719 130.210938 257.746094 130.558594 C 257.226562 130.902344 256.695312 131.222656 256.144531 131.515625 C 255.597656 131.808594 255.035156 132.074219 254.457031 132.3125 C 253.882812 132.550781 253.296875 132.761719 252.703125 132.941406 C 252.105469 133.125 251.503906 133.273438 250.894531 133.398438 C 250.28125 133.519531 249.667969 133.609375 249.046875 133.671875 C 248.429688 133.730469 247.808594 133.761719 247.1875 133.761719 Z M 247.1875 108.40625 C 246.769531 108.40625 246.359375 108.445312 245.949219 108.527344 C 245.542969 108.605469 245.144531 108.726562 244.761719 108.886719 C 244.378906 109.046875 244.011719 109.242188 243.667969 109.472656 C 243.320312 109.703125 243 109.964844 242.707031 110.261719 C 242.414062 110.554688 242.148438 110.875 241.917969 111.222656 C 241.6875 111.566406 241.492188 111.933594 241.332031 112.316406 C 241.175781 112.703125 241.054688 113.097656 240.972656 113.507812 C 240.890625 113.914062 240.851562 114.328125 240.851562 114.742188 C 240.851562 115.160156 240.890625 115.570312 240.972656 115.980469 C 241.054688 116.390625 241.175781 116.785156 241.332031 117.167969 C 241.492188 117.554688 241.6875 117.917969 241.917969 118.265625 C 242.148438 118.613281 242.414062 118.933594 242.707031 119.226562 C 243 119.519531 243.320312 119.785156 243.667969 120.015625 C 244.011719 120.246094 244.378906 120.441406 244.761719 120.601562 C 245.144531 120.761719 245.542969 120.878906 245.949219 120.960938 C 246.359375 121.042969 246.769531 121.082031 247.1875 121.082031 C 247.601562 121.082031 248.015625 121.042969 248.421875 120.960938 C 248.828125 120.878906 249.226562 120.761719 249.609375 120.601562 C 249.996094 120.441406 250.359375 120.246094 250.707031 120.015625 C 251.050781 119.785156 251.371094 119.519531 251.664062 119.226562 C 251.960938 118.933594 252.222656 118.613281 252.453125 118.265625 C 252.683594 117.917969 252.878906 117.554688 253.039062 117.167969 C 253.199219 116.785156 253.316406 116.390625 253.398438 115.980469 C 253.480469 115.570312 253.519531 115.160156 253.519531 114.742188 C 253.519531 114.328125 253.480469 113.914062 253.398438 113.507812 C 253.316406 113.097656 253.199219 112.703125 253.039062 112.316406 C 252.878906 111.933594 252.683594 111.566406 252.453125 111.222656 C 252.222656 110.875 251.960938 110.554688 251.664062 110.261719 C 251.371094 109.964844 251.050781 109.703125 250.707031 109.472656 C 250.359375 109.242188 249.996094 109.046875 249.609375 108.886719 C 249.226562 108.726562 248.828125 108.605469 248.421875 108.527344 C 248.015625 108.445312 247.601562 108.40625 247.1875 108.40625 Z M 247.1875 108.40625 "/>
<path style=" stroke:none;fill-rule:nonzero;fill:rgb(100%,100%,100%);fill-opacity:1;" d="M 259.855469 121.082031 C 259.441406 121.082031 259.027344 121.042969 258.621094 120.960938 C 258.210938 120.878906 257.816406 120.761719 257.429688 120.601562 C 257.046875 120.441406 256.683594 120.246094 256.335938 120.015625 C 255.992188 119.785156 255.671875 119.519531 255.375 119.226562 C 255.082031 118.933594 254.820312 118.613281 254.589844 118.265625 C 254.355469 117.917969 254.164062 117.554688 254.003906 117.167969 C 253.84375 116.785156 253.722656 116.390625 253.640625 115.980469 C 253.5625 115.570312 253.519531 115.160156 253.519531 114.742188 C 253.519531 84.433594 236.417969 83.097656 234.433594 83.046875 C 234.019531 83.035156 233.613281 82.984375 233.207031 82.894531 C 232.804688 82.804688 232.414062 82.675781 232.035156 82.507812 C 231.65625 82.339844 231.296875 82.140625 230.957031 81.902344 C 230.617188 81.667969 230.304688 81.398438 230.019531 81.101562 C 229.730469 80.804688 229.472656 80.480469 229.25 80.132812 C 229.023438 79.785156 228.835938 79.421875 228.683594 79.035156 C 228.527344 78.652344 228.414062 78.257812 228.335938 77.847656 C 228.257812 77.441406 228.222656 77.03125 228.226562 76.617188 C 228.230469 76.207031 228.273438 75.800781 228.355469 75.398438 C 228.4375 74.992188 228.558594 74.601562 228.71875 74.222656 C 228.878906 73.84375 229.074219 73.484375 229.304688 73.144531 C 229.53125 72.804688 229.792969 72.488281 230.085938 72.199219 C 230.378906 71.90625 230.695312 71.648438 231.035156 71.421875 C 231.378906 71.195312 231.738281 71 232.121094 70.84375 C 232.5 70.6875 232.890625 70.570312 233.292969 70.488281 C 233.699219 70.410156 234.105469 70.367188 234.515625 70.367188 C 234.832031 70.367188 266.191406 70.875 266.191406 114.742188 C 266.191406 115.160156 266.148438 115.570312 266.070312 115.980469 C 265.988281 116.390625 265.867188 116.785156 265.707031 117.167969 C 265.550781 117.554688 265.355469 117.917969 265.121094 118.265625 C 264.890625 118.613281 264.628906 118.933594 264.335938 119.226562 C 264.039062 119.519531 263.722656 119.785156 263.375 120.015625 C 263.027344 120.246094 262.664062 120.441406 262.28125 120.601562 C 261.894531 120.761719 261.5 120.878906 261.089844 120.960938 C 260.683594 121.042969 260.273438 121.082031 259.855469 121.082031 Z M 259.855469 121.082031 "/>
<path style=" stroke:none;fill-rule:nonzero;fill:rgb(100%,100%,100%);fill-opacity:1;" d="M 297.863281 133.761719 C 297.242188 133.761719 296.621094 133.730469 296.003906 133.671875 C 295.382812 133.609375 294.769531 133.519531 294.15625 133.398438 C 293.546875 133.273438 292.945312 133.125 292.347656 132.941406 C 291.753906 132.761719 291.167969 132.550781 290.59375 132.3125 C 290.015625 132.074219 289.457031 131.808594 288.90625 131.515625 C 288.355469 131.222656 287.824219 130.902344 287.304688 130.558594 C 286.789062 130.210938 286.289062 129.839844 285.808594 129.445312 C 285.328125 129.050781 284.867188 128.632812 284.425781 128.191406 C 283.988281 127.75 283.570312 127.289062 283.175781 126.808594 C 282.78125 126.328125 282.410156 125.828125 282.0625 125.308594 C 281.71875 124.792969 281.398438 124.257812 281.105469 123.707031 C 280.8125 123.160156 280.546875 122.597656 280.308594 122.023438 C 280.070312 121.445312 279.859375 120.859375 279.679688 120.265625 C 279.496094 119.667969 279.347656 119.066406 279.226562 118.453125 C 279.105469 117.84375 279.011719 117.226562 278.953125 116.609375 C 278.890625 115.988281 278.859375 115.367188 278.859375 114.742188 C 278.859375 114.121094 278.890625 113.5 278.953125 112.878906 C 279.011719 112.257812 279.105469 111.644531 279.226562 111.035156 C 279.347656 110.421875 279.496094 109.820312 279.679688 109.222656 C 279.859375 108.628906 280.070312 108.042969 280.308594 107.464844 C 280.546875 106.890625 280.8125 106.328125 281.105469 105.777344 C 281.398438 105.230469 281.71875 104.695312 282.0625 104.179688 C 282.410156 103.660156 282.78125 103.160156 283.175781 102.679688 C 283.570312 102.195312 283.988281 101.734375 284.425781 101.296875 C 284.867188 100.855469 285.328125 100.4375 285.808594 100.042969 C 286.289062 99.648438 286.789062 99.277344 287.304688 98.929688 C 287.824219 98.585938 288.355469 98.265625 288.90625 97.972656 C 289.457031 97.675781 290.015625 97.410156 290.59375 97.171875 C 291.167969 96.933594 291.753906 96.726562 292.347656 96.542969 C 292.945312 96.363281 293.546875 96.210938 294.15625 96.089844 C 294.769531 95.96875 295.382812 95.878906 296.003906 95.816406 C 296.621094 95.757812 297.242188 95.726562 297.863281 95.726562 C 298.488281 95.726562 299.109375 95.757812 299.726562 95.816406 C 300.347656 95.878906 300.960938 95.96875 301.574219 96.089844 C 302.183594 96.210938 302.785156 96.363281 303.382812 96.542969 C 303.976562 96.726562 304.5625 96.933594 305.136719 97.171875 C 305.714844 97.410156 306.273438 97.675781 306.824219 97.972656 C 307.371094 98.265625 307.90625 98.585938 308.421875 98.929688 C 308.941406 99.277344 309.441406 99.648438 309.921875 100.042969 C 310.402344 100.4375 310.863281 100.855469 311.304688 101.296875 C 311.742188 101.734375 312.160156 102.195312 312.554688 102.679688 C 312.949219 103.160156 313.320312 103.660156 313.667969 104.179688 C 314.011719 104.695312 314.332031 105.230469 314.625 105.777344 C 314.917969 106.328125 315.183594 106.890625 315.421875 107.464844 C 315.660156 108.042969 315.871094 108.628906 316.050781 109.222656 C 316.230469 109.820312 316.382812 110.421875 316.503906 111.035156 C 316.625 111.644531 316.71875 112.257812 316.777344 112.878906 C 316.839844 113.5 316.871094 114.121094 316.871094 114.742188 C 316.871094 115.367188 316.839844 115.988281 316.777344 116.609375 C 316.71875 117.226562 316.625 117.84375 316.503906 118.453125 C 316.382812 119.066406 316.230469 119.667969 316.050781 120.265625 C 315.871094 120.859375 315.660156 121.445312 315.421875 122.023438 C 315.183594 122.597656 314.917969 123.160156 314.625 123.707031 C 314.332031 124.257812 314.011719 124.792969 313.667969 125.308594 C 313.320312 125.828125 312.949219 126.328125 312.554688 126.808594 C 312.160156 127.289062 311.742188 127.75 311.304688 128.191406 C 310.863281 128.632812 310.402344 129.050781 309.921875 129.445312 C 309.441406 129.839844 308.941406 130.210938 308.421875 130.558594 C 307.90625 130.902344 307.371094 131.222656 306.824219 131.515625 C 306.273438 131.808594 305.714844 132.074219 305.136719 132.3125 C 304.5625 132.550781 303.976562 132.761719 303.382812 132.941406 C 302.785156 133.125 302.183594 133.273438 301.574219 133.398438 C 300.960938 133.519531 300.347656 133.609375 299.726562 133.671875 C 299.109375 133.730469 298.488281 133.761719 297.863281 133.761719 Z M 297.863281 108.40625 C 297.449219 108.40625 297.039062 108.445312 296.628906 108.527344 C 296.222656 108.605469 295.824219 108.726562 295.441406 108.886719 C 295.054688 109.046875 294.691406 109.242188 294.34375 109.472656 C 294 109.703125 293.679688 109.964844 293.386719 110.261719 C 293.089844 110.554688 292.828125 110.875 292.597656 111.222656 C 292.367188 111.566406 292.171875 111.933594 292.011719 112.316406 C 291.851562 112.703125 291.734375 113.097656 291.652344 113.507812 C 291.570312 113.914062 291.53125 114.328125 291.53125 114.742188 C 291.53125 115.160156 291.570312 115.570312 291.652344 115.980469 C 291.734375 116.390625 291.851562 116.785156 292.011719 117.167969 C 292.171875 117.554688 292.367188 117.917969 292.597656 118.265625 C 292.828125 118.613281 293.089844 118.933594 293.386719 119.226562 C 293.679688 119.519531 294 119.785156 294.34375 120.015625 C 294.691406 120.246094 295.054688 120.441406 295.441406 120.601562 C 295.824219 120.761719 296.222656 120.878906 296.628906 120.960938 C 297.039062 121.042969 297.449219 121.082031 297.863281 121.082031 C 298.28125 121.082031 298.691406 121.042969 299.101562 120.960938 C 299.507812 120.878906 299.90625 120.761719 300.289062 120.601562 C 300.671875 120.441406 301.039062 120.246094 301.382812 120.015625 C 301.730469 119.785156 302.050781 119.519531 302.34375 119.226562 C 302.636719 118.933594 302.902344 118.613281 303.132812 118.265625 C 303.363281 117.917969 303.558594 117.554688 303.71875 117.167969 C 303.875 116.785156 303.996094 116.390625 304.078125 115.980469 C 304.160156 115.570312 304.199219 115.160156 304.199219 114.742188 C 304.199219 114.328125 304.160156 113.914062 304.078125 113.507812 C 303.996094 113.097656 303.875 112.703125 303.71875 112.316406 C 303.558594 111.933594 303.363281 111.566406 303.132812 111.222656 C 302.902344 110.875 302.636719 110.554688 302.34375 110.261719 C 302.050781 109.964844 301.730469 109.703125 301.382812 109.472656 C 301.039062 109.242188 300.671875 109.046875 300.289062 108.886719 C 299.90625 108.726562 299.507812 108.605469 299.101562 108.527344 C 298.691406 108.445312 298.28125 108.40625 297.863281 108.40625 Z M 297.863281 108.40625 "/>
<path style=" stroke:none;fill-rule:nonzero;fill:rgb(100%,100%,100%);fill-opacity:1;" d="M 310.535156 121.082031 C 310.117188 121.082031 309.707031 121.042969 309.300781 120.960938 C 308.890625 120.878906 308.496094 120.761719 308.109375 120.601562 C 307.726562 120.441406 307.359375 120.246094 307.015625 120.015625 C 306.667969 119.785156 306.347656 119.519531 306.054688 119.226562 C 305.761719 118.933594 305.5 118.613281 305.265625 118.265625 C 305.035156 117.917969 304.839844 117.554688 304.683594 117.167969 C 304.523438 116.785156 304.402344 116.390625 304.320312 115.980469 C 304.242188 115.570312 304.199219 115.160156 304.199219 114.742188 C 304.199219 84.433594 287.097656 83.097656 285.113281 83.046875 C 284.699219 83.035156 284.289062 82.984375 283.886719 82.894531 C 283.484375 82.804688 283.09375 82.675781 282.714844 82.507812 C 282.335938 82.339844 281.976562 82.140625 281.636719 81.902344 C 281.296875 81.667969 280.984375 81.398438 280.695312 81.101562 C 280.410156 80.804688 280.152344 80.480469 279.929688 80.132812 C 279.703125 79.785156 279.515625 79.421875 279.359375 79.035156 C 279.207031 78.652344 279.09375 78.257812 279.015625 77.847656 C 278.9375 77.441406 278.902344 77.03125 278.90625 76.617188 C 278.90625 76.207031 278.949219 75.800781 279.035156 75.398438 C 279.117188 74.992188 279.238281 74.601562 279.398438 74.222656 C 279.558594 73.84375 279.753906 73.484375 279.980469 73.144531 C 280.210938 72.804688 280.472656 72.488281 280.765625 72.199219 C 281.054688 71.90625 281.375 71.648438 281.714844 71.421875 C 282.058594 71.195312 282.417969 71 282.800781 70.84375 C 283.179688 70.6875 283.570312 70.570312 283.972656 70.488281 C 284.378906 70.410156 284.785156 70.367188 285.195312 70.367188 C 285.511719 70.367188 316.871094 70.875 316.871094 114.742188 C 316.871094 115.160156 316.828125 115.570312 316.746094 115.980469 C 316.667969 116.390625 316.546875 116.785156 316.386719 117.167969 C 316.226562 117.554688 316.03125 117.917969 315.800781 118.265625 C 315.570312 118.613281 315.308594 118.933594 315.015625 119.226562 C 314.71875 119.519531 314.398438 119.785156 314.054688 120.015625 C 313.707031 120.246094 313.34375 120.441406 312.960938 120.601562 C 312.574219 120.761719 312.179688 120.878906 311.769531 120.960938 C 311.363281 121.042969 310.949219 121.082031 310.535156 121.082031 Z M 310.535156 121.082031 "/>
<g clip-path="url(#clip2)" clip-rule="nonzero">
<path style=" stroke:none;fill-rule:nonzero;fill:rgb(100%,100%,100%);fill-opacity:1;" d="M 114.152344 381 C 112.496094 381 110.835938 380.960938 109.179688 380.878906 C 107.523438 380.796875 105.867188 380.675781 104.21875 380.511719 C 102.566406 380.347656 100.921875 380.144531 99.28125 379.902344 C 97.640625 379.660156 96.007812 379.375 94.378906 379.050781 C 92.753906 378.726562 91.132812 378.363281 89.523438 377.960938 C 87.914062 377.558594 86.316406 377.113281 84.730469 376.632812 C 83.144531 376.152344 81.570312 375.628906 80.007812 375.070312 C 78.445312 374.511719 76.898438 373.914062 75.363281 373.277344 C 73.832031 372.644531 72.316406 371.972656 70.816406 371.261719 C 69.316406 370.550781 67.835938 369.804688 66.375 369.023438 C 64.910156 368.242188 63.46875 367.421875 62.042969 366.570312 C 60.621094 365.714844 59.222656 364.828125 57.839844 363.90625 C 56.460938 362.984375 55.105469 362.027344 53.773438 361.039062 C 52.441406 360.050781 51.132812 359.027344 49.851562 357.976562 C 48.570312 356.921875 47.3125 355.839844 46.085938 354.722656 C 44.855469 353.609375 43.65625 352.464844 42.480469 351.292969 C 41.308594 350.117188 40.164062 348.914062 39.050781 347.6875 C 37.9375 346.457031 36.855469 345.199219 35.800781 343.917969 C 34.75 342.632812 33.730469 341.324219 32.742188 339.992188 C 31.753906 338.65625 30.796875 337.300781 29.875 335.921875 C 28.957031 334.539062 28.066406 333.140625 27.214844 331.714844 C 26.363281 330.292969 25.546875 328.847656 24.761719 327.382812 C 23.980469 325.917969 23.234375 324.4375 22.527344 322.9375 C 21.816406 321.4375 21.144531 319.917969 20.511719 318.386719 C 19.875 316.851562 19.277344 315.304688 18.71875 313.738281 C 18.160156 312.175781 17.640625 310.601562 17.160156 309.011719 C 16.679688 307.425781 16.234375 305.824219 15.832031 304.214844 C 15.429688 302.605469 15.066406 300.984375 14.742188 299.355469 C 14.417969 297.730469 14.136719 296.09375 13.890625 294.453125 C 13.648438 292.808594 13.445312 291.164062 13.28125 289.511719 C 13.121094 287.859375 13 286.203125 12.917969 284.546875 C 12.835938 282.886719 12.792969 281.230469 12.792969 279.570312 C 12.792969 277.910156 12.835938 276.25 12.917969 274.59375 C 13 272.933594 13.121094 271.277344 13.28125 269.628906 C 13.445312 267.976562 13.648438 266.328125 13.890625 264.6875 C 14.136719 263.042969 14.417969 261.410156 14.742188 259.78125 C 15.066406 258.152344 15.429688 256.535156 15.832031 254.921875 C 16.234375 253.3125 16.679688 251.714844 17.160156 250.125 C 17.640625 248.535156 18.160156 246.960938 18.71875 245.398438 C 19.277344 243.835938 19.875 242.285156 20.511719 240.753906 C 21.144531 239.21875 21.816406 237.703125 22.527344 236.203125 C 23.234375 234.699219 23.980469 233.21875 24.761719 231.753906 C 25.546875 230.289062 26.363281 228.847656 27.214844 227.421875 C 28.066406 226 28.957031 224.597656 29.875 223.21875 C 30.796875 221.835938 31.753906 220.480469 32.742188 219.148438 C 33.730469 217.8125 34.75 216.503906 35.800781 215.222656 C 36.855469 213.9375 37.9375 212.683594 39.050781 211.453125 C 40.164062 210.222656 41.308594 209.019531 42.480469 207.847656 C 43.65625 206.671875 44.855469 205.527344 46.085938 204.414062 C 47.3125 203.300781 48.570312 202.214844 49.851562 201.160156 C 51.132812 200.109375 52.441406 199.085938 53.773438 198.097656 C 55.105469 197.109375 56.460938 196.15625 57.839844 195.230469 C 59.222656 194.308594 60.621094 193.421875 62.042969 192.570312 C 63.46875 191.714844 64.910156 190.898438 66.375 190.113281 C 67.835938 189.332031 69.316406 188.585938 70.816406 187.875 C 72.316406 187.167969 73.832031 186.496094 75.363281 185.859375 C 76.898438 185.222656 78.445312 184.625 80.007812 184.066406 C 81.570312 183.507812 83.144531 182.988281 84.730469 182.503906 C 86.316406 182.023438 87.914062 181.582031 89.523438 181.179688 C 91.132812 180.773438 92.753906 180.410156 94.378906 180.085938 C 96.007812 179.761719 97.640625 179.480469 99.28125 179.234375 C 100.921875 178.992188 102.566406 178.789062 104.21875 178.625 C 105.867188 178.464844 107.523438 178.339844 109.179688 178.261719 C 110.835938 178.179688 112.496094 178.136719 114.152344 178.136719 C 115.8125 178.136719 117.46875 178.179688 119.125 178.261719 C 120.785156 178.339844 122.4375 178.464844 124.089844 178.625 C 125.738281 178.789062 127.382812 178.992188 129.027344 179.234375 C 130.667969 179.480469 132.300781 179.761719 133.925781 180.085938 C 135.554688 180.410156 137.171875 180.773438 138.78125 181.179688 C 140.390625 181.582031 141.988281 182.023438 143.574219 182.503906 C 145.164062 182.988281 146.738281 183.507812 148.300781 184.066406 C 149.863281 184.625 151.410156 185.222656 152.941406 185.859375 C 154.472656 186.496094 155.988281 187.167969 157.488281 187.875 C 158.988281 188.585938 160.46875 189.332031 161.933594 190.113281 C 163.394531 190.898438 164.839844 191.714844 166.261719 192.570312 C 167.683594 193.421875 169.085938 194.308594 170.464844 195.230469 C 171.84375 196.15625 173.199219 197.109375 174.53125 198.097656 C 175.863281 199.085938 177.171875 200.109375 178.453125 201.160156 C 179.738281 202.214844 180.992188 203.300781 182.222656 204.414062 C 183.449219 205.527344 184.652344 206.671875 185.824219 207.847656 C 186.996094 209.019531 188.140625 210.222656 189.253906 211.453125 C 190.367188 212.683594 191.453125 213.9375 192.503906 215.222656 C 193.554688 216.503906 194.578125 217.8125 195.566406 219.148438 C 196.554688 220.480469 197.507812 221.835938 198.429688 223.21875 C 199.351562 224.597656 200.238281 226 201.089844 227.421875 C 201.945312 228.847656 202.761719 230.289062 203.542969 231.753906 C 204.324219 233.21875 205.070312 234.699219 205.78125 236.203125 C 206.488281 237.703125 207.160156 239.21875 207.796875 240.753906 C 208.429688 242.285156 209.027344 243.835938 209.585938 245.398438 C 210.144531 246.960938 210.664062 248.535156 211.148438 250.125 C 211.628906 251.714844 212.070312 253.3125 212.472656 254.921875 C 212.875 256.535156 213.238281 258.152344 213.5625 259.78125 C 213.886719 261.410156 214.171875 263.042969 214.414062 264.6875 C 214.65625 266.328125 214.859375 267.976562 215.023438 269.628906 C 215.1875 271.277344 215.308594 272.933594 215.390625 274.59375 C 215.472656 276.25 215.511719 277.910156 215.511719 279.570312 C 215.507812 281.226562 215.46875 282.886719 215.382812 284.542969 C 215.300781 286.203125 215.175781 287.855469 215.011719 289.507812 C 214.847656 291.160156 214.644531 292.804688 214.398438 294.445312 C 214.152344 296.085938 213.867188 297.722656 213.542969 299.347656 C 213.21875 300.976562 212.855469 302.59375 212.449219 304.203125 C 212.046875 305.8125 211.601562 307.410156 211.121094 309 C 210.636719 310.585938 210.117188 312.160156 209.558594 313.722656 C 208.996094 315.285156 208.398438 316.832031 207.765625 318.367188 C 207.128906 319.898438 206.457031 321.414062 205.746094 322.914062 C 205.035156 324.414062 204.289062 325.894531 203.507812 327.359375 C 202.726562 328.824219 201.90625 330.265625 201.054688 331.6875 C 200.203125 333.113281 199.3125 334.511719 198.394531 335.894531 C 197.472656 337.273438 196.515625 338.628906 195.527344 339.960938 C 194.539062 341.292969 193.519531 342.601562 192.46875 343.882812 C 191.414062 345.167969 190.332031 346.421875 189.21875 347.652344 C 188.105469 348.882812 186.960938 350.082031 185.789062 351.257812 C 184.617188 352.429688 183.414062 353.574219 182.1875 354.6875 C 180.957031 355.804688 179.703125 356.886719 178.421875 357.9375 C 177.140625 358.992188 175.832031 360.011719 174.5 361.003906 C 173.171875 361.992188 171.816406 362.945312 170.4375 363.867188 C 169.058594 364.792969 167.65625 365.679688 166.234375 366.53125 C 164.8125 367.386719 163.371094 368.203125 161.910156 368.988281 C 160.445312 369.769531 158.96875 370.515625 157.46875 371.226562 C 155.96875 371.9375 154.453125 372.609375 152.921875 373.246094 C 151.390625 373.882812 149.84375 374.480469 148.285156 375.039062 C 146.722656 375.601562 145.148438 376.121094 143.5625 376.605469 C 141.976562 377.089844 140.378906 377.53125 138.769531 377.9375 C 137.164062 378.339844 135.546875 378.707031 133.917969 379.03125 C 132.292969 379.355469 130.660156 379.640625 129.019531 379.886719 C 127.378906 380.132812 125.734375 380.335938 124.085938 380.5 C 122.433594 380.664062 120.78125 380.789062 119.125 380.871094 C 117.46875 380.957031 115.8125 380.996094 114.152344 381 Z M 114.152344 190.816406 C 112.703125 190.816406 111.25 190.851562 109.800781 190.925781 C 108.351562 190.996094 106.90625 191.101562 105.460938 191.246094 C 104.015625 191.386719 102.574219 191.5625 101.140625 191.777344 C 99.703125 191.992188 98.273438 192.238281 96.851562 192.523438 C 95.425781 192.804688 94.011719 193.125 92.605469 193.476562 C 91.195312 193.828125 89.796875 194.21875 88.410156 194.636719 C 87.019531 195.058594 85.640625 195.515625 84.273438 196.003906 C 82.910156 196.496094 81.554688 197.015625 80.214844 197.574219 C 78.871094 198.128906 77.546875 198.71875 76.234375 199.339844 C 74.921875 199.960938 73.625 200.613281 72.34375 201.296875 C 71.066406 201.980469 69.804688 202.695312 68.558594 203.445312 C 67.3125 204.191406 66.085938 204.96875 64.878906 205.773438 C 63.671875 206.582031 62.488281 207.417969 61.320312 208.28125 C 60.15625 209.148438 59.011719 210.042969 57.890625 210.960938 C 56.769531 211.882812 55.667969 212.832031 54.59375 213.808594 C 53.519531 214.785156 52.46875 215.785156 51.441406 216.8125 C 50.414062 217.839844 49.414062 218.890625 48.4375 219.964844 C 47.464844 221.042969 46.515625 222.140625 45.597656 223.265625 C 44.675781 224.386719 43.78125 225.53125 42.917969 226.699219 C 42.054688 227.867188 41.21875 229.054688 40.410156 230.261719 C 39.605469 231.46875 38.828125 232.695312 38.082031 233.941406 C 37.335938 235.1875 36.621094 236.449219 35.9375 237.730469 C 35.253906 239.011719 34.601562 240.308594 33.980469 241.621094 C 33.359375 242.9375 32.769531 244.261719 32.214844 245.605469 C 31.660156 246.945312 31.136719 248.300781 30.648438 249.667969 C 30.160156 251.035156 29.703125 252.414062 29.285156 253.804688 C 28.863281 255.195312 28.476562 256.59375 28.121094 258.003906 C 27.769531 259.414062 27.453125 260.828125 27.167969 262.253906 C 26.886719 263.679688 26.636719 265.109375 26.425781 266.546875 C 26.210938 267.984375 26.035156 269.425781 25.890625 270.871094 C 25.75 272.316406 25.644531 273.761719 25.570312 275.214844 C 25.5 276.664062 25.464844 278.117188 25.464844 279.570312 C 25.464844 281.023438 25.5 282.472656 25.570312 283.925781 C 25.644531 285.375 25.75 286.824219 25.890625 288.269531 C 26.035156 289.714844 26.210938 291.15625 26.425781 292.589844 C 26.636719 294.027344 26.886719 295.460938 27.167969 296.882812 C 27.453125 298.308594 27.769531 299.726562 28.121094 301.132812 C 28.476562 302.542969 28.863281 303.941406 29.285156 305.332031 C 29.703125 306.722656 30.160156 308.101562 30.648438 309.46875 C 31.136719 310.835938 31.660156 312.191406 32.214844 313.53125 C 32.769531 314.875 33.359375 316.203125 33.980469 317.515625 C 34.601562 318.828125 35.253906 320.125 35.9375 321.40625 C 36.621094 322.6875 37.335938 323.949219 38.082031 325.195312 C 38.828125 326.441406 39.605469 327.667969 40.410156 328.878906 C 41.21875 330.085938 42.054688 331.273438 42.917969 332.4375 C 43.78125 333.605469 44.675781 334.75 45.597656 335.871094 C 46.515625 336.996094 47.464844 338.09375 48.4375 339.171875 C 49.414062 340.246094 50.414062 341.300781 51.441406 342.328125 C 52.46875 343.351562 53.519531 344.355469 54.59375 345.328125 C 55.667969 346.304688 56.769531 347.253906 57.890625 348.175781 C 59.011719 349.097656 60.15625 349.988281 61.320312 350.855469 C 62.488281 351.71875 63.671875 352.558594 64.878906 353.363281 C 66.085938 354.171875 67.3125 354.949219 68.558594 355.695312 C 69.804688 356.441406 71.066406 357.15625 72.34375 357.839844 C 73.625 358.527344 74.921875 359.179688 76.234375 359.800781 C 77.546875 360.421875 78.871094 361.007812 80.214844 361.566406 C 81.554688 362.121094 82.910156 362.644531 84.273438 363.132812 C 85.640625 363.621094 87.019531 364.078125 88.410156 364.5 C 89.796875 364.921875 91.195312 365.308594 92.605469 365.660156 C 94.011719 366.015625 95.425781 366.332031 96.851562 366.617188 C 98.273438 366.898438 99.703125 367.148438 101.140625 367.359375 C 102.574219 367.574219 104.015625 367.75 105.460938 367.894531 C 106.90625 368.035156 108.351562 368.144531 109.800781 368.214844 C 111.25 368.285156 112.703125 368.320312 114.152344 368.320312 C 115.605469 368.320312 117.054688 368.285156 118.503906 368.214844 C 119.953125 368.144531 121.402344 368.035156 122.847656 367.894531 C 124.289062 367.75 125.730469 367.574219 127.167969 367.359375 C 128.601562 367.148438 130.03125 366.898438 131.457031 366.617188 C 132.878906 366.332031 134.292969 366.015625 135.703125 365.660156 C 137.109375 365.308594 138.507812 364.921875 139.898438 364.5 C 141.285156 364.078125 142.664062 363.621094 144.03125 363.132812 C 145.398438 362.644531 146.75 362.121094 148.09375 361.566406 C 149.433594 361.007812 150.761719 360.421875 152.074219 359.800781 C 153.382812 359.179688 154.679688 358.527344 155.960938 357.839844 C 157.242188 357.15625 158.503906 356.441406 159.75 355.695312 C 160.992188 354.949219 162.21875 354.171875 163.425781 353.363281 C 164.632812 352.558594 165.820312 351.71875 166.984375 350.855469 C 168.152344 349.988281 169.292969 349.097656 170.417969 348.175781 C 171.539062 347.253906 172.636719 346.304688 173.710938 345.328125 C 174.789062 344.355469 175.839844 343.351562 176.867188 342.328125 C 177.890625 341.300781 178.890625 340.246094 179.867188 339.171875 C 180.839844 338.09375 181.789062 336.996094 182.710938 335.871094 C 183.632812 334.75 184.523438 333.605469 185.386719 332.4375 C 186.253906 331.273438 187.089844 330.085938 187.894531 328.878906 C 188.703125 327.667969 189.476562 326.441406 190.222656 325.195312 C 190.96875 323.949219 191.683594 322.6875 192.371094 321.40625 C 193.054688 320.125 193.707031 318.828125 194.328125 317.515625 C 194.945312 316.203125 195.535156 314.875 196.089844 313.53125 C 196.644531 312.191406 197.167969 310.835938 197.65625 309.46875 C 198.144531 308.101562 198.601562 306.722656 199.023438 305.332031 C 199.445312 303.941406 199.832031 302.542969 200.183594 301.132812 C 200.535156 299.726562 200.855469 298.308594 201.136719 296.882812 C 201.421875 295.460938 201.667969 294.027344 201.882812 292.589844 C 202.09375 291.15625 202.273438 289.714844 202.414062 288.269531 C 202.558594 286.824219 202.664062 285.375 202.734375 283.925781 C 202.804688 282.472656 202.839844 281.023438 202.839844 279.570312 C 202.839844 278.117188 202.804688 276.664062 202.730469 275.214844 C 202.65625 273.765625 202.550781 272.316406 202.40625 270.871094 C 202.261719 269.429688 202.082031 267.988281 201.871094 266.550781 C 201.65625 265.113281 201.40625 263.683594 201.121094 262.261719 C 200.835938 260.835938 200.519531 259.421875 200.164062 258.011719 C 199.8125 256.605469 199.421875 255.207031 199 253.816406 C 198.578125 252.425781 198.125 251.050781 197.632812 249.683594 C 197.144531 248.316406 196.621094 246.960938 196.066406 245.621094 C 195.507812 244.277344 194.921875 242.953125 194.300781 241.640625 C 193.679688 240.328125 193.027344 239.03125 192.339844 237.75 C 191.65625 236.46875 190.941406 235.207031 190.195312 233.960938 C 189.449219 232.71875 188.671875 231.492188 187.867188 230.285156 C 187.058594 229.078125 186.222656 227.890625 185.359375 226.722656 C 184.496094 225.558594 183.601562 224.414062 182.679688 223.289062 C 181.761719 222.167969 180.8125 221.070312 179.839844 219.992188 C 178.863281 218.917969 177.863281 217.867188 176.835938 216.839844 C 175.8125 215.8125 174.761719 214.8125 173.6875 213.835938 C 172.609375 212.863281 171.511719 211.914062 170.390625 210.992188 C 169.269531 210.070312 168.125 209.175781 166.960938 208.3125 C 165.796875 207.445312 164.609375 206.609375 163.402344 205.804688 C 162.195312 204.996094 160.972656 204.21875 159.726562 203.472656 C 158.484375 202.726562 157.222656 202.007812 155.941406 201.324219 C 154.664062 200.640625 153.367188 199.988281 152.054688 199.363281 C 150.746094 198.742188 149.417969 198.15625 148.078125 197.597656 C 146.738281 197.042969 145.382812 196.519531 144.019531 196.027344 C 142.652344 195.539062 141.277344 195.082031 139.886719 194.660156 C 138.5 194.238281 137.101562 193.847656 135.695312 193.496094 C 134.285156 193.140625 132.871094 192.824219 131.449219 192.539062 C 130.027344 192.253906 128.597656 192.003906 127.160156 191.789062 C 125.726562 191.574219 124.285156 191.398438 122.84375 191.253906 C 121.398438 191.109375 119.953125 191 118.503906 190.929688 C 117.054688 190.855469 115.605469 190.820312 114.152344 190.816406 Z M 114.152344 190.816406 "/>
</g>
<path style=" stroke:none;fill-rule:nonzero;fill:rgb(100%,100%,100%);fill-opacity:1;" d="M 114.152344 336.625 C 113.53125 336.625 112.910156 336.59375 112.289062 336.53125 C 111.671875 336.472656 111.054688 336.378906 110.445312 336.257812 C 109.835938 336.136719 109.230469 335.984375 108.636719 335.804688 C 108.039062 335.625 107.457031 335.414062 106.878906 335.175781 C 106.304688 334.9375 105.742188 334.671875 105.195312 334.378906 C 104.644531 334.085938 104.113281 333.765625 103.59375 333.417969 C 103.078125 333.074219 102.578125 332.703125 102.097656 332.308594 C 101.617188 331.910156 101.15625 331.492188 100.714844 331.054688 C 100.273438 330.613281 99.855469 330.152344 99.460938 329.671875 C 99.066406 329.1875 98.695312 328.691406 98.351562 328.171875 C 98.003906 327.652344 97.6875 327.121094 97.390625 326.570312 C 97.097656 326.019531 96.832031 325.460938 96.59375 324.882812 C 96.355469 324.308594 96.148438 323.722656 95.964844 323.125 C 95.785156 322.53125 95.636719 321.925781 95.511719 321.316406 C 95.390625 320.703125 95.300781 320.089844 95.238281 319.46875 C 95.179688 318.851562 95.148438 318.230469 95.148438 317.605469 L 95.148438 298.585938 L 76.144531 298.585938 C 75.519531 298.585938 74.902344 298.558594 74.28125 298.496094 C 73.660156 298.433594 73.046875 298.34375 72.4375 298.222656 C 71.824219 298.101562 71.222656 297.949219 70.628906 297.769531 C 70.03125 297.585938 69.445312 297.378906 68.871094 297.140625 C 68.296875 296.902344 67.734375 296.636719 67.183594 296.339844 C 66.636719 296.046875 66.101562 295.726562 65.585938 295.382812 C 65.066406 295.035156 64.570312 294.664062 64.085938 294.269531 C 63.605469 293.875 63.144531 293.457031 62.707031 293.015625 C 62.265625 292.578125 61.847656 292.117188 61.453125 291.632812 C 61.058594 291.152344 60.6875 290.652344 60.34375 290.136719 C 59.996094 289.617188 59.675781 289.082031 59.382812 288.535156 C 59.089844 287.984375 58.824219 287.421875 58.585938 286.847656 C 58.347656 286.273438 58.136719 285.6875 57.957031 285.089844 C 57.777344 284.492188 57.625 283.890625 57.503906 283.277344 C 57.382812 282.667969 57.292969 282.054688 57.230469 281.433594 C 57.167969 280.8125 57.140625 280.191406 57.140625 279.570312 C 57.140625 278.945312 57.167969 278.324219 57.230469 277.703125 C 57.292969 277.085938 57.382812 276.46875 57.503906 275.859375 C 57.625 275.246094 57.777344 274.644531 57.957031 274.046875 C 58.136719 273.453125 58.347656 272.867188 58.585938 272.289062 C 58.824219 271.714844 59.089844 271.152344 59.382812 270.605469 C 59.675781 270.054688 59.996094 269.519531 60.34375 269.003906 C 60.6875 268.484375 61.058594 267.984375 61.453125 267.503906 C 61.847656 267.023438 62.265625 266.5625 62.707031 266.121094 C 63.144531 265.679688 63.605469 265.261719 64.085938 264.867188 C 64.570312 264.472656 65.066406 264.101562 65.585938 263.757812 C 66.101562 263.410156 66.636719 263.089844 67.183594 262.796875 C 67.734375 262.503906 68.296875 262.238281 68.871094 262 C 69.445312 261.761719 70.03125 261.550781 70.628906 261.371094 C 71.222656 261.1875 71.824219 261.039062 72.4375 260.917969 C 73.046875 260.792969 73.660156 260.703125 74.28125 260.640625 C 74.902344 260.582031 75.519531 260.550781 76.144531 260.550781 L 95.148438 260.550781 L 95.148438 241.53125 C 95.148438 240.910156 95.179688 240.289062 95.238281 239.667969 C 95.300781 239.046875 95.390625 238.433594 95.511719 237.820312 C 95.636719 237.210938 95.785156 236.609375 95.964844 236.011719 C 96.148438 235.414062 96.355469 234.828125 96.59375 234.253906 C 96.832031 233.679688 97.097656 233.117188 97.390625 232.566406 C 97.6875 232.019531 98.003906 231.484375 98.351562 230.964844 C 98.695312 230.449219 99.066406 229.949219 99.460938 229.46875 C 99.855469 228.984375 100.273438 228.523438 100.714844 228.085938 C 101.15625 227.644531 101.617188 227.226562 102.097656 226.832031 C 102.578125 226.4375 103.078125 226.066406 103.59375 225.71875 C 104.113281 225.375 104.644531 225.054688 105.195312 224.761719 C 105.742188 224.464844 106.304688 224.199219 106.878906 223.960938 C 107.457031 223.722656 108.039062 223.515625 108.636719 223.332031 C 109.230469 223.152344 109.835938 223 110.445312 222.878906 C 111.054688 222.757812 111.671875 222.667969 112.289062 222.605469 C 112.910156 222.542969 113.53125 222.515625 114.152344 222.515625 C 114.777344 222.515625 115.398438 222.542969 116.015625 222.605469 C 116.636719 222.667969 117.25 222.757812 117.859375 222.878906 C 118.472656 223 119.074219 223.152344 119.667969 223.332031 C 120.265625 223.515625 120.851562 223.722656 121.425781 223.960938 C 122 224.199219 122.5625 224.464844 123.113281 224.761719 C 123.660156 225.054688 124.195312 225.375 124.710938 225.71875 C 125.230469 226.066406 125.726562 226.4375 126.210938 226.832031 C 126.691406 227.226562 127.152344 227.644531 127.589844 228.085938 C 128.03125 228.523438 128.449219 228.984375 128.84375 229.46875 C 129.238281 229.949219 129.609375 230.449219 129.953125 230.964844 C 130.300781 231.484375 130.621094 232.019531 130.914062 232.566406 C 131.207031 233.117188 131.472656 233.679688 131.710938 234.253906 C 131.949219 234.828125 132.160156 235.414062 132.339844 236.011719 C 132.519531 236.609375 132.671875 237.210938 132.792969 237.820312 C 132.914062 238.433594 133.003906 239.046875 133.066406 239.667969 C 133.128906 240.289062 133.15625 240.910156 133.15625 241.53125 L 133.15625 260.550781 L 152.164062 260.550781 C 152.785156 260.550781 153.40625 260.582031 154.023438 260.640625 C 154.644531 260.703125 155.257812 260.792969 155.871094 260.917969 C 156.480469 261.039062 157.082031 261.1875 157.679688 261.371094 C 158.273438 261.550781 158.859375 261.761719 159.433594 262 C 160.011719 262.238281 160.574219 262.503906 161.121094 262.796875 C 161.671875 263.089844 162.203125 263.410156 162.722656 263.757812 C 163.238281 264.101562 163.738281 264.472656 164.21875 264.867188 C 164.699219 265.261719 165.160156 265.679688 165.601562 266.121094 C 166.039062 266.5625 166.457031 267.023438 166.851562 267.503906 C 167.25 267.984375 167.617188 268.484375 167.964844 269.003906 C 168.308594 269.519531 168.628906 270.054688 168.921875 270.605469 C 169.214844 271.152344 169.480469 271.714844 169.71875 272.289062 C 169.957031 272.867188 170.167969 273.453125 170.347656 274.046875 C 170.53125 274.644531 170.679688 275.246094 170.800781 275.859375 C 170.921875 276.46875 171.015625 277.085938 171.074219 277.703125 C 171.136719 278.324219 171.167969 278.945312 171.167969 279.570312 C 171.167969 280.191406 171.136719 280.8125 171.074219 281.433594 C 171.015625 282.054688 170.921875 282.667969 170.800781 283.277344 C 170.679688 283.890625 170.53125 284.492188 170.347656 285.089844 C 170.167969 285.6875 169.957031 286.273438 169.71875 286.847656 C 169.480469 287.421875 169.214844 287.984375 168.921875 288.535156 C 168.628906 289.082031 168.308594 289.617188 167.964844 290.136719 C 167.617188 290.652344 167.25 291.152344 166.851562 291.632812 C 166.457031 292.117188 166.039062 292.578125 165.601562 293.015625 C 165.160156 293.457031 164.699219 293.875 164.21875 294.269531 C 163.738281 294.664062 163.238281 295.035156 162.722656 295.382812 C 162.203125 295.726562 161.671875 296.046875 161.121094 296.339844 C 160.574219 296.636719 160.011719 296.902344 159.433594 297.140625 C 158.859375 297.378906 158.273438 297.585938 157.679688 297.769531 C 157.082031 297.949219 156.480469 298.101562 155.871094 298.222656 C 155.257812 298.34375 154.644531 298.433594 154.023438 298.496094 C 153.40625 298.558594 152.785156 298.585938 152.164062 298.585938 L 133.15625 298.585938 L 133.15625 317.605469 C 133.15625 318.230469 133.128906 318.851562 133.066406 319.46875 C 133.003906 320.089844 132.914062 320.703125 132.792969 321.316406 C 132.671875 321.925781 132.519531 322.53125 132.339844 323.125 C 132.160156 323.722656 131.949219 324.308594 131.710938 324.882812 C 131.472656 325.460938 131.207031 326.019531 130.914062 326.570312 C 130.621094 327.121094 130.300781 327.652344 129.953125 328.171875 C 129.609375 328.691406 129.238281 329.1875 128.84375 329.671875 C 128.449219 330.152344 128.03125 330.613281 127.589844 331.054688 C 127.152344 331.492188 126.691406 331.910156 126.210938 332.308594 C 125.726562 332.703125 125.230469 333.074219 124.710938 333.417969 C 124.195312 333.765625 123.660156 334.085938 123.113281 334.378906 C 122.5625 334.671875 122 334.9375 121.425781 335.175781 C 120.851562 335.414062 120.265625 335.625 119.667969 335.804688 C 119.074219 335.984375 118.472656 336.136719 117.859375 336.257812 C 117.25 336.378906 116.636719 336.472656 116.015625 336.53125 C 115.398438 336.59375 114.777344 336.625 114.152344 336.625 Z M 76.144531 273.230469 C 75.726562 273.230469 75.316406 273.269531 74.90625 273.351562 C 74.5 273.433594 74.105469 273.554688 73.71875 273.710938 C 73.335938 273.871094 72.96875 274.066406 72.625 274.296875 C 72.277344 274.527344 71.957031 274.792969 71.664062 275.085938 C 71.371094 275.378906 71.109375 275.699219 70.875 276.046875 C 70.644531 276.394531 70.449219 276.757812 70.292969 277.144531 C 70.132812 277.527344 70.011719 277.925781 69.929688 278.332031 C 69.847656 278.742188 69.808594 279.152344 69.808594 279.570312 C 69.808594 279.984375 69.847656 280.398438 69.929688 280.804688 C 70.011719 281.214844 70.132812 281.609375 70.292969 281.996094 C 70.449219 282.378906 70.644531 282.746094 70.875 283.089844 C 71.109375 283.4375 71.371094 283.757812 71.664062 284.050781 C 71.957031 284.347656 72.277344 284.609375 72.625 284.839844 C 72.96875 285.070312 73.335938 285.265625 73.71875 285.425781 C 74.105469 285.585938 74.5 285.707031 74.90625 285.785156 C 75.316406 285.867188 75.726562 285.910156 76.144531 285.910156 L 101.484375 285.910156 C 101.898438 285.910156 102.3125 285.949219 102.71875 286.03125 C 103.128906 286.113281 103.523438 286.230469 103.90625 286.390625 C 104.292969 286.550781 104.65625 286.746094 105.003906 286.976562 C 105.347656 287.207031 105.667969 287.472656 105.960938 287.765625 C 106.257812 288.058594 106.519531 288.378906 106.75 288.726562 C 106.980469 289.070312 107.175781 289.4375 107.335938 289.820312 C 107.496094 290.207031 107.617188 290.601562 107.695312 291.011719 C 107.777344 291.417969 107.816406 291.832031 107.816406 292.246094 L 107.816406 317.605469 C 107.816406 318.023438 107.859375 318.433594 107.941406 318.84375 C 108.019531 319.25 108.140625 319.648438 108.300781 320.03125 C 108.460938 320.417969 108.65625 320.78125 108.886719 321.128906 C 109.117188 321.472656 109.378906 321.792969 109.671875 322.089844 C 109.96875 322.382812 110.289062 322.644531 110.632812 322.875 C 110.980469 323.109375 111.34375 323.304688 111.730469 323.460938 C 112.113281 323.621094 112.507812 323.742188 112.917969 323.824219 C 113.324219 323.90625 113.738281 323.945312 114.152344 323.945312 C 114.570312 323.945312 114.980469 323.90625 115.390625 323.824219 C 115.796875 323.742188 116.191406 323.621094 116.578125 323.460938 C 116.960938 323.304688 117.328125 323.109375 117.671875 322.875 C 118.019531 322.644531 118.339844 322.382812 118.632812 322.089844 C 118.925781 321.792969 119.1875 321.472656 119.421875 321.128906 C 119.652344 320.78125 119.847656 320.417969 120.003906 320.03125 C 120.164062 319.648438 120.285156 319.25 120.367188 318.84375 C 120.449219 318.433594 120.488281 318.023438 120.488281 317.605469 L 120.488281 292.246094 C 120.488281 291.832031 120.527344 291.417969 120.609375 291.011719 C 120.691406 290.601562 120.8125 290.207031 120.96875 289.820312 C 121.128906 289.4375 121.324219 289.070312 121.554688 288.726562 C 121.785156 288.378906 122.050781 288.058594 122.34375 287.765625 C 122.636719 287.472656 122.957031 287.207031 123.304688 286.976562 C 123.648438 286.746094 124.015625 286.550781 124.398438 286.390625 C 124.78125 286.230469 125.179688 286.113281 125.585938 286.03125 C 125.996094 285.949219 126.40625 285.910156 126.824219 285.910156 L 152.164062 285.910156 C 152.578125 285.910156 152.992188 285.867188 153.398438 285.785156 C 153.804688 285.707031 154.203125 285.585938 154.585938 285.425781 C 154.972656 285.265625 155.335938 285.070312 155.683594 284.839844 C 156.027344 284.609375 156.347656 284.347656 156.640625 284.050781 C 156.9375 283.757812 157.199219 283.4375 157.429688 283.089844 C 157.660156 282.746094 157.855469 282.378906 158.015625 281.996094 C 158.175781 281.609375 158.292969 281.214844 158.375 280.804688 C 158.457031 280.398438 158.496094 279.984375 158.496094 279.570312 C 158.496094 279.152344 158.457031 278.742188 158.375 278.332031 C 158.292969 277.925781 158.175781 277.527344 158.015625 277.144531 C 157.855469 276.757812 157.660156 276.394531 157.429688 276.046875 C 157.199219 275.699219 156.9375 275.378906 156.640625 275.085938 C 156.347656 274.792969 156.027344 274.527344 155.683594 274.296875 C 155.335938 274.066406 154.972656 273.871094 154.585938 273.710938 C 154.203125 273.554688 153.804688 273.433594 153.398438 273.351562 C 152.992188 273.269531 152.578125 273.230469 152.164062 273.230469 L 126.824219 273.230469 C 126.40625 273.230469 125.996094 273.1875 125.585938 273.109375 C 125.179688 273.027344 124.78125 272.90625 124.398438 272.746094 C 124.015625 272.585938 123.648438 272.390625 123.304688 272.160156 C 122.957031 271.929688 122.636719 271.667969 122.34375 271.371094 C 122.050781 271.078125 121.785156 270.757812 121.554688 270.414062 C 121.324219 270.066406 121.128906 269.699219 120.96875 269.316406 C 120.8125 268.929688 120.691406 268.535156 120.609375 268.125 C 120.527344 267.71875 120.488281 267.304688 120.488281 266.890625 L 120.488281 241.53125 C 120.488281 241.117188 120.449219 240.703125 120.367188 240.296875 C 120.285156 239.886719 120.164062 239.492188 120.003906 239.105469 C 119.847656 238.722656 119.652344 238.355469 119.421875 238.011719 C 119.1875 237.664062 118.925781 237.34375 118.632812 237.050781 C 118.339844 236.753906 118.019531 236.492188 117.671875 236.261719 C 117.328125 236.03125 116.960938 235.835938 116.578125 235.675781 C 116.191406 235.515625 115.796875 235.394531 115.390625 235.316406 C 114.980469 235.234375 114.570312 235.191406 114.152344 235.191406 C 113.738281 235.191406 113.324219 235.234375 112.917969 235.316406 C 112.507812 235.394531 112.113281 235.515625 111.730469 235.675781 C 111.34375 235.835938 110.980469 236.03125 110.632812 236.261719 C 110.289062 236.492188 109.96875 236.753906 109.671875 237.050781 C 109.378906 237.34375 109.117188 237.664062 108.886719 238.011719 C 108.65625 238.355469 108.460938 238.722656 108.300781 239.105469 C 108.140625 239.492188 108.019531 239.886719 107.941406 240.296875 C 107.859375 240.703125 107.816406 241.117188 107.816406 241.53125 L 107.816406 266.890625 C 107.816406 267.304688 107.777344 267.71875 107.695312 268.125 C 107.617188 268.535156 107.496094 268.929688 107.335938 269.316406 C 107.175781 269.699219 106.980469 270.066406 106.75 270.414062 C 106.519531 270.757812 106.257812 271.078125 105.960938 271.371094 C 105.667969 271.667969 105.347656 271.929688 105.003906 272.160156 C 104.65625 272.390625 104.292969 272.585938 103.90625 272.746094 C 103.523438 272.90625 103.128906 273.027344 102.71875 273.109375 C 102.3125 273.1875 101.898438 273.230469 101.484375 273.230469 Z M 76.144531 273.230469 "/>
<path style=" stroke:none;fill-rule:nonzero;fill:rgb(0%,25.489807%,72.158813%);fill-opacity:1;" d="M 226.792969 64.191406 L 337.71875 64.191406 L 337.71875 175.117188 L 226.792969 175.117188 Z M 226.792969 64.191406 "/>
</g>
</svg>
