<?xml version="1.0" encoding="UTF-8"?>
<svg xmlns="http://www.w3.org/2000/svg" xmlns:xlink="http://www.w3.org/1999/xlink" width="375pt" height="374.999991pt" viewBox="0 0 375 374.999991" version="1.2">
<defs>
<clipPath id="clip1">
  <path d="M 7.320312 37.5 L 362.820312 37.5 L 362.820312 333.75 L 7.320312 333.75 Z M 7.320312 37.5 "/>
</clipPath>
</defs>
<g id="surface1">
<g clip-path="url(#clip1)" clip-rule="nonzero">
<path style=" stroke:none;fill-rule:nonzero;fill:rgb(100%,100%,100%);fill-opacity:1;" d="M 256.292969 127.988281 C 254.324219 126.417969 251.660156 125.960938 249.308594 126.761719 C 246.925781 127.574219 245.105469 129.53125 244.5 131.988281 L 229.699219 191.238281 C 229.152344 193.460938 229.640625 195.800781 231.046875 197.59375 C 232.4375 199.386719 234.582031 200.4375 236.863281 200.4375 L 325.652344 200.4375 C 328.789062 200.4375 331.585938 198.4375 332.621094 195.476562 C 333.65625 192.511719 332.722656 189.210938 330.265625 187.238281 Z M 246.347656 185.625 L 256.039062 146.773438 L 304.578125 185.625 Z M 59.289062 126.375 L 81.484375 126.375 L 81.484375 148.59375 C 81.484375 152.683594 84.800781 156 88.882812 156 C 92.96875 156 96.28125 152.683594 96.28125 148.59375 L 96.28125 126.375 L 118.480469 126.375 C 122.5625 126.375 125.878906 123.058594 125.878906 118.96875 C 125.878906 114.878906 122.5625 111.5625 118.480469 111.5625 L 96.28125 111.5625 L 96.28125 89.34375 C 96.28125 85.253906 92.96875 81.9375 88.882812 81.9375 C 84.800781 81.9375 81.484375 85.253906 81.484375 89.34375 L 81.484375 111.5625 L 59.289062 111.5625 C 55.203125 111.5625 51.886719 114.878906 51.886719 118.96875 C 51.886719 123.058594 55.203125 126.375 59.289062 126.375 Z M 344.933594 159.984375 L 282.808594 108.171875 C 274.003906 100.792969 262.804688 96.75 251.320312 96.75 L 167.121094 96.75 C 157.425781 62.605469 126.070312 37.5 88.882812 37.5 C 44.015625 37.5 7.496094 74.042969 7.496094 118.96875 C 7.496094 143.335938 18.28125 165.167969 35.269531 180.113281 L 12.082031 226.566406 C 9.078125 232.566406 7.496094 239.277344 7.496094 245.957031 C 7.496094 269.863281 26.925781 289.3125 50.808594 289.3125 L 52.644531 289.3125 C 56.269531 314.375 77.667969 333.75 103.679688 333.75 C 129.695312 333.75 151.09375 314.375 154.71875 289.3125 L 215.40625 289.3125 C 219.03125 314.375 240.429688 333.75 266.445312 333.75 C 292.519531 333.75 313.929688 314.300781 317.496094 289.164062 C 325.546875 288.792969 332.710938 284.277344 336.320312 277.03125 L 350.734375 248.191406 C 358.5 232.640625 362.617188 215.21875 362.617188 197.832031 C 362.644531 183.167969 356.179688 169.375 344.933594 159.984375 Z M 22.292969 118.96875 C 22.292969 82.21875 52.167969 52.3125 88.882812 52.3125 C 125.597656 52.3125 155.472656 82.21875 155.472656 118.96875 C 155.472656 155.71875 125.613281 185.625 88.882812 185.625 C 52.15625 185.625 22.292969 155.71875 22.292969 118.96875 Z M 103.679688 318.9375 C 83.289062 318.9375 66.6875 302.316406 66.6875 281.90625 C 66.6875 261.496094 83.289062 244.875 103.679688 244.875 C 124.074219 244.875 140.675781 261.496094 140.675781 281.90625 C 140.675781 302.316406 124.074219 318.9375 103.679688 318.9375 Z M 266.457031 318.9375 C 246.066406 318.9375 229.464844 302.316406 229.464844 281.90625 C 229.464844 261.496094 246.066406 244.875 266.457031 244.875 C 286.851562 244.875 303.453125 261.496094 303.453125 281.90625 C 303.453125 302.316406 286.851562 318.9375 266.457031 318.9375 Z M 337.546875 241.570312 L 323.132812 270.410156 C 322.039062 272.617188 319.878906 273.894531 317.496094 274.234375 C 313.738281 249.304688 292.398438 230.0625 266.457031 230.0625 C 240.429688 230.0625 219.046875 249.4375 215.421875 274.5 L 154.734375 274.5 C 151.109375 249.4375 129.710938 230.0625 103.695312 230.0625 C 77.679688 230.0625 56.28125 249.4375 52.65625 274.5 L 50.808594 274.5 C 35.09375 274.5 22.292969 261.6875 22.292969 245.957031 C 22.292969 241.558594 23.328125 237.144531 25.3125 233.171875 L 47.40625 188.941406 C 59.582031 196.199219 73.730469 200.4375 88.882812 200.4375 C 133.765625 200.4375 170.273438 163.894531 170.273438 118.96875 C 170.273438 116.464844 170.125 114.007812 169.902344 111.5625 L 251.320312 111.5625 C 259.355469 111.5625 267.167969 114.390625 273.339844 119.546875 L 335.460938 171.359375 C 343.332031 177.921875 347.847656 187.566406 347.847656 197.816406 C 347.847656 212.925781 344.296875 228.046875 337.546875 241.570312 Z M 337.546875 241.570312 "/>
</g>
</g>
</svg>
