<?xml version="1.0" encoding="UTF-8"?>
<svg xmlns="http://www.w3.org/2000/svg" xmlns:xlink="http://www.w3.org/1999/xlink" width="1125pt" height="1124.99995pt" viewBox="0 0 1125 1124.99995" version="1.2">
<defs>
<clipPath id="clip1">
  <path d="M 43 20 L 1083.144531 20 L 1083.144531 1105 L 43 1105 Z M 43 20 "/>
</clipPath>
</defs>
<g id="surface1">
<g clip-path="url(#clip1)" clip-rule="nonzero">
<path style=" stroke:none;fill-rule:nonzero;fill:rgb(100%,100%,100%);fill-opacity:1;" d="M 503.300781 20.21875 C 418.273438 22.113281 356.0625 48.15625 318.554688 97.546875 C 274.011719 155.949219 263.644531 252.476562 291.59375 370.902344 C 282.035156 383.070312 273.5625 402.71875 275.726562 429.394531 C 282.578125 479.328125 301.511719 499.875 317.019531 508.257812 C 324.324219 547.914062 347.226562 592.976562 367.601562 614.425781 L 367.601562 696.625 C 354.257812 728.257812 307.824219 746.734375 254.355469 767.914062 C 164.28125 803.605469 52.207031 847.945312 44.453125 988.003906 L 43.191406 1012.339844 L 575.339844 1012.339844 C 575.339844 1011.527344 575.25 1010.625 575.25 1009.816406 C 574.890625 1009.183594 574.621094 1008.375 574.257812 1007.742188 C 545.855469 962.046875 529.175781 908.332031 529.175781 850.832031 C 529.175781 815.679688 535.667969 782.0625 546.847656 750.699219 C 546.9375 750.519531 546.9375 750.25 546.9375 750.070312 L 546.039062 748.898438 L 547.75 747.996094 C 548.109375 747.09375 548.472656 746.191406 548.832031 745.292969 C 550.996094 739.613281 553.160156 734.027344 555.683594 728.527344 C 556.316406 727.085938 557.039062 725.734375 557.667969 724.292969 C 562.175781 714.917969 567.046875 705.816406 572.363281 696.894531 C 574.078125 694.007812 575.792969 691.214844 577.59375 688.421875 C 580.121094 684.457031 582.824219 680.582031 585.527344 676.796875 C 586.609375 675.351562 587.421875 673.910156 588.503906 672.558594 L 506.636719 718.074219 L 413.765625 666.972656 L 413.765625 603.972656 L 414.128906 590.8125 L 402.496094 584.144531 C 394.109375 578.105469 364.988281 532.320312 360.839844 488.789062 L 360.570312 468.0625 L 339.5625 468.0625 C 336.316406 466.800781 325.945312 455.804688 321.707031 424.347656 C 320.085938 404.972656 329.914062 396.949219 329.914062 396.949219 L 343.4375 387.9375 L 339.472656 372.164062 C 311.519531 261.757812 318.191406 174.15625 355.339844 125.398438 C 383.921875 87.8125 434.054688 67.894531 503.839844 66.363281 C 547.480469 66.363281 578.855469 77.359375 590.039062 96.464844 L 595.628906 106.109375 L 606.71875 107.640625 C 637.464844 111.96875 653.152344 125.488281 667.128906 148.648438 C 700.578125 203.898438 694.628906 314.035156 674.613281 370.09375 L 667.308594 389.019531 L 685.613281 398.210938 C 687.683594 399.652344 693.183594 407.675781 691.832031 424.167969 C 688.765625 458.328125 677.949219 467.429688 675.601562 467.878906 L 655.585938 467.878906 L 652.792969 487.617188 C 646.121094 534.035156 617.449219 578.105469 610.054688 583.964844 L 598.421875 590.542969 L 598.421875 656.425781 L 651.167969 603.613281 L 655.765625 599.015625 C 670.824219 575.3125 689.308594 540.523438 695.800781 509.070312 C 712.390625 501.226562 733.039062 480.859375 737.816406 428.222656 C 739.980469 402.269531 732.859375 383.160156 723.03125 370.8125 C 742.59375 307.90625 748.09375 193.351562 706.621094 124.765625 C 686.964844 92.230469 663.070312 71.589844 623.398438 63.660156 C 601.128906 35.539062 559.203125 20.21875 503.300781 20.21875 Z M 783.078125 597.03125 L 769.285156 670.847656 C 762.339844 673.191406 753.054688 675.441406 746.203125 680.039062 L 683.808594 636.238281 L 614.5625 705.457031 L 656.128906 763.136719 C 653.785156 772.328125 649.183594 779.359375 646.839844 788.554688 L 575.339844 800.089844 L 575.339844 896.976562 L 646.839844 908.511719 C 649.183594 915.453125 651.53125 924.644531 656.128906 931.585938 L 614.5625 993.863281 L 683.808594 1063.082031 L 746.203125 1021.621094 C 755.398438 1026.21875 762.339844 1028.472656 771.539062 1030.816406 L 783.078125 1104.628906 L 877.660156 1104.628906 L 891.546875 1033.15625 C 898.488281 1030.816406 905.433594 1028.472656 914.628906 1023.875 L 977.023438 1065.421875 L 1046.269531 996.207031 L 1002.359375 936.179688 C 1006.957031 926.988281 1009.300781 917.707031 1011.644531 910.765625 L 1083.144531 896.976562 L 1083.144531 800.089844 L 1009.300781 788.554688 C 1006.957031 781.613281 1004.703125 772.421875 1000.105469 765.480469 L 1041.578125 703.113281 L 974.679688 636.238281 L 914.628906 680.039062 C 907.6875 675.441406 898.488281 673.191406 891.546875 670.847656 L 880.003906 597.03125 Z M 822.300781 643.179688 L 840.785156 643.179688 L 850.070312 705.457031 L 863.867188 710.140625 C 877.75 714.738281 891.546875 719.335938 903.085938 726.183594 L 916.972656 735.46875 L 969.988281 696.261719 L 981.53125 707.800781 L 944.652344 760.792969 L 951.597656 772.328125 C 958.539062 786.210938 963.136719 800.089844 967.734375 813.96875 L 972.332031 827.757812 L 1036.980469 837.042969 L 1036.980469 855.425781 L 974.679688 869.308594 L 969.988281 883.1875 C 965.390625 896.976562 960.792969 910.765625 953.941406 922.300781 L 944.652344 936.179688 L 983.875 989.265625 L 969.988281 1003.054688 L 916.972656 966.195312 L 905.433594 973.132812 C 891.546875 980.074219 877.75 984.667969 863.867188 989.265625 L 850.070312 993.863281 L 838.53125 1058.484375 L 819.957031 1058.484375 L 810.757812 996.207031 L 796.875 991.519531 C 783.078125 986.921875 769.285156 982.328125 757.742188 975.476562 L 743.859375 966.195312 L 688.496094 1003.054688 L 674.613281 989.265625 L 711.578125 936.179688 L 704.546875 924.644531 C 697.695312 910.765625 693.09375 894.722656 688.496094 883.1875 L 683.808594 869.308594 L 621.503906 857.769531 L 621.503906 839.292969 L 686.152344 827.757812 L 688.496094 811.625 C 690.75 800.089844 695.347656 786.210938 702.292969 774.671875 L 711.578125 763.136719 L 674.613281 710.140625 L 688.496094 696.261719 L 741.511719 733.214844 L 753.054688 728.527344 C 769.195312 721.589844 783.078125 714.738281 796.875 710.140625 L 810.757812 707.800781 Z M 408.535156 716.902344 L 408.628906 716.992188 L 466.0625 749.078125 L 413.496094 814.328125 L 370.398438 762.054688 C 386.898438 749.617188 400.242188 735.109375 408.535156 716.902344 Z M 829.242188 758.539062 C 778.570312 758.539062 736.914062 800.179688 736.914062 850.832031 C 736.914062 901.480469 778.570312 943.121094 829.242188 943.121094 C 879.195312 943.121094 921.570312 902.652344 921.570312 850.832031 C 921.570312 800.179688 879.914062 758.539062 829.242188 758.539062 Z M 330.09375 785.667969 L 396.003906 865.523438 C 400.332031 870.839844 407.003906 873.992188 413.945312 873.902344 C 420.890625 873.902344 427.382812 870.660156 431.800781 865.25 L 477.0625 809.011719 L 494.554688 823.160156 C 494.554688 823.160156 448.570312 891.660156 436.847656 966.195312 L 93.414062 966.195312 C 110.363281 874.535156 192.144531 842.179688 271.308594 810.8125 C 291.773438 802.703125 311.699219 794.679688 330.09375 785.667969 Z M 829.242188 804.6875 C 854.757812 804.6875 875.40625 825.324219 875.40625 850.832031 C 875.40625 878.589844 855.480469 896.976562 829.242188 896.976562 C 803.726562 896.976562 783.078125 876.335938 783.078125 850.832031 C 783.078125 825.324219 803.726562 804.6875 829.242188 804.6875 Z M 829.242188 804.6875 "/>
</g>
</g>
</svg>
