<?xml version="1.0" encoding="UTF-8"?>
<svg xmlns="http://www.w3.org/2000/svg" xmlns:xlink="http://www.w3.org/1999/xlink" width="1125pt" height="1124.99995pt" viewBox="0 0 1125 1124.99995" version="1.2">
<defs>
<clipPath id="clip1">
  <path d="M 72.089844 32.257812 L 1068.988281 32.257812 L 1068.988281 1110.007812 L 72.089844 1110.007812 Z M 72.089844 32.257812 "/>
</clipPath>
</defs>
<g id="surface1">
<path style=" stroke:none;fill-rule:nonzero;fill:rgb(100%,100%,100%);fill-opacity:1;" d="M 238.480469 758.1875 C 229.007812 758.1875 222.691406 764.503906 222.691406 773.976562 L 222.691406 810.429688 C 222.691406 819.902344 229.007812 826.3125 238.480469 826.3125 C 248.046875 826.3125 254.363281 819.902344 254.363281 810.429688 L 254.363281 773.976562 C 254.363281 766.128906 248.046875 758.1875 238.480469 758.1875 "/>
<path style=" stroke:none;fill-rule:nonzero;fill:rgb(100%,100%,100%);fill-opacity:1;" d="M 327.269531 758.1875 C 317.796875 758.1875 311.386719 764.503906 311.386719 773.976562 L 311.386719 810.429688 C 311.386719 819.902344 317.796875 826.3125 327.269531 826.3125 C 336.742188 826.3125 343.152344 819.902344 343.152344 810.429688 L 343.152344 773.976562 C 343.152344 766.128906 335.210938 758.1875 327.269531 758.1875 "/>
<path style=" stroke:none;fill-rule:nonzero;fill:rgb(100%,100%,100%);fill-opacity:1;" d="M 238.480469 851.667969 C 229.007812 851.667969 222.691406 857.984375 222.691406 867.550781 L 222.691406 903.910156 C 222.691406 913.480469 229.007812 919.792969 238.480469 919.792969 C 248.046875 919.792969 254.363281 913.480469 254.363281 903.910156 L 254.363281 867.550781 C 254.363281 859.609375 248.046875 851.667969 238.480469 851.667969 "/>
<path style=" stroke:none;fill-rule:nonzero;fill:rgb(100%,100%,100%);fill-opacity:1;" d="M 327.269531 851.667969 C 317.796875 851.667969 311.386719 857.984375 311.386719 867.550781 L 311.386719 903.910156 C 311.386719 913.480469 317.796875 919.792969 327.269531 919.792969 C 336.742188 919.792969 343.152344 913.480469 343.152344 903.910156 L 343.152344 867.550781 C 343.152344 859.609375 335.210938 851.667969 327.269531 851.667969 "/>
<path style=" stroke:none;fill-rule:nonzero;fill:rgb(100%,100%,100%);fill-opacity:1;" d="M 238.480469 946.777344 C 229.007812 946.777344 222.691406 953.089844 222.691406 962.5625 L 222.691406 999.015625 C 222.691406 1008.585938 229.007812 1014.902344 238.480469 1014.902344 C 248.046875 1014.902344 254.363281 1008.585938 254.363281 999.015625 L 254.363281 962.5625 C 254.363281 953.089844 248.046875 946.777344 238.480469 946.777344 "/>
<path style=" stroke:none;fill-rule:nonzero;fill:rgb(100%,100%,100%);fill-opacity:1;" d="M 327.269531 946.777344 C 317.796875 946.777344 311.386719 953.089844 311.386719 962.5625 L 311.386719 999.015625 C 311.386719 1008.585938 317.796875 1014.902344 327.269531 1014.902344 C 336.742188 1014.902344 343.152344 1008.585938 343.152344 999.015625 L 343.152344 962.5625 C 343.152344 953.089844 335.210938 946.777344 327.269531 946.777344 "/>
<path style=" stroke:none;fill-rule:nonzero;fill:rgb(100%,100%,100%);fill-opacity:1;" d="M 327.269531 566.347656 C 317.796875 566.347656 311.386719 572.757812 311.386719 582.230469 L 311.386719 618.6875 C 311.386719 628.253906 317.796875 634.570312 327.269531 634.570312 C 336.742188 634.570312 343.152344 628.253906 343.152344 618.6875 L 343.152344 582.230469 C 343.152344 574.289062 335.210938 566.347656 327.269531 566.347656 "/>
<path style=" stroke:none;fill-rule:nonzero;fill:rgb(100%,100%,100%);fill-opacity:1;" d="M 238.480469 661.453125 C 229.007812 661.453125 222.691406 667.867188 222.691406 677.339844 L 222.691406 713.792969 C 222.691406 723.265625 229.007812 729.578125 238.480469 729.578125 C 248.046875 729.578125 254.363281 723.265625 254.363281 713.792969 L 254.363281 677.339844 C 254.363281 667.867188 248.046875 661.453125 238.480469 661.453125 "/>
<path style=" stroke:none;fill-rule:nonzero;fill:rgb(100%,100%,100%);fill-opacity:1;" d="M 327.269531 661.453125 C 317.796875 661.453125 311.386719 667.867188 311.386719 677.339844 L 311.386719 713.792969 C 311.386719 723.265625 317.796875 729.578125 327.269531 729.578125 C 336.742188 729.578125 343.152344 723.265625 343.152344 713.792969 L 343.152344 677.339844 C 343.152344 667.867188 335.210938 661.453125 327.269531 661.453125 "/>
<path style=" stroke:none;fill-rule:nonzero;fill:rgb(100%,100%,100%);fill-opacity:1;" d="M 408.121094 758.1875 C 398.554688 758.1875 392.238281 764.503906 392.238281 773.976562 L 392.238281 810.429688 C 392.238281 819.902344 398.554688 826.3125 408.121094 826.3125 C 417.59375 826.3125 423.910156 819.902344 423.910156 810.429688 L 423.910156 773.976562 C 423.910156 766.128906 416.0625 758.1875 408.121094 758.1875 "/>
<path style=" stroke:none;fill-rule:nonzero;fill:rgb(100%,100%,100%);fill-opacity:1;" d="M 495.285156 758.1875 C 485.71875 758.1875 479.402344 764.503906 479.402344 773.976562 L 479.402344 810.429688 C 479.402344 819.902344 485.71875 826.3125 495.285156 826.3125 C 504.757812 826.3125 511.074219 819.902344 511.074219 810.429688 L 511.074219 773.976562 C 511.074219 766.128906 503.226562 758.1875 495.285156 758.1875 "/>
<path style=" stroke:none;fill-rule:nonzero;fill:rgb(100%,100%,100%);fill-opacity:1;" d="M 408.121094 851.667969 C 398.554688 851.667969 392.238281 857.984375 392.238281 867.550781 L 392.238281 903.910156 C 392.238281 913.480469 398.554688 919.792969 408.121094 919.792969 C 417.59375 919.792969 423.910156 913.480469 423.910156 903.910156 L 423.910156 867.550781 C 423.910156 859.609375 416.0625 851.667969 408.121094 851.667969 "/>
<path style=" stroke:none;fill-rule:nonzero;fill:rgb(100%,100%,100%);fill-opacity:1;" d="M 495.285156 851.667969 C 485.71875 851.667969 479.402344 857.984375 479.402344 867.550781 L 479.402344 903.910156 C 479.402344 913.480469 485.71875 919.792969 495.285156 919.792969 C 504.757812 919.792969 511.074219 913.480469 511.074219 903.910156 L 511.074219 867.550781 C 511.074219 859.609375 503.226562 851.667969 495.285156 851.667969 "/>
<path style=" stroke:none;fill-rule:nonzero;fill:rgb(100%,100%,100%);fill-opacity:1;" d="M 408.121094 946.777344 C 398.554688 946.777344 392.238281 953.089844 392.238281 962.5625 L 392.238281 999.015625 C 392.238281 1008.585938 398.554688 1014.902344 408.121094 1014.902344 C 417.59375 1014.902344 423.910156 1008.585938 423.910156 999.015625 L 423.910156 962.5625 C 423.910156 953.089844 416.0625 946.777344 408.121094 946.777344 "/>
<path style=" stroke:none;fill-rule:nonzero;fill:rgb(100%,100%,100%);fill-opacity:1;" d="M 495.285156 946.777344 C 485.71875 946.777344 479.402344 953.089844 479.402344 962.5625 L 479.402344 999.015625 C 479.402344 1008.585938 485.71875 1014.902344 495.285156 1014.902344 C 504.757812 1014.902344 511.074219 1008.585938 511.074219 999.015625 L 511.074219 962.5625 C 511.074219 953.089844 503.226562 946.777344 495.285156 946.777344 "/>
<path style=" stroke:none;fill-rule:nonzero;fill:rgb(100%,100%,100%);fill-opacity:1;" d="M 495.285156 566.347656 C 485.71875 566.347656 479.402344 572.757812 479.402344 582.230469 L 479.402344 618.6875 C 479.402344 628.253906 485.71875 634.570312 495.285156 634.570312 C 504.757812 634.570312 511.074219 628.253906 511.074219 618.6875 L 511.074219 582.230469 C 511.074219 574.289062 503.226562 566.347656 495.285156 566.347656 "/>
<path style=" stroke:none;fill-rule:nonzero;fill:rgb(100%,100%,100%);fill-opacity:1;" d="M 408.121094 566.347656 C 398.554688 566.347656 392.238281 572.757812 392.238281 582.230469 L 392.238281 618.6875 C 392.238281 628.253906 398.554688 634.570312 408.121094 634.570312 C 417.59375 634.570312 423.910156 628.253906 423.910156 618.6875 L 423.910156 582.230469 C 423.910156 574.289062 416.0625 566.347656 408.121094 566.347656 "/>
<path style=" stroke:none;fill-rule:nonzero;fill:rgb(100%,100%,100%);fill-opacity:1;" d="M 408.121094 661.453125 C 398.554688 661.453125 392.238281 667.867188 392.238281 677.339844 L 392.238281 713.792969 C 392.238281 723.265625 398.554688 729.578125 408.121094 729.578125 C 417.59375 729.578125 423.910156 723.265625 423.910156 713.792969 L 423.910156 677.339844 C 423.910156 667.867188 416.0625 661.453125 408.121094 661.453125 "/>
<path style=" stroke:none;fill-rule:nonzero;fill:rgb(100%,100%,100%);fill-opacity:1;" d="M 495.285156 661.453125 C 485.71875 661.453125 479.402344 667.867188 479.402344 677.339844 L 479.402344 713.792969 C 479.402344 723.265625 485.71875 729.578125 495.285156 729.578125 C 504.757812 729.578125 511.074219 723.265625 511.074219 713.792969 L 511.074219 677.339844 C 511.074219 667.867188 503.226562 661.453125 495.285156 661.453125 "/>
<path style=" stroke:none;fill-rule:nonzero;fill:rgb(100%,100%,100%);fill-opacity:1;" d="M 408.121094 466.554688 C 398.554688 466.554688 392.238281 472.867188 392.238281 482.339844 L 392.238281 518.792969 C 392.238281 528.363281 398.554688 534.679688 408.121094 534.679688 C 417.59375 534.679688 423.910156 528.363281 423.910156 518.792969 L 423.910156 482.339844 C 423.910156 472.867188 416.0625 466.554688 408.121094 466.554688 "/>
<path style=" stroke:none;fill-rule:nonzero;fill:rgb(100%,100%,100%);fill-opacity:1;" d="M 495.285156 466.554688 C 485.71875 466.554688 479.402344 472.867188 479.402344 482.339844 L 479.402344 518.792969 C 479.402344 528.363281 485.71875 534.679688 495.285156 534.679688 C 504.757812 534.679688 511.074219 528.363281 511.074219 518.792969 L 511.074219 482.339844 C 511.074219 472.867188 503.226562 466.554688 495.285156 466.554688 "/>
<path style=" stroke:none;fill-rule:nonzero;fill:rgb(100%,100%,100%);fill-opacity:1;" d="M 495.285156 274.710938 C 485.71875 274.710938 479.402344 281.125 479.402344 290.597656 L 479.402344 327.050781 C 479.402344 336.523438 485.71875 342.933594 495.285156 342.933594 C 504.757812 342.933594 511.074219 336.523438 511.074219 327.050781 L 511.074219 290.597656 C 511.074219 282.652344 503.226562 274.710938 495.285156 274.710938 "/>
<path style=" stroke:none;fill-rule:nonzero;fill:rgb(100%,100%,100%);fill-opacity:1;" d="M 408.121094 274.710938 C 398.554688 274.710938 392.238281 281.125 392.238281 290.597656 L 392.238281 327.050781 C 392.238281 336.523438 398.554688 342.933594 408.121094 342.933594 C 417.59375 342.933594 423.910156 336.523438 423.910156 327.050781 L 423.910156 290.597656 C 423.910156 282.652344 416.0625 274.710938 408.121094 274.710938 "/>
<path style=" stroke:none;fill-rule:nonzero;fill:rgb(100%,100%,100%);fill-opacity:1;" d="M 408.121094 369.820312 C 398.554688 369.820312 392.238281 376.132812 392.238281 385.703125 L 392.238281 422.15625 C 392.238281 431.628906 398.554688 438.039062 408.121094 438.039062 C 417.59375 438.039062 423.910156 431.628906 423.910156 422.15625 L 423.910156 385.703125 C 423.910156 376.132812 416.0625 369.820312 408.121094 369.820312 "/>
<path style=" stroke:none;fill-rule:nonzero;fill:rgb(100%,100%,100%);fill-opacity:1;" d="M 495.285156 369.820312 C 485.71875 369.820312 479.402344 376.132812 479.402344 385.703125 L 479.402344 422.15625 C 479.402344 431.628906 485.71875 438.039062 495.285156 438.039062 C 504.757812 438.039062 511.074219 431.628906 511.074219 422.15625 L 511.074219 385.703125 C 511.074219 376.132812 503.226562 369.820312 495.285156 369.820312 "/>
<g clip-path="url(#clip1)" clip-rule="nonzero">
<path style=" stroke:none;fill-rule:nonzero;fill:rgb(100%,100%,100%);fill-opacity:1;" d="M 175.136719 626.628906 L 335.210938 444.355469 C 338.371094 441.199219 338.371094 438.039062 338.371094 433.257812 L 338.371094 211.371094 L 560.253906 211.371094 L 560.253906 1076.710938 L 175.136719 1076.710938 Z M 715.542969 913.480469 L 751.996094 913.480469 L 751.996094 1078.335938 L 715.542969 1078.335938 Z M 959.625 62.398438 L 959.625 139.992188 L 715.542969 139.992188 L 715.542969 62.398438 Z M 921.640625 913.480469 L 959.625 913.480469 L 959.625 1078.335938 L 921.640625 1078.335938 Z M 853.417969 913.480469 L 891.5 913.480469 L 891.5 1078.335938 L 853.417969 1078.335938 Z M 783.765625 913.480469 L 821.75 913.480469 L 821.75 1078.335938 L 783.765625 1078.335938 Z M 715.542969 804.117188 L 959.625 804.117188 L 959.625 881.808594 L 714.011719 881.808594 L 714.011719 804.117188 Z M 959.625 246.199219 L 715.542969 246.199219 L 715.542969 173.289062 L 959.625 173.289062 Z M 715.542969 697.910156 L 959.625 697.910156 L 959.625 770.820312 L 715.542969 770.820312 Z M 959.625 350.875 L 715.542969 350.875 L 715.542969 277.964844 L 959.625 277.964844 Z M 959.625 593.332031 L 959.625 666.238281 L 715.542969 666.238281 L 715.542969 593.332031 Z M 959.625 488.75 L 959.625 561.660156 L 715.542969 561.660156 L 715.542969 488.75 Z M 959.625 456.984375 L 715.542969 456.984375 L 715.542969 384.074219 L 959.625 384.074219 Z M 1053.199219 1078.335938 L 991.390625 1078.335938 L 991.390625 48.140625 C 991.390625 38.570312 984.980469 32.257812 975.507812 32.257812 L 699.757812 32.257812 C 690.1875 32.257812 683.871094 38.570312 683.871094 48.140625 L 683.871094 1078.335938 L 591.921875 1078.335938 L 591.921875 197.117188 C 591.921875 187.546875 585.609375 181.234375 576.136719 181.234375 L 322.488281 181.234375 C 313.015625 181.234375 306.699219 187.546875 306.699219 197.117188 L 306.699219 428.472656 L 146.625 610.746094 C 143.371094 613.902344 143.371094 617.15625 143.371094 621.84375 L 143.371094 1078.335938 L 87.972656 1078.335938 C 78.40625 1078.335938 72.089844 1084.652344 72.089844 1094.21875 C 72.089844 1103.691406 78.40625 1110.007812 87.972656 1110.007812 L 1053.199219 1110.007812 C 1062.671875 1110.007812 1068.988281 1103.691406 1068.988281 1094.21875 C 1068.988281 1084.652344 1061.046875 1078.335938 1053.199219 1078.335938 "/>
</g>
</g>
</svg>
