<?xml version="1.0" encoding="UTF-8"?>
<svg xmlns="http://www.w3.org/2000/svg" xmlns:xlink="http://www.w3.org/1999/xlink" width="375pt" height="374.999991pt" viewBox="0 0 375 374.999991" version="1.2">
<defs>
<clipPath id="clip1">
  <path d="M 4.394531 4.394531 L 369.644531 4.394531 L 369.644531 369.644531 L 4.394531 369.644531 Z M 4.394531 4.394531 "/>
</clipPath>
</defs>
<g id="surface1">
<path style=" stroke:none;fill-rule:nonzero;fill:rgb(100%,100%,100%);fill-opacity:1;" d="M 27.222656 329.695312 C 27.222656 332.835938 29.792969 335.402344 32.929688 335.402344 C 36.070312 335.402344 38.636719 332.835938 38.636719 329.695312 L 38.636719 312.574219 L 55.757812 312.574219 C 58.898438 312.574219 61.464844 310.007812 61.464844 306.867188 C 61.464844 303.730469 58.898438 301.160156 55.757812 301.160156 L 37.78125 301.160156 C 32.074219 301.160156 27.222656 305.726562 27.222656 311.71875 Z M 27.222656 329.695312 "/>
<path style=" stroke:none;fill-rule:nonzero;fill:rgb(100%,100%,100%);fill-opacity:1;" d="M 164.191406 329.695312 C 164.191406 332.835938 166.761719 335.402344 169.898438 335.402344 C 173.039062 335.402344 175.605469 332.835938 175.605469 329.695312 L 175.605469 312.574219 L 192.726562 312.574219 C 195.867188 312.574219 198.433594 310.007812 198.433594 306.867188 C 198.433594 303.730469 195.867188 301.160156 192.726562 301.160156 L 174.75 301.160156 C 169.042969 301.160156 164.191406 305.726562 164.191406 311.71875 Z M 164.191406 329.695312 "/>
<path style=" stroke:none;fill-rule:nonzero;fill:rgb(100%,100%,100%);fill-opacity:1;" d="M 232.675781 192.726562 C 232.675781 195.867188 235.246094 198.433594 238.382812 198.433594 C 241.523438 198.433594 244.089844 195.867188 244.089844 192.726562 L 244.089844 175.605469 L 261.210938 175.605469 C 264.351562 175.605469 266.917969 173.039062 266.917969 169.898438 C 266.917969 166.761719 264.351562 164.191406 261.210938 164.191406 L 243.234375 164.191406 C 237.527344 164.191406 232.675781 168.757812 232.675781 174.75 Z M 232.675781 192.726562 "/>
<path style=" stroke:none;fill-rule:nonzero;fill:rgb(100%,100%,100%);fill-opacity:1;" d="M 118.535156 164.191406 L 100.558594 164.191406 C 94.851562 164.191406 90 168.757812 90 174.75 L 90 192.726562 C 90 195.867188 92.570312 198.433594 95.707031 198.433594 C 98.847656 198.433594 101.414062 195.867188 101.414062 192.726562 L 101.414062 175.605469 L 118.535156 175.605469 C 121.675781 175.605469 124.242188 173.039062 124.242188 169.898438 C 124.242188 166.761719 121.675781 164.191406 118.535156 164.191406 Z M 118.535156 164.191406 "/>
<path style=" stroke:none;fill-rule:nonzero;fill:rgb(100%,100%,100%);fill-opacity:1;" d="M 192.726562 27.222656 L 174.75 27.222656 C 169.042969 27.222656 164.191406 31.789062 164.191406 37.78125 L 164.191406 55.757812 C 164.191406 58.898438 166.761719 61.464844 169.898438 61.464844 C 173.039062 61.464844 175.605469 58.898438 175.605469 55.757812 L 175.605469 38.636719 L 192.726562 38.636719 C 195.867188 38.636719 198.433594 36.070312 198.433594 32.929688 C 198.433594 29.792969 195.867188 27.222656 192.726562 27.222656 Z M 192.726562 27.222656 "/>
<g clip-path="url(#clip1)" clip-rule="nonzero">
<path style=" stroke:none;fill-rule:nonzero;fill:rgb(100%,100%,100%);fill-opacity:1;" d="M 346.816406 278.332031 L 341.109375 278.332031 L 341.109375 266.917969 C 341.109375 260.640625 335.972656 255.503906 329.695312 255.503906 L 261.210938 255.503906 L 261.210938 232.675781 L 278.332031 232.675781 C 290.890625 232.675781 301.160156 222.40625 301.160156 209.847656 L 301.160156 164.191406 C 301.160156 151.636719 290.890625 141.363281 278.332031 141.363281 L 266.917969 141.363281 L 266.917969 127.097656 C 266.917969 120.820312 261.78125 115.683594 255.503906 115.683594 L 192.726562 115.683594 L 192.726562 95.707031 L 209.847656 95.707031 C 222.40625 95.707031 232.675781 85.4375 232.675781 72.878906 L 232.675781 27.222656 C 232.675781 14.667969 222.40625 4.394531 209.847656 4.394531 L 164.191406 4.394531 C 151.636719 4.394531 141.363281 14.667969 141.363281 27.222656 L 141.363281 72.878906 C 141.363281 85.4375 151.636719 95.707031 164.191406 95.707031 L 181.3125 95.707031 L 181.3125 115.683594 L 118.535156 115.683594 C 112.257812 115.683594 107.121094 120.820312 107.121094 127.097656 L 107.121094 141.363281 L 90 141.363281 C 77.445312 141.363281 67.171875 151.636719 67.171875 164.191406 L 67.171875 209.847656 C 67.171875 222.40625 77.445312 232.675781 90 232.675781 L 107.121094 232.675781 L 107.121094 255.503906 L 44.34375 255.503906 C 38.066406 255.503906 32.929688 260.640625 32.929688 266.917969 L 32.929688 278.332031 L 27.222656 278.332031 C 14.667969 278.332031 4.394531 288.605469 4.394531 301.160156 L 4.394531 346.816406 C 4.394531 359.375 14.667969 369.644531 27.222656 369.644531 L 72.878906 369.644531 C 85.4375 369.644531 95.707031 359.375 95.707031 346.816406 L 95.707031 301.160156 C 95.707031 288.605469 85.4375 278.332031 72.878906 278.332031 L 44.34375 278.332031 L 44.34375 266.917969 L 181.3125 266.917969 L 181.3125 278.332031 L 164.191406 278.332031 C 151.636719 278.332031 141.363281 288.605469 141.363281 301.160156 L 141.363281 346.816406 C 141.363281 359.375 151.636719 369.644531 164.191406 369.644531 L 209.847656 369.644531 C 222.40625 369.644531 232.675781 359.375 232.675781 346.816406 L 232.675781 301.160156 C 232.675781 288.605469 222.40625 278.332031 209.847656 278.332031 L 192.726562 278.332031 L 192.726562 266.917969 L 329.695312 266.917969 L 329.695312 278.332031 L 301.160156 278.332031 C 288.605469 278.332031 278.332031 288.605469 278.332031 301.160156 L 278.332031 346.816406 C 278.332031 359.375 288.605469 369.644531 301.160156 369.644531 L 346.816406 369.644531 C 359.375 369.644531 369.644531 359.375 369.644531 346.816406 L 369.644531 301.160156 C 369.644531 288.605469 359.375 278.332031 346.816406 278.332031 Z M 72.878906 289.746094 C 79.15625 289.746094 84.292969 294.882812 84.292969 301.160156 L 84.292969 346.816406 C 84.292969 353.09375 79.15625 358.230469 72.878906 358.230469 L 27.222656 358.230469 C 20.945312 358.230469 15.808594 353.09375 15.808594 346.816406 L 15.808594 301.160156 C 15.808594 294.882812 20.945312 289.746094 27.222656 289.746094 Z M 278.332031 152.777344 C 284.609375 152.777344 289.746094 157.914062 289.746094 164.191406 L 289.746094 209.847656 C 289.746094 216.125 284.609375 221.261719 278.332031 221.261719 L 232.675781 221.261719 C 226.398438 221.261719 221.261719 216.125 221.261719 209.847656 L 221.261719 164.191406 C 221.261719 157.914062 226.398438 152.777344 232.675781 152.777344 Z M 164.191406 84.292969 C 157.914062 84.292969 152.777344 79.15625 152.777344 72.878906 L 152.777344 27.222656 C 152.777344 20.945312 157.914062 15.808594 164.191406 15.808594 L 209.847656 15.808594 C 216.125 15.808594 221.261719 20.945312 221.261719 27.222656 L 221.261719 72.878906 C 221.261719 79.15625 216.125 84.292969 209.847656 84.292969 Z M 90 221.261719 C 83.722656 221.261719 78.585938 216.125 78.585938 209.847656 L 78.585938 164.191406 C 78.585938 157.914062 83.722656 152.777344 90 152.777344 L 135.65625 152.777344 C 141.933594 152.777344 147.070312 157.914062 147.070312 164.191406 L 147.070312 209.847656 C 147.070312 216.125 141.933594 221.261719 135.65625 221.261719 Z M 209.847656 289.746094 C 216.125 289.746094 221.261719 294.882812 221.261719 301.160156 L 221.261719 346.816406 C 221.261719 353.09375 216.125 358.230469 209.847656 358.230469 L 164.191406 358.230469 C 157.914062 358.230469 152.777344 353.09375 152.777344 346.816406 L 152.777344 301.160156 C 152.777344 294.882812 157.914062 289.746094 164.191406 289.746094 Z M 249.796875 255.503906 L 118.535156 255.503906 L 118.535156 232.675781 L 135.65625 232.675781 C 148.214844 232.675781 158.484375 222.40625 158.484375 209.847656 L 158.484375 164.191406 C 158.484375 151.636719 148.214844 141.363281 135.65625 141.363281 L 118.535156 141.363281 L 118.535156 127.097656 L 255.503906 127.097656 L 255.503906 141.363281 L 232.675781 141.363281 C 220.121094 141.363281 209.847656 151.636719 209.847656 164.191406 L 209.847656 209.847656 C 209.847656 222.40625 220.121094 232.675781 232.675781 232.675781 L 249.796875 232.675781 Z M 358.230469 346.816406 C 358.230469 353.09375 353.09375 358.230469 346.816406 358.230469 L 301.160156 358.230469 C 294.882812 358.230469 289.746094 353.09375 289.746094 346.816406 L 289.746094 301.160156 C 289.746094 294.882812 294.882812 289.746094 301.160156 289.746094 L 346.816406 289.746094 C 353.09375 289.746094 358.230469 294.882812 358.230469 301.160156 Z M 358.230469 346.816406 "/>
</g>
<path style=" stroke:none;fill-rule:nonzero;fill:rgb(100%,100%,100%);fill-opacity:1;" d="M 329.695312 301.160156 L 311.71875 301.160156 C 306.011719 301.160156 301.160156 305.726562 301.160156 311.71875 L 301.160156 329.695312 C 301.160156 332.835938 303.730469 335.402344 306.867188 335.402344 C 310.007812 335.402344 312.574219 332.835938 312.574219 329.695312 L 312.574219 312.574219 L 329.695312 312.574219 C 332.835938 312.574219 335.402344 310.007812 335.402344 306.867188 C 335.402344 303.730469 332.835938 301.160156 329.695312 301.160156 Z M 329.695312 301.160156 "/>
</g>
</svg>
