<?xml version="1.0" encoding="UTF-8"?>
<svg xmlns="http://www.w3.org/2000/svg" xmlns:xlink="http://www.w3.org/1999/xlink" width="375pt" height="374.999991pt" viewBox="0 0 375 374.999991" version="1.2">
<defs>
<clipPath id="clip1">
  <path d="M 130 6.996094 L 248 6.996094 L 248 144 L 130 144 Z M 130 6.996094 "/>
</clipPath>
<clipPath id="clip2">
  <path d="M 8 270 L 182 270 L 182 368.496094 L 8 368.496094 Z M 8 270 "/>
</clipPath>
</defs>
<g id="surface1">
<g clip-path="url(#clip1)" clip-rule="nonzero">
<path style=" stroke:none;fill-rule:nonzero;fill:rgb(100%,100%,100%);fill-opacity:1;" d="M 130.792969 71.335938 C 130.792969 72.183594 131.074219 73.3125 131.074219 74.160156 C 131.074219 75.285156 131.359375 76.132812 131.640625 77.261719 C 131.925781 79.238281 132.488281 81.496094 133.054688 83.472656 C 133.054688 84.035156 133.335938 84.316406 133.335938 84.882812 C 133.902344 86.574219 134.183594 88.269531 134.75 89.960938 C 135.03125 90.527344 135.316406 91.371094 135.316406 91.9375 C 135.878906 93.347656 136.445312 94.757812 137.011719 96.453125 C 137.292969 97.296875 137.859375 98.425781 138.140625 99.273438 C 138.707031 100.683594 139.273438 101.8125 139.835938 103.226562 C 140.402344 104.070312 140.96875 105.199219 141.25 106.328125 C 141.816406 107.457031 142.382812 108.304688 142.945312 109.433594 C 143.792969 110.5625 144.359375 111.972656 145.207031 113.101562 C 145.773438 113.949219 146.339844 114.796875 146.902344 115.640625 C 147.75 116.769531 148.316406 117.898438 149.164062 119.027344 C 150.011719 120.15625 150.578125 121.003906 151.425781 121.851562 C 152.273438 122.980469 153.121094 123.824219 153.96875 124.671875 C 154.816406 125.519531 155.382812 126.367188 156.230469 127.210938 C 165.558594 136.808594 176.578125 143.296875 189.015625 143.296875 C 201.449219 143.296875 212.472656 136.808594 221.800781 127.210938 C 222.367188 126.648438 223.214844 125.800781 223.777344 125.238281 C 224.34375 124.390625 225.191406 123.824219 225.757812 122.980469 C 226.320312 122.132812 227.171875 121.285156 227.734375 120.4375 C 228.582031 119.027344 229.714844 117.898438 230.5625 116.488281 C 233.671875 111.972656 236.496094 106.894531 238.757812 101.8125 C 239.324219 100.402344 239.886719 98.992188 240.453125 97.863281 C 240.453125 97.582031 240.738281 97.296875 240.738281 97.015625 C 241.300781 95.605469 241.867188 94.195312 242.148438 92.785156 C 242.433594 91.9375 242.714844 91.371094 242.996094 90.527344 C 243.5625 89.113281 243.84375 87.703125 244.410156 86.011719 C 245.257812 83.1875 245.824219 80.085938 246.390625 77.261719 C 246.390625 77.261719 246.390625 76.980469 246.390625 76.980469 C 246.671875 75.285156 246.953125 73.3125 247.238281 71.617188 C 247.238281 71.335938 247.238281 71.054688 247.238281 70.773438 C 247.519531 68.796875 247.519531 67.101562 247.519531 65.410156 C 247.519531 62.589844 247.238281 59.484375 246.953125 56.660156 C 246.953125 55.816406 246.671875 54.96875 246.390625 54.121094 C 245.824219 51.582031 245.257812 49.042969 244.410156 46.785156 C 236.214844 23.644531 214.453125 6.996094 188.734375 6.996094 C 163.011719 6.996094 141.25 23.644531 133.335938 46.503906 C 132.488281 48.761719 131.925781 51.300781 131.359375 53.839844 C 131.074219 54.6875 131.074219 55.53125 130.792969 56.378906 C 130.226562 59.203125 130.226562 62.023438 130.226562 65.128906 C 130.226562 66.820312 130.226562 68.796875 130.511719 70.773438 C 130.511719 71.054688 130.792969 71.054688 130.792969 71.335938 Z M 188.734375 18.28125 C 214.734375 18.28125 235.933594 39.449219 235.933594 65.128906 C 235.933594 90.808594 214.453125 131.445312 188.734375 131.445312 C 163.011719 131.445312 141.535156 90.808594 141.535156 65.128906 C 141.535156 39.449219 162.730469 18.28125 188.734375 18.28125 Z M 188.734375 18.28125 "/>
</g>
<path style=" stroke:none;fill-rule:nonzero;fill:rgb(100%,100%,100%);fill-opacity:1;" d="M 203.710938 197.761719 C 203.710938 196.632812 203.710938 195.503906 203.710938 194.375 L 203.710938 194.09375 C 203.710938 193.246094 203.710938 192.402344 203.996094 191.554688 C 203.996094 191.273438 203.996094 190.988281 203.996094 190.707031 C 203.996094 189.859375 204.277344 188.730469 204.277344 187.886719 C 204.277344 187.886719 204.277344 187.601562 204.277344 187.601562 C 204.277344 187.039062 204.558594 186.191406 204.558594 185.628906 C 204.558594 185.0625 204.84375 184.214844 204.84375 183.652344 C 205.125 182.804688 205.40625 181.960938 205.40625 180.832031 C 205.40625 180.546875 205.691406 179.984375 205.691406 179.703125 C 205.972656 178.855469 205.972656 178.289062 206.253906 177.445312 C 206.539062 176.316406 207.101562 175.1875 207.386719 174.058594 C 207.667969 173.210938 207.953125 172.363281 208.515625 171.519531 C 208.515625 171.234375 208.800781 170.671875 209.082031 170.390625 C 209.363281 169.824219 209.648438 168.976562 209.929688 168.414062 C 210.210938 167.847656 210.496094 167.285156 210.777344 167.003906 C 211.34375 165.875 211.90625 164.746094 212.757812 163.617188 C 213.320312 162.488281 214.167969 161.359375 214.734375 160.230469 C 216.996094 156.84375 219.257812 153.738281 222.082031 150.917969 C 222.929688 150.070312 223.777344 149.222656 224.625 148.378906 C 224.625 148.09375 224.910156 148.09375 224.910156 148.09375 C 225.757812 147.25 226.605469 146.402344 227.453125 145.835938 C 228.300781 144.992188 229.429688 144.144531 230.5625 143.296875 C 228.300781 142.449219 226.605469 141.039062 225.191406 139.347656 C 215.300781 148.09375 202.863281 154.019531 188.734375 154.019531 C 174.601562 154.019531 162.449219 148.09375 151.992188 138.78125 C 150.578125 140.476562 148.882812 141.886719 146.621094 142.734375 C 147.46875 143.578125 148.316406 144.144531 149.445312 144.992188 C 149.445312 144.992188 149.730469 144.992188 149.730469 145.273438 C 150.578125 146.121094 151.425781 146.964844 152.273438 147.8125 C 152.273438 147.8125 152.273438 147.8125 152.554688 147.8125 C 153.402344 148.660156 153.96875 149.222656 154.816406 150.070312 C 155.949219 151.199219 156.796875 152.328125 157.925781 153.457031 C 158.773438 154.585938 159.621094 155.433594 160.46875 156.5625 C 161.316406 157.691406 161.882812 158.820312 162.730469 159.664062 C 163.578125 160.792969 164.144531 161.921875 164.707031 163.050781 C 165.273438 164.179688 165.839844 165.308594 166.6875 166.4375 C 166.96875 167.003906 167.253906 167.566406 167.535156 168.132812 C 168.101562 168.976562 168.382812 169.824219 168.664062 170.953125 C 168.949219 171.800781 169.230469 172.644531 169.511719 173.492188 C 169.796875 174.339844 170.078125 175.1875 170.363281 176.03125 C 170.644531 176.597656 170.644531 177.160156 170.925781 177.445312 C 171.492188 179.703125 172.058594 181.960938 172.621094 184.214844 C 172.621094 184.78125 172.90625 185.34375 172.90625 186.191406 C 172.90625 186.472656 172.90625 187.039062 173.1875 187.320312 C 173.1875 187.601562 173.1875 187.601562 173.1875 187.886719 C 173.1875 188.730469 173.46875 189.578125 173.46875 190.425781 C 173.46875 190.707031 173.46875 190.988281 173.46875 191.554688 C 173.46875 192.402344 173.46875 193.246094 173.753906 194.09375 L 173.753906 194.660156 C 173.753906 195.785156 173.753906 196.914062 173.753906 198.042969 L 203.710938 198.042969 Z M 203.710938 197.761719 "/>
<path style=" stroke:none;fill-rule:nonzero;fill:rgb(100%,100%,100%);fill-opacity:1;" d="M 369.617188 341.121094 C 369.617188 340.273438 369.617188 339.425781 369.617188 338.582031 C 369.332031 323.625 366.507812 305.84375 354.636719 295.121094 C 353.789062 294.273438 353.222656 293.710938 352.375 293.148438 C 341.351562 283.269531 327.503906 277.90625 318.175781 276.214844 C 315.066406 275.648438 312.523438 273.675781 310.546875 271.417969 C 300.089844 280.730469 287.652344 286.65625 273.519531 286.65625 C 259.390625 286.65625 247.238281 280.730469 236.78125 271.417969 C 232.257812 276.496094 225.472656 276.496094 219.539062 278.472656 C 207.953125 282.421875 196.929688 289.761719 189.015625 299.355469 C 183.363281 306.410156 179.6875 315.15625 178.839844 325.882812 C 178.839844 326.164062 178.839844 326.445312 178.839844 326.445312 C 178.273438 329.550781 176.578125 341.683594 178.558594 362.851562 C 178.839844 365.671875 181.101562 367.929688 183.929688 367.929688 L 362.832031 367.929688 C 363.113281 367.929688 363.113281 367.929688 363.398438 367.929688 C 364.246094 367.929688 364.8125 367.929688 365.375 367.648438 C 365.660156 367.648438 365.941406 367.367188 366.222656 367.082031 C 366.507812 367.082031 366.789062 366.800781 366.789062 366.519531 C 367.070312 366.238281 367.070312 366.238281 367.355469 365.953125 C 367.636719 365.671875 367.636719 365.671875 367.917969 365.390625 C 368.203125 365.109375 368.203125 365.109375 368.203125 364.824219 C 368.484375 364.261719 368.769531 363.414062 368.769531 362.851562 C 369.617188 354.382812 369.617188 347.046875 369.617188 341.121094 Z M 369.617188 341.121094 "/>
<path style=" stroke:none;fill-rule:nonzero;fill:rgb(100%,100%,100%);fill-opacity:1;" d="M 46.851562 210.460938 C 47.136719 212.4375 47.699219 214.128906 48.265625 216.105469 C 48.546875 217.234375 48.832031 218.363281 49.113281 219.492188 C 49.394531 220.621094 49.679688 221.75 50.242188 222.878906 C 50.527344 224.007812 51.089844 225.136719 51.375 226.265625 C 51.941406 227.394531 52.222656 228.523438 52.789062 229.367188 C 53.070312 230.214844 53.636719 231.34375 53.917969 232.191406 C 53.917969 232.472656 54.199219 232.753906 54.199219 232.753906 C 54.484375 233.601562 54.765625 234.167969 55.332031 235.011719 C 55.613281 235.859375 56.179688 236.707031 56.460938 237.554688 C 56.746094 238.398438 57.308594 239.246094 57.59375 239.808594 C 58.15625 240.65625 58.441406 241.503906 59.003906 242.351562 C 59.289062 243.195312 59.851562 243.761719 60.417969 244.609375 C 61.550781 246.300781 62.679688 248.277344 63.808594 249.96875 C 64.375 250.535156 64.65625 251.378906 65.222656 251.945312 C 65.789062 252.507812 66.070312 253.074219 66.636719 253.636719 C 67.203125 254.203125 67.484375 254.765625 68.050781 255.332031 C 69.460938 257.308594 71.160156 259 72.855469 260.691406 C 81.898438 269.441406 92.355469 275.367188 104.226562 275.367188 C 116.097656 275.367188 126.835938 269.441406 135.878906 260.410156 C 135.878906 260.410156 136.164062 260.128906 136.164062 260.128906 C 137.011719 259.28125 137.859375 258.4375 138.425781 257.589844 C 138.425781 257.589844 138.707031 257.308594 138.988281 257.023438 C 139.554688 256.460938 140.121094 255.613281 140.683594 255.050781 C 140.96875 254.484375 141.535156 254.203125 141.816406 253.636719 C 142.382812 252.792969 143.230469 251.945312 143.792969 251.097656 C 144.640625 249.96875 145.207031 249.125 146.054688 247.996094 C 147.46875 246.019531 148.597656 244.042969 149.730469 242.066406 C 150.859375 240.09375 151.992188 237.835938 153.121094 235.859375 C 153.6875 234.730469 154.25 233.882812 154.535156 232.753906 C 154.535156 232.753906 154.535156 232.753906 154.535156 232.472656 C 155.097656 231.34375 155.382812 230.496094 155.949219 229.367188 C 156.230469 228.523438 156.511719 227.675781 156.796875 226.828125 C 158.207031 223.160156 159.339844 219.773438 160.1875 216.386719 C 160.46875 215.542969 160.46875 214.976562 160.753906 214.128906 C 161.882812 209.613281 162.449219 204.816406 162.730469 200.019531 C 162.730469 199.457031 162.730469 198.890625 162.730469 198.609375 L 162.730469 198.042969 C 162.730469 197.199219 162.730469 196.070312 162.730469 195.222656 C 162.730469 193.246094 162.449219 191.273438 162.164062 189.296875 C 161.601562 186.191406 161.035156 183.089844 159.902344 180.265625 C 159.621094 179.417969 159.339844 178.855469 159.054688 178.007812 C 158.773438 177.445312 158.492188 176.597656 158.207031 176.03125 C 157.925781 175.1875 157.644531 174.621094 157.359375 173.773438 C 157.078125 173.210938 156.796875 172.929688 156.796875 172.363281 C 155.949219 170.953125 155.097656 169.261719 154.25 167.847656 C 153.6875 167.003906 153.402344 166.15625 152.839844 165.589844 C 152.273438 164.746094 151.707031 163.898438 151.144531 163.050781 C 150.578125 162.203125 150.011719 161.640625 149.445312 161.078125 C 148.882812 160.230469 148.316406 159.664062 147.75 158.820312 C 147.75 158.820312 147.46875 158.535156 147.46875 158.535156 C 147.1875 158.253906 146.902344 157.972656 146.621094 157.691406 C 146.339844 157.40625 146.054688 157.125 145.773438 156.84375 C 142.097656 153.175781 135.03125 146.402344 133.054688 147.25 C 124.574219 142.449219 114.964844 139.910156 104.507812 139.910156 C 86.984375 139.910156 71.160156 147.8125 60.417969 159.949219 C 59.851562 160.511719 59.289062 161.078125 58.722656 161.921875 C 57.59375 163.332031 56.746094 164.460938 55.894531 165.875 C 55.046875 167.285156 54.199219 168.695312 53.351562 170.105469 C 53.070312 170.953125 52.503906 171.519531 52.222656 172.363281 C 51.941406 173.210938 51.375 173.773438 51.089844 174.621094 C 50.808594 175.46875 50.527344 176.03125 50.242188 176.878906 C 50.242188 176.878906 50.242188 177.160156 50.242188 177.160156 C 49.960938 177.726562 49.679688 178.574219 49.394531 179.136719 C 49.394531 179.417969 49.113281 179.417969 49.113281 179.703125 C 48.832031 180.265625 48.546875 181.113281 48.546875 181.675781 C 47.699219 184.214844 47.136719 186.757812 46.851562 189.296875 C 46.003906 194.941406 46.003906 201.429688 46.851562 207.074219 C 46.285156 207.921875 46.570312 209.332031 46.851562 210.460938 Z M 103.945312 150.917969 C 129.945312 150.917969 151.144531 172.082031 151.144531 198.042969 C 151.144531 223.726562 129.664062 264.363281 103.945312 264.363281 C 78.222656 264.363281 56.746094 223.441406 56.746094 197.761719 C 56.746094 172.082031 77.941406 150.917969 103.945312 150.917969 Z M 103.945312 150.917969 "/>
<path style=" stroke:none;fill-rule:nonzero;fill:rgb(100%,100%,100%);fill-opacity:1;" d="M 245.257812 146.964844 C 244.976562 146.964844 244.976562 146.964844 245.257812 146.964844 C 244.128906 147.53125 243.28125 148.09375 242.433594 148.660156 C 240.453125 149.789062 238.191406 151.480469 236.496094 152.890625 C 235.933594 153.457031 235.367188 153.738281 234.800781 154.304688 C 234.519531 154.585938 234.234375 154.867188 233.953125 154.867188 C 233.386719 155.433594 233.105469 155.714844 232.539062 156.277344 C 232.257812 156.5625 231.976562 156.84375 231.691406 157.40625 C 230.5625 158.535156 229.714844 159.382812 228.867188 160.511719 C 228.867188 160.511719 228.582031 160.792969 228.582031 160.792969 C 228.019531 161.359375 227.734375 161.921875 227.171875 162.488281 C 226.886719 162.769531 226.605469 163.050781 226.605469 163.332031 C 226.039062 163.898438 225.757812 164.460938 225.191406 165.308594 C 224.625 166.15625 224.0625 166.71875 223.777344 167.566406 C 223.214844 168.414062 222.929688 169.261719 222.367188 170.105469 C 222.082031 170.953125 221.515625 171.519531 221.234375 172.082031 C 220.667969 173.210938 220.105469 174.339844 219.820312 175.46875 C 219.539062 176.316406 219.257812 176.878906 218.972656 177.726562 C 218.691406 178.574219 218.410156 179.417969 218.125 180.265625 C 217.84375 180.832031 217.84375 181.113281 217.5625 181.675781 C 216.996094 183.371094 216.710938 185.0625 216.429688 186.757812 C 216.429688 187.320312 216.148438 188.167969 216.148438 188.730469 C 215.863281 189.859375 215.863281 190.707031 215.863281 191.835938 C 215.863281 192.683594 215.582031 193.8125 215.582031 194.65625 C 215.582031 195.503906 215.582031 196.632812 215.582031 197.480469 C 215.582031 198.328125 215.582031 199.171875 215.582031 200.300781 C 215.863281 211.027344 218.972656 221.75 223.214844 231.625 C 225.191406 236.140625 227.734375 240.65625 230.277344 244.890625 C 230.5625 245.738281 231.128906 246.300781 231.691406 247.148438 C 231.976562 247.429688 231.976562 247.710938 232.257812 247.996094 C 232.539062 248.558594 232.824219 248.839844 233.105469 249.40625 C 233.386719 249.96875 233.671875 250.25 234.234375 250.816406 C 235.082031 251.945312 235.933594 253.074219 236.78125 253.921875 C 236.78125 253.921875 236.78125 254.203125 237.0625 254.203125 C 238.476562 255.894531 242.714844 259.847656 242.714844 260.410156 C 251.757812 269.160156 262.214844 275.085938 274.085938 275.085938 C 285.957031 275.085938 296.695312 269.160156 305.742188 260.128906 C 306.304688 259.566406 306.589844 259 307.15625 258.71875 C 307.4375 258.4375 308.003906 257.871094 308.285156 257.589844 C 313.371094 252.226562 317.328125 246.019531 320.71875 239.527344 C 321.003906 238.679688 321.570312 237.835938 321.851562 236.988281 C 322.132812 236.140625 322.699219 235.578125 322.980469 234.730469 C 330.894531 217.515625 335.136719 197.480469 329.199219 179.136719 C 328.632812 177.445312 328.070312 175.46875 327.222656 174.058594 C 326.375 172.082031 325.523438 170.390625 324.394531 168.695312 C 324.113281 168.132812 323.546875 167.566406 323.265625 166.71875 C 322.699219 166.15625 322.417969 165.589844 322.132812 164.746094 C 321.285156 163.617188 320.4375 162.203125 319.589844 161.074219 C 308.285156 148.09375 291.890625 139.628906 273.519531 139.628906 C 263.347656 139.628906 253.738281 142.167969 245.257812 146.964844 Z M 320.71875 197.761719 C 320.71875 223.441406 299.242188 264.078125 273.519531 264.078125 C 248.085938 264.078125 226.324219 223.160156 226.324219 197.761719 C 226.324219 172.082031 247.519531 150.917969 273.519531 150.917969 C 299.523438 150.917969 320.71875 172.082031 320.71875 197.761719 Z M 320.71875 197.761719 "/>
<g clip-path="url(#clip2)" clip-rule="nonzero">
<path style=" stroke:none;fill-rule:nonzero;fill:rgb(100%,100%,100%);fill-opacity:1;" d="M 167.535156 325.035156 C 168.664062 311.207031 173.753906 300.203125 181.101562 291.453125 C 180.820312 291.171875 180.535156 290.890625 180.253906 290.605469 C 173.1875 284.398438 164.144531 281.578125 155.664062 278.191406 C 149.730469 275.933594 145.207031 273.957031 141.816406 270.851562 C 131.359375 280.449219 118.640625 286.9375 104.226562 286.9375 C 90.378906 286.9375 77.941406 281.011719 67.765625 271.980469 C 60.136719 278.472656 44.027344 280.730469 37.242188 284.398438 C 8.132812 301.613281 6.4375 332.65625 8.980469 363.132812 C 8.980469 363.414062 8.980469 363.980469 9.261719 364.261719 C 9.546875 365.390625 10.109375 366.238281 10.957031 366.800781 C 12.089844 367.929688 13.503906 368.496094 15.199219 368.210938 L 168.382812 368.210938 C 167.816406 366.800781 167.535156 365.671875 167.535156 364.261719 C 164.992188 342.8125 166.6875 329.832031 167.535156 325.035156 Z M 167.535156 325.035156 "/>
</g>
<path style=" stroke:none;fill-rule:nonzero;fill:rgb(100%,100%,100%);fill-opacity:1;" d="M 273.519531 252.507812 C 282 252.507812 289.914062 247.996094 297.546875 239.246094 C 299.523438 236.988281 299.242188 233.320312 296.980469 231.34375 C 294.71875 229.367188 291.042969 229.652344 289.066406 231.910156 C 278.324219 244.324219 268.714844 244.324219 257.976562 231.910156 C 256 229.652344 252.324219 229.367188 250.0625 231.34375 C 247.800781 233.320312 247.519531 236.988281 249.496094 239.246094 C 257.128906 247.996094 265.042969 252.507812 273.519531 252.507812 Z M 273.519531 252.507812 "/>
<path style=" stroke:none;fill-rule:nonzero;fill:rgb(100%,100%,100%);fill-opacity:1;" d="M 103.945312 252.507812 C 112.421875 252.507812 120.335938 247.996094 127.96875 239.246094 C 129.945312 236.988281 129.664062 233.320312 127.402344 231.34375 C 125.140625 229.367188 121.464844 229.652344 119.488281 231.910156 C 108.75 244.324219 99.140625 244.324219 88.398438 231.910156 C 86.421875 229.652344 82.746094 229.367188 80.484375 231.34375 C 78.222656 233.320312 77.941406 236.988281 79.921875 239.246094 C 87.550781 247.996094 95.464844 252.507812 103.945312 252.507812 Z M 103.945312 252.507812 "/>
<path style=" stroke:none;fill-rule:nonzero;fill:rgb(100%,100%,100%);fill-opacity:1;" d="M 188.734375 119.875 C 197.210938 119.875 205.125 115.359375 212.757812 106.613281 C 214.734375 104.355469 214.453125 100.683594 212.191406 98.710938 C 209.929688 96.734375 206.253906 97.015625 204.277344 99.273438 C 193.539062 111.691406 183.929688 111.691406 173.1875 99.273438 C 171.210938 97.015625 167.535156 96.734375 165.273438 98.710938 C 163.011719 100.683594 162.730469 104.355469 164.707031 106.613281 C 172.339844 115.640625 180.253906 119.875 188.734375 119.875 Z M 188.734375 119.875 "/>
</g>
</svg>
