<?xml version="1.0" encoding="UTF-8"?>
<svg xmlns="http://www.w3.org/2000/svg" xmlns:xlink="http://www.w3.org/1999/xlink" width="375pt" height="374.999991pt" viewBox="0 0 375 374.999991" version="1.2">
<defs>
<clipPath id="clip1">
  <path d="M 131 10.421875 L 247 10.421875 L 247 145 L 131 145 Z M 131 10.421875 "/>
</clipPath>
<clipPath id="clip2">
  <path d="M 178 270 L 367 270 L 367 365.921875 L 178 365.921875 Z M 178 270 "/>
</clipPath>
<clipPath id="clip3">
  <path d="M 11 269 L 182 269 L 182 365.921875 L 11 365.921875 Z M 11 269 "/>
</clipPath>
</defs>
<g id="surface1">
<rect x="0" y="0" width="375" height="374.999991" style="fill:rgb(100%,100%,100%);fill-opacity:1;stroke:none;"/>
<rect x="0" y="0" width="375" height="374.999991" style="fill:rgb(100%,100%,100%);fill-opacity:1;stroke:none;"/>
<rect x="0" y="0" width="375" height="374.999991" style="fill:rgb(100%,100%,100%);fill-opacity:1;stroke:none;"/>
<g clip-path="url(#clip1)" clip-rule="nonzero">
<path style=" stroke:none;fill-rule:nonzero;fill:rgb(0%,29.019165%,67.83905%);fill-opacity:1;" d="M 132.226562 73.695312 C 132.226562 74.527344 132.503906 75.640625 132.503906 76.472656 C 132.503906 77.582031 132.78125 78.414062 133.058594 79.523438 C 133.335938 81.46875 133.890625 83.6875 134.445312 85.628906 C 134.445312 86.183594 134.722656 86.460938 134.722656 87.015625 C 135.277344 88.683594 135.554688 90.347656 136.109375 92.011719 C 136.386719 92.566406 136.664062 93.398438 136.664062 93.957031 C 137.21875 95.34375 137.777344 96.730469 138.332031 98.394531 C 138.609375 99.226562 139.164062 100.339844 139.441406 101.171875 C 139.996094 102.558594 140.550781 103.667969 141.105469 105.054688 C 141.660156 105.886719 142.214844 107 142.492188 108.109375 C 143.046875 109.21875 143.601562 110.050781 144.15625 111.160156 C 144.988281 112.269531 145.542969 113.660156 146.375 114.769531 C 146.929688 115.601562 147.484375 116.433594 148.039062 117.265625 C 148.871094 118.375 149.425781 119.488281 150.257812 120.597656 C 151.089844 121.707031 151.644531 122.539062 152.476562 123.371094 C 153.308594 124.480469 154.140625 125.316406 154.976562 126.148438 C 155.808594 126.980469 156.363281 127.8125 157.195312 128.644531 C 166.347656 138.082031 177.167969 144.464844 189.375 144.464844 C 201.578125 144.464844 212.398438 138.082031 221.554688 128.644531 C 222.109375 128.089844 222.941406 127.257812 223.496094 126.703125 C 224.050781 125.871094 224.882812 125.316406 225.4375 124.480469 C 225.992188 123.648438 226.824219 122.816406 227.378906 121.984375 C 228.210938 120.597656 229.320312 119.488281 230.152344 118.097656 C 233.203125 113.660156 235.976562 108.664062 238.199219 103.667969 C 238.753906 102.28125 239.308594 100.894531 239.863281 99.78125 C 239.863281 99.503906 240.140625 99.226562 240.140625 98.949219 C 240.695312 97.5625 241.25 96.175781 241.527344 94.789062 C 241.804688 93.957031 242.082031 93.398438 242.359375 92.566406 C 242.914062 91.179688 243.191406 89.792969 243.746094 88.128906 C 244.578125 85.351562 245.132812 82.300781 245.6875 79.523438 C 245.6875 79.523438 245.6875 79.246094 245.6875 79.246094 C 245.964844 77.582031 246.242188 75.640625 246.519531 73.972656 C 246.519531 73.695312 246.519531 73.417969 246.519531 73.140625 C 246.796875 71.199219 246.796875 69.535156 246.796875 67.867188 C 246.796875 65.09375 246.519531 62.039062 246.242188 59.265625 C 246.242188 58.433594 245.964844 57.601562 245.6875 56.769531 C 245.132812 54.269531 244.578125 51.773438 243.746094 49.550781 C 235.699219 26.796875 214.339844 10.421875 189.097656 10.421875 C 163.851562 10.421875 142.492188 26.796875 134.722656 49.273438 C 133.890625 51.496094 133.335938 53.992188 132.78125 56.492188 C 132.503906 57.324219 132.503906 58.15625 132.226562 58.988281 C 131.671875 61.761719 131.671875 64.539062 131.671875 67.589844 C 131.671875 69.257812 131.671875 71.199219 131.949219 73.140625 C 131.949219 73.417969 132.226562 73.417969 132.226562 73.695312 Z M 189.097656 21.523438 C 214.617188 21.523438 235.421875 42.335938 235.421875 67.589844 C 235.421875 92.84375 214.339844 132.808594 189.097656 132.808594 C 163.851562 132.808594 142.769531 92.84375 142.769531 67.589844 C 142.769531 42.335938 163.574219 21.523438 189.097656 21.523438 Z M 189.097656 21.523438 "/>
</g>
<path style=" stroke:none;fill-rule:nonzero;fill:rgb(0%,29.019165%,67.83905%);fill-opacity:1;" d="M 203.796875 198.023438 C 203.796875 196.914062 203.796875 195.804688 203.796875 194.695312 L 203.796875 194.417969 C 203.796875 193.582031 203.796875 192.75 204.074219 191.917969 C 204.074219 191.640625 204.074219 191.363281 204.074219 191.085938 C 204.074219 190.253906 204.351562 189.144531 204.351562 188.3125 C 204.351562 188.3125 204.351562 188.035156 204.351562 188.035156 C 204.351562 187.480469 204.632812 186.644531 204.632812 186.089844 C 204.632812 185.535156 204.910156 184.703125 204.910156 184.148438 C 205.1875 183.316406 205.464844 182.484375 205.464844 181.375 C 205.464844 181.09375 205.742188 180.539062 205.742188 180.261719 C 206.019531 179.429688 206.019531 178.875 206.296875 178.042969 C 206.574219 176.933594 207.128906 175.824219 207.40625 174.710938 C 207.683594 173.878906 207.960938 173.046875 208.515625 172.214844 C 208.515625 171.9375 208.792969 171.382812 209.070312 171.105469 C 209.347656 170.550781 209.625 169.71875 209.902344 169.164062 C 210.179688 168.605469 210.457031 168.050781 210.734375 167.773438 C 211.289062 166.664062 211.84375 165.554688 212.675781 164.445312 C 213.230469 163.335938 214.0625 162.222656 214.617188 161.113281 C 216.835938 157.785156 219.054688 154.730469 221.832031 151.957031 C 222.664062 151.125 223.496094 150.292969 224.328125 149.457031 C 224.328125 149.179688 224.605469 149.179688 224.605469 149.179688 C 225.4375 148.347656 226.269531 147.515625 227.101562 146.960938 C 227.933594 146.128906 229.042969 145.296875 230.152344 144.464844 C 227.933594 143.628906 226.269531 142.242188 224.882812 140.578125 C 215.171875 149.179688 202.964844 155.007812 189.097656 155.007812 C 175.226562 155.007812 163.296875 149.179688 153.03125 140.023438 C 151.644531 141.6875 149.980469 143.074219 147.761719 143.910156 C 148.59375 144.742188 149.425781 145.296875 150.535156 146.128906 C 150.535156 146.128906 150.8125 146.128906 150.8125 146.40625 C 151.644531 147.238281 152.476562 148.070312 153.308594 148.902344 C 153.308594 148.902344 153.308594 148.902344 153.585938 148.902344 C 154.421875 149.734375 154.976562 150.292969 155.808594 151.125 C 156.917969 152.234375 157.75 153.34375 158.859375 154.453125 C 159.691406 155.5625 160.523438 156.398438 161.355469 157.507812 C 162.1875 158.617188 162.742188 159.726562 163.574219 160.558594 C 164.40625 161.667969 164.960938 162.78125 165.515625 163.890625 C 166.070312 165 166.625 166.109375 167.457031 167.21875 C 167.734375 167.773438 168.011719 168.328125 168.289062 168.886719 C 168.84375 169.71875 169.121094 170.550781 169.398438 171.660156 C 169.675781 172.492188 169.953125 173.324219 170.230469 174.15625 C 170.507812 174.988281 170.785156 175.824219 171.0625 176.65625 C 171.34375 177.210938 171.34375 177.765625 171.621094 178.042969 C 172.175781 180.261719 172.730469 182.484375 173.285156 184.703125 C 173.285156 185.257812 173.5625 185.8125 173.5625 186.644531 C 173.5625 186.921875 173.5625 187.480469 173.839844 187.757812 C 173.839844 188.035156 173.839844 188.035156 173.839844 188.3125 C 173.839844 189.144531 174.117188 189.976562 174.117188 190.808594 C 174.117188 191.085938 174.117188 191.363281 174.117188 191.917969 C 174.117188 192.75 174.117188 193.582031 174.394531 194.417969 L 174.394531 194.972656 C 174.394531 196.082031 174.394531 197.191406 174.394531 198.300781 L 203.796875 198.300781 Z M 203.796875 198.023438 "/>
<g clip-path="url(#clip2)" clip-rule="nonzero">
<path style=" stroke:none;fill-rule:nonzero;fill:rgb(0%,29.019165%,67.83905%);fill-opacity:1;" d="M 366.636719 339.003906 C 366.636719 338.171875 366.636719 337.339844 366.636719 336.503906 C 366.359375 321.796875 363.585938 304.3125 351.933594 293.769531 C 351.101562 292.933594 350.546875 292.378906 349.714844 291.824219 C 338.898438 282.113281 325.304688 276.839844 316.148438 275.175781 C 313.097656 274.617188 310.601562 272.675781 308.660156 270.457031 C 298.394531 279.613281 286.1875 285.441406 272.320312 285.441406 C 258.449219 285.441406 246.519531 279.613281 236.253906 270.457031 C 231.816406 275.453125 225.160156 275.453125 219.332031 277.394531 C 207.960938 281.28125 197.140625 288.496094 189.375 297.929688 C 183.824219 304.867188 180.21875 313.472656 179.386719 324.015625 C 179.386719 324.292969 179.386719 324.570312 179.386719 324.570312 C 178.832031 327.625 177.167969 339.558594 179.109375 360.371094 C 179.386719 363.148438 181.605469 365.367188 184.378906 365.367188 L 359.980469 365.367188 C 360.257812 365.367188 360.257812 365.367188 360.535156 365.367188 C 361.367188 365.367188 361.921875 365.367188 362.476562 365.089844 C 362.753906 365.089844 363.03125 364.8125 363.308594 364.535156 C 363.585938 364.535156 363.863281 364.257812 363.863281 363.980469 C 364.140625 363.703125 364.140625 363.703125 364.417969 363.425781 C 364.695312 363.148438 364.695312 363.148438 364.972656 362.871094 C 365.25 362.59375 365.25 362.59375 365.25 362.316406 C 365.527344 361.757812 365.804688 360.925781 365.804688 360.371094 C 366.636719 352.046875 366.636719 344.832031 366.636719 339.003906 Z M 366.636719 339.003906 "/>
</g>
<path style=" stroke:none;fill-rule:nonzero;fill:rgb(0%,29.019165%,67.83905%);fill-opacity:1;" d="M 49.835938 210.511719 C 50.113281 212.457031 50.667969 214.121094 51.222656 216.0625 C 51.5 217.171875 51.777344 218.28125 52.054688 219.394531 C 52.332031 220.503906 52.609375 221.613281 53.164062 222.722656 C 53.441406 223.832031 53.996094 224.945312 54.277344 226.054688 C 54.832031 227.164062 55.109375 228.273438 55.664062 229.105469 C 55.941406 229.9375 56.496094 231.046875 56.773438 231.882812 C 56.773438 232.160156 57.050781 232.4375 57.050781 232.4375 C 57.328125 233.269531 57.605469 233.824219 58.160156 234.65625 C 58.4375 235.488281 58.992188 236.320312 59.269531 237.152344 C 59.546875 237.988281 60.101562 238.820312 60.378906 239.375 C 60.933594 240.207031 61.210938 241.039062 61.765625 241.871094 C 62.042969 242.703125 62.597656 243.257812 63.152344 244.09375 C 64.261719 245.757812 65.371094 247.699219 66.480469 249.363281 C 67.035156 249.921875 67.3125 250.753906 67.867188 251.308594 C 68.421875 251.863281 68.699219 252.417969 69.253906 252.972656 C 69.808594 253.527344 70.085938 254.082031 70.640625 254.636719 C 72.03125 256.582031 73.695312 258.246094 75.359375 259.910156 C 84.234375 268.511719 94.5 274.339844 106.152344 274.339844 C 117.800781 274.339844 128.34375 268.511719 137.21875 259.632812 C 137.21875 259.632812 137.496094 259.355469 137.496094 259.355469 C 138.332031 258.523438 139.164062 257.691406 139.71875 256.859375 C 139.71875 256.859375 139.996094 256.582031 140.273438 256.304688 C 140.828125 255.746094 141.382812 254.914062 141.9375 254.359375 C 142.214844 253.804688 142.769531 253.527344 143.046875 252.972656 C 143.601562 252.140625 144.433594 251.308594 144.988281 250.476562 C 145.820312 249.363281 146.375 248.53125 147.207031 247.421875 C 148.59375 245.480469 149.703125 243.535156 150.8125 241.59375 C 151.921875 239.652344 153.03125 237.433594 154.140625 235.488281 C 154.699219 234.378906 155.253906 233.546875 155.53125 232.4375 C 155.53125 232.4375 155.53125 232.4375 155.53125 232.160156 C 156.085938 231.046875 156.363281 230.214844 156.917969 229.105469 C 157.195312 228.273438 157.472656 227.441406 157.75 226.609375 C 159.136719 223 160.246094 219.671875 161.078125 216.339844 C 161.355469 215.507812 161.355469 214.953125 161.632812 214.121094 C 162.742188 209.679688 163.296875 204.960938 163.574219 200.246094 C 163.574219 199.6875 163.574219 199.132812 163.574219 198.855469 L 163.574219 198.300781 C 163.574219 197.46875 163.574219 196.359375 163.574219 195.527344 C 163.574219 193.582031 163.296875 191.640625 163.019531 189.699219 C 162.464844 186.644531 161.910156 183.59375 160.800781 180.816406 C 160.523438 179.984375 160.246094 179.429688 159.96875 178.597656 C 159.691406 178.042969 159.414062 177.210938 159.136719 176.65625 C 158.859375 175.824219 158.582031 175.269531 158.304688 174.433594 C 158.027344 173.878906 157.75 173.601562 157.75 173.046875 C 156.917969 171.660156 156.085938 169.996094 155.253906 168.605469 C 154.699219 167.773438 154.421875 166.941406 153.863281 166.386719 C 153.308594 165.554688 152.753906 164.722656 152.199219 163.890625 C 151.644531 163.058594 151.089844 162.503906 150.535156 161.945312 C 149.980469 161.113281 149.425781 160.558594 148.871094 159.726562 C 148.871094 159.726562 148.59375 159.449219 148.59375 159.449219 C 148.316406 159.171875 148.039062 158.894531 147.761719 158.617188 C 147.484375 158.339844 147.207031 158.0625 146.929688 157.785156 C 143.324219 154.175781 136.386719 147.515625 134.445312 148.347656 C 126.125 143.628906 116.691406 141.132812 106.429688 141.132812 C 89.230469 141.132812 73.695312 148.902344 63.152344 160.835938 C 62.597656 161.390625 62.042969 161.945312 61.488281 162.78125 C 60.378906 164.167969 59.546875 165.277344 58.714844 166.664062 C 57.882812 168.050781 57.050781 169.441406 56.21875 170.828125 C 55.941406 171.660156 55.386719 172.214844 55.109375 173.046875 C 54.832031 173.878906 54.277344 174.433594 53.996094 175.269531 C 53.71875 176.101562 53.441406 176.65625 53.164062 177.488281 C 53.164062 177.488281 53.164062 177.765625 53.164062 177.765625 C 52.886719 178.320312 52.609375 179.152344 52.332031 179.707031 C 52.332031 179.984375 52.054688 179.984375 52.054688 180.261719 C 51.777344 180.816406 51.5 181.652344 51.5 182.207031 C 50.667969 184.703125 50.113281 187.199219 49.835938 189.699219 C 49.003906 195.25 49.003906 201.632812 49.835938 207.183594 C 49.28125 208.015625 49.558594 209.402344 49.835938 210.511719 Z M 105.875 151.957031 C 131.394531 151.957031 152.199219 172.769531 152.199219 198.300781 C 152.199219 223.554688 131.117188 263.519531 105.875 263.519531 C 80.628906 263.519531 59.546875 223.277344 59.546875 198.023438 C 59.546875 172.769531 80.351562 151.957031 105.875 151.957031 Z M 105.875 151.957031 "/>
<path style=" stroke:none;fill-rule:nonzero;fill:rgb(0%,29.019165%,67.83905%);fill-opacity:1;" d="M 244.578125 148.070312 C 244.300781 148.070312 244.300781 148.070312 244.578125 148.070312 C 243.46875 148.625 242.636719 149.179688 241.804688 149.734375 C 239.863281 150.847656 237.640625 152.511719 235.976562 153.898438 C 235.421875 154.453125 234.867188 154.730469 234.3125 155.285156 C 234.035156 155.5625 233.757812 155.839844 233.480469 155.839844 C 232.925781 156.398438 232.648438 156.675781 232.09375 157.230469 C 231.816406 157.507812 231.539062 157.785156 231.261719 158.339844 C 230.152344 159.449219 229.320312 160.28125 228.488281 161.390625 C 228.488281 161.390625 228.210938 161.667969 228.210938 161.667969 C 227.65625 162.222656 227.378906 162.78125 226.824219 163.335938 C 226.546875 163.613281 226.269531 163.890625 226.269531 164.167969 C 225.714844 164.722656 225.4375 165.277344 224.882812 166.109375 C 224.328125 166.941406 223.773438 167.496094 223.496094 168.328125 C 222.941406 169.164062 222.664062 169.996094 222.109375 170.828125 C 221.832031 171.660156 221.277344 172.214844 220.996094 172.769531 C 220.441406 173.878906 219.886719 174.988281 219.609375 176.101562 C 219.332031 176.933594 219.054688 177.488281 218.777344 178.320312 C 218.5 179.152344 218.222656 179.984375 217.945312 180.816406 C 217.667969 181.375 217.667969 181.652344 217.390625 182.207031 C 216.835938 183.871094 216.558594 185.535156 216.28125 187.199219 C 216.28125 187.757812 216.003906 188.589844 216.003906 189.144531 C 215.726562 190.253906 215.726562 191.085938 215.726562 192.195312 C 215.726562 193.027344 215.449219 194.140625 215.449219 194.972656 C 215.449219 195.804688 215.449219 196.914062 215.449219 197.746094 C 215.449219 198.578125 215.449219 199.410156 215.449219 200.523438 C 215.726562 211.066406 218.777344 221.613281 222.941406 231.328125 C 224.882812 235.765625 227.378906 240.207031 229.875 244.371094 C 230.152344 245.203125 230.707031 245.757812 231.261719 246.589844 C 231.539062 246.867188 231.539062 247.144531 231.816406 247.421875 C 232.09375 247.976562 232.371094 248.253906 232.648438 248.808594 C 232.925781 249.363281 233.203125 249.640625 233.757812 250.199219 C 234.589844 251.308594 235.421875 252.417969 236.253906 253.25 C 236.253906 253.25 236.253906 253.527344 236.53125 253.527344 C 237.921875 255.191406 242.082031 259.078125 242.082031 259.632812 C 250.957031 268.234375 261.222656 274.0625 272.875 274.0625 C 284.523438 274.0625 295.066406 268.234375 303.941406 259.355469 C 304.496094 258.800781 304.777344 258.246094 305.332031 257.96875 C 305.609375 257.691406 306.164062 257.136719 306.441406 256.859375 C 311.433594 251.585938 315.316406 245.480469 318.644531 239.097656 C 318.921875 238.265625 319.476562 237.429688 319.753906 236.597656 C 320.03125 235.765625 320.585938 235.210938 320.863281 234.378906 C 328.632812 217.449219 332.792969 197.746094 326.96875 179.707031 C 326.414062 178.042969 325.859375 176.101562 325.027344 174.710938 C 324.195312 172.769531 323.363281 171.105469 322.253906 169.441406 C 321.976562 168.886719 321.421875 168.328125 321.140625 167.496094 C 320.585938 166.941406 320.308594 166.386719 320.03125 165.554688 C 319.199219 164.445312 318.367188 163.058594 317.535156 161.945312 C 306.441406 149.179688 290.351562 140.855469 272.320312 140.855469 C 262.332031 140.855469 252.898438 143.351562 244.578125 148.070312 Z M 318.644531 198.023438 C 318.644531 223.277344 297.5625 263.242188 272.320312 263.242188 C 247.351562 263.242188 225.992188 223 225.992188 198.023438 C 225.992188 172.769531 246.796875 151.957031 272.320312 151.957031 C 297.839844 151.957031 318.644531 172.769531 318.644531 198.023438 Z M 318.644531 198.023438 "/>
<g clip-path="url(#clip3)" clip-rule="nonzero">
<path style=" stroke:none;fill-rule:nonzero;fill:rgb(0%,29.019165%,67.83905%);fill-opacity:1;" d="M 168.289062 323.183594 C 169.398438 309.585938 174.394531 298.761719 181.605469 290.160156 C 181.328125 289.882812 181.050781 289.605469 180.773438 289.328125 C 173.839844 283.222656 164.960938 280.445312 156.640625 277.117188 C 150.8125 274.898438 146.375 272.953125 143.046875 269.902344 C 132.78125 279.335938 120.296875 285.71875 106.152344 285.71875 C 92.558594 285.71875 80.351562 279.890625 70.363281 271.011719 C 62.875 277.394531 47.0625 279.613281 40.40625 283.222656 C 11.832031 300.152344 10.167969 330.675781 12.664062 360.648438 C 12.664062 360.925781 12.664062 361.480469 12.941406 361.757812 C 13.21875 362.871094 13.773438 363.703125 14.605469 364.257812 C 15.714844 365.367188 17.101562 365.921875 18.765625 365.644531 L 169.121094 365.644531 C 168.566406 364.257812 168.289062 363.148438 168.289062 361.757812 C 165.792969 340.667969 167.457031 327.902344 168.289062 323.183594 Z M 168.289062 323.183594 "/>
</g>
<path style=" stroke:none;fill-rule:nonzero;fill:rgb(0%,29.019165%,67.83905%);fill-opacity:1;" d="M 272.320312 251.863281 C 280.640625 251.863281 288.410156 247.421875 295.898438 238.820312 C 297.839844 236.597656 297.5625 232.992188 295.34375 231.046875 C 293.125 229.105469 289.519531 229.382812 287.574219 231.605469 C 277.035156 243.816406 267.601562 243.816406 257.0625 231.605469 C 255.121094 229.382812 251.511719 229.105469 249.292969 231.046875 C 247.074219 232.992188 246.796875 236.597656 248.738281 238.820312 C 256.230469 247.421875 263.996094 251.863281 272.320312 251.863281 Z M 272.320312 251.863281 "/>
<path style=" stroke:none;fill-rule:nonzero;fill:rgb(0%,29.019165%,67.83905%);fill-opacity:1;" d="M 105.875 251.863281 C 114.195312 251.863281 121.964844 247.421875 129.453125 238.820312 C 131.394531 236.597656 131.117188 232.992188 128.898438 231.046875 C 126.679688 229.105469 123.074219 229.382812 121.132812 231.605469 C 110.589844 243.816406 101.15625 243.816406 90.617188 231.605469 C 88.675781 229.382812 85.066406 229.105469 82.847656 231.046875 C 80.628906 232.992188 80.351562 236.597656 82.292969 238.820312 C 89.785156 247.421875 97.550781 251.863281 105.875 251.863281 Z M 105.875 251.863281 "/>
<path style=" stroke:none;fill-rule:nonzero;fill:rgb(0%,29.019165%,67.83905%);fill-opacity:1;" d="M 189.097656 121.429688 C 197.417969 121.429688 205.1875 116.988281 212.675781 108.386719 C 214.617188 106.164062 214.339844 102.558594 212.121094 100.617188 C 209.902344 98.671875 206.296875 98.949219 204.351562 101.171875 C 193.8125 113.382812 184.378906 113.382812 173.839844 101.171875 C 171.898438 98.949219 168.289062 98.671875 166.070312 100.617188 C 163.851562 102.558594 163.574219 106.164062 165.515625 108.386719 C 173.007812 117.265625 180.773438 121.429688 189.097656 121.429688 Z M 189.097656 121.429688 "/>
</g>
</svg>
