<?xml version="1.0" encoding="UTF-8"?>
<svg xmlns="http://www.w3.org/2000/svg" xmlns:xlink="http://www.w3.org/1999/xlink" width="375pt" height="374.999991pt" viewBox="0 0 375 374.999991" version="1.2">
<defs>
<clipPath id="clip1">
  <path d="M 6.386719 6.386719 L 368 6.386719 L 368 368.636719 L 6.386719 368.636719 Z M 6.386719 6.386719 "/>
</clipPath>
</defs>
<g id="surface1">
<path style=" stroke:none;fill-rule:nonzero;fill:rgb(0%,25.878906%,74.899292%);fill-opacity:1;" d="M 197.050781 299.539062 C 191.433594 301.363281 185.402344 300.570312 180.457031 297.363281 C 175.222656 293.921875 172.074219 288.214844 172.074219 282.066406 L 172.074219 200.132812 C 172.074219 189.101562 167.484375 178.894531 159.808594 171.539062 L 177.222656 165.863281 C 182.8125 164.039062 188.871094 164.832031 193.816406 168.039062 C 199.050781 171.480469 202.199219 177.1875 202.199219 183.335938 L 202.199219 265.265625 C 202.199219 276.300781 206.789062 286.507812 214.46875 293.863281 Z M 234.648438 288.800781 C 224.261719 285.390625 217.261719 275.945312 217.261719 265.265625 L 217.261719 183.335938 C 217.261719 172.097656 211.582031 161.65625 202.050781 155.445312 C 193.257812 149.710938 182.519531 148.296875 172.546875 151.535156 L 139.625 162.300781 C 136.507812 163.300781 134.417969 166.183594 134.417969 169.449219 C 134.417969 172.714844 136.507812 175.597656 139.625 176.597656 C 150.011719 180.011719 157.011719 189.457031 157.011719 200.132812 L 157.011719 282.066406 C 157.011719 293.304688 162.691406 303.746094 172.222656 309.953125 C 177.929688 313.660156 184.429688 315.574219 191.019531 315.574219 C 194.578125 315.574219 198.199219 315.015625 201.730469 313.867188 L 234.648438 303.097656 C 237.765625 302.097656 239.855469 299.214844 239.855469 295.949219 C 239.855469 292.683594 237.765625 289.800781 234.648438 288.800781 "/>
<path style=" stroke:none;fill-rule:nonzero;fill:rgb(0%,25.878906%,74.899292%);fill-opacity:1;" d="M 187.136719 74.546875 C 199.609375 74.546875 209.730469 84.664062 209.730469 97.140625 C 209.730469 109.613281 199.609375 119.734375 187.136719 119.734375 C 174.664062 119.734375 164.542969 109.613281 164.542969 97.140625 C 164.542969 84.664062 174.664062 74.546875 187.136719 74.546875 Z M 187.136719 134.796875 C 207.90625 134.796875 224.792969 117.910156 224.792969 97.140625 C 224.792969 76.371094 207.90625 59.484375 187.136719 59.484375 C 166.367188 59.484375 149.480469 76.371094 149.480469 97.140625 C 149.480469 117.910156 166.367188 134.796875 187.136719 134.796875 "/>
<g clip-path="url(#clip1)" clip-rule="nonzero">
<path style=" stroke:none;fill-rule:nonzero;fill:rgb(0%,25.878906%,74.899292%);fill-opacity:1;" d="M 311.578125 307.542969 L 342.171875 338.136719 L 257.769531 338.136719 C 256.710938 338.136719 255.652344 338.371094 254.683594 338.785156 C 233.324219 348.34375 210.582031 353.199219 187.136719 353.199219 C 95.761719 353.199219 21.449219 278.886719 21.449219 187.511719 C 21.449219 96.140625 95.761719 21.828125 187.136719 21.828125 C 278.511719 21.828125 352.824219 96.140625 352.824219 187.511719 C 352.824219 227.964844 338.054688 266.914062 311.253906 297.214844 C 308.605469 300.1875 308.753906 304.71875 311.578125 307.542969 Z M 187.136719 6.765625 C 87.464844 6.765625 6.386719 87.84375 6.386719 187.511719 C 6.386719 287.183594 87.464844 368.261719 187.136719 368.261719 C 212.203125 368.261719 236.472656 363.203125 259.359375 353.199219 L 360.355469 353.199219 C 363.414062 353.199219 366.148438 351.375 367.296875 348.550781 C 368.472656 345.726562 367.828125 342.492188 365.679688 340.34375 L 327.140625 301.777344 C 353.46875 269.5625 367.886719 229.257812 367.886719 187.511719 C 367.886719 87.84375 286.808594 6.765625 187.136719 6.765625 "/>
</g>
</g>
</svg>
