<?xml version="1.0" encoding="UTF-8"?>
<svg xmlns="http://www.w3.org/2000/svg" xmlns:xlink="http://www.w3.org/1999/xlink" width="1125pt" height="1124.99995pt" viewBox="0 0 1125 1124.99995" version="1.2">
<defs>
<clipPath id="clip1">
  <path d="M 75.234375 0 L 1035.234375 0 L 1035.234375 1107.75 L 75.234375 1107.75 Z M 75.234375 0 "/>
</clipPath>
</defs>
<g id="surface1">
<path style=" stroke:none;fill-rule:nonzero;fill:rgb(100%,100%,100%);fill-opacity:1;" d="M 278.3125 1015.210938 C 278.3125 1025.398438 286.582031 1033.667969 296.773438 1033.667969 C 306.964844 1033.667969 315.234375 1025.398438 315.234375 1015.210938 L 315.234375 996.757812 L 324.464844 996.757812 C 360.097656 996.757812 389.082031 967.789062 389.082031 932.171875 C 389.082031 896.558594 360.097656 867.585938 324.464844 867.585938 L 269.082031 867.585938 C 253.8125 867.585938 241.386719 855.164062 241.386719 839.90625 C 241.386719 824.644531 253.8125 812.222656 269.082031 812.222656 L 370.617188 812.222656 C 380.808594 812.222656 389.082031 803.957031 389.082031 793.769531 C 389.082031 783.585938 380.808594 775.316406 370.617188 775.316406 L 315.234375 775.316406 L 315.234375 756.863281 C 315.234375 746.675781 306.964844 738.410156 296.773438 738.410156 C 286.582031 738.410156 278.3125 746.675781 278.3125 756.863281 L 278.3125 775.316406 L 269.082031 775.316406 C 233.449219 775.316406 204.464844 804.289062 204.464844 839.90625 C 204.464844 875.519531 233.449219 904.492188 269.082031 904.492188 L 324.464844 904.492188 C 339.734375 904.492188 352.15625 916.910156 352.15625 932.171875 C 352.15625 947.433594 339.734375 959.851562 324.464844 959.851562 L 222.925781 959.851562 C 212.734375 959.851562 204.464844 968.121094 204.464844 978.304688 C 204.464844 988.492188 212.734375 996.757812 222.925781 996.757812 L 278.3125 996.757812 Z M 278.3125 1015.210938 "/>
<g clip-path="url(#clip1)" clip-rule="nonzero">
<path style=" stroke:none;fill-rule:nonzero;fill:rgb(100%,100%,100%);fill-opacity:1;" d="M 1029.824219 134.851562 L 900.59375 5.675781 C 897.140625 2.207031 892.433594 0.269531 887.542969 0.269531 L 278.3125 0.269531 C 268.121094 0.269531 259.851562 8.535156 259.851562 18.722656 L 259.851562 667.9375 C 155.246094 685.578125 75.234375 776.535156 75.234375 886.039062 C 75.234375 999.34375 160.859375 1092.921875 270.816406 1105.820312 C 273.125 1106.851562 275.632812 1107.480469 278.3125 1107.480469 L 1016.773438 1107.480469 C 1026.964844 1107.480469 1035.234375 1099.214844 1035.234375 1089.027344 L 1035.234375 147.898438 C 1035.234375 143.007812 1033.296875 138.300781 1029.824219 134.851562 Z M 112.15625 886.039062 C 112.15625 789.96875 186.003906 710.894531 279.9375 702.351562 C 279.953125 702.351562 279.953125 702.351562 279.972656 702.351562 C 285.511719 701.855469 291.105469 701.503906 296.773438 701.503906 C 398.570312 701.503906 481.386719 784.285156 481.386719 886.039062 C 481.386719 987.789062 398.570312 1070.574219 296.773438 1070.574219 C 291.105469 1070.574219 285.511719 1070.222656 279.972656 1069.722656 C 279.953125 1069.722656 279.953125 1069.722656 279.9375 1069.722656 C 186.003906 1061.179688 112.15625 982.105469 112.15625 886.039062 Z M 998.3125 1070.574219 L 419.117188 1070.574219 C 419.339844 1070.425781 419.523438 1070.242188 419.746094 1070.09375 C 426.519531 1065.554688 433 1060.625 439.203125 1055.386719 C 440.921875 1053.945312 442.507812 1052.359375 444.167969 1050.863281 C 448.617188 1046.878906 452.9375 1042.765625 457.074219 1038.425781 C 458.996094 1036.398438 460.859375 1034.332031 462.707031 1032.226562 C 466.472656 1027.964844 470.035156 1023.570312 473.46875 1019.03125 C 475.054688 1016.929688 476.679688 1014.878906 478.175781 1012.738281 C 482.347656 1006.796875 486.242188 1000.652344 489.808594 994.304688 C 490.269531 993.492188 490.804688 992.738281 491.246094 991.925781 C 495.179688 984.726562 498.648438 977.253906 501.769531 969.613281 C 502.691406 967.382812 503.429688 965.054688 504.28125 962.785156 C 506.347656 957.195312 508.25 951.546875 509.875 945.753906 C 510.648438 942.984375 511.371094 940.199219 512.035156 937.375 C 513.402344 931.617188 514.507812 925.789062 515.429688 919.863281 C 515.835938 917.226562 516.316406 914.640625 516.632812 911.984375 C 517.664062 903.441406 518.3125 894.820312 518.3125 886.039062 C 518.3125 763.929688 418.933594 664.597656 296.773438 664.597656 L 296.773438 37.175781 L 879.898438 37.175781 L 998.3125 155.539062 Z M 998.3125 1070.574219 "/>
</g>
<path style=" stroke:none;fill-rule:nonzero;fill:rgb(100%,100%,100%);fill-opacity:1;" d="M 352.15625 92.535156 L 869.082031 92.535156 L 869.082031 129.445312 L 352.15625 129.445312 Z M 352.15625 92.535156 "/>
<path style=" stroke:none;fill-rule:nonzero;fill:rgb(100%,100%,100%);fill-opacity:1;" d="M 352.15625 203.257812 L 924.464844 203.257812 L 924.464844 240.164062 L 352.15625 240.164062 Z M 352.15625 203.257812 "/>
<path style=" stroke:none;fill-rule:nonzero;fill:rgb(100%,100%,100%);fill-opacity:1;" d="M 352.15625 313.980469 L 924.464844 313.980469 L 924.464844 350.886719 L 352.15625 350.886719 Z M 352.15625 313.980469 "/>
<path style=" stroke:none;fill-rule:nonzero;fill:rgb(100%,100%,100%);fill-opacity:1;" d="M 352.15625 424.699219 L 924.464844 424.699219 L 924.464844 461.605469 L 352.15625 461.605469 Z M 352.15625 424.699219 "/>
<path style=" stroke:none;fill-rule:nonzero;fill:rgb(100%,100%,100%);fill-opacity:1;" d="M 352.15625 535.421875 L 924.464844 535.421875 L 924.464844 572.328125 L 352.15625 572.328125 Z M 352.15625 535.421875 "/>
<path style=" stroke:none;fill-rule:nonzero;fill:rgb(100%,100%,100%);fill-opacity:1;" d="M 462.925781 646.140625 L 924.464844 646.140625 L 924.464844 683.050781 L 462.925781 683.050781 Z M 462.925781 646.140625 "/>
<path style=" stroke:none;fill-rule:nonzero;fill:rgb(100%,100%,100%);fill-opacity:1;" d="M 555.234375 756.863281 L 924.464844 756.863281 L 924.464844 793.769531 L 555.234375 793.769531 Z M 555.234375 756.863281 "/>
<path style=" stroke:none;fill-rule:nonzero;fill:rgb(100%,100%,100%);fill-opacity:1;" d="M 555.234375 867.585938 L 924.464844 867.585938 L 924.464844 904.492188 L 555.234375 904.492188 Z M 555.234375 867.585938 "/>
<path style=" stroke:none;fill-rule:nonzero;fill:rgb(100%,100%,100%);fill-opacity:1;" d="M 555.234375 978.304688 L 924.464844 978.304688 L 924.464844 1015.210938 L 555.234375 1015.210938 Z M 555.234375 978.304688 "/>
</g>
</svg>
