<?xml version="1.0" encoding="UTF-8"?>
<svg xmlns="http://www.w3.org/2000/svg" xmlns:xlink="http://www.w3.org/1999/xlink" width="1125pt" height="1124.99995pt" viewBox="0 0 1125 1124.99995" version="1.2">
<defs>
<clipPath id="clip1">
  <path d="M 29.335938 307 L 818 307 L 818 1095.4375 L 29.335938 1095.4375 Z M 29.335938 307 "/>
</clipPath>
<clipPath id="clip2">
  <path d="M 914 13.1875 L 1111.585938 13.1875 L 1111.585938 211 L 914 211 Z M 914 13.1875 "/>
</clipPath>
</defs>
<g id="surface1">
<g clip-path="url(#clip1)" clip-rule="nonzero">
<path style=" stroke:none;fill-rule:nonzero;fill:rgb(100%,100%,100%);fill-opacity:1;" d="M 609.457031 307.265625 L 149.457031 307.265625 C 83.230469 307.265625 29.335938 361.15625 29.335938 427.394531 L 29.335938 975.332031 C 29.335938 1041.570312 83.230469 1095.464844 149.457031 1095.464844 L 697.363281 1095.464844 C 763.59375 1095.464844 817.484375 1041.570312 817.484375 975.332031 L 817.484375 515.335938 L 742.929688 589.859375 L 742.929688 975.332031 C 742.929688 1000.4375 722.5 1020.898438 697.363281 1020.898438 L 149.457031 1020.898438 C 124.320312 1020.898438 103.894531 1000.4375 103.894531 975.332031 L 103.894531 427.394531 C 103.894531 402.289062 124.320312 381.828125 149.457031 381.828125 L 534.898438 381.828125 L 609.457031 307.265625 "/>
</g>
<g clip-path="url(#clip2)" clip-rule="nonzero">
<path style=" stroke:none;fill-rule:nonzero;fill:rgb(100%,100%,100%);fill-opacity:1;" d="M 985.582031 13.164062 L 914.785156 83.957031 L 1040.792969 210.003906 L 1111.585938 139.21875 Z M 985.570312 71.757812 L 1053.007812 139.210938 L 1040.800781 151.417969 L 973.363281 83.964844 L 985.570312 71.757812 "/>
</g>
<path style=" stroke:none;fill-rule:nonzero;fill:rgb(100%,100%,100%);fill-opacity:1;" d="M 893.125 105.617188 L 355.785156 642.957031 L 481.792969 768.960938 L 742.929688 507.835938 L 817.484375 433.320312 L 1019.128906 231.675781 Z M 893.117188 164.203125 L 960.554688 231.667969 L 788.203125 404.015625 L 713.632812 478.546875 L 481.792969 710.386719 L 414.371094 642.957031 L 646.203125 411.117188 L 720.765625 336.5625 L 893.117188 164.203125 "/>
<path style=" stroke:none;fill-rule:nonzero;fill:rgb(100%,100%,100%);fill-opacity:1;" d="M 334.125 664.625 L 292.578125 832.214844 L 460.128906 790.632812 Z M 356.683594 745.761719 L 379.003906 768.082031 L 349.328125 775.457031 L 356.683594 745.761719 "/>
</g>
</svg>
