<?xml version="1.0" encoding="UTF-8"?>
<svg xmlns="http://www.w3.org/2000/svg" xmlns:xlink="http://www.w3.org/1999/xlink" width="375pt" height="374.999991pt" viewBox="0 0 375 374.999991" version="1.2">
<defs>
<clipPath id="clip1">
  <path d="M 12.175781 5 L 363.175781 5 L 363.175781 354 L 12.175781 354 Z M 12.175781 5 "/>
</clipPath>
</defs>
<g id="surface1">
<g clip-path="url(#clip1)" clip-rule="nonzero">
<path style=" stroke:none;fill-rule:nonzero;fill:rgb(3.919983%,25.099182%,69.40918%);fill-opacity:1;" d="M 363.175781 52.769531 C 363.175781 40.042969 358.1875 28.054688 349.132812 19.199219 C 330.289062 0.386719 299.625 0.386719 280.78125 19.199219 L 260.828125 39.121094 L 46.351562 39.121094 C 37.113281 39.121094 28.617188 42.625 22.148438 49.082031 C 15.683594 55.535156 12.175781 64.207031 12.175781 73.246094 L 12.175781 319.492188 C 12.175781 328.714844 15.683594 337.199219 22.148438 343.652344 C 28.617188 350.109375 37.296875 353.613281 46.351562 353.613281 L 292.972656 353.613281 C 302.210938 353.613281 310.707031 350.109375 317.175781 343.652344 C 323.640625 337.199219 327.148438 328.527344 327.148438 319.492188 L 327.148438 108.105469 L 334.171875 101.097656 L 348.949219 86.339844 C 358.1875 77.488281 363.175781 65.496094 363.175781 52.769531 Z M 179.359375 236.671875 L 159.964844 217.304688 L 271.359375 106.078125 C 273.945312 103.496094 273.945312 99.066406 271.359375 96.484375 C 268.773438 93.902344 264.339844 93.902344 261.753906 96.484375 L 150.355469 207.710938 L 130.960938 188.160156 L 271.542969 47.789062 L 319.945312 96.117188 Z M 126.15625 202.730469 L 164.953125 241.464844 L 119.691406 247.921875 Z M 313.664062 319.675781 C 313.664062 325.207031 311.449219 330.375 307.566406 334.246094 C 303.6875 338.121094 298.515625 340.335938 292.972656 340.335938 L 46.351562 340.335938 C 40.808594 340.335938 35.636719 338.121094 31.757812 334.246094 C 27.875 330.375 25.660156 325.207031 25.660156 319.675781 L 25.660156 73.246094 C 25.660156 67.710938 27.875 62.546875 31.757812 58.671875 C 35.636719 54.800781 40.808594 52.585938 46.351562 52.585938 L 247.160156 52.585938 L 116.367188 183.363281 C 115.8125 183.917969 115.257812 184.65625 115.074219 185.394531 C 114.886719 185.578125 114.886719 185.945312 114.886719 186.128906 C 114.703125 186.5 114.703125 186.867188 114.519531 187.050781 L 104.910156 254.746094 C 104.542969 256.960938 105.28125 258.988281 106.757812 260.464844 C 108.050781 261.757812 109.714844 262.496094 111.5625 262.496094 C 111.933594 262.496094 112.117188 262.496094 112.484375 262.496094 L 180.285156 252.902344 C 180.652344 252.902344 181.023438 252.71875 181.207031 252.535156 C 181.394531 252.535156 181.761719 252.347656 181.945312 252.347656 C 182.6875 251.980469 183.425781 251.613281 183.980469 251.058594 L 313.480469 121.757812 L 313.480469 319.675781 Z M 329.550781 86.710938 L 281.152344 38.199219 L 290.574219 28.792969 C 297.039062 22.335938 305.722656 18.644531 314.957031 18.644531 C 324.195312 18.644531 332.878906 22.152344 339.34375 28.792969 C 345.808594 35.246094 349.320312 43.730469 349.320312 52.769531 C 349.320312 61.808594 345.808594 70.292969 339.34375 76.75 Z M 329.550781 86.710938 "/>
</g>
</g>
</svg>
