<?xml version="1.0" encoding="UTF-8"?>
<svg xmlns="http://www.w3.org/2000/svg" xmlns:xlink="http://www.w3.org/1999/xlink" width="375pt" height="374.999991pt" viewBox="0 0 375 374.999991" version="1.2">
<defs>
<clipPath id="clip1">
  <path d="M 237 145.78125 L 374 145.78125 L 374 229 L 237 229 Z M 237 145.78125 "/>
</clipPath>
</defs>
<g id="surface1">
<path style=" stroke:none;fill-rule:nonzero;fill:rgb(100%,100%,100%);fill-opacity:1;" d="M 260.703125 197.683594 L 243.445312 197.011719 L 233.757812 196.636719 L 233.757812 178.066406 L 243.445312 177.691406 L 260.703125 177.019531 L 271.058594 176.617188 L 271.058594 198.089844 L 260.703125 197.683594 "/>
<path style=" stroke:none;fill-rule:nonzero;fill:rgb(100%,100%,100%);fill-opacity:1;" d="M 226.179688 196.347656 L 208.917969 195.675781 L 200.574219 195.351562 L 200.574219 179.351562 L 208.917969 179.03125 L 226.179688 178.355469 L 235.191406 178.007812 L 235.191406 196.695312 L 226.179688 196.347656 "/>
<path style=" stroke:none;fill-rule:nonzero;fill:rgb(100%,100%,100%);fill-opacity:1;" d="M 191.65625 195.003906 L 174.394531 194.335938 L 167.394531 194.0625 L 167.394531 180.640625 L 174.394531 180.371094 L 191.65625 179.699219 L 199.328125 179.398438 L 199.328125 195.300781 L 191.65625 195.003906 "/>
<path style=" stroke:none;fill-rule:nonzero;fill:rgb(100%,100%,100%);fill-opacity:1;" d="M 157.132812 193.664062 L 139.875 192.992188 L 134.21875 192.769531 L 134.21875 181.9375 L 139.875 181.710938 L 157.132812 181.035156 L 163.457031 180.792969 L 163.457031 193.910156 L 157.132812 193.664062 "/>
<path style=" stroke:none;fill-rule:nonzero;fill:rgb(100%,100%,100%);fill-opacity:1;" d="M 122.613281 192.324219 L 105.347656 191.648438 L 101.035156 191.488281 L 101.035156 183.21875 L 105.347656 183.054688 L 122.613281 182.378906 L 127.589844 182.1875 L 127.589844 192.515625 L 122.613281 192.324219 "/>
<path style=" stroke:none;fill-rule:nonzero;fill:rgb(100%,100%,100%);fill-opacity:1;" d="M 88.078125 190.984375 L 70.820312 190.3125 L 67.851562 190.195312 L 67.851562 184.507812 L 70.820312 184.394531 L 88.078125 183.71875 L 91.722656 183.582031 L 91.722656 191.125 L 88.078125 190.984375 "/>
<path style=" stroke:none;fill-rule:nonzero;fill:rgb(100%,100%,100%);fill-opacity:1;" d="M 53.558594 189.640625 L 36.304688 188.96875 L 34.675781 188.90625 L 34.675781 185.796875 L 36.304688 185.734375 L 53.558594 185.058594 L 55.859375 184.976562 L 55.859375 189.726562 L 53.558594 189.640625 "/>
<path style=" stroke:none;fill-rule:nonzero;fill:rgb(100%,100%,100%);fill-opacity:1;" d="M 19.035156 188.300781 L 1.773438 187.628906 L 1.492188 187.621094 L 1.492188 187.085938 L 1.773438 187.078125 L 19.035156 186.402344 L 19.988281 186.363281 L 19.988281 188.332031 L 19.035156 188.300781 "/>
<g clip-path="url(#clip1)" clip-rule="nonzero">
<path style=" stroke:none;fill-rule:nonzero;fill:rgb(100%,100%,100%);fill-opacity:1;" d="M 373.398438 187.351562 L 237.527344 145.730469 L 259.414062 187.351562 L 237.527344 228.96875 L 373.398438 187.351562 "/>
</g>
</g>
</svg>
