<?xml version="1.0" encoding="UTF-8"?>
<svg xmlns="http://www.w3.org/2000/svg" xmlns:xlink="http://www.w3.org/1999/xlink" width="375pt" height="374.999991pt" viewBox="0 0 375 374.999991" version="1.2">
<defs>
<clipPath id="clip1">
  <path d="M 265 124 L 370.78125 124 L 370.78125 212 L 265 212 Z M 265 124 "/>
</clipPath>
</defs>
<g id="surface1">
<path style=" stroke:none;fill-rule:nonzero;fill:rgb(100%,100%,100%);fill-opacity:1;" d="M 56.859375 78.617188 C 57.726562 78.820312 58.566406 79.105469 59.378906 79.472656 C 60.191406 79.839844 60.960938 80.285156 61.6875 80.804688 C 62.410156 81.324219 63.078125 81.90625 63.6875 82.558594 C 64.296875 83.210938 64.839844 83.914062 65.308594 84.667969 C 65.78125 85.425781 66.171875 86.222656 66.488281 87.054688 C 66.800781 87.890625 67.03125 88.746094 67.175781 89.628906 C 67.324219 90.507812 67.382812 91.390625 67.351562 92.285156 C 67.324219 93.175781 67.207031 94.054688 67.003906 94.921875 C 66.804688 95.789062 66.519531 96.628906 66.152344 97.441406 C 65.78125 98.253906 65.339844 99.023438 64.820312 99.75 C 64.300781 100.472656 63.714844 101.140625 63.066406 101.75 C 62.414062 102.359375 61.710938 102.898438 60.953125 103.371094 C 60.195312 103.839844 59.402344 104.234375 58.566406 104.546875 C 57.730469 104.863281 56.875 105.09375 55.996094 105.238281 C 55.113281 105.382812 54.230469 105.441406 53.339844 105.414062 C 52.445312 105.382812 51.566406 105.269531 50.699219 105.066406 C 49.828125 104.863281 48.988281 104.578125 48.175781 104.210938 C 47.363281 103.84375 46.597656 103.398438 45.871094 102.882812 C 45.144531 102.363281 44.480469 101.777344 43.867188 101.125 C 43.257812 100.476562 42.71875 99.773438 42.246094 99.015625 C 41.777344 98.257812 41.382812 97.464844 41.070312 96.628906 C 40.753906 95.792969 40.523438 94.9375 40.378906 94.058594 C 40.234375 93.179688 40.175781 92.292969 40.203125 91.402344 C 40.234375 90.511719 40.347656 89.632812 40.550781 88.761719 C 40.753906 87.894531 41.039062 87.054688 41.40625 86.242188 C 41.773438 85.429688 42.21875 84.660156 42.738281 83.9375 C 43.257812 83.210938 43.839844 82.546875 44.492188 81.933594 C 45.140625 81.324219 45.847656 80.785156 46.601562 80.316406 C 47.359375 79.84375 48.15625 79.449219 48.992188 79.136719 C 49.824219 78.824219 50.683594 78.59375 51.5625 78.445312 C 52.441406 78.300781 53.328125 78.242188 54.21875 78.273438 C 55.109375 78.300781 55.988281 78.417969 56.859375 78.617188 Z M 56.859375 78.617188 "/>
<path style=" stroke:none;fill-rule:nonzero;fill:rgb(100%,100%,100%);fill-opacity:1;" d="M 47.058594 171.65625 C 47.476562 172.113281 47.894531 172.589844 48.316406 173.078125 C 54.980469 180.78125 62.300781 191.914062 65.875 206.089844 C 66.738281 209.511719 69.8125 211.792969 73.1875 211.792969 C 73.796875 211.792969 74.417969 211.714844 75.035156 211.558594 C 79.078125 210.539062 81.527344 206.4375 80.507812 202.398438 C 76.042969 184.738281 66.925781 171.34375 58.984375 162.351562 C 55.164062 158.03125 51.605469 154.710938 48.894531 152.398438 C 47.726562 142.183594 50.550781 130.433594 52.167969 122.183594 C 52.191406 122.101562 52.210938 122.023438 52.230469 121.945312 C 57.460938 124.445312 64.921875 126.855469 74.199219 126.855469 C 79.246094 126.855469 84.8125 126.140625 90.792969 124.371094 C 93.351562 123.617188 94.8125 120.933594 94.058594 118.375 C 93.304688 115.816406 90.617188 114.355469 88.058594 115.109375 C 82.957031 116.617188 78.339844 117.195312 74.199219 117.195312 C 66.355469 117.195312 60.191406 115.105469 55.980469 113.03125 C 53.878906 111.996094 52.273438 110.964844 51.226562 110.222656 C 50.703125 109.851562 50.320312 109.550781 50.082031 109.355469 C 49.964844 109.261719 49.882812 109.191406 49.839844 109.152344 C 49.820312 109.132812 49.804688 109.125 49.800781 109.121094 C 49.800781 109.117188 49.800781 109.117188 49.800781 109.117188 C 49.03125 108.425781 48.105469 108.027344 47.148438 107.910156 C 46.929688 107.828125 46.710938 107.757812 46.480469 107.699219 C 42.082031 106.601562 35.992188 108.484375 32.414062 114.558594 C 36.488281 112.648438 39.632812 111.757812 40.769531 111.472656 L 40.777344 111.46875 L 40.828125 111.457031 C 41.289062 111.347656 41.761719 111.292969 42.234375 111.292969 C 45.039062 111.292969 47.453125 113.195312 48.105469 115.921875 C 48.878906 119.160156 46.875 122.421875 43.640625 123.199219 L 43.527344 123.226562 C 43.402344 123.261719 43.203125 123.316406 42.933594 123.398438 C 42.421875 123.550781 41.585938 123.824219 40.53125 124.222656 C 38.644531 124.941406 35.734375 126.210938 32.617188 128.171875 C 30.660156 129.40625 28.871094 130.746094 27.246094 132.1875 C 26.40625 138.066406 26.496094 143.925781 27.386719 151.5625 C 28.296875 156.257812 30.324219 158.910156 32.796875 160.398438 C 32.835938 161 32.859375 161.65625 32.859375 162.367188 C 32.855469 166.5 32.089844 172.269531 28.839844 178.453125 C 25.566406 184.632812 19.824219 191.414062 8.984375 197.609375 C 5.359375 199.667969 4.09375 204.273438 6.15625 207.898438 C 8.21875 211.519531 12.824219 212.785156 16.449219 210.722656 C 29.5 203.320312 37.601562 194.265625 42.199219 185.472656 C 44.75 180.621094 46.238281 175.910156 47.058594 171.65625 Z M 47.058594 171.65625 "/>
<path style=" stroke:none;fill-rule:nonzero;fill:rgb(100%,100%,100%);fill-opacity:1;" d="M 42.585938 122.242188 C 42.871094 122.15625 43.085938 122.097656 43.21875 122.0625 C 43.285156 122.042969 43.328125 122.03125 43.351562 122.027344 L 43.359375 122.023438 C 45.953125 121.402344 47.550781 118.796875 46.933594 116.203125 C 46.308594 113.609375 43.703125 112.011719 41.109375 112.632812 C 40.78125 112.71875 34.347656 114.265625 26.835938 118.972656 C 19.355469 123.65625 10.660156 131.722656 6.816406 144.617188 C 6.050781 147.171875 7.503906 149.863281 10.0625 150.625 C 10.523438 150.761719 10.988281 150.828125 11.445312 150.828125 C 13.527344 150.828125 15.449219 149.472656 16.074219 147.378906 C 19.070312 137.339844 25.769531 131.066406 31.976562 127.148438 C 35.0625 125.207031 37.988281 123.898438 40.105469 123.09375 C 41.164062 122.691406 42.019531 122.414062 42.585938 122.242188 Z M 42.585938 122.242188 "/>
<g clip-path="url(#clip1)" clip-rule="nonzero">
<path style=" stroke:none;fill-rule:nonzero;fill:rgb(100%,100%,100%);fill-opacity:1;" d="M 265.722656 124.101562 L 370.722656 124.101562 L 370.722656 211.027344 L 265.722656 211.027344 Z M 265.722656 124.101562 "/>
</g>
<path style=" stroke:none;fill-rule:nonzero;fill:rgb(100%,100%,100%);fill-opacity:1;" d="M 247.234375 22.765625 C 250.628906 20.378906 253.632812 18.015625 255.917969 15.988281 C 253.78125 18.488281 250.53125 21.710938 246.703125 25.03125 C 245.175781 26.355469 243.738281 27.703125 242.40625 29 C 244.066406 31.628906 246.628906 33.707031 249.828125 34.710938 C 256.988281 36.949219 264.605469 32.964844 266.847656 25.808594 C 269.089844 18.652344 265.101562 11.03125 257.945312 8.792969 C 250.785156 6.554688 243.164062 10.539062 240.925781 17.695312 C 240.53125 18.957031 240.332031 20.230469 240.308594 21.484375 C 239.898438 21.800781 239.5 22.109375 239.113281 22.417969 C 233.863281 26.5625 230.527344 30.054688 231.152344 30.945312 C 231.539062 31.496094 233.363281 30.960938 236.027344 29.644531 C 238.988281 28.179688 242.992188 25.753906 247.234375 22.765625 Z M 247.234375 22.765625 "/>
<path style=" stroke:none;fill-rule:nonzero;fill:rgb(100%,100%,100%);fill-opacity:1;" d="M 318.476562 79.050781 L 357.414062 79.050781 L 357.414062 117.980469 L 318.476562 117.980469 Z M 318.476562 79.050781 "/>
<path style=" stroke:none;fill-rule:nonzero;fill:rgb(100%,100%,100%);fill-opacity:1;" d="M 241.152344 80.515625 C 242.636719 80.515625 244.066406 81.0625 245.175781 82.054688 C 246.378906 83.128906 247.085938 84.609375 247.175781 86.21875 C 247.21875 86.945312 247.121094 87.660156 246.914062 88.335938 L 252.128906 90.394531 L 255.390625 82.125 C 254.9375 81.761719 254.523438 81.34375 254.179688 80.855469 C 253.257812 79.53125 252.902344 77.929688 253.1875 76.34375 C 253.46875 74.753906 254.351562 73.371094 255.675781 72.449219 C 257.445312 71.207031 259.03125 69.847656 260.449219 68.367188 L 258.785156 67.710938 C 261.46875 65.609375 263.695312 63.382812 265.53125 61.128906 C 266.003906 60.179688 266.441406 59.195312 266.828125 58.171875 C 268.824219 52.933594 269.113281 47.96875 269.113281 45.472656 C 269.113281 43.667969 268.96875 42.566406 268.96875 42.554688 C 268.5 39.265625 270.800781 36.207031 274.089844 35.734375 C 274.378906 35.691406 274.664062 35.671875 274.953125 35.671875 C 277.933594 35.671875 280.5 37.902344 280.921875 40.855469 C 280.933594 40.921875 281.183594 42.667969 281.1875 45.472656 C 281.183594 48.820312 280.816406 53.652344 279.273438 58.988281 C 282.101562 61.734375 284.898438 64.714844 287.292969 67.878906 L 271.414062 80.1875 C 269.753906 81.472656 268.714844 83.355469 268.523438 85.449219 C 268.328125 87.539062 268.996094 89.582031 270.386719 91.15625 L 293.933594 117.710938 C 295.425781 119.394531 297.5 120.253906 299.582031 120.253906 C 301.363281 120.253906 303.152344 119.625 304.585938 118.355469 C 307.707031 115.589844 307.996094 110.820312 305.230469 107.703125 L 287.03125 87.175781 L 299.492188 77.519531 C 300.300781 77.085938 301.167969 76.488281 302.128906 75.785156 C 306.601562 72.527344 311.339844 67.738281 307.027344 58.828125 C 300.242188 47.152344 294.789062 41.335938 284.203125 34.046875 C 276.910156 29.089844 269.683594 30.796875 266.070312 34.457031 C 265.015625 35.242188 264.304688 36.433594 264.148438 37.785156 C 263.894531 38.816406 263.859375 39.921875 264.015625 41.046875 C 263.769531 43.273438 263.050781 46.808594 260.988281 50.625 C 258.695312 54.824219 254.871094 59.476562 247.859375 63.402344 L 238.867188 59.855469 L 230.226562 81.753906 L 235.460938 83.820312 C 235.859375 83.394531 236.257812 82.964844 236.652344 82.527344 C 237.792969 81.25 239.433594 80.515625 241.152344 80.515625 Z M 241.152344 80.515625 "/>
<path style=" stroke:none;fill-rule:nonzero;fill:rgb(100%,100%,100%);fill-opacity:1;" d="M 274.261719 36.929688 C 271.625 37.308594 269.789062 39.75 270.164062 42.386719 L 270.164062 42.394531 C 270.183594 42.550781 270.320312 43.691406 270.320312 45.472656 C 270.324219 48.539062 269.910156 53.472656 267.957031 58.605469 C 265.992188 63.75 262.597656 69.074219 256.367188 73.441406 C 254.179688 74.96875 253.644531 77.976562 255.171875 80.164062 C 256.109375 81.507812 257.609375 82.226562 259.136719 82.226562 C 260.089844 82.226562 261.054688 81.945312 261.898438 81.359375 C 269.890625 75.789062 274.503906 68.625 276.992188 62.03125 C 279.492188 55.421875 279.972656 49.363281 279.976562 45.472656 C 279.976562 42.855469 279.753906 41.210938 279.726562 41.027344 C 279.351562 38.386719 276.902344 36.554688 274.261719 36.929688 Z M 274.261719 36.929688 "/>
<path style=" stroke:none;fill-rule:nonzero;fill:rgb(100%,100%,100%);fill-opacity:1;" d="M 197.28125 71.65625 L 188.644531 83.210938 C 189.582031 88.378906 193.488281 92.757812 198.933594 94.023438 C 206.238281 95.726562 213.539062 91.183594 215.238281 83.878906 C 216.941406 76.578125 212.398438 69.277344 205.09375 67.578125 C 202.828125 67.050781 200.566406 67.125 198.472656 67.691406 C 198.554688 69.113281 198.144531 70.503906 197.28125 71.65625 Z M 197.28125 71.65625 "/>
<path style=" stroke:none;fill-rule:nonzero;fill:rgb(100%,100%,100%);fill-opacity:1;" d="M 207.347656 113.960938 C 203.824219 114.636719 201.335938 114.726562 200.355469 114.726562 C 200.097656 114.726562 199.933594 114.71875 199.875 114.71875 C 196.566406 114.605469 193.949219 111.808594 194.0625 108.484375 C 194.171875 105.210938 196.820312 102.648438 200.089844 102.648438 L 200.28125 102.652344 L 200.355469 102.652344 C 200.710938 102.652344 203.082031 102.613281 206.722656 101.75 C 205.65625 99.792969 204.058594 98.328125 201.992188 97.8125 C 196.835938 96.527344 189.367188 99.328125 186.324219 108.164062 C 182.21875 120.339844 181.335938 128.265625 182.894531 141.675781 C 184.171875 148.238281 187.621094 150.820312 191.433594 151.789062 C 192.96875 156.851562 194.890625 165.183594 194.875 175.179688 C 194.875 183.160156 193.679688 192.183594 190.1875 201.617188 C 188.742188 205.527344 190.734375 209.867188 194.644531 211.316406 C 195.507812 211.636719 196.394531 211.785156 197.261719 211.785156 C 200.332031 211.789062 203.214844 209.902344 204.34375 206.859375 C 208.542969 195.523438 209.96875 184.660156 209.96875 175.179688 C 209.949219 160.0625 206.398438 148.433594 204.480469 143.226562 C 203.179688 133.515625 205.664062 122.285156 207.347656 113.960938 Z M 207.347656 113.960938 "/>
<path style=" stroke:none;fill-rule:nonzero;fill:rgb(100%,100%,100%);fill-opacity:1;" d="M 200.242188 103.859375 C 197.582031 103.777344 195.355469 105.863281 195.269531 108.523438 C 195.179688 111.1875 197.269531 113.421875 199.933594 113.511719 C 199.984375 113.511719 200.128906 113.515625 200.355469 113.515625 C 202.03125 113.515625 208.027344 113.277344 216.1875 110.171875 C 224.347656 107.070312 234.644531 101.070312 244.746094 89.773438 C 246.527344 87.785156 246.355469 84.734375 244.371094 82.953125 C 242.382812 81.175781 239.328125 81.347656 237.550781 83.335938 C 228.472656 93.464844 219.589844 98.535156 212.75 101.144531 C 205.917969 103.75 201.109375 103.859375 200.355469 103.859375 C 200.296875 103.859375 200.257812 103.859375 200.242188 103.859375 Z M 200.242188 103.859375 "/>
<path style=" stroke:none;fill-rule:nonzero;fill:rgb(100%,100%,100%);fill-opacity:1;" d="M 150.402344 81.066406 C 150.515625 87.136719 154.71875 92.585938 160.902344 94.027344 C 162.371094 94.367188 163.84375 94.453125 165.265625 94.316406 L 177.3125 78.207031 C 176.316406 73.117188 172.4375 68.832031 167.0625 67.578125 C 164.128906 66.894531 161.199219 67.222656 158.632812 68.324219 C 158.578125 69.519531 158.171875 70.675781 157.4375 71.65625 Z M 150.402344 81.066406 "/>
<path style=" stroke:none;fill-rule:nonzero;fill:rgb(100%,100%,100%);fill-opacity:1;" d="M 162.058594 114.722656 C 160.746094 114.722656 159.5 114.304688 158.449219 113.515625 C 157.160156 112.554688 156.320312 111.144531 156.089844 109.550781 C 155.859375 107.953125 156.261719 106.363281 157.230469 105.070312 L 162.8125 97.601562 C 157.753906 96.964844 151.117188 99.960938 148.296875 108.164062 C 144.1875 120.339844 143.304688 128.265625 144.863281 141.675781 C 146.140625 148.238281 149.59375 150.820312 153.402344 151.789062 C 154.941406 156.847656 156.859375 165.179688 156.84375 175.179688 C 156.84375 183.160156 155.648438 192.183594 152.15625 201.617188 C 150.710938 205.527344 152.703125 209.867188 156.613281 211.316406 C 157.476562 211.632812 158.363281 211.785156 159.234375 211.785156 C 162.300781 211.785156 165.183594 209.902344 166.3125 206.859375 C 170.511719 195.523438 171.9375 184.660156 171.9375 175.179688 C 171.921875 160.0625 168.367188 148.429688 166.449219 143.226562 C 165.0625 132.851562 167.992188 120.738281 169.648438 112.292969 C 170.0625 110.851562 170.246094 109.34375 170.21875 107.863281 L 166.902344 112.300781 C 165.765625 113.816406 163.957031 114.722656 162.058594 114.722656 Z M 162.058594 114.722656 "/>
<path style=" stroke:none;fill-rule:nonzero;fill:rgb(100%,100%,100%);fill-opacity:1;" d="M 158.195312 105.792969 C 156.597656 107.929688 157.035156 110.957031 159.171875 112.550781 C 160.039062 113.199219 161.054688 113.515625 162.058594 113.515625 C 163.53125 113.515625 164.984375 112.84375 165.933594 111.574219 L 196.316406 70.933594 C 197.914062 68.796875 197.476562 65.769531 195.339844 64.175781 C 193.203125 62.578125 190.175781 63.015625 188.578125 65.152344 Z M 158.195312 105.792969 "/>
<path style=" stroke:none;fill-rule:nonzero;fill:rgb(100%,100%,100%);fill-opacity:1;" d="M 127.214844 67.578125 C 119.910156 65.878906 112.609375 70.421875 110.90625 77.722656 C 109.207031 85.027344 113.75 92.324219 121.054688 94.027344 C 122.527344 94.367188 123.996094 94.453125 125.417969 94.316406 L 137.464844 78.207031 C 136.472656 73.117188 132.59375 68.832031 127.214844 67.578125 Z M 127.214844 67.578125 "/>
<path style=" stroke:none;fill-rule:nonzero;fill:rgb(100%,100%,100%);fill-opacity:1;" d="M 129.800781 112.292969 C 130.214844 110.851562 130.398438 109.339844 130.371094 107.859375 L 127.050781 112.296875 C 125.917969 113.816406 124.109375 114.722656 122.210938 114.722656 C 120.902344 114.722656 119.652344 114.308594 118.601562 113.519531 C 115.9375 111.53125 115.386719 107.738281 117.378906 105.070312 L 122.964844 97.601562 C 117.90625 96.964844 111.269531 99.960938 108.449219 108.164062 C 104.339844 120.339844 103.457031 128.265625 105.015625 141.675781 C 106.292969 148.238281 109.746094 150.820312 113.554688 151.789062 C 115.09375 156.851562 117.011719 165.183594 116.996094 175.179688 C 116.996094 183.160156 115.800781 192.183594 112.308594 201.621094 C 110.863281 205.527344 112.855469 209.867188 116.765625 211.316406 C 117.628906 211.636719 118.515625 211.785156 119.386719 211.785156 C 122.453125 211.789062 125.335938 209.902344 126.464844 206.859375 C 130.664062 195.523438 132.089844 184.660156 132.089844 175.179688 C 132.074219 160.0625 128.519531 148.433594 126.601562 143.226562 C 125.214844 132.851562 128.148438 120.738281 129.800781 112.292969 Z M 129.800781 112.292969 "/>
<path style=" stroke:none;fill-rule:nonzero;fill:rgb(100%,100%,100%);fill-opacity:1;" d="M 119.328125 112.550781 C 120.195312 113.203125 121.207031 113.515625 122.214844 113.515625 C 123.6875 113.515625 125.136719 112.84375 126.085938 111.574219 L 156.46875 70.933594 C 158.066406 68.796875 157.628906 65.769531 155.492188 64.175781 C 153.355469 62.578125 150.328125 63.015625 148.730469 65.152344 L 118.347656 105.792969 C 116.75 107.929688 117.191406 110.957031 119.328125 112.550781 Z M 119.328125 112.550781 "/>
</g>
</svg>
