<?xml version="1.0" encoding="UTF-8"?>
<svg xmlns="http://www.w3.org/2000/svg" xmlns:xlink="http://www.w3.org/1999/xlink" width="375pt" height="374.999991pt" viewBox="0 0 375 374.999991" version="1.2">
<defs>
<clipPath id="clip1">
  <path d="M 11.816406 5.445312 L 367.316406 5.445312 L 367.316406 365.445312 L 11.816406 365.445312 Z M 11.816406 5.445312 "/>
</clipPath>
</defs>
<g id="surface1">
<g clip-path="url(#clip1)" clip-rule="nonzero">
<path style=" stroke:none;fill-rule:nonzero;fill:rgb(100%,100%,100%);fill-opacity:1;" d="M 118.574219 5.5625 C 100.496094 5.5625 85.792969 19.933594 85.792969 37.605469 L 85.792969 178.15625 L 80.855469 178.15625 L 80.855469 163.359375 C 80.855469 160.632812 78.648438 158.429688 75.917969 158.429688 L 54.90625 158.429688 C 31.101562 158.429688 11.730469 177.765625 11.730469 201.539062 L 11.730469 297.765625 C 11.730469 321.539062 31.101562 340.882812 54.90625 340.882812 L 80.855469 340.882812 C 83.585938 340.882812 85.792969 338.679688 85.792969 335.953125 L 85.792969 316.226562 L 90.730469 316.226562 L 90.730469 351.515625 C 90.730469 359.25 97.296875 365.539062 105.371094 365.539062 L 278.53125 365.539062 C 286.605469 365.539062 293.167969 359.25 293.167969 351.515625 L 293.167969 316.226562 L 297.230469 316.226562 C 297.695312 316.226562 298.105469 316.632812 298.105469 317.09375 L 298.105469 335.953125 C 298.105469 338.679688 300.3125 340.882812 303.042969 340.882812 L 324.058594 340.882812 C 347.863281 340.882812 367.230469 321.539062 367.230469 297.765625 L 367.230469 201.539062 C 367.230469 177.765625 347.863281 158.429688 324.058594 158.429688 L 303.042969 158.429688 C 300.3125 158.429688 298.105469 160.632812 298.105469 163.359375 L 298.105469 178.15625 L 293.167969 178.15625 L 293.167969 73.359375 C 293.167969 72.046875 292.652344 70.796875 291.722656 69.871094 L 228.769531 7.007812 C 227.847656 6.082031 226.59375 5.5625 225.277344 5.5625 Z M 118.574219 15.425781 L 219.105469 15.425781 L 219.105469 49.066406 C 219.105469 65.863281 232.78125 79.53125 249.601562 79.53125 L 283.292969 79.53125 L 283.292969 178.15625 L 95.667969 178.15625 L 95.667969 37.605469 C 95.667969 25.378906 105.9375 15.425781 118.574219 15.425781 Z M 224.042969 16.234375 L 282.496094 74.601562 L 249.601562 74.601562 C 235.503906 74.601562 224.042969 63.140625 224.042969 49.066406 Z M 122.824219 89.394531 C 121.464844 89.394531 120.355469 90.496094 120.355469 91.859375 C 120.355469 93.21875 121.464844 94.324219 122.824219 94.324219 L 187.011719 94.324219 C 188.375 94.324219 189.480469 93.21875 189.480469 91.859375 C 189.480469 90.496094 188.375 89.394531 187.011719 89.394531 Z M 201.824219 89.394531 C 200.464844 89.394531 199.355469 90.496094 199.355469 91.859375 L 199.355469 136.238281 C 199.355469 137.601562 200.464844 138.707031 201.824219 138.707031 C 203.1875 138.707031 204.292969 137.601562 204.292969 136.238281 L 204.292969 94.324219 L 248.730469 94.324219 L 248.730469 138.707031 L 216.636719 138.707031 C 215.277344 138.707031 214.167969 139.808594 214.167969 141.171875 C 214.167969 142.53125 215.277344 143.636719 216.636719 143.636719 L 251.199219 143.636719 C 252.5625 143.636719 253.667969 142.535156 253.667969 141.171875 L 253.667969 91.859375 C 253.667969 90.496094 252.5625 89.394531 251.199219 89.394531 Z M 122.824219 114.050781 C 121.464844 114.050781 120.355469 115.152344 120.355469 116.515625 C 120.355469 117.875 121.464844 118.980469 122.824219 118.980469 L 187.011719 118.980469 C 188.375 118.980469 189.480469 117.875 189.480469 116.515625 C 189.480469 115.152344 188.375 114.050781 187.011719 114.050781 Z M 122.824219 133.773438 C 121.464844 133.773438 120.355469 134.878906 120.355469 136.238281 C 120.355469 137.601562 121.464844 138.707031 122.824219 138.707031 L 187.011719 138.707031 C 188.375 138.707031 189.480469 137.601562 189.480469 136.238281 C 189.480469 134.878906 188.375 133.773438 187.011719 133.773438 Z M 122.824219 153.5 C 121.464844 153.5 120.355469 154.601562 120.355469 155.964844 C 120.355469 157.324219 121.464844 158.429688 122.824219 158.429688 L 162.324219 158.429688 C 163.6875 158.429688 164.792969 157.324219 164.792969 155.964844 C 164.792969 154.601562 163.6875 153.5 162.324219 153.5 Z M 172.199219 153.5 C 170.839844 153.5 169.730469 154.601562 169.730469 155.964844 C 169.730469 157.324219 170.839844 158.429688 172.199219 158.429688 L 251.199219 158.429688 C 252.5625 158.429688 253.667969 157.324219 253.667969 155.964844 C 253.667969 154.601562 252.5625 153.5 251.199219 153.5 Z M 54.90625 168.292969 L 70.980469 168.292969 L 70.980469 181.226562 C 70.980469 184.96875 74.027344 188.015625 77.769531 188.015625 L 302.765625 188.015625 C 305.496094 188.015625 307.980469 185.535156 307.980469 182.808594 L 307.980469 168.292969 L 324.058594 168.292969 C 342.421875 168.292969 357.355469 183.199219 357.355469 201.539062 L 357.355469 297.765625 C 357.355469 316.105469 342.421875 331.023438 324.058594 331.023438 L 307.980469 331.023438 L 307.980469 317.09375 C 307.980469 311.175781 303.164062 306.367188 297.238281 306.367188 L 84.832031 306.367188 C 79.917969 306.367188 75.917969 310.359375 75.917969 315.265625 L 75.917969 331.023438 L 54.90625 331.023438 C 36.542969 331.023438 21.605469 316.105469 21.605469 297.765625 L 21.605469 201.539062 C 21.605469 183.199219 36.542969 168.292969 54.90625 168.292969 Z M 330.199219 192.949219 C 323.390625 192.949219 317.855469 198.476562 317.855469 205.277344 C 317.855469 212.078125 323.390625 217.605469 330.199219 217.605469 C 337.011719 217.605469 342.542969 212.078125 342.542969 205.277344 C 342.542969 198.476562 337.011719 192.949219 330.199219 192.949219 Z M 38.484375 197.878906 C 34.621094 197.878906 31.480469 201.015625 31.480469 204.871094 L 31.480469 205.671875 C 31.480469 209.527344 34.621094 212.671875 38.484375 212.671875 L 59.035156 212.671875 C 62.894531 212.671875 66.042969 209.53125 66.042969 205.671875 L 66.042969 204.871094 C 66.042969 201.015625 62.894531 197.878906 59.035156 197.878906 Z M 330.199219 197.878906 C 334.285156 197.878906 337.605469 201.199219 337.605469 205.277344 C 337.605469 209.355469 334.285156 212.671875 330.199219 212.671875 C 326.117188 212.671875 322.792969 209.355469 322.792969 205.277344 C 322.792969 201.199219 326.117188 197.878906 330.199219 197.878906 Z M 38.484375 202.8125 L 59.035156 202.8125 C 60.175781 202.8125 61.105469 203.734375 61.105469 204.871094 L 61.105469 205.671875 C 61.105469 206.808594 60.175781 207.742188 59.035156 207.742188 L 38.484375 207.742188 C 37.34375 207.742188 36.417969 206.808594 36.417969 205.671875 L 36.417969 204.871094 C 36.417969 203.734375 37.34375 202.8125 38.484375 202.8125 Z M 95.667969 316.226562 L 288.230469 316.226562 L 288.230469 351.515625 C 288.230469 356.527344 283.878906 360.609375 278.53125 360.609375 L 105.371094 360.609375 C 100.023438 360.609375 95.667969 356.527344 95.667969 351.515625 Z M 95.667969 316.226562 "/>
</g>
</g>
</svg>
