<?xml version="1.0" encoding="UTF-8"?>
<svg xmlns="http://www.w3.org/2000/svg" xmlns:xlink="http://www.w3.org/1999/xlink" width="375pt" height="374.999991pt" viewBox="0 0 375 374.999991" version="1.2">
<defs>
<clipPath id="clip1">
  <path d="M 7.859375 5 L 367.109375 5 L 367.109375 366 L 7.859375 366 Z M 7.859375 5 "/>
</clipPath>
</defs>
<g id="surface1">
<path style=" stroke:none;fill-rule:nonzero;fill:rgb(100%,100%,100%);fill-opacity:1;" d="M 109.648438 101.582031 L 109.648438 149.488281 L 121.621094 149.488281 L 121.621094 101.582031 L 175.511719 101.582031 L 175.511719 89.601562 L 121.621094 89.601562 L 121.621094 35.707031 L 109.648438 35.707031 L 109.648438 89.601562 L 55.761719 89.601562 L 55.761719 101.582031 Z M 109.648438 101.582031 "/>
<g clip-path="url(#clip1)" clip-rule="nonzero">
<path style=" stroke:none;fill-rule:nonzero;fill:rgb(100%,100%,100%);fill-opacity:1;" d="M 366.917969 196.457031 C 366.929688 196.238281 366.929688 196.015625 366.917969 195.792969 L 336.980469 88 C 336.804688 87.367188 336.53125 86.777344 336.164062 86.234375 C 335.792969 85.691406 335.347656 85.222656 334.824219 84.828125 C 334.300781 84.429688 333.726562 84.128906 333.105469 83.921875 C 332.480469 83.714844 331.839844 83.613281 331.183594 83.613281 L 229.398438 83.613281 L 229.398438 65.648438 C 229.398438 65.253906 229.359375 64.867188 229.28125 64.480469 C 229.207031 64.09375 229.09375 63.71875 228.941406 63.355469 C 228.792969 62.992188 228.605469 62.648438 228.386719 62.320312 C 228.171875 61.996094 227.921875 61.691406 227.644531 61.414062 C 227.367188 61.136719 227.0625 60.886719 226.738281 60.667969 C 226.410156 60.449219 226.066406 60.265625 225.703125 60.117188 C 225.339844 59.964844 224.964844 59.851562 224.578125 59.773438 C 224.191406 59.699219 223.804688 59.660156 223.410156 59.660156 L 197.898438 59.660156 C 197.03125 57.671875 196.09375 55.714844 195.085938 53.796875 C 194.078125 51.875 193 49.992188 191.855469 48.148438 C 190.710938 46.304688 189.5 44.507812 188.226562 42.753906 C 186.949219 40.996094 185.613281 39.289062 184.214844 37.632812 C 182.816406 35.976562 181.359375 34.371094 179.84375 32.816406 C 178.328125 31.265625 176.757812 29.769531 175.132812 28.332031 C 173.507812 26.890625 171.835938 25.515625 170.113281 24.195312 C 168.386719 22.878906 166.621094 21.628906 164.804688 20.4375 C 162.992188 19.25 161.136719 18.128906 159.238281 17.074219 C 157.34375 16.019531 155.410156 15.035156 153.445312 14.121094 C 151.476562 13.207031 149.480469 12.363281 147.453125 11.597656 C 145.421875 10.828125 143.371094 10.132812 141.289062 9.511719 C 139.210938 8.890625 137.113281 8.347656 134.996094 7.878906 C 132.878906 7.410156 130.746094 7.019531 128.597656 6.707031 C 126.453125 6.394531 124.296875 6.15625 122.132812 6 C 119.972656 5.84375 117.804688 5.765625 115.636719 5.765625 C 113.464844 5.765625 111.300781 5.84375 109.136719 6 C 106.972656 6.15625 104.816406 6.394531 102.671875 6.707031 C 100.523438 7.019531 98.394531 7.410156 96.273438 7.878906 C 94.15625 8.347656 92.058594 8.890625 89.980469 9.511719 C 87.902344 10.132812 85.847656 10.828125 83.820312 11.597656 C 81.789062 12.363281 79.792969 13.207031 77.824219 14.121094 C 75.859375 15.035156 73.925781 16.019531 72.03125 17.074219 C 70.136719 18.128906 68.28125 19.25 66.464844 20.4375 C 64.652344 21.628906 62.882812 22.878906 61.15625 24.195312 C 59.433594 25.515625 57.761719 26.890625 56.136719 28.332031 C 54.511719 29.769531 52.945312 31.265625 51.429688 32.816406 C 49.914062 34.371094 48.457031 35.976562 47.054688 37.632812 C 45.65625 39.289062 44.320312 40.996094 43.046875 42.753906 C 41.769531 44.507812 40.558594 46.304688 39.414062 48.148438 C 38.269531 49.992188 37.195312 51.875 36.183594 53.796875 C 35.175781 55.714844 34.238281 57.671875 33.371094 59.660156 L 13.847656 59.660156 C 13.453125 59.660156 13.066406 59.699219 12.679688 59.773438 C 12.292969 59.851562 11.917969 59.964844 11.554688 60.117188 C 11.191406 60.265625 10.847656 60.449219 10.519531 60.667969 C 10.195312 60.886719 9.890625 61.136719 9.613281 61.414062 C 9.335938 61.691406 9.085938 61.996094 8.871094 62.320312 C 8.652344 62.648438 8.464844 62.992188 8.316406 63.355469 C 8.164062 63.71875 8.050781 64.09375 7.976562 64.480469 C 7.898438 64.867188 7.859375 65.253906 7.859375 65.648438 L 7.859375 275.25 C 7.859375 275.644531 7.898438 276.035156 7.976562 276.421875 C 8.050781 276.804688 8.164062 277.179688 8.316406 277.542969 C 8.464844 277.90625 8.652344 278.25 8.871094 278.578125 C 9.085938 278.90625 9.335938 279.207031 9.613281 279.484375 C 9.890625 279.765625 10.195312 280.011719 10.519531 280.230469 C 10.847656 280.449219 11.191406 280.632812 11.554688 280.785156 C 11.917969 280.933594 12.292969 281.046875 12.679688 281.125 C 13.066406 281.203125 13.453125 281.242188 13.847656 281.242188 L 36.84375 281.242188 C 36.347656 282.375 35.886719 283.523438 35.460938 284.683594 C 35.035156 285.847656 34.648438 287.023438 34.292969 288.207031 C 33.941406 289.394531 33.625 290.589844 33.347656 291.796875 C 33.070312 293.003906 32.828125 294.21875 32.625 295.4375 C 32.421875 296.660156 32.253906 297.886719 32.128906 299.117188 C 32 300.347656 31.910156 301.582031 31.859375 302.820312 C 31.808594 304.054688 31.796875 305.292969 31.824219 306.53125 C 31.847656 307.769531 31.914062 309.003906 32.015625 310.238281 C 32.117188 311.472656 32.257812 312.703125 32.4375 313.925781 C 32.617188 315.152344 32.832031 316.371094 33.085938 317.582031 C 33.339844 318.792969 33.632812 319.996094 33.960938 321.1875 C 34.289062 322.382812 34.65625 323.566406 35.058594 324.734375 C 35.460938 325.90625 35.898438 327.0625 36.371094 328.207031 C 36.847656 329.351562 37.355469 330.480469 37.898438 331.589844 C 38.441406 332.703125 39.019531 333.796875 39.632812 334.875 C 40.242188 335.949219 40.886719 337.003906 41.566406 338.042969 C 42.242188 339.078125 42.949219 340.09375 43.691406 341.085938 C 44.429688 342.078125 45.199219 343.046875 46 343.988281 C 46.800781 344.933594 47.628906 345.855469 48.488281 346.746094 C 49.34375 347.640625 50.226562 348.503906 51.136719 349.34375 C 52.050781 350.183594 52.984375 350.992188 53.945312 351.773438 C 54.90625 352.550781 55.890625 353.300781 56.898438 354.019531 C 57.90625 354.742188 58.933594 355.429688 59.984375 356.082031 C 61.035156 356.738281 62.101562 357.359375 63.191406 357.949219 C 64.28125 358.539062 65.386719 359.09375 66.507812 359.613281 C 67.632812 360.136719 68.769531 360.621094 69.921875 361.070312 C 71.078125 361.519531 72.242188 361.933594 73.421875 362.3125 C 74.601562 362.6875 75.789062 363.03125 76.988281 363.332031 C 78.1875 363.636719 79.398438 363.902344 80.613281 364.132812 C 81.828125 364.363281 83.050781 364.554688 84.28125 364.707031 C 85.507812 364.859375 86.742188 364.972656 87.976562 365.050781 C 89.210938 365.128906 90.449219 365.164062 91.683594 365.164062 C 92.921875 365.164062 94.160156 365.128906 95.394531 365.050781 C 96.628906 364.972656 97.863281 364.859375 99.089844 364.707031 C 100.316406 364.554688 101.539062 364.363281 102.757812 364.132812 C 103.972656 363.902344 105.179688 363.636719 106.382812 363.332031 C 107.582031 363.03125 108.769531 362.6875 109.949219 362.3125 C 111.128906 361.933594 112.292969 361.519531 113.445312 361.070312 C 114.601562 360.621094 115.738281 360.136719 116.859375 359.613281 C 117.984375 359.09375 119.089844 358.539062 120.179688 357.949219 C 121.265625 357.359375 122.335938 356.738281 123.386719 356.082031 C 124.4375 355.429688 125.464844 354.742188 126.472656 354.019531 C 127.480469 353.300781 128.464844 352.550781 129.425781 351.773438 C 130.386719 350.992188 131.320312 350.183594 132.230469 349.34375 C 133.144531 348.503906 134.027344 347.640625 134.882812 346.746094 C 135.742188 345.855469 136.570312 344.933594 137.371094 343.988281 C 138.167969 343.046875 138.941406 342.078125 139.679688 341.085938 C 140.417969 340.09375 141.128906 339.078125 141.804688 338.042969 C 142.484375 337.003906 143.125 335.949219 143.738281 334.875 C 144.351562 333.796875 144.929688 332.703125 145.472656 331.589844 C 146.015625 330.480469 146.523438 329.351562 147 328.207031 C 147.472656 327.0625 147.910156 325.90625 148.3125 324.734375 C 148.714844 323.566406 149.078125 322.382812 149.410156 321.1875 C 149.738281 319.996094 150.027344 318.792969 150.28125 317.582031 C 150.539062 316.371094 150.753906 315.152344 150.933594 313.925781 C 151.113281 312.703125 151.253906 311.472656 151.355469 310.238281 C 151.457031 309.003906 151.519531 307.769531 151.546875 306.53125 C 151.574219 305.292969 151.558594 304.054688 151.507812 302.820312 C 151.457031 301.582031 151.371094 300.347656 151.242188 299.117188 C 151.113281 297.886719 150.949219 296.660156 150.746094 295.4375 C 150.542969 294.21875 150.300781 293.003906 150.023438 291.796875 C 149.746094 290.589844 149.429688 289.394531 149.074219 288.207031 C 148.722656 287.023438 148.335938 285.847656 147.910156 284.683594 C 147.484375 283.523438 147.023438 282.375 146.523438 281.242188 L 228.445312 281.242188 C 227.949219 282.375 227.488281 283.523438 227.0625 284.683594 C 226.636719 285.847656 226.246094 287.023438 225.894531 288.207031 C 225.542969 289.394531 225.226562 290.589844 224.945312 291.796875 C 224.667969 293.003906 224.425781 294.21875 224.222656 295.4375 C 224.019531 296.660156 223.855469 297.886719 223.726562 299.117188 C 223.601562 300.347656 223.511719 301.582031 223.460938 302.820312 C 223.410156 304.054688 223.398438 305.292969 223.421875 306.53125 C 223.449219 307.769531 223.511719 309.003906 223.617188 310.238281 C 223.71875 311.472656 223.859375 312.703125 224.039062 313.925781 C 224.214844 315.152344 224.433594 316.371094 224.6875 317.582031 C 224.941406 318.792969 225.234375 319.996094 225.5625 321.1875 C 225.890625 322.382812 226.257812 323.566406 226.660156 324.734375 C 227.058594 325.90625 227.5 327.0625 227.972656 328.207031 C 228.445312 329.351562 228.953125 330.480469 229.5 331.589844 C 230.042969 332.703125 230.621094 333.796875 231.230469 334.875 C 231.84375 335.949219 232.488281 337.003906 233.164062 338.042969 C 233.84375 339.078125 234.550781 340.09375 235.289062 341.085938 C 236.03125 342.078125 236.800781 343.046875 237.601562 343.988281 C 238.402344 344.933594 239.230469 345.855469 240.085938 346.746094 C 240.945312 347.640625 241.828125 348.503906 242.738281 349.34375 C 243.648438 350.183594 244.585938 350.992188 245.546875 351.773438 C 246.507812 352.550781 247.492188 353.300781 248.496094 354.019531 C 249.503906 354.742188 250.535156 355.429688 251.585938 356.082031 C 252.632812 356.738281 253.703125 357.359375 254.792969 357.949219 C 255.878906 358.539062 256.988281 359.09375 258.109375 359.613281 C 259.230469 360.136719 260.371094 360.621094 261.523438 361.070312 C 262.675781 361.519531 263.84375 361.933594 265.019531 362.3125 C 266.199219 362.6875 267.390625 363.03125 268.589844 363.332031 C 269.789062 363.636719 270.996094 363.902344 272.214844 364.132812 C 273.429688 364.363281 274.652344 364.554688 275.878906 364.707031 C 277.109375 364.859375 278.339844 364.972656 279.574219 365.050781 C 280.8125 365.128906 282.046875 365.164062 283.285156 365.164062 C 284.523438 365.164062 285.757812 365.128906 286.996094 365.050781 C 288.230469 364.972656 289.460938 364.859375 290.691406 364.707031 C 291.917969 364.554688 293.140625 364.363281 294.355469 364.132812 C 295.574219 363.902344 296.78125 363.636719 297.980469 363.332031 C 299.179688 363.03125 300.371094 362.6875 301.550781 362.3125 C 302.726562 361.933594 303.894531 361.519531 305.046875 361.070312 C 306.199219 360.621094 307.339844 360.136719 308.460938 359.613281 C 309.585938 359.09375 310.691406 358.539062 311.777344 357.949219 C 312.867188 357.359375 313.9375 356.738281 314.984375 356.082031 C 316.035156 355.429688 317.066406 354.742188 318.074219 354.019531 C 319.078125 353.300781 320.0625 352.550781 321.023438 351.773438 C 321.984375 350.992188 322.921875 350.183594 323.832031 349.34375 C 324.742188 348.503906 325.625 347.640625 326.484375 346.746094 C 327.339844 345.855469 328.167969 344.933594 328.96875 343.988281 C 329.769531 343.046875 330.539062 342.078125 331.28125 341.085938 C 332.019531 340.09375 332.726562 339.078125 333.40625 338.042969 C 334.082031 337.003906 334.726562 335.949219 335.339844 334.875 C 335.949219 333.796875 336.527344 332.703125 337.070312 331.589844 C 337.617188 330.480469 338.125 329.351562 338.597656 328.207031 C 339.070312 327.0625 339.511719 325.90625 339.914062 324.734375 C 340.3125 323.566406 340.679688 322.382812 341.007812 321.1875 C 341.335938 319.996094 341.628906 318.792969 341.882812 317.582031 C 342.136719 316.371094 342.355469 315.152344 342.53125 313.925781 C 342.710938 312.703125 342.851562 311.472656 342.953125 310.238281 C 343.058594 309.003906 343.121094 307.769531 343.148438 306.53125 C 343.171875 305.292969 343.160156 304.054688 343.109375 302.820312 C 343.058594 301.582031 342.96875 300.347656 342.84375 299.117188 C 342.714844 297.886719 342.550781 296.660156 342.347656 295.4375 C 342.144531 294.21875 341.902344 293.003906 341.625 291.796875 C 341.34375 290.589844 341.027344 289.394531 340.675781 288.207031 C 340.324219 287.023438 339.933594 285.847656 339.507812 284.683594 C 339.082031 283.523438 338.621094 282.375 338.125 281.242188 L 361.121094 281.242188 C 361.515625 281.242188 361.90625 281.203125 362.289062 281.125 C 362.675781 281.046875 363.050781 280.933594 363.414062 280.785156 C 363.777344 280.632812 364.121094 280.449219 364.449219 280.230469 C 364.777344 280.011719 365.078125 279.765625 365.355469 279.484375 C 365.632812 279.207031 365.882812 278.90625 366.101562 278.578125 C 366.320312 278.25 366.503906 277.90625 366.65625 277.542969 C 366.804688 277.179688 366.917969 276.804688 366.996094 276.421875 C 367.070312 276.035156 367.109375 275.644531 367.109375 275.25 L 367.109375 197.398438 C 367.074219 197.078125 367.011719 196.765625 366.917969 196.457031 Z M 326.632812 95.59375 L 353.25 191.410156 L 229.398438 191.410156 L 229.398438 95.59375 Z M 115.636719 17.738281 C 116.910156 17.738281 118.183594 17.769531 119.453125 17.832031 C 120.726562 17.894531 121.996094 17.988281 123.265625 18.113281 C 124.53125 18.238281 125.796875 18.394531 127.054688 18.582031 C 128.316406 18.769531 129.570312 18.988281 130.820312 19.234375 C 132.070312 19.484375 133.3125 19.761719 134.546875 20.074219 C 135.785156 20.382812 137.011719 20.722656 138.230469 21.089844 C 139.449219 21.460938 140.660156 21.859375 141.859375 22.289062 C 143.058594 22.71875 144.246094 23.179688 145.421875 23.664062 C 146.597656 24.152344 147.761719 24.667969 148.914062 25.214844 C 150.066406 25.757812 151.203125 26.332031 152.328125 26.933594 C 153.449219 27.53125 154.558594 28.160156 155.652344 28.816406 C 156.746094 29.46875 157.820312 30.152344 158.878906 30.859375 C 159.9375 31.566406 160.980469 32.300781 162.003906 33.058594 C 163.027344 33.820312 164.03125 34.601562 165.015625 35.410156 C 166 36.21875 166.964844 37.050781 167.90625 37.90625 C 168.851562 38.761719 169.773438 39.640625 170.675781 40.542969 C 171.574219 41.441406 172.453125 42.367188 173.308594 43.308594 C 174.164062 44.253906 174.996094 45.21875 175.804688 46.203125 C 176.613281 47.1875 177.394531 48.191406 178.15625 49.214844 C 178.914062 50.238281 179.648438 51.28125 180.355469 52.339844 C 181.0625 53.398438 181.742188 54.476562 182.398438 55.566406 C 183.054688 56.660156 183.679688 57.769531 184.28125 58.890625 C 184.882812 60.015625 185.453125 61.152344 186 62.304688 C 186.542969 63.457031 187.058594 64.621094 187.546875 65.800781 C 188.035156 66.976562 188.492188 68.164062 188.921875 69.363281 C 189.351562 70.5625 189.75 71.773438 190.121094 72.992188 C 190.492188 74.210938 190.832031 75.4375 191.140625 76.675781 C 191.449219 77.910156 191.730469 79.152344 191.976562 80.402344 C 192.226562 81.652344 192.441406 82.910156 192.628906 84.167969 C 192.816406 85.429688 192.972656 86.691406 193.097656 87.960938 C 193.222656 89.230469 193.316406 90.5 193.378906 91.773438 C 193.441406 93.042969 193.472656 94.316406 193.472656 95.59375 C 193.472656 96.867188 193.441406 98.140625 193.378906 99.410156 C 193.316406 100.683594 193.222656 101.953125 193.097656 103.222656 C 192.972656 104.492188 192.816406 105.753906 192.628906 107.015625 C 192.441406 108.277344 192.226562 109.53125 191.976562 110.78125 C 191.730469 112.03125 191.449219 113.273438 191.140625 114.507812 C 190.832031 115.746094 190.492188 116.972656 190.121094 118.191406 C 189.75 119.410156 189.351562 120.621094 188.921875 121.820312 C 188.492188 123.019531 188.035156 124.207031 187.546875 125.386719 C 187.058594 126.5625 186.542969 127.726562 186 128.878906 C 185.453125 130.03125 184.882812 131.167969 184.28125 132.292969 C 183.679688 133.414062 183.054688 134.523438 182.398438 135.617188 C 181.742188 136.707031 181.0625 137.785156 180.355469 138.84375 C 179.648438 139.902344 178.914062 140.945312 178.15625 141.96875 C 177.394531 142.992188 176.613281 143.996094 175.804688 144.980469 C 174.996094 145.964844 174.164062 146.929688 173.308594 147.875 C 172.453125 148.820312 171.574219 149.742188 170.675781 150.640625 C 169.773438 151.542969 168.851562 152.421875 167.90625 153.277344 C 166.964844 154.132812 166 154.964844 165.015625 155.773438 C 164.03125 156.582031 163.027344 157.363281 162.003906 158.125 C 160.980469 158.882812 159.9375 159.617188 158.878906 160.324219 C 157.820312 161.03125 156.746094 161.714844 155.652344 162.367188 C 154.558594 163.023438 153.449219 163.652344 152.328125 164.25 C 151.203125 164.851562 150.066406 165.425781 148.914062 165.96875 C 147.761719 166.515625 146.597656 167.03125 145.421875 167.519531 C 144.246094 168.003906 143.058594 168.464844 141.859375 168.894531 C 140.660156 169.324219 139.449219 169.722656 138.230469 170.09375 C 137.011719 170.460938 135.785156 170.800781 134.546875 171.109375 C 133.3125 171.421875 132.070312 171.699219 130.820312 171.949219 C 129.570312 172.195312 128.316406 172.414062 127.054688 172.601562 C 125.796875 172.789062 124.53125 172.945312 123.265625 173.070312 C 121.996094 173.195312 120.726562 173.289062 119.453125 173.351562 C 118.183594 173.414062 116.910156 173.445312 115.636719 173.445312 C 114.359375 173.445312 113.089844 173.414062 111.816406 173.351562 C 110.542969 173.289062 109.273438 173.195312 108.003906 173.070312 C 106.738281 172.945312 105.472656 172.789062 104.214844 172.601562 C 102.953125 172.414062 101.699219 172.195312 100.449219 171.949219 C 99.199219 171.699219 97.957031 171.421875 96.722656 171.109375 C 95.488281 170.800781 94.257812 170.460938 93.039062 170.09375 C 91.820312 169.722656 90.613281 169.324219 89.414062 168.894531 C 88.214844 168.464844 87.023438 168.003906 85.847656 167.519531 C 84.671875 167.03125 83.507812 166.515625 82.355469 165.96875 C 81.203125 165.425781 80.066406 164.851562 78.941406 164.25 C 77.820312 163.652344 76.710938 163.023438 75.617188 162.367188 C 74.527344 161.714844 73.449219 161.03125 72.390625 160.324219 C 71.332031 159.617188 70.289062 158.882812 69.265625 158.125 C 68.246094 157.363281 67.242188 156.582031 66.253906 155.773438 C 65.269531 154.964844 64.304688 154.132812 63.363281 153.277344 C 62.417969 152.421875 61.496094 151.542969 60.597656 150.640625 C 59.695312 149.742188 58.816406 148.820312 57.960938 147.875 C 57.105469 146.929688 56.273438 145.964844 55.464844 144.980469 C 54.65625 143.996094 53.875 142.992188 53.117188 141.96875 C 52.355469 140.945312 51.625 139.902344 50.914062 138.84375 C 50.207031 137.785156 49.527344 136.707031 48.871094 135.617188 C 48.21875 134.523438 47.589844 133.414062 46.988281 132.292969 C 46.386719 131.167969 45.816406 130.03125 45.269531 128.878906 C 44.726562 127.726562 44.210938 126.5625 43.722656 125.386719 C 43.234375 124.207031 42.777344 123.019531 42.347656 121.820312 C 41.917969 120.621094 41.519531 119.410156 41.148438 118.191406 C 40.78125 116.972656 40.441406 115.746094 40.128906 114.507812 C 39.820312 113.273438 39.542969 112.03125 39.292969 110.78125 C 39.042969 109.53125 38.828125 108.277344 38.640625 107.015625 C 38.453125 105.753906 38.296875 104.492188 38.171875 103.222656 C 38.046875 101.953125 37.953125 100.683594 37.890625 99.410156 C 37.828125 98.140625 37.796875 96.867188 37.796875 95.59375 C 37.800781 94.316406 37.832031 93.046875 37.894531 91.773438 C 37.960938 90.5 38.054688 89.230469 38.179688 87.964844 C 38.308594 86.695312 38.464844 85.433594 38.652344 84.171875 C 38.839844 82.914062 39.058594 81.660156 39.308594 80.410156 C 39.558594 79.160156 39.835938 77.917969 40.148438 76.683594 C 40.457031 75.449219 40.800781 74.222656 41.167969 73.003906 C 41.539062 71.785156 41.941406 70.574219 42.371094 69.375 C 42.800781 68.175781 43.257812 66.988281 43.746094 65.8125 C 44.234375 64.636719 44.75 63.472656 45.296875 62.320312 C 45.839844 61.171875 46.414062 60.035156 47.015625 58.910156 C 47.617188 57.789062 48.242188 56.679688 48.898438 55.585938 C 49.554688 54.496094 50.234375 53.417969 50.941406 52.359375 C 51.652344 51.300781 52.382812 50.261719 53.144531 49.238281 C 53.902344 48.214844 54.683594 47.210938 55.492188 46.226562 C 56.300781 45.242188 57.132812 44.277344 57.988281 43.335938 C 58.84375 42.390625 59.722656 41.46875 60.621094 40.566406 C 61.523438 39.667969 62.445312 38.789062 63.386719 37.933594 C 64.332031 37.078125 65.296875 36.246094 66.28125 35.4375 C 67.265625 34.628906 68.265625 33.847656 69.289062 33.085938 C 70.3125 32.328125 71.355469 31.59375 72.414062 30.886719 C 73.472656 30.179688 74.546875 29.496094 75.636719 28.84375 C 76.730469 28.1875 77.835938 27.558594 78.960938 26.957031 C 80.082031 26.359375 81.21875 25.785156 82.371094 25.238281 C 83.523438 24.695312 84.6875 24.175781 85.863281 23.691406 C 87.039062 23.203125 88.226562 22.742188 89.425781 22.3125 C 90.625 21.882812 91.832031 21.480469 93.050781 21.113281 C 94.269531 20.742188 95.496094 20.402344 96.730469 20.089844 C 97.964844 19.78125 99.207031 19.5 100.457031 19.25 C 101.703125 19 102.960938 18.78125 104.21875 18.59375 C 105.476562 18.40625 106.742188 18.25 108.007812 18.121094 C 109.277344 17.996094 110.546875 17.902344 111.816406 17.835938 C 113.089844 17.773438 114.363281 17.742188 115.636719 17.738281 Z M 91.683594 353.105469 C 90.117188 353.105469 88.550781 353.027344 86.988281 352.875 C 85.429688 352.71875 83.878906 352.488281 82.339844 352.183594 C 80.800781 351.878906 79.28125 351.496094 77.78125 351.042969 C 76.28125 350.585938 74.804688 350.058594 73.355469 349.457031 C 71.90625 348.855469 70.488281 348.1875 69.105469 347.445312 C 67.722656 346.707031 66.378906 345.902344 65.074219 345.03125 C 63.769531 344.160156 62.511719 343.226562 61.296875 342.230469 C 60.085938 341.234375 58.925781 340.179688 57.816406 339.070312 C 56.707031 337.960938 55.652344 336.800781 54.65625 335.589844 C 53.664062 334.375 52.730469 333.117188 51.859375 331.8125 C 50.984375 330.507812 50.179688 329.164062 49.441406 327.777344 C 48.703125 326.394531 48.03125 324.980469 47.429688 323.527344 C 46.832031 322.078125 46.304688 320.605469 45.847656 319.101562 C 45.390625 317.601562 45.011719 316.082031 44.707031 314.542969 C 44.398438 313.003906 44.167969 311.453125 44.015625 309.890625 C 43.863281 308.328125 43.785156 306.765625 43.785156 305.195312 C 43.785156 303.625 43.863281 302.0625 44.015625 300.5 C 44.167969 298.9375 44.398438 297.386719 44.707031 295.847656 C 45.011719 294.308594 45.390625 292.789062 45.847656 291.289062 C 46.304688 289.785156 46.832031 288.308594 47.429688 286.859375 C 48.03125 285.410156 48.703125 283.996094 49.441406 282.609375 C 50.179688 281.226562 50.984375 279.882812 51.859375 278.578125 C 52.730469 277.273438 53.664062 276.015625 54.65625 274.800781 C 55.652344 273.589844 56.707031 272.425781 57.816406 271.316406 C 58.925781 270.207031 60.085938 269.15625 61.296875 268.160156 C 62.511719 267.164062 63.769531 266.230469 65.074219 265.359375 C 66.378906 264.488281 67.722656 263.683594 69.105469 262.941406 C 70.488281 262.203125 71.90625 261.53125 73.355469 260.933594 C 74.804688 260.332031 76.28125 259.804688 77.78125 259.347656 C 79.28125 258.894531 80.800781 258.511719 82.339844 258.207031 C 83.878906 257.898438 85.429688 257.671875 86.988281 257.515625 C 88.550781 257.363281 90.117188 257.285156 91.683594 257.285156 C 93.253906 257.285156 94.820312 257.363281 96.378906 257.515625 C 97.941406 257.671875 99.492188 257.898438 101.03125 258.207031 C 102.570312 258.511719 104.089844 258.894531 105.589844 259.347656 C 107.089844 259.804688 108.566406 260.332031 110.015625 260.933594 C 111.464844 261.53125 112.882812 262.203125 114.265625 262.941406 C 115.648438 263.683594 116.992188 264.488281 118.296875 265.359375 C 119.601562 266.230469 120.859375 267.164062 122.074219 268.160156 C 123.285156 269.15625 124.445312 270.207031 125.554688 271.316406 C 126.664062 272.425781 127.71875 273.589844 128.710938 274.800781 C 129.707031 276.015625 130.640625 277.273438 131.511719 278.578125 C 132.382812 279.882812 133.191406 281.226562 133.929688 282.609375 C 134.667969 283.996094 135.339844 285.410156 135.9375 286.859375 C 136.539062 288.308594 137.066406 289.785156 137.523438 291.289062 C 137.976562 292.789062 138.359375 294.308594 138.664062 295.847656 C 138.972656 297.386719 139.199219 298.9375 139.355469 300.5 C 139.507812 302.0625 139.585938 303.625 139.585938 305.195312 C 139.582031 306.761719 139.503906 308.328125 139.351562 309.890625 C 139.195312 311.449219 138.964844 313 138.65625 314.539062 C 138.347656 316.074219 137.96875 317.59375 137.511719 319.097656 C 137.054688 320.597656 136.527344 322.070312 135.925781 323.519531 C 135.324219 324.96875 134.652344 326.386719 133.914062 327.769531 C 133.171875 329.152344 132.367188 330.496094 131.496094 331.800781 C 130.625 333.101562 129.691406 334.363281 128.695312 335.574219 C 127.699219 336.785156 126.648438 337.945312 125.539062 339.054688 C 124.429688 340.164062 123.269531 341.21875 122.058594 342.210938 C 120.847656 343.207031 119.589844 344.140625 118.285156 345.011719 C 116.980469 345.886719 115.636719 346.691406 114.253906 347.429688 C 112.871094 348.171875 111.457031 348.84375 110.007812 349.441406 C 108.558594 350.042969 107.085938 350.574219 105.582031 351.027344 C 104.082031 351.484375 102.5625 351.867188 101.027344 352.175781 C 99.488281 352.480469 97.9375 352.714844 96.378906 352.867188 C 94.816406 353.023438 93.253906 353.101562 91.683594 353.105469 Z M 283.285156 353.105469 C 281.714844 353.105469 280.152344 353.027344 278.589844 352.875 C 277.027344 352.71875 275.480469 352.488281 273.941406 352.183594 C 272.402344 351.878906 270.882812 351.496094 269.378906 351.042969 C 267.878906 350.585938 266.402344 350.058594 264.953125 349.457031 C 263.503906 348.855469 262.089844 348.1875 260.707031 347.445312 C 259.320312 346.707031 257.976562 345.902344 256.671875 345.03125 C 255.367188 344.160156 254.109375 343.226562 252.898438 342.230469 C 251.683594 341.234375 250.523438 340.179688 249.414062 339.070312 C 248.304688 337.960938 247.253906 336.800781 246.257812 335.589844 C 245.261719 334.375 244.328125 333.117188 243.457031 331.8125 C 242.585938 330.507812 241.78125 329.164062 241.042969 327.777344 C 240.300781 326.394531 239.632812 324.980469 239.03125 323.527344 C 238.429688 322.078125 237.902344 320.605469 237.449219 319.101562 C 236.992188 317.601562 236.613281 316.082031 236.304688 314.542969 C 236 313.003906 235.769531 311.453125 235.617188 309.890625 C 235.460938 308.328125 235.386719 306.765625 235.386719 305.195312 C 235.386719 303.625 235.460938 302.0625 235.617188 300.5 C 235.769531 298.9375 236 297.386719 236.304688 295.847656 C 236.613281 294.308594 236.992188 292.789062 237.449219 291.289062 C 237.902344 289.785156 238.429688 288.308594 239.03125 286.859375 C 239.632812 285.410156 240.300781 283.996094 241.042969 282.609375 C 241.78125 281.226562 242.585938 279.882812 243.457031 278.578125 C 244.328125 277.273438 245.261719 276.015625 246.257812 274.800781 C 247.253906 273.589844 248.304688 272.425781 249.414062 271.316406 C 250.523438 270.207031 251.683594 269.15625 252.898438 268.160156 C 254.109375 267.164062 255.367188 266.230469 256.671875 265.359375 C 257.976562 264.488281 259.320312 263.683594 260.707031 262.941406 C 262.089844 262.203125 263.503906 261.53125 264.953125 260.933594 C 266.402344 260.332031 267.878906 259.804688 269.378906 259.347656 C 270.882812 258.894531 272.402344 258.511719 273.941406 258.207031 C 275.480469 257.898438 277.027344 257.671875 278.589844 257.515625 C 280.152344 257.363281 281.714844 257.285156 283.285156 257.285156 C 284.855469 257.285156 286.417969 257.363281 287.980469 257.515625 C 289.542969 257.671875 291.089844 257.898438 292.628906 258.207031 C 294.167969 258.511719 295.6875 258.894531 297.191406 259.347656 C 298.691406 259.804688 300.167969 260.332031 301.617188 260.933594 C 303.066406 261.53125 304.480469 262.203125 305.863281 262.941406 C 307.25 263.683594 308.59375 264.488281 309.898438 265.359375 C 311.203125 266.230469 312.460938 267.164062 313.671875 268.160156 C 314.886719 269.15625 316.046875 270.207031 317.15625 271.316406 C 318.265625 272.425781 319.316406 273.589844 320.3125 274.800781 C 321.308594 276.015625 322.242188 277.273438 323.113281 278.578125 C 323.984375 279.882812 324.789062 281.226562 325.527344 282.609375 C 326.269531 283.996094 326.9375 285.410156 327.539062 286.859375 C 328.140625 288.308594 328.667969 289.785156 329.121094 291.289062 C 329.578125 292.789062 329.957031 294.308594 330.265625 295.847656 C 330.570312 297.386719 330.800781 298.9375 330.953125 300.5 C 331.109375 302.0625 331.183594 303.625 331.183594 305.195312 C 331.183594 306.761719 331.105469 308.328125 330.949219 309.890625 C 330.792969 311.449219 330.5625 313 330.257812 314.539062 C 329.949219 316.074219 329.566406 317.59375 329.109375 319.097656 C 328.652344 320.597656 328.125 322.070312 327.523438 323.519531 C 326.921875 324.96875 326.253906 326.386719 325.511719 327.769531 C 324.773438 329.152344 323.96875 330.496094 323.097656 331.800781 C 322.222656 333.101562 321.289062 334.363281 320.296875 335.574219 C 319.300781 336.785156 318.25 337.945312 317.140625 339.054688 C 316.03125 340.164062 314.871094 341.21875 313.65625 342.210938 C 312.445312 343.207031 311.1875 344.140625 309.882812 345.011719 C 308.582031 345.886719 307.238281 346.691406 305.855469 347.429688 C 304.472656 348.171875 303.054688 348.84375 301.605469 349.441406 C 300.160156 350.042969 298.683594 350.574219 297.183594 351.027344 C 295.683594 351.484375 294.164062 351.867188 292.625 352.175781 C 291.089844 352.480469 289.539062 352.714844 287.980469 352.867188 C 286.417969 353.023438 284.851562 353.101562 283.285156 353.105469 Z M 355.136719 269.261719 L 331.070312 269.261719 C 330.378906 268.335938 329.664062 267.433594 328.917969 266.550781 C 328.175781 265.664062 327.40625 264.804688 326.613281 263.964844 C 325.820312 263.125 325 262.308594 324.160156 261.519531 C 323.320312 260.726562 322.457031 259.960938 321.570312 259.21875 C 320.683594 258.476562 319.777344 257.761719 318.851562 257.074219 C 317.921875 256.382812 316.976562 255.722656 316.011719 255.089844 C 315.046875 254.457031 314.0625 253.851562 313.0625 253.273438 C 312.058594 252.695312 311.042969 252.148438 310.011719 251.632812 C 308.980469 251.113281 307.933594 250.628906 306.871094 250.171875 C 305.808594 249.714844 304.738281 249.289062 303.652344 248.894531 C 302.566406 248.5 301.46875 248.136719 300.363281 247.804688 C 299.257812 247.476562 298.140625 247.175781 297.015625 246.910156 C 295.894531 246.644531 294.761719 246.410156 293.625 246.210938 C 292.488281 246.011719 291.34375 245.84375 290.199219 245.710938 C 289.050781 245.578125 287.898438 245.476562 286.746094 245.410156 C 285.59375 245.339844 284.441406 245.308594 283.285156 245.308594 C 282.128906 245.308594 280.976562 245.339844 279.824219 245.410156 C 278.671875 245.476562 277.519531 245.578125 276.371094 245.710938 C 275.226562 245.84375 274.082031 246.011719 272.945312 246.210938 C 271.808594 246.410156 270.675781 246.644531 269.554688 246.910156 C 268.429688 247.175781 267.3125 247.476562 266.207031 247.804688 C 265.101562 248.136719 264.003906 248.5 262.917969 248.894531 C 261.832031 249.289062 260.761719 249.714844 259.699219 250.171875 C 258.636719 250.628906 257.589844 251.113281 256.558594 251.632812 C 255.527344 252.148438 254.511719 252.695312 253.507812 253.273438 C 252.507812 253.851562 251.523438 254.457031 250.558594 255.089844 C 249.59375 255.722656 248.648438 256.382812 247.71875 257.074219 C 246.792969 257.761719 245.886719 258.476562 245 259.21875 C 244.113281 259.960938 243.25 260.726562 242.410156 261.519531 C 241.570312 262.308594 240.75 263.125 239.957031 263.964844 C 239.164062 264.804688 238.394531 265.664062 237.652344 266.550781 C 236.90625 267.433594 236.191406 268.335938 235.5 269.261719 L 139.472656 269.261719 C 138.78125 268.335938 138.0625 267.433594 137.320312 266.550781 C 136.574219 265.664062 135.804688 264.804688 135.011719 263.964844 C 134.21875 263.125 133.402344 262.308594 132.558594 261.519531 C 131.71875 260.726562 130.855469 259.960938 129.96875 259.21875 C 129.085938 258.476562 128.175781 257.761719 127.25 257.074219 C 126.324219 256.382812 125.375 255.722656 124.410156 255.089844 C 123.445312 254.457031 122.460938 253.851562 121.460938 253.273438 C 120.460938 252.695312 119.445312 252.148438 118.410156 251.632812 C 117.378906 251.113281 116.332031 250.628906 115.269531 250.171875 C 114.210938 249.714844 113.136719 249.289062 112.050781 248.894531 C 110.964844 248.5 109.871094 248.136719 108.761719 247.804688 C 107.65625 247.476562 106.542969 247.175781 105.417969 246.910156 C 104.292969 246.644531 103.164062 246.410156 102.023438 246.210938 C 100.886719 246.011719 99.746094 245.84375 98.597656 245.710938 C 97.449219 245.578125 96.300781 245.476562 95.148438 245.410156 C 93.996094 245.339844 92.839844 245.308594 91.683594 245.308594 C 90.53125 245.308594 89.375 245.339844 88.222656 245.410156 C 87.070312 245.476562 85.917969 245.578125 84.773438 245.710938 C 83.625 245.84375 82.484375 246.011719 81.34375 246.210938 C 80.207031 246.410156 79.078125 246.644531 77.953125 246.910156 C 76.828125 247.175781 75.714844 247.476562 74.605469 247.804688 C 73.5 248.136719 72.40625 248.5 71.320312 248.894531 C 70.234375 249.289062 69.160156 249.714844 68.097656 250.171875 C 67.039062 250.628906 65.992188 251.113281 64.960938 251.632812 C 63.925781 252.148438 62.910156 252.695312 61.910156 253.273438 C 60.910156 253.851562 59.925781 254.457031 58.960938 255.089844 C 57.992188 255.722656 57.046875 256.382812 56.121094 257.074219 C 55.191406 257.761719 54.285156 258.476562 53.402344 259.21875 C 52.515625 259.960938 51.652344 260.726562 50.808594 261.519531 C 49.96875 262.308594 49.152344 263.125 48.359375 263.964844 C 47.5625 264.804688 46.796875 265.664062 46.050781 266.550781 C 45.308594 267.433594 44.589844 268.335938 43.898438 269.261719 L 19.835938 269.261719 L 19.835938 71.636719 L 29.164062 71.636719 C 28.699219 73.300781 28.277344 74.972656 27.910156 76.660156 C 27.539062 78.347656 27.21875 80.042969 26.945312 81.746094 C 26.675781 83.449219 26.453125 85.164062 26.277344 86.878906 C 26.105469 88.597656 25.980469 90.320312 25.90625 92.042969 C 25.832031 93.769531 25.808594 95.492188 25.832031 97.21875 C 25.855469 98.945312 25.933594 100.667969 26.058594 102.390625 C 26.179688 104.113281 26.355469 105.832031 26.578125 107.542969 C 26.800781 109.253906 27.074219 110.957031 27.398438 112.652344 C 27.71875 114.351562 28.089844 116.035156 28.507812 117.710938 C 28.925781 119.386719 29.394531 121.046875 29.90625 122.695312 C 30.421875 124.34375 30.984375 125.972656 31.59375 127.589844 C 32.203125 129.203125 32.855469 130.800781 33.558594 132.378906 C 34.257812 133.957031 35.003906 135.511719 35.792969 137.046875 C 36.582031 138.582031 37.417969 140.09375 38.296875 141.578125 C 39.171875 143.066406 40.09375 144.527344 41.054688 145.960938 C 42.015625 147.394531 43.019531 148.796875 44.058594 150.171875 C 45.101562 151.550781 46.183594 152.894531 47.304688 154.207031 C 48.425781 155.519531 49.582031 156.800781 50.777344 158.046875 C 51.96875 159.292969 53.199219 160.503906 54.460938 161.679688 C 55.726562 162.855469 57.023438 163.996094 58.351562 165.097656 C 59.679688 166.199219 61.039062 167.261719 62.429688 168.28125 C 63.820312 169.304688 65.242188 170.285156 66.6875 171.226562 C 68.136719 172.167969 69.609375 173.066406 71.105469 173.921875 C 72.605469 174.777344 74.128906 175.589844 75.675781 176.359375 C 77.21875 177.128906 78.785156 177.851562 80.375 178.527344 C 81.960938 179.207031 83.566406 179.835938 85.191406 180.421875 C 86.816406 181.007812 88.453125 181.546875 90.109375 182.035156 C 91.765625 182.527344 93.429688 182.96875 95.113281 183.363281 C 96.792969 183.757812 98.480469 184.105469 100.183594 184.402344 C 101.882812 184.699219 103.589844 184.945312 105.304688 185.144531 C 107.019531 185.34375 108.738281 185.492188 110.460938 185.589844 C 112.183594 185.691406 113.910156 185.742188 115.636719 185.742188 C 117.359375 185.742188 119.085938 185.691406 120.808594 185.589844 C 122.53125 185.492188 124.25 185.34375 125.964844 185.144531 C 127.679688 184.945312 129.386719 184.699219 131.085938 184.402344 C 132.789062 184.105469 134.476562 183.757812 136.160156 183.363281 C 137.839844 182.96875 139.507812 182.527344 141.160156 182.035156 C 142.816406 181.546875 144.457031 181.007812 146.078125 180.421875 C 147.703125 179.835938 149.308594 179.207031 150.894531 178.527344 C 152.484375 177.851562 154.050781 177.128906 155.597656 176.359375 C 157.140625 175.589844 158.664062 174.777344 160.164062 173.921875 C 161.660156 173.066406 163.136719 172.167969 164.582031 171.226562 C 166.03125 170.285156 167.449219 169.304688 168.839844 168.28125 C 170.230469 167.261719 171.589844 166.199219 172.917969 165.097656 C 174.25 163.996094 175.542969 162.855469 176.808594 161.679688 C 178.070312 160.503906 179.300781 159.292969 180.496094 158.046875 C 181.6875 156.800781 182.847656 155.519531 183.964844 154.207031 C 185.085938 152.894531 186.167969 151.550781 187.210938 150.171875 C 188.253906 148.796875 189.253906 147.394531 190.214844 145.960938 C 191.179688 144.527344 192.097656 143.066406 192.976562 141.578125 C 193.851562 140.09375 194.6875 138.582031 195.476562 137.046875 C 196.265625 135.511719 197.011719 133.957031 197.714844 132.378906 C 198.414062 130.800781 199.070312 129.203125 199.675781 127.589844 C 200.285156 125.972656 200.847656 124.34375 201.363281 122.695312 C 201.878906 121.046875 202.34375 119.386719 202.761719 117.710938 C 203.183594 116.035156 203.550781 114.351562 203.875 112.652344 C 204.195312 110.957031 204.46875 109.253906 204.691406 107.542969 C 204.914062 105.832031 205.089844 104.113281 205.214844 102.390625 C 205.339844 100.667969 205.414062 98.945312 205.4375 97.21875 C 205.464844 95.492188 205.4375 93.769531 205.363281 92.042969 C 205.289062 90.320312 205.167969 88.597656 204.992188 86.878906 C 204.820312 85.164062 204.597656 83.449219 204.324219 81.746094 C 204.050781 80.042969 203.730469 78.347656 203.359375 76.660156 C 202.992188 74.972656 202.574219 73.300781 202.105469 71.636719 L 217.421875 71.636719 L 217.421875 197.398438 C 217.421875 197.792969 217.460938 198.183594 217.539062 198.566406 C 217.613281 198.953125 217.726562 199.328125 217.878906 199.691406 C 218.027344 200.054688 218.214844 200.398438 218.433594 200.726562 C 218.648438 201.054688 218.898438 201.355469 219.175781 201.632812 C 219.453125 201.910156 219.757812 202.160156 220.082031 202.378906 C 220.410156 202.597656 220.753906 202.78125 221.117188 202.933594 C 221.480469 203.082031 221.855469 203.195312 222.242188 203.273438 C 222.628906 203.347656 223.015625 203.386719 223.410156 203.386719 L 355.136719 203.386719 Z M 355.136719 269.261719 "/>
</g>
<path style=" stroke:none;fill-rule:nonzero;fill:rgb(100%,100%,100%);fill-opacity:1;" d="M 91.683594 281.242188 C 90.902344 281.242188 90.117188 281.277344 89.335938 281.355469 C 88.558594 281.433594 87.78125 281.546875 87.011719 281.699219 C 86.242188 281.855469 85.484375 282.042969 84.734375 282.273438 C 83.980469 282.5 83.246094 282.761719 82.519531 283.0625 C 81.796875 283.363281 81.085938 283.699219 80.394531 284.070312 C 79.703125 284.4375 79.03125 284.839844 78.378906 285.277344 C 77.726562 285.714844 77.097656 286.179688 76.492188 286.679688 C 75.886719 287.175781 75.304688 287.703125 74.75 288.257812 C 74.195312 288.8125 73.667969 289.390625 73.171875 290 C 72.675781 290.605469 72.207031 291.234375 71.773438 291.886719 C 71.335938 292.539062 70.933594 293.210938 70.5625 293.902344 C 70.195312 294.59375 69.859375 295.304688 69.558594 296.027344 C 69.257812 296.753906 68.996094 297.492188 68.765625 298.242188 C 68.539062 298.992188 68.347656 299.753906 68.195312 300.523438 C 68.042969 301.292969 67.925781 302.066406 67.851562 302.847656 C 67.773438 303.628906 67.734375 304.410156 67.734375 305.195312 C 67.734375 305.980469 67.773438 306.761719 67.851562 307.542969 C 67.925781 308.324219 68.042969 309.097656 68.195312 309.867188 C 68.347656 310.636719 68.539062 311.398438 68.765625 312.148438 C 68.996094 312.898438 69.257812 313.636719 69.558594 314.363281 C 69.859375 315.085938 70.195312 315.796875 70.5625 316.488281 C 70.933594 317.179688 71.335938 317.851562 71.769531 318.503906 C 72.207031 319.15625 72.675781 319.785156 73.171875 320.390625 C 73.667969 321 74.195312 321.578125 74.75 322.132812 C 75.304688 322.6875 75.886719 323.214844 76.492188 323.710938 C 77.097656 324.210938 77.726562 324.675781 78.378906 325.113281 C 79.03125 325.546875 79.703125 325.953125 80.394531 326.320312 C 81.085938 326.691406 81.796875 327.027344 82.519531 327.324219 C 83.246094 327.625 83.980469 327.890625 84.734375 328.117188 C 85.484375 328.347656 86.242188 328.535156 87.011719 328.6875 C 87.78125 328.84375 88.558594 328.957031 89.335938 329.035156 C 90.117188 329.109375 90.902344 329.148438 91.683594 329.148438 C 92.46875 329.148438 93.253906 329.109375 94.03125 329.035156 C 94.8125 328.957031 95.589844 328.84375 96.359375 328.6875 C 97.125 328.535156 97.886719 328.347656 98.636719 328.117188 C 99.386719 327.890625 100.125 327.625 100.851562 327.324219 C 101.574219 327.027344 102.285156 326.691406 102.976562 326.320312 C 103.667969 325.953125 104.339844 325.546875 104.992188 325.113281 C 105.644531 324.675781 106.273438 324.210938 106.878906 323.710938 C 107.484375 323.214844 108.066406 322.6875 108.621094 322.132812 C 109.175781 321.578125 109.703125 321 110.199219 320.390625 C 110.695312 319.785156 111.164062 319.15625 111.597656 318.503906 C 112.035156 317.851562 112.4375 317.179688 112.808594 316.488281 C 113.175781 315.796875 113.511719 315.085938 113.8125 314.363281 C 114.113281 313.636719 114.375 312.898438 114.605469 312.148438 C 114.832031 311.398438 115.023438 310.636719 115.175781 309.867188 C 115.328125 309.097656 115.441406 308.324219 115.519531 307.542969 C 115.597656 306.761719 115.636719 305.980469 115.636719 305.195312 C 115.636719 304.410156 115.597656 303.628906 115.519531 302.847656 C 115.441406 302.066406 115.328125 301.292969 115.175781 300.523438 C 115.023438 299.753906 114.832031 298.992188 114.605469 298.242188 C 114.375 297.492188 114.113281 296.753906 113.8125 296.027344 C 113.511719 295.304688 113.175781 294.59375 112.808594 293.902344 C 112.4375 293.210938 112.035156 292.539062 111.597656 291.886719 C 111.164062 291.234375 110.695312 290.605469 110.199219 290 C 109.703125 289.390625 109.175781 288.8125 108.621094 288.257812 C 108.066406 287.703125 107.484375 287.175781 106.878906 286.679688 C 106.273438 286.179688 105.644531 285.714844 104.992188 285.277344 C 104.339844 284.839844 103.667969 284.4375 102.976562 284.070312 C 102.285156 283.699219 101.574219 283.363281 100.851562 283.0625 C 100.125 282.761719 99.386719 282.5 98.636719 282.273438 C 97.886719 282.042969 97.125 281.855469 96.359375 281.699219 C 95.589844 281.546875 94.8125 281.433594 94.03125 281.355469 C 93.253906 281.277344 92.46875 281.242188 91.683594 281.242188 Z M 91.683594 317.171875 C 90.898438 317.171875 90.121094 317.09375 89.347656 316.941406 C 88.578125 316.789062 87.828125 316.5625 87.101562 316.261719 C 86.375 315.960938 85.6875 315.589844 85.03125 315.152344 C 84.378906 314.714844 83.773438 314.21875 83.21875 313.664062 C 82.660156 313.109375 82.164062 312.503906 81.726562 311.847656 C 81.292969 311.195312 80.921875 310.503906 80.621094 309.777344 C 80.320312 309.050781 80.09375 308.304688 79.941406 307.53125 C 79.785156 306.761719 79.710938 305.980469 79.710938 305.195312 C 79.710938 304.410156 79.785156 303.628906 79.941406 302.859375 C 80.09375 302.085938 80.320312 301.339844 80.621094 300.613281 C 80.921875 299.886719 81.292969 299.195312 81.726562 298.539062 C 82.164062 297.886719 82.660156 297.28125 83.21875 296.726562 C 83.773438 296.167969 84.378906 295.671875 85.03125 295.234375 C 85.6875 294.800781 86.375 294.429688 87.101562 294.128906 C 87.828125 293.828125 88.578125 293.601562 89.347656 293.449219 C 90.121094 293.292969 90.898438 293.21875 91.683594 293.21875 C 92.472656 293.21875 93.25 293.292969 94.019531 293.449219 C 94.792969 293.601562 95.542969 293.828125 96.269531 294.128906 C 96.996094 294.429688 97.683594 294.800781 98.339844 295.234375 C 98.992188 295.671875 99.597656 296.167969 100.152344 296.726562 C 100.707031 297.28125 101.207031 297.886719 101.640625 298.539062 C 102.078125 299.195312 102.449219 299.886719 102.75 300.613281 C 103.050781 301.339844 103.277344 302.085938 103.429688 302.859375 C 103.582031 303.628906 103.660156 304.410156 103.660156 305.195312 C 103.660156 305.980469 103.582031 306.761719 103.429688 307.53125 C 103.277344 308.304688 103.050781 309.050781 102.75 309.777344 C 102.449219 310.503906 102.078125 311.195312 101.640625 311.847656 C 101.207031 312.503906 100.707031 313.109375 100.152344 313.664062 C 99.597656 314.21875 98.992188 314.714844 98.339844 315.152344 C 97.683594 315.589844 96.996094 315.960938 96.269531 316.261719 C 95.542969 316.5625 94.792969 316.789062 94.019531 316.941406 C 93.25 317.09375 92.472656 317.171875 91.683594 317.171875 Z M 91.683594 317.171875 "/>
<path style=" stroke:none;fill-rule:nonzero;fill:rgb(100%,100%,100%);fill-opacity:1;" d="M 283.285156 281.242188 C 282.5 281.242188 281.71875 281.277344 280.9375 281.355469 C 280.15625 281.433594 279.382812 281.546875 278.613281 281.699219 C 277.84375 281.855469 277.082031 282.042969 276.332031 282.273438 C 275.582031 282.5 274.84375 282.761719 274.121094 283.0625 C 273.394531 283.363281 272.6875 283.699219 271.996094 284.070312 C 271.304688 284.4375 270.632812 284.839844 269.980469 285.277344 C 269.328125 285.714844 268.699219 286.179688 268.089844 286.679688 C 267.484375 287.175781 266.90625 287.703125 266.351562 288.257812 C 265.796875 288.8125 265.269531 289.390625 264.773438 290 C 264.273438 290.605469 263.808594 291.234375 263.371094 291.886719 C 262.9375 292.539062 262.53125 293.210938 262.164062 293.902344 C 261.792969 294.59375 261.457031 295.304688 261.160156 296.027344 C 260.859375 296.753906 260.59375 297.492188 260.367188 298.242188 C 260.140625 298.992188 259.949219 299.753906 259.796875 300.523438 C 259.640625 301.292969 259.527344 302.066406 259.449219 302.847656 C 259.375 303.628906 259.335938 304.410156 259.335938 305.195312 C 259.335938 305.980469 259.375 306.761719 259.449219 307.542969 C 259.527344 308.324219 259.640625 309.097656 259.796875 309.867188 C 259.949219 310.636719 260.140625 311.398438 260.367188 312.148438 C 260.59375 312.898438 260.859375 313.636719 261.160156 314.363281 C 261.457031 315.085938 261.792969 315.796875 262.164062 316.488281 C 262.53125 317.179688 262.9375 317.851562 263.371094 318.503906 C 263.808594 319.15625 264.273438 319.785156 264.773438 320.390625 C 265.269531 321 265.796875 321.578125 266.351562 322.132812 C 266.90625 322.6875 267.484375 323.214844 268.089844 323.710938 C 268.699219 324.210938 269.328125 324.675781 269.980469 325.113281 C 270.632812 325.546875 271.304688 325.953125 271.996094 326.320312 C 272.6875 326.691406 273.394531 327.027344 274.121094 327.324219 C 274.84375 327.625 275.582031 327.890625 276.332031 328.117188 C 277.082031 328.347656 277.84375 328.535156 278.613281 328.6875 C 279.382812 328.84375 280.15625 328.957031 280.9375 329.035156 C 281.71875 329.109375 282.5 329.148438 283.285156 329.148438 C 284.070312 329.148438 284.851562 329.109375 285.632812 329.035156 C 286.414062 328.957031 287.1875 328.84375 287.957031 328.6875 C 288.726562 328.535156 289.488281 328.347656 290.238281 328.117188 C 290.988281 327.890625 291.726562 327.625 292.449219 327.324219 C 293.175781 327.027344 293.882812 326.691406 294.574219 326.320312 C 295.265625 325.953125 295.9375 325.546875 296.589844 325.113281 C 297.242188 324.675781 297.871094 324.210938 298.480469 323.710938 C 299.085938 323.214844 299.664062 322.6875 300.21875 322.132812 C 300.773438 321.578125 301.300781 321 301.796875 320.390625 C 302.296875 319.785156 302.761719 319.15625 303.199219 318.503906 C 303.632812 317.851562 304.039062 317.179688 304.40625 316.488281 C 304.777344 315.796875 305.113281 315.085938 305.410156 314.363281 C 305.710938 313.636719 305.976562 312.898438 306.203125 312.148438 C 306.429688 311.398438 306.621094 310.636719 306.773438 309.867188 C 306.929688 309.097656 307.042969 308.324219 307.121094 307.542969 C 307.195312 306.761719 307.234375 305.980469 307.234375 305.195312 C 307.234375 304.410156 307.195312 303.628906 307.121094 302.847656 C 307.042969 302.066406 306.929688 301.292969 306.773438 300.523438 C 306.621094 299.753906 306.429688 298.992188 306.203125 298.242188 C 305.976562 297.492188 305.710938 296.753906 305.410156 296.027344 C 305.113281 295.304688 304.777344 294.59375 304.40625 293.902344 C 304.039062 293.210938 303.632812 292.539062 303.199219 291.886719 C 302.761719 291.234375 302.296875 290.605469 301.796875 290 C 301.300781 289.390625 300.773438 288.8125 300.21875 288.257812 C 299.664062 287.703125 299.085938 287.175781 298.480469 286.679688 C 297.871094 286.179688 297.242188 285.714844 296.589844 285.277344 C 295.9375 284.839844 295.265625 284.4375 294.574219 284.070312 C 293.882812 283.699219 293.175781 283.363281 292.449219 283.0625 C 291.726562 282.761719 290.988281 282.5 290.238281 282.273438 C 289.488281 282.042969 288.726562 281.855469 287.957031 281.699219 C 287.1875 281.546875 286.414062 281.433594 285.632812 281.355469 C 284.851562 281.277344 284.070312 281.242188 283.285156 281.242188 Z M 283.285156 317.171875 C 282.5 317.171875 281.71875 317.09375 280.949219 316.941406 C 280.179688 316.789062 279.429688 316.5625 278.703125 316.261719 C 277.976562 315.960938 277.285156 315.589844 276.632812 315.152344 C 275.976562 314.714844 275.375 314.21875 274.816406 313.664062 C 274.261719 313.109375 273.765625 312.503906 273.328125 311.847656 C 272.890625 311.195312 272.523438 310.503906 272.222656 309.777344 C 271.921875 309.050781 271.695312 308.304688 271.539062 307.53125 C 271.386719 306.761719 271.308594 305.980469 271.308594 305.195312 C 271.308594 304.410156 271.386719 303.628906 271.539062 302.859375 C 271.695312 302.085938 271.921875 301.339844 272.222656 300.613281 C 272.523438 299.886719 272.890625 299.195312 273.328125 298.539062 C 273.765625 297.886719 274.261719 297.28125 274.816406 296.726562 C 275.375 296.167969 275.976562 295.671875 276.632812 295.234375 C 277.285156 294.800781 277.976562 294.429688 278.703125 294.128906 C 279.429688 293.828125 280.179688 293.601562 280.949219 293.449219 C 281.71875 293.292969 282.5 293.21875 283.285156 293.21875 C 284.070312 293.21875 284.851562 293.292969 285.621094 293.449219 C 286.390625 293.601562 287.140625 293.828125 287.867188 294.128906 C 288.59375 294.429688 289.285156 294.800781 289.9375 295.234375 C 290.59375 295.671875 291.195312 296.167969 291.753906 296.726562 C 292.308594 297.28125 292.804688 297.886719 293.242188 298.539062 C 293.679688 299.195312 294.046875 299.886719 294.347656 300.613281 C 294.648438 301.339844 294.875 302.085938 295.03125 302.859375 C 295.183594 303.628906 295.261719 304.410156 295.261719 305.195312 C 295.261719 305.980469 295.183594 306.761719 295.03125 307.53125 C 294.875 308.304688 294.648438 309.050781 294.347656 309.777344 C 294.046875 310.503906 293.679688 311.195312 293.242188 311.847656 C 292.804688 312.503906 292.308594 313.109375 291.753906 313.664062 C 291.195312 314.21875 290.59375 314.714844 289.9375 315.152344 C 289.285156 315.589844 288.59375 315.960938 287.867188 316.261719 C 287.140625 316.5625 286.390625 316.789062 285.621094 316.941406 C 284.851562 317.09375 284.070312 317.171875 283.285156 317.171875 Z M 283.285156 317.171875 "/>
</g>
</svg>
