<?xml version="1.0" encoding="UTF-8"?>
<svg xmlns="http://www.w3.org/2000/svg" xmlns:xlink="http://www.w3.org/1999/xlink" width="375pt" height="374.999991pt" viewBox="0 0 375 374.999991" version="1.2">
<defs>
<clipPath id="clip1">
  <path d="M 6.414062 17.8125 L 368.664062 17.8125 L 368.664062 329.0625 L 6.414062 329.0625 Z M 6.414062 17.8125 "/>
</clipPath>
</defs>
<g id="surface1">
<g clip-path="url(#clip1)" clip-rule="nonzero">
<path style=" stroke:none;fill-rule:nonzero;fill:rgb(100%,100%,100%);fill-opacity:1;" d="M 366.273438 171.742188 L 323.285156 140.332031 L 323.285156 125.335938 C 323.285156 123.921875 322.71875 122.222656 321.589844 121.09375 C 321.589844 121.09375 300.378906 101.285156 300.378906 101.285156 C 298.964844 99.871094 296.984375 99.871094 295.289062 99.871094 L 252.585938 99.871094 L 252.585938 43.28125 C 252.585938 41.863281 252.019531 40.449219 250.886719 39.320312 C 250.886719 39.320312 229.675781 19.511719 229.675781 19.511719 C 227.980469 18.097656 226.28125 17.8125 224.304688 17.8125 L 139.460938 17.8125 C 136.351562 17.8125 133.804688 20.359375 133.804688 23.472656 L 133.804688 89.683594 C 133.804688 91.097656 134.371094 92.796875 135.503906 93.644531 C 135.503906 93.644531 139.460938 97.324219 142.007812 99.871094 L 80.074219 99.871094 C 76.960938 99.871094 74.417969 102.417969 74.417969 105.53125 L 74.417969 116.847656 L 12.199219 116.847656 C 9.089844 116.847656 6.542969 119.394531 6.542969 122.507812 L 6.542969 269.644531 C 6.542969 271.339844 7.390625 273.039062 8.804688 274.171875 C 8.804688 274.171875 82.335938 327.933594 82.335938 327.933594 C 83.464844 328.496094 84.316406 329.0625 85.730469 329.0625 L 362.878906 329.0625 C 365.988281 329.0625 368.535156 326.515625 368.535156 323.40625 L 368.535156 176.269531 C 368.535156 176.269531 368.535156 175.984375 368.535156 175.984375 C 368.535156 174.289062 367.402344 172.589844 366.273438 171.742188 Z M 252.585938 111.1875 L 294.15625 111.1875 L 303.207031 119.675781 L 235.050781 119.675781 L 231.9375 116.847656 C 236.464844 116.847656 246.929688 116.847656 246.929688 116.847656 C 250.039062 116.847656 252.585938 114.300781 252.585938 111.1875 Z M 241.273438 105.53125 L 167.742188 105.53125 L 167.742188 48.9375 L 241.273438 48.9375 Z M 223.453125 29.132812 L 232.503906 37.621094 L 164.347656 37.621094 L 155.015625 29.132812 Z M 145.117188 35.640625 L 156.429688 45.828125 L 156.429688 97.890625 L 145.117188 87.136719 Z M 153.886719 111.1875 C 155.300781 112.320312 158.128906 115.148438 158.128906 115.148438 C 159.257812 116.28125 160.671875 116.847656 162.085938 116.847656 C 162.085938 116.847656 168.589844 116.847656 170.003906 116.847656 L 173.117188 119.675781 L 104.960938 119.675781 L 95.628906 111.1875 Z M 80.074219 312.371094 L 17.855469 266.8125 L 17.855469 134.390625 L 78.375 179.664062 L 80.074219 183.34375 Z M 84.878906 170.609375 L 28.320312 128.167969 L 74.417969 128.167969 L 74.417969 159.007812 L 85.730469 159.007812 L 85.730469 117.695312 L 97.039062 127.882812 L 97.039062 159.292969 L 108.351562 159.292969 L 108.351562 130.996094 L 181.882812 130.996094 L 181.882812 159.292969 L 193.195312 159.292969 L 193.195312 125.335938 C 193.195312 125.054688 193.195312 124.769531 193.195312 124.769531 C 193.195312 124.488281 193.195312 124.488281 193.195312 124.203125 C 193.195312 123.921875 193.195312 123.921875 192.910156 123.640625 C 192.910156 123.355469 192.910156 123.355469 192.628906 123.074219 C 192.628906 122.789062 192.347656 122.789062 192.347656 122.507812 C 192.347656 122.222656 192.0625 122.222656 192.0625 121.941406 C 192.0625 121.941406 191.78125 121.65625 191.78125 121.65625 C 191.78125 121.375 191.5 121.375 191.214844 121.09375 L 186.691406 116.847656 C 194.042969 116.847656 195.457031 116.847656 204.507812 116.847656 L 204.507812 159.292969 L 215.820312 159.292969 L 215.820312 117.695312 L 227.132812 127.882812 L 227.132812 159.292969 L 238.445312 159.292969 L 238.445312 130.996094 L 311.972656 130.996094 L 311.972656 159.292969 L 323.285156 159.292969 L 323.285156 154.199219 L 345.628906 170.609375 Z M 351 181.925781 L 312.820312 261.15625 L 130.128906 261.15625 L 91.949219 181.925781 Z M 357.222656 317.746094 L 91.386719 317.746094 L 91.386719 206.828125 L 121.644531 269.359375 C 122.492188 271.339844 124.472656 272.472656 126.734375 272.472656 L 316.214844 272.472656 C 318.476562 272.472656 320.457031 271.339844 321.304688 269.359375 L 357.222656 195.226562 Z M 357.222656 317.746094 "/>
</g>
</g>
</svg>
