<?xml version="1.0" encoding="UTF-8"?>
<svg xmlns="http://www.w3.org/2000/svg" xmlns:xlink="http://www.w3.org/1999/xlink" width="375pt" height="374.999991pt" viewBox="0 0 375 374.999991" version="1.2">
<defs>
<clipPath id="clip1">
  <path d="M 41.585938 20 L 325.085938 20 L 325.085938 366 L 41.585938 366 Z M 41.585938 20 "/>
</clipPath>
</defs>
<g id="surface1">
<g clip-path="url(#clip1)" clip-rule="nonzero">
<path style=" stroke:none;fill-rule:evenodd;fill:rgb(56.079102%,0%,0%);fill-opacity:1;" d="M 57.324219 103.925781 L 309.292969 103.925781 L 280.957031 340.257812 C 279.230469 354.75 265.542969 365.648438 249.09375 365.648438 L 117.535156 365.648438 C 101.074219 365.648438 87.390625 354.75 85.65625 340.257812 Z M 64.3125 46.394531 L 138.96875 46.394531 L 138.96875 37.40625 C 138.96875 32.628906 140.925781 28.285156 144.066406 25.144531 C 147.210938 22.003906 151.542969 20.058594 156.335938 20.058594 L 210.289062 20.058594 C 215.070312 20.058594 219.414062 22.003906 222.554688 25.144531 C 225.703125 28.285156 227.648438 32.628906 227.648438 37.40625 L 227.648438 46.394531 L 302.308594 46.394531 C 308.539062 46.394531 314.214844 48.957031 318.328125 53.058594 L 318.347656 53.074219 L 318.363281 53.058594 C 322.472656 57.171875 325.027344 62.851562 325.027344 69.101562 L 325.027344 84.019531 C 325.027344 88.328125 321.535156 91.820312 317.234375 91.820312 L 49.382812 91.820312 C 45.078125 91.820312 41.585938 88.328125 41.585938 84.019531 L 41.585938 69.101562 C 41.585938 62.851562 44.136719 57.171875 48.253906 53.058594 C 48.429688 52.875 48.605469 52.714844 48.796875 52.558594 C 52.863281 48.746094 58.328125 46.394531 64.3125 46.394531 Z M 154.566406 46.394531 L 212.054688 46.394531 L 212.054688 37.40625 C 212.054688 36.933594 211.84375 36.492188 211.535156 36.167969 C 211.207031 35.847656 210.757812 35.644531 210.289062 35.644531 L 156.335938 35.644531 C 155.863281 35.644531 155.414062 35.847656 155.097656 36.167969 C 154.769531 36.492188 154.566406 36.933594 154.566406 37.40625 Z M 172.308594 131.621094 C 172.308594 125.078125 178.292969 119.789062 185.667969 119.789062 C 193.042969 119.789062 199.027344 125.078125 199.027344 131.621094 L 199.027344 337.960938 C 199.027344 344.496094 193.042969 349.78125 185.667969 349.78125 C 178.292969 349.78125 172.308594 344.496094 172.308594 337.960938 Z M 105.863281 132.214844 C 105.492188 125.707031 111.140625 120.164062 118.488281 119.839844 C 125.828125 119.5 132.101562 124.503906 132.46875 131.015625 L 144.832031 337.351562 C 145.199219 343.855469 139.550781 349.410156 132.203125 349.734375 C 124.867188 350.0625 118.597656 345.054688 118.226562 338.550781 Z M 238.867188 131.015625 C 239.238281 124.503906 245.503906 119.5 252.855469 119.839844 C 260.191406 120.164062 265.839844 125.707031 265.472656 132.214844 L 253.105469 338.550781 C 252.734375 345.054688 246.464844 350.0625 239.128906 349.734375 C 231.785156 349.410156 226.132812 343.855469 226.496094 337.351562 Z M 238.867188 131.015625 "/>
</g>
</g>
</svg>
