<?xml version="1.0" encoding="UTF-8"?>
<svg xmlns="http://www.w3.org/2000/svg" xmlns:xlink="http://www.w3.org/1999/xlink" width="1125pt" height="1124.99995pt" viewBox="0 0 1125 1124.99995" version="1.2">
<defs>
<clipPath id="clip1">
  <path d="M 17 517 L 1108 517 L 1108 1012.550781 L 17 1012.550781 Z M 17 517 "/>
</clipPath>
</defs>
<g id="surface1">
<g clip-path="url(#clip1)" clip-rule="nonzero">
<path style=" stroke:none;fill-rule:nonzero;fill:rgb(100%,100%,100%);fill-opacity:1;" d="M 1057.800781 517.027344 C 1056.179688 517.027344 1054.558594 517.109375 1052.945312 517.265625 C 1051.328125 517.425781 1049.726562 517.664062 1048.136719 517.980469 C 1046.542969 518.296875 1044.972656 518.691406 1043.417969 519.160156 C 1041.867188 519.632812 1040.339844 520.179688 1038.84375 520.800781 C 1037.34375 521.421875 1035.878906 522.113281 1034.445312 522.878906 C 1033.015625 523.644531 1031.625 524.476562 1030.277344 525.378906 C 1028.929688 526.28125 1027.625 527.246094 1026.371094 528.277344 C 1025.117188 529.304688 1023.917969 530.394531 1022.769531 531.542969 C 1021.621094 532.6875 1020.535156 533.890625 1019.503906 535.144531 C 1018.476562 536.398438 1017.511719 537.699219 1016.609375 539.050781 C 1015.707031 540.398438 1014.875 541.789062 1014.109375 543.222656 C 1013.34375 544.652344 1012.652344 546.117188 1012.03125 547.617188 C 1011.410156 549.117188 1010.863281 550.644531 1010.394531 552.195312 C 1009.921875 553.75 1009.527344 555.320312 1009.210938 556.914062 C 1008.894531 558.503906 1008.65625 560.109375 1008.5 561.722656 C 1008.339844 563.339844 1008.261719 564.957031 1008.261719 566.582031 L 1008.261719 913.445312 L 116.535156 913.445312 L 116.535156 566.582031 C 116.535156 564.957031 116.453125 563.339844 116.296875 561.722656 C 116.136719 560.109375 115.898438 558.503906 115.582031 556.914062 C 115.265625 555.320312 114.871094 553.75 114.402344 552.195312 C 113.929688 550.644531 113.382812 549.117188 112.761719 547.617188 C 112.140625 546.117188 111.449219 544.652344 110.683594 543.222656 C 109.917969 541.789062 109.085938 540.398438 108.183594 539.050781 C 107.285156 537.699219 106.320312 536.398438 105.289062 535.144531 C 104.261719 533.890625 103.171875 532.6875 102.023438 531.542969 C 100.878906 530.394531 99.675781 529.304688 98.421875 528.277344 C 97.167969 527.246094 95.867188 526.28125 94.515625 525.378906 C 93.167969 524.476562 91.777344 523.644531 90.347656 522.878906 C 88.917969 522.113281 87.453125 521.421875 85.953125 520.800781 C 84.453125 520.179688 82.925781 519.632812 81.375 519.160156 C 79.820312 518.691406 78.25 518.296875 76.660156 517.980469 C 75.066406 517.664062 73.464844 517.425781 71.851562 517.265625 C 70.234375 517.109375 68.617188 517.027344 66.992188 517.027344 C 65.371094 517.027344 63.753906 517.109375 62.136719 517.265625 C 60.523438 517.425781 58.921875 517.664062 57.328125 517.980469 C 55.738281 518.296875 54.164062 518.691406 52.613281 519.160156 C 51.0625 519.632812 49.535156 520.179688 48.035156 520.800781 C 46.535156 521.421875 45.070312 522.113281 43.640625 522.878906 C 42.210938 523.644531 40.820312 524.476562 39.472656 525.378906 C 38.121094 526.28125 36.820312 527.246094 35.566406 528.277344 C 34.3125 529.304688 33.109375 530.394531 31.964844 531.542969 C 30.816406 532.6875 29.726562 533.890625 28.699219 535.144531 C 27.667969 536.398438 26.703125 537.699219 25.804688 539.050781 C 24.902344 540.398438 24.066406 541.789062 23.304688 543.222656 C 22.539062 544.652344 21.84375 546.117188 21.226562 547.617188 C 20.605469 549.117188 20.058594 550.644531 19.585938 552.195312 C 19.117188 553.75 18.722656 555.320312 18.40625 556.914062 C 18.089844 558.503906 17.851562 560.109375 17.691406 561.722656 C 17.535156 563.339844 17.453125 564.957031 17.453125 566.582031 L 17.453125 962.996094 C 17.453125 964.621094 17.535156 966.238281 17.691406 967.855469 C 17.851562 969.46875 18.089844 971.074219 18.40625 972.664062 C 18.722656 974.257812 19.117188 975.828125 19.585938 977.382812 C 20.058594 978.933594 20.605469 980.460938 21.226562 981.960938 C 21.84375 983.460938 22.539062 984.925781 23.304688 986.355469 C 24.066406 987.789062 24.902344 989.179688 25.804688 990.527344 C 26.703125 991.878906 27.667969 993.179688 28.699219 994.433594 C 29.726562 995.6875 30.816406 996.890625 31.964844 998.035156 C 33.109375 999.183594 34.3125 1000.273438 35.566406 1001.300781 C 36.820312 1002.332031 38.121094 1003.296875 39.472656 1004.199219 C 40.820312 1005.101562 42.210938 1005.933594 43.640625 1006.699219 C 45.070312 1007.464844 46.535156 1008.15625 48.035156 1008.777344 C 49.535156 1009.398438 51.0625 1009.945312 52.613281 1010.417969 C 54.164062 1010.886719 55.738281 1011.28125 57.328125 1011.597656 C 58.921875 1011.914062 60.523438 1012.152344 62.136719 1012.3125 C 63.753906 1012.46875 65.371094 1012.550781 66.992188 1012.550781 L 1057.800781 1012.550781 C 1059.421875 1012.550781 1061.042969 1012.46875 1062.65625 1012.3125 C 1064.269531 1012.152344 1065.875 1011.914062 1067.464844 1011.597656 C 1069.054688 1011.28125 1070.628906 1010.886719 1072.179688 1010.417969 C 1073.734375 1009.945312 1075.257812 1009.398438 1076.757812 1008.777344 C 1078.257812 1008.15625 1079.722656 1007.464844 1081.152344 1006.699219 C 1082.585938 1005.933594 1083.972656 1005.101562 1085.324219 1004.199219 C 1086.671875 1003.296875 1087.972656 1002.332031 1089.226562 1001.300781 C 1090.484375 1000.273438 1091.683594 999.183594 1092.832031 998.035156 C 1093.976562 996.890625 1095.066406 995.6875 1096.09375 994.433594 C 1097.125 993.179688 1098.089844 991.878906 1098.992188 990.527344 C 1099.894531 989.179688 1100.726562 987.789062 1101.492188 986.355469 C 1102.253906 984.925781 1102.949219 983.460938 1103.570312 981.960938 C 1104.191406 980.460938 1104.734375 978.933594 1105.207031 977.382812 C 1105.679688 975.828125 1106.070312 974.257812 1106.386719 972.664062 C 1106.707031 971.074219 1106.941406 969.46875 1107.101562 967.855469 C 1107.261719 966.238281 1107.339844 964.621094 1107.339844 962.996094 L 1107.339844 566.582031 C 1107.339844 564.957031 1107.261719 563.339844 1107.101562 561.722656 C 1106.941406 560.109375 1106.707031 558.503906 1106.386719 556.914062 C 1106.070312 555.320312 1105.679688 553.75 1105.207031 552.195312 C 1104.734375 550.644531 1104.191406 549.117188 1103.570312 547.617188 C 1102.949219 546.117188 1102.253906 544.652344 1101.492188 543.222656 C 1100.726562 541.789062 1099.894531 540.398438 1098.992188 539.050781 C 1098.089844 537.699219 1097.125 536.398438 1096.09375 535.144531 C 1095.066406 533.890625 1093.976562 532.6875 1092.832031 531.542969 C 1091.683594 530.394531 1090.484375 529.304688 1089.226562 528.277344 C 1087.972656 527.246094 1086.671875 526.28125 1085.324219 525.378906 C 1083.972656 524.476562 1082.585938 523.644531 1081.152344 522.878906 C 1079.722656 522.113281 1078.257812 521.421875 1076.757812 520.800781 C 1075.257812 520.179688 1073.734375 519.632812 1072.179688 519.160156 C 1070.628906 518.691406 1069.054688 518.296875 1067.464844 517.980469 C 1065.875 517.664062 1064.269531 517.425781 1062.65625 517.265625 C 1061.042969 517.109375 1059.421875 517.027344 1057.800781 517.027344 Z M 1057.800781 517.027344 "/>
</g>
<path style=" stroke:none;fill-rule:nonzero;fill:rgb(100%,100%,100%);fill-opacity:1;" d="M 562.398438 814.339844 C 564.019531 814.339844 565.636719 814.261719 567.253906 814.101562 C 568.867188 813.945312 570.46875 813.707031 572.0625 813.390625 C 573.652344 813.074219 575.226562 812.679688 576.777344 812.207031 C 578.332031 811.738281 579.855469 811.191406 581.355469 810.570312 C 582.855469 809.949219 584.320312 809.253906 585.75 808.492188 C 587.179688 807.726562 588.570312 806.890625 589.921875 805.988281 C 591.269531 805.089844 592.570312 804.121094 593.824219 803.09375 C 595.078125 802.0625 596.28125 800.976562 597.425781 799.828125 C 598.574219 798.679688 599.664062 797.480469 600.691406 796.226562 C 601.722656 794.96875 602.6875 793.667969 603.589844 792.320312 C 604.488281 790.96875 605.324219 789.578125 606.085938 788.148438 C 606.851562 786.714844 607.546875 785.25 608.167969 783.75 C 608.789062 782.253906 609.332031 780.726562 609.804688 779.171875 C 610.273438 777.621094 610.667969 776.046875 610.984375 774.457031 C 611.300781 772.863281 611.539062 771.261719 611.699219 769.644531 C 611.859375 768.03125 611.9375 766.410156 611.9375 764.789062 L 611.9375 190.675781 L 725.535156 304.300781 C 726.6875 305.414062 727.894531 306.472656 729.148438 307.46875 C 730.40625 308.46875 731.707031 309.402344 733.054688 310.273438 C 734.402344 311.144531 735.789062 311.949219 737.214844 312.683594 C 738.640625 313.421875 740.097656 314.085938 741.589844 314.679688 C 743.078125 315.277344 744.59375 315.796875 746.136719 316.246094 C 747.675781 316.691406 749.234375 317.0625 750.8125 317.359375 C 752.390625 317.65625 753.976562 317.875 755.574219 318.015625 C 757.175781 318.160156 758.777344 318.222656 760.378906 318.207031 C 761.984375 318.195312 763.585938 318.101562 765.179688 317.933594 C 766.777344 317.765625 768.359375 317.519531 769.929688 317.195312 C 771.503906 316.871094 773.054688 316.472656 774.585938 315.996094 C 776.121094 315.523438 777.628906 314.976562 779.105469 314.355469 C 780.585938 313.734375 782.03125 313.042969 783.445312 312.28125 C 784.859375 311.523438 786.230469 310.695312 787.5625 309.800781 C 788.894531 308.90625 790.179688 307.949219 791.417969 306.929688 C 792.660156 305.910156 793.847656 304.832031 794.980469 303.695312 C 796.113281 302.5625 797.191406 301.375 798.210938 300.136719 C 799.230469 298.894531 800.1875 297.609375 801.082031 296.277344 C 801.976562 294.945312 802.804688 293.570312 803.566406 292.160156 C 804.324219 290.746094 805.015625 289.300781 805.636719 287.820312 C 806.257812 286.339844 806.804688 284.832031 807.277344 283.300781 C 807.753906 281.765625 808.152344 280.214844 808.472656 278.640625 C 808.796875 277.070312 809.042969 275.484375 809.214844 273.890625 C 809.382812 272.292969 809.472656 270.695312 809.488281 269.089844 C 809.503906 267.484375 809.4375 265.882812 809.296875 264.285156 C 809.15625 262.683594 808.9375 261.097656 808.640625 259.519531 C 808.34375 257.941406 807.972656 256.382812 807.527344 254.839844 C 807.078125 253.300781 806.558594 251.785156 805.960938 250.292969 C 805.367188 248.800781 804.703125 247.34375 803.964844 245.917969 C 803.230469 244.492188 802.425781 243.105469 801.554688 241.757812 C 800.683594 240.410156 799.75 239.105469 798.75 237.851562 C 797.753906 236.59375 796.699219 235.386719 795.582031 234.234375 L 597.421875 36.023438 C 596.273438 34.878906 595.074219 33.789062 593.820312 32.757812 C 592.566406 31.730469 591.265625 30.765625 589.914062 29.863281 C 588.566406 28.960938 587.175781 28.128906 585.746094 27.363281 C 584.316406 26.601562 582.851562 25.90625 581.351562 25.285156 C 579.851562 24.664062 578.328125 24.121094 576.773438 23.648438 C 575.222656 23.179688 573.652344 22.785156 572.058594 22.46875 C 570.46875 22.152344 568.867188 21.914062 567.253906 21.753906 C 565.636719 21.59375 564.019531 21.515625 562.398438 21.515625 C 560.773438 21.515625 559.15625 21.59375 557.542969 21.753906 C 555.929688 21.914062 554.324219 22.152344 552.734375 22.46875 C 551.144531 22.785156 549.570312 23.179688 548.019531 23.648438 C 546.46875 24.121094 544.941406 24.664062 543.441406 25.285156 C 541.945312 25.90625 540.480469 26.601562 539.046875 27.363281 C 537.617188 28.128906 536.226562 28.960938 534.878906 29.863281 C 533.53125 30.765625 532.226562 31.730469 530.972656 32.757812 C 529.71875 33.789062 528.519531 34.878906 527.371094 36.023438 L 329.210938 234.234375 C 328.03125 235.375 326.910156 236.570312 325.847656 237.820312 C 324.789062 239.070312 323.792969 240.371094 322.859375 241.722656 C 321.925781 243.074219 321.0625 244.464844 320.269531 245.902344 C 319.476562 247.339844 318.757812 248.808594 318.109375 250.316406 C 317.460938 251.824219 316.890625 253.363281 316.394531 254.925781 C 315.898438 256.492188 315.484375 258.074219 315.144531 259.679688 C 314.808594 261.285156 314.550781 262.90625 314.375 264.535156 C 314.199219 266.167969 314.101562 267.804688 314.085938 269.445312 C 314.074219 271.085938 314.140625 272.722656 314.289062 274.359375 C 314.4375 275.992188 314.667969 277.613281 314.976562 279.226562 C 315.285156 280.835938 315.675781 282.429688 316.140625 284.003906 C 316.609375 285.574219 317.152344 287.121094 317.773438 288.640625 C 318.394531 290.160156 319.089844 291.644531 319.859375 293.09375 C 320.628906 294.542969 321.464844 295.949219 322.375 297.316406 C 323.285156 298.683594 324.257812 300 325.296875 301.269531 C 326.335938 302.539062 327.4375 303.753906 328.597656 304.914062 C 329.757812 306.074219 330.96875 307.175781 332.238281 308.214844 C 333.507812 309.253906 334.828125 310.230469 336.191406 311.136719 C 337.558594 312.046875 338.964844 312.886719 340.414062 313.652344 C 341.863281 314.421875 343.347656 315.117188 344.867188 315.738281 C 346.386719 316.359375 347.929688 316.90625 349.503906 317.371094 C 351.074219 317.839844 352.667969 318.230469 354.277344 318.539062 C 355.890625 318.847656 357.511719 319.078125 359.144531 319.226562 C 360.78125 319.375 362.417969 319.441406 364.058594 319.425781 C 365.699219 319.414062 367.332031 319.316406 368.964844 319.140625 C 370.59375 318.964844 372.214844 318.707031 373.820312 318.367188 C 375.425781 318.03125 377.007812 317.613281 378.574219 317.121094 C 380.136719 316.625 381.671875 316.054688 383.179688 315.40625 C 384.6875 314.757812 386.160156 314.035156 387.59375 313.242188 C 389.03125 312.449219 390.421875 311.585938 391.773438 310.652344 C 393.125 309.722656 394.425781 308.722656 395.675781 307.664062 C 396.925781 306.601562 398.121094 305.480469 399.261719 304.300781 L 512.855469 190.675781 L 512.855469 764.789062 C 512.855469 766.410156 512.9375 768.03125 513.09375 769.644531 C 513.253906 771.261719 513.492188 772.863281 513.808594 774.457031 C 514.125 776.046875 514.519531 777.621094 514.988281 779.171875 C 515.460938 780.726562 516.007812 782.253906 516.628906 783.75 C 517.25 785.25 517.941406 786.714844 518.707031 788.148438 C 519.472656 789.578125 520.304688 790.96875 521.207031 792.320312 C 522.105469 793.667969 523.074219 794.96875 524.101562 796.226562 C 525.132812 797.480469 526.21875 798.679688 527.367188 799.828125 C 528.515625 800.976562 529.714844 802.0625 530.96875 803.09375 C 532.222656 804.121094 533.523438 805.089844 534.875 805.988281 C 536.222656 806.890625 537.613281 807.726562 539.042969 808.492188 C 540.476562 809.253906 541.941406 809.949219 543.4375 810.570312 C 544.9375 811.191406 546.464844 811.738281 548.015625 812.207031 C 549.570312 812.679688 551.140625 813.074219 552.730469 813.390625 C 554.324219 813.707031 555.925781 813.945312 557.542969 814.101562 C 559.15625 814.261719 560.773438 814.339844 562.398438 814.339844 Z M 562.398438 814.339844 "/>
</g>
</svg>
