<?xml version="1.0" encoding="UTF-8"?>
<svg xmlns="http://www.w3.org/2000/svg" xmlns:xlink="http://www.w3.org/1999/xlink" width="375pt" height="374.999991pt" viewBox="0 0 375 374.999991" version="1.2">
<defs>
<clipPath id="clip1">
  <path d="M 26.664062 252 L 337.164062 252 L 337.164062 369 L 26.664062 369 Z M 26.664062 252 "/>
</clipPath>
<clipPath id="clip2">
  <path d="M 194 118 L 243.257812 118 L 243.257812 131 L 194 131 Z M 194 118 "/>
</clipPath>
<clipPath id="clip3">
  <path d="M 121.007812 118 L 170 118 L 170 131 L 121.007812 131 Z M 121.007812 118 "/>
</clipPath>
<clipPath id="clip4">
  <path d="M 155.871094 199 L 156 199 L 156 200 L 155.871094 200 Z M 155.871094 199 "/>
</clipPath>
<clipPath id="clip5">
  <path d="M 155.871094 196 L 208.371094 196 L 208.371094 219 L 155.871094 219 Z M 155.871094 196 "/>
</clipPath>
<clipPath id="clip6">
  <path d="M 155.871094 199 L 208.371094 199 L 208.371094 209 L 155.871094 209 Z M 155.871094 199 "/>
</clipPath>
</defs>
<g id="surface1">
<rect x="0" y="0" width="375" height="374.999991" style="fill:rgb(100%,100%,100%);fill-opacity:1;stroke:none;"/>
<rect x="0" y="0" width="375" height="374.999991" style="fill:rgb(100%,100%,100%);fill-opacity:1;stroke:none;"/>
<rect x="0" y="0" width="375" height="374.999991" style="fill:rgb(3.919983%,25.099182%,69.40918%);fill-opacity:1;stroke:none;"/>
<path style=" stroke:none;fill-rule:nonzero;fill:rgb(0%,0%,0%);fill-opacity:1;" d="M 31.691406 364.144531 C 34.242188 304.8125 83.238281 257.328125 143.121094 257.328125 L 220.710938 257.328125 C 280.589844 257.328125 329.597656 304.8125 332.136719 364.144531 Z M 31.691406 364.144531 "/>
<g clip-path="url(#clip1)" clip-rule="nonzero">
<path style=" stroke:none;fill-rule:nonzero;fill:rgb(0%,0%,0%);fill-opacity:1;" d="M 220.710938 262.183594 C 276.273438 262.183594 322.042969 304.921875 326.960938 359.289062 L 36.871094 359.289062 C 41.789062 304.921875 87.554688 262.183594 143.121094 262.183594 L 220.710938 262.183594 M 220.710938 252.472656 L 143.121094 252.472656 C 78.847656 252.472656 26.734375 304.648438 26.734375 369 L 337.09375 369 C 337.09375 304.648438 284.984375 252.472656 220.710938 252.472656 Z M 220.710938 252.472656 "/>
</g>
<path style=" stroke:none;fill-rule:nonzero;fill:rgb(100%,90.589905%,76.078796%);fill-opacity:1;" d="M 181.914062 286.460938 C 150.695312 286.460938 140.121094 266.058594 138.269531 261.835938 L 138.269531 208.777344 L 225.558594 208.777344 L 225.558594 261.835938 C 223.734375 266.011719 213.171875 286.460938 181.914062 286.460938 Z M 181.914062 286.460938 "/>
<path style=" stroke:none;fill-rule:nonzero;fill:rgb(0%,0%,0%);fill-opacity:1;" d="M 220.710938 213.632812 L 220.710938 260.777344 C 218.371094 265.515625 208.46875 281.605469 181.914062 281.605469 C 155.4375 281.605469 145.484375 265.515625 143.121094 260.757812 L 143.121094 213.632812 L 220.710938 213.632812 M 230.410156 203.921875 L 133.421875 203.921875 L 133.421875 262.785156 C 133.421875 262.785156 143.761719 291.316406 181.914062 291.316406 C 220.070312 291.316406 230.410156 262.785156 230.410156 262.785156 Z M 230.410156 203.921875 "/>
<path style=" stroke:none;fill-rule:nonzero;fill:rgb(87.449646%,94.119263%,99.609375%);fill-opacity:1;" d="M 251.191406 176.867188 C 238.585938 176.867188 228.34375 166.59375 228.34375 153.980469 C 228.34375 141.367188 238.59375 131.09375 251.191406 131.09375 C 270.230469 131.09375 274.050781 136.316406 274.050781 144.734375 C 274.050781 158.464844 262.753906 176.867188 251.191406 176.867188 Z M 112.636719 176.867188 C 101.074219 176.867188 89.777344 158.464844 89.777344 144.726562 C 89.777344 136.308594 93.609375 131.082031 112.636719 131.082031 C 125.246094 131.082031 135.488281 141.347656 135.488281 153.96875 C 135.488281 166.59375 125.246094 176.867188 112.636719 176.867188 Z M 112.636719 176.867188 "/>
<path style=" stroke:none;fill-rule:nonzero;fill:rgb(0%,0%,0%);fill-opacity:1;" d="M 251.191406 135.949219 C 269.203125 135.949219 269.203125 140.617188 269.203125 144.734375 C 269.203125 156.71875 259.105469 172.023438 251.191406 172.023438 C 241.261719 172.023438 233.183594 163.933594 233.183594 153.988281 C 233.183594 144.035156 241.261719 135.949219 251.191406 135.949219 M 112.636719 135.949219 C 122.566406 135.949219 130.648438 144.035156 130.648438 153.980469 C 130.648438 163.921875 122.566406 172.011719 112.636719 172.011719 C 104.722656 172.011719 94.625 156.71875 94.625 144.726562 C 94.625 140.617188 94.625 135.949219 112.636719 135.949219 M 251.191406 126.238281 C 235.886719 126.238281 223.484375 138.65625 223.484375 153.980469 C 223.484375 169.304688 235.886719 181.722656 251.191406 181.722656 C 266.496094 181.722656 278.902344 160.050781 278.902344 144.726562 C 278.902344 129.414062 266.496094 126.238281 251.191406 126.238281 Z M 112.636719 126.238281 C 97.332031 126.238281 84.925781 129.414062 84.925781 144.734375 C 84.925781 160.058594 97.332031 181.734375 112.636719 181.734375 C 127.941406 181.734375 140.347656 169.3125 140.347656 153.988281 C 140.347656 138.667969 127.941406 126.238281 112.636719 126.238281 Z M 112.636719 126.238281 "/>
<path style=" stroke:none;fill-rule:nonzero;fill:rgb(100%,90.589905%,76.078796%);fill-opacity:1;" d="M 181.914062 247.617188 C 176.054688 247.617188 170.546875 245.5 165.988281 241.5 L 165.105469 240.722656 L 163.980469 240.433594 C 131.714844 232.238281 109.175781 203.242188 109.175781 169.933594 L 109.175781 79.644531 C 109.175781 61.90625 123.585938 47.476562 141.296875 47.476562 L 222.523438 47.476562 C 240.234375 47.476562 254.65625 61.90625 254.65625 79.644531 L 254.65625 169.933594 C 254.65625 203.242188 232.117188 232.238281 199.847656 240.433594 L 198.722656 240.722656 L 197.839844 241.5 C 193.28125 245.5 187.773438 247.617188 181.914062 247.617188 Z M 181.914062 247.617188 "/>
<path style=" stroke:none;fill-rule:nonzero;fill:rgb(0%,0%,0%);fill-opacity:1;" d="M 222.523438 52.328125 C 237.566406 52.328125 249.804688 64.585938 249.804688 79.644531 L 249.804688 169.933594 C 249.804688 201.019531 228.769531 228.070312 198.644531 235.734375 L 196.386719 236.304688 L 194.628906 237.851562 C 192.078125 240.09375 187.8125 242.761719 181.914062 242.761719 C 176.019531 242.761719 171.75 240.09375 169.199219 237.847656 L 167.445312 236.304688 L 165.183594 235.734375 C 135.058594 228.070312 114.023438 201.019531 114.023438 169.933594 L 114.023438 79.644531 C 114.023438 64.585938 126.261719 52.328125 141.304688 52.328125 L 222.523438 52.328125 M 222.523438 42.621094 L 141.296875 42.621094 C 120.878906 42.621094 104.324219 59.195312 104.324219 79.644531 L 104.324219 169.933594 C 104.324219 206.222656 129.210938 236.605469 162.796875 245.140625 C 167.917969 249.648438 174.5625 252.472656 181.914062 252.472656 C 189.265625 252.472656 195.910156 249.648438 201.03125 245.140625 C 234.617188 236.605469 259.503906 206.222656 259.503906 169.933594 L 259.503906 79.644531 C 259.503906 59.195312 242.949219 42.621094 222.523438 42.621094 Z M 222.523438 42.621094 "/>
<path style=" stroke:none;fill-rule:nonzero;fill:rgb(0%,0%,0%);fill-opacity:1;" d="M 254.65625 160.222656 L 254.65625 126.238281 C 254.65625 90.929688 225.238281 72.03125 223.976562 71.246094 L 220.117188 68.820312 L 217.449219 72.539062 C 216.625 73.683594 196.898438 100.570312 154.273438 100.570312 C 143.121094 100.570312 109.175781 100.570312 109.175781 135.949219 L 109.175781 160.222656 L 107.4375 160.222656 C 103.210938 150.6875 89.777344 118.15625 89.777344 90.425781 C 89.777344 39.242188 124.855469 4.855469 177.066406 4.855469 C 214.296875 4.855469 225.480469 29.957031 225.9375 31.023438 L 227.207031 33.96875 L 230.410156 33.988281 C 246.613281 33.988281 274.050781 45.269531 274.050781 87.539062 C 274.050781 113.011719 260.40625 149.621094 256.226562 160.222656 Z M 254.65625 160.222656 "/>
<path style=" stroke:none;fill-rule:nonzero;fill:rgb(0%,0%,0%);fill-opacity:1;" d="M 177.066406 9.710938 C 210.847656 9.710938 221.078125 32.015625 221.457031 32.871094 L 223.949219 38.84375 L 230.410156 38.84375 C 248.300781 38.84375 269.203125 51.59375 269.203125 87.539062 C 269.203125 102.457031 264.285156 121.507812 259.503906 136.511719 L 259.503906 126.238281 C 259.503906 88.277344 227.90625 67.984375 226.558594 67.128906 L 218.789062 62.246094 L 213.484375 69.742188 C 213.300781 70.003906 194.660156 95.707031 154.273438 95.707031 C 121.132812 95.714844 104.324219 109.253906 104.324219 135.949219 L 104.324219 138.996094 C 99.5625 125.1875 94.625 106.902344 94.625 90.414062 C 94.625 42.144531 127.757812 9.710938 177.066406 9.710938 M 177.066406 0 C 120.628906 0 84.925781 38.65625 84.925781 90.414062 C 84.925781 124.703125 104.324219 165.078125 104.324219 165.078125 L 114.023438 165.078125 C 114.023438 165.078125 114.023438 145.375 114.023438 135.949219 C 114.023438 110.039062 133.652344 105.425781 154.273438 105.425781 C 200.148438 105.425781 221.40625 75.355469 221.40625 75.355469 C 221.40625 75.355469 249.804688 93.210938 249.804688 126.238281 C 249.804688 136.617188 249.804688 165.078125 249.804688 165.078125 L 259.503906 165.078125 C 259.503906 165.078125 278.902344 118.777344 278.902344 87.539062 C 278.902344 43.679688 251 29.132812 230.410156 29.132812 C 230.410156 29.132812 218.253906 0 177.066406 0 Z M 177.066406 0 "/>
<path style=" stroke:none;fill-rule:nonzero;fill:rgb(9.408569%,7.058716%,8.239746%);fill-opacity:1;" d="M 200.015625 144.53125 C 200.015625 144.53125 203.863281 134.847656 220.578125 133.257812 C 232.199219 132.152344 233.289062 136.109375 239.09375 136.351562 C 239.09375 136.351562 235.351562 138.167969 230.714844 138.238281 C 229.4375 138.257812 227.222656 137.804688 224.613281 137.347656 C 219.941406 136.535156 214.011719 135.722656 209.992188 137.632812 C 204.636719 140.175781 199.527344 145.160156 199.527344 145.160156 L 200.015625 144.53125 "/>
<g clip-path="url(#clip2)" clip-rule="nonzero">
<path style=" stroke:none;fill-rule:nonzero;fill:rgb(9.408569%,7.058716%,8.239746%);fill-opacity:1;" d="M 194.675781 128.621094 C 194.675781 128.621094 194.617188 131.316406 210.882812 125.878906 C 221.386719 122.371094 226.996094 121.148438 231.574219 123.835938 C 237.0625 127.054688 243.339844 130.410156 243.339844 130.410156 L 233.867188 121.773438 C 233.867188 121.773438 228.460938 116.5625 216.4375 118.949219 C 205.390625 121.140625 193.691406 121.773438 194.675781 128.621094 "/>
</g>
<path style=" stroke:none;fill-rule:nonzero;fill:rgb(100%,100%,100%);fill-opacity:1;" d="M 231.847656 138.167969 C 231.847656 138.167969 222.234375 135.464844 215.230469 136.171875 C 208.226562 136.875 201.671875 141.132812 199.527344 145.160156 C 199.527344 145.160156 198.675781 146.015625 201.5625 144.546875 C 202.351562 144.144531 204.609375 145.859375 211.050781 146.464844 C 217.488281 147.070312 223.132812 147.535156 230.136719 140.671875 L 231.847656 138.167969 "/>
<path style=" stroke:none;fill-rule:nonzero;fill:rgb(13.328552%,7.058716%,5.488586%);fill-opacity:1;" d="M 216.097656 136.101562 C 213.742188 136.101562 211.59375 136.589844 209.671875 137.332031 C 209.277344 138.222656 209.050781 139.21875 209.050781 140.273438 C 209.050781 144.074219 211.960938 147.15625 215.550781 147.15625 C 219.136719 147.15625 222.046875 144.074219 222.046875 140.273438 C 222.046875 139.15625 221.792969 138.101562 221.34375 137.167969 C 219.675781 136.53125 217.933594 136.101562 216.097656 136.101562 "/>
<path style=" stroke:none;fill-rule:nonzero;fill:rgb(30.979919%,18.429565%,16.079712%);fill-opacity:1;" d="M 216.257812 137.632812 C 216.183594 137.632812 216.117188 137.632812 216.050781 137.632812 L 216.257812 138.917969 L 216.257812 137.632812 M 216.4375 137.632812 L 216.507812 138.839844 L 216.75 137.636719 C 216.644531 137.636719 216.539062 137.632812 216.4375 137.632812 M 215.84375 137.636719 C 215.734375 137.636719 215.625 137.640625 215.515625 137.644531 L 215.960938 138.882812 L 215.84375 137.636719 M 217.003906 137.644531 L 216.875 138.882812 L 217.605469 137.675781 C 217.402344 137.660156 217.203125 137.648438 217.003906 137.644531 M 215.371094 137.652344 C 215.257812 137.65625 215.148438 137.660156 215.035156 137.667969 L 215.777344 138.917969 L 215.371094 137.652344 M 214.871094 137.679688 C 214.753906 137.683594 214.632812 137.695312 214.511719 137.707031 L 215.558594 138.960938 L 214.871094 137.679688 M 217.734375 137.683594 L 217.058594 138.996094 L 218.488281 137.75 C 218.238281 137.71875 217.984375 137.695312 217.734375 137.683594 M 214.320312 137.71875 C 214.222656 137.726562 214.128906 137.738281 214.03125 137.75 L 215.335938 139.074219 L 214.320312 137.71875 M 218.648438 137.765625 L 217.316406 139.109375 L 219.265625 137.84375 C 219.058594 137.8125 218.851562 137.789062 218.648438 137.765625 M 213.789062 137.777344 C 213.683594 137.789062 213.574219 137.800781 213.46875 137.816406 L 214.972656 139.152344 L 213.789062 137.777344 M 213.289062 137.84375 C 213.058594 137.875 212.832031 137.910156 212.609375 137.945312 L 214.679688 139.230469 L 213.289062 137.84375 M 219.394531 137.863281 L 217.496094 139.347656 L 220.867188 138.613281 L 217.644531 139.695312 L 221.050781 139.386719 L 217.792969 140.042969 C 217.792969 140.042969 221.195312 140.042969 221.375 140.042969 C 221.558594 140.042969 217.828125 140.394531 217.828125 140.394531 L 220.9375 140.585938 L 217.828125 140.585938 L 221.011719 141.25 L 217.863281 140.820312 L 220.167969 141.75 C 220.167969 141.75 217.972656 141.054688 217.828125 141.054688 C 217.679688 141.054688 220.71875 142.992188 220.71875 142.992188 L 217.644531 141.210938 L 220.0625 143.882812 L 217.460938 141.480469 L 219.621094 144.621094 L 217.316406 141.828125 L 219.21875 145.046875 L 217.058594 141.828125 L 218.621094 145.820312 C 220.320312 144.726562 221.457031 142.753906 221.457031 140.492188 C 221.457031 139.667969 221.304688 138.886719 221.035156 138.175781 C 220.480469 138.046875 219.929688 137.945312 219.394531 137.863281 M 212.4375 137.980469 C 212.226562 138.015625 212.007812 138.058594 211.796875 138.105469 L 214.496094 139.425781 L 212.4375 137.980469 M 211.730469 138.121094 C 211.441406 138.183594 211.160156 138.246094 210.882812 138.316406 L 214.460938 139.582031 L 211.730469 138.121094 M 210.820312 138.328125 C 210.539062 138.402344 210.261719 138.484375 209.992188 138.5625 C 209.804688 139.167969 209.703125 139.820312 209.703125 140.492188 C 209.703125 143.933594 212.332031 146.714844 215.578125 146.714844 C 216.691406 146.714844 217.730469 146.390625 218.613281 145.824219 L 216.730469 141.867188 L 217.535156 145.632812 L 216.4375 141.949219 L 216.984375 145.589844 L 216.179688 142.058594 L 216.507812 146.015625 L 215.960938 142.101562 L 215.777344 145.9375 L 215.777344 142.175781 L 215.046875 146.25 L 215.628906 142.214844 L 214.128906 145.164062 L 215.375 142.140625 L 213.105469 145.125 L 215.226562 142.058594 L 212.445312 144.546875 L 215.082031 141.90625 C 215.082031 141.90625 212.375 143.882812 212.226562 143.882812 C 212.082031 143.882812 214.789062 141.828125 214.789062 141.828125 C 214.789062 141.828125 213.160156 142.671875 212.269531 143.148438 C 211.949219 143.332031 211.722656 143.464844 211.710938 143.464844 L 211.714844 143.460938 C 211.75 143.429688 211.96875 143.308594 212.269531 143.148438 C 212.769531 142.859375 213.496094 142.433594 213.988281 142.15625 C 213.105469 142.582031 211.453125 143.34375 211.347656 143.34375 C 211.203125 143.34375 214.9375 141.40625 214.9375 141.40625 L 211.054688 142.882812 L 214.714844 141.171875 C 214.714844 141.171875 210.582031 142.335938 210.433594 142.335938 C 210.289062 142.335938 214.316406 141.25 214.316406 141.25 L 210.582031 141.636719 L 214.386719 141.015625 C 214.386719 141.015625 210.6875 141.210938 210.542969 141.210938 C 210.398438 141.210938 214.09375 140.746094 214.09375 140.746094 L 211.53125 140.703125 L 214.277344 140.359375 L 209.917969 140.359375 L 214.128906 140.042969 L 209.882812 139.851562 L 214.09375 139.816406 L 210.214844 139.191406 L 213.472656 139.582031 L 210.820312 138.328125 "/>
<path style=" stroke:none;fill-rule:nonzero;fill:rgb(89.7995%,74.508667%,60.778809%);fill-opacity:1;" d="M 201.144531 143.105469 C 201.144531 143.105469 200.394531 144.328125 202.03125 144.417969 C 202.03125 144.417969 201.769531 144.539062 201.050781 144.695312 C 200.335938 144.84375 199.660156 145.929688 199.527344 145.410156 C 199.394531 144.882812 201.089844 142.972656 201.089844 142.972656 C 201.089844 142.972656 201.503906 142.738281 201.144531 143.105469 "/>
<path style=" stroke:none;fill-rule:nonzero;fill:rgb(89.7995%,74.508667%,60.778809%);fill-opacity:1;" d="M 230.765625 140.410156 C 230.765625 140.410156 225.003906 144.851562 218.5625 145.859375 C 213.0625 146.71875 207.8125 144.539062 204.722656 144.171875 C 201.632812 143.800781 205.136719 144.242188 204.121094 144.582031 C 204.121094 144.582031 208.527344 146.078125 212.40625 146.714844 C 216.285156 147.355469 222.726562 146.363281 225.851562 145.121094 C 228.976562 143.875 231.847656 140.410156 231.847656 140.410156 L 230.765625 140.410156 "/>
<path style=" stroke:none;fill-rule:nonzero;fill:rgb(9.408569%,7.058716%,8.239746%);fill-opacity:1;" d="M 201.5625 144.546875 C 201.5625 144.546875 202.367188 143.691406 204.574219 144.242188 C 206.777344 144.796875 216.4375 148.722656 224.746094 143.042969 C 229.253906 139.960938 232.855469 137.332031 232.855469 137.332031 C 232.855469 137.332031 231.117188 139.832031 235.386719 139.34375 C 235.386719 139.34375 230.675781 139.746094 231.394531 141.957031 C 231.394531 141.957031 231.109375 142.101562 232.886719 143.664062 C 232.886719 143.664062 232.402344 143.941406 230.144531 143.539062 C 230.144531 143.539062 229.125 144.648438 227.546875 145 C 227.546875 145 228.824219 144.898438 229.546875 145.566406 C 229.546875 145.566406 227.9375 144.949219 224.378906 146.464844 C 224.378906 146.464844 225.566406 146.667969 225.625 147.472656 C 225.625 147.472656 224.777344 146.5625 222.742188 146.714844 C 220.710938 146.867188 217.300781 149.898438 204.949219 145.121094 C 204.949219 145.121094 203.742188 144.382812 201.5625 144.546875 "/>
<path style=" stroke:none;fill-rule:nonzero;fill:rgb(54.899597%,34.509277%,33.329773%);fill-opacity:1;" d="M 213.472656 139.582031 L 210.214844 139.191406 L 214.09375 139.816406 L 209.882812 139.851562 L 214.128906 140.042969 L 209.917969 140.359375 L 214.277344 140.359375 L 211.53125 140.703125 L 214.09375 140.746094 C 214.09375 140.746094 210.398438 141.210938 210.542969 141.210938 C 210.6875 141.210938 214.386719 141.015625 214.386719 141.015625 L 210.582031 141.636719 L 214.316406 141.25 C 214.316406 141.25 210.289062 142.335938 210.433594 142.335938 C 210.582031 142.335938 214.714844 141.171875 214.714844 141.171875 L 211.054688 142.882812 L 214.9375 141.40625 C 214.9375 141.40625 211.203125 143.34375 211.347656 143.34375 C 211.492188 143.34375 214.640625 141.867188 214.535156 141.867188 C 214.421875 141.867188 211.566406 143.570312 211.714844 143.460938 C 211.863281 143.34375 214.789062 141.828125 214.789062 141.828125 C 214.789062 141.828125 212.082031 143.882812 212.226562 143.882812 C 212.375 143.882812 215.082031 141.90625 215.082031 141.90625 L 212.445312 144.546875 L 215.226562 142.058594 L 213.105469 145.125 L 215.375 142.140625 L 214.128906 145.164062 L 215.628906 142.214844 L 215.046875 146.25 L 215.777344 142.175781 L 215.777344 145.9375 L 215.960938 142.101562 L 216.507812 146.015625 L 216.179688 142.058594 L 216.984375 145.589844 L 216.4375 141.949219 L 217.535156 145.632812 L 216.730469 141.867188 L 218.667969 145.9375 L 217.058594 141.828125 L 219.21875 145.046875 L 217.316406 141.828125 L 219.621094 144.621094 L 217.460938 141.480469 L 220.0625 143.882812 L 217.644531 141.210938 L 220.71875 142.992188 C 220.71875 142.992188 217.679688 141.054688 217.828125 141.054688 C 217.972656 141.054688 220.167969 141.75 220.167969 141.75 L 217.863281 140.820312 L 221.011719 141.25 L 217.828125 140.585938 L 220.9375 140.585938 L 217.828125 140.394531 C 217.828125 140.394531 221.558594 140.042969 221.375 140.042969 C 221.195312 140.042969 217.792969 140.042969 217.792969 140.042969 L 221.050781 139.386719 L 217.644531 139.695312 L 220.867188 138.613281 L 217.496094 139.347656 L 220.167969 137.25 L 217.316406 139.109375 L 219.765625 136.632812 L 217.058594 138.996094 L 218.558594 136.089844 L 216.875 138.882812 L 217.277344 134.964844 L 216.507812 138.839844 L 216.257812 134.65625 L 216.257812 138.917969 L 215.519531 134.265625 L 215.960938 138.882812 L 214.242188 134.113281 L 215.777344 138.917969 L 213.253906 134.65625 L 215.558594 138.960938 L 212.484375 135.277344 L 215.335938 139.074219 L 212.042969 135.738281 L 214.972656 139.152344 L 211.566406 136.128906 L 214.679688 139.230469 L 210.800781 136.828125 L 214.496094 139.425781 L 210.6875 137.566406 L 214.460938 139.582031 L 210.507812 138.183594 L 213.472656 139.582031 "/>
<path style=" stroke:none;fill-rule:nonzero;fill:rgb(13.328552%,7.058716%,5.488586%);fill-opacity:1;" d="M 217.851562 140.445312 C 217.851562 141.613281 216.957031 142.558594 215.859375 142.558594 C 214.757812 142.558594 213.863281 141.613281 213.863281 140.445312 C 213.863281 139.28125 214.757812 138.339844 215.859375 138.339844 C 216.957031 138.339844 217.851562 139.28125 217.851562 140.445312 "/>
<path style=" stroke:none;fill-rule:nonzero;fill:rgb(11.759949%,8.239746%,8.628845%);fill-opacity:1;" d="M 219.496094 136.097656 C 218.90625 136.070312 218.320312 136.054688 217.738281 136.054688 C 217.546875 136.054688 217.355469 136.054688 217.167969 136.058594 L 217.171875 136.003906 C 217.777344 135.953125 218.371094 135.921875 218.945312 135.902344 L 219.496094 136.097656 "/>
<path style=" stroke:none;fill-rule:nonzero;fill:rgb(75.289917%,69.018555%,65.489197%);fill-opacity:1;" d="M 218.679688 136.234375 C 218.613281 136.234375 218.550781 136.234375 218.488281 136.226562 L 218.558594 136.089844 L 218.476562 136.226562 C 218.03125 136.171875 217.589844 136.136719 217.160156 136.117188 L 217.167969 136.058594 C 217.355469 136.054688 217.546875 136.054688 217.738281 136.054688 C 218.320312 136.054688 218.90625 136.070312 219.496094 136.097656 L 219.503906 136.101562 C 219.214844 136.179688 218.9375 136.234375 218.679688 136.234375 "/>
<path style=" stroke:none;fill-rule:nonzero;fill:rgb(46.669006%,29.40979%,27.059937%);fill-opacity:1;" d="M 218.488281 136.226562 L 218.558594 136.089844 L 218.488281 136.226562 M 218.476562 136.226562 L 218.558594 136.089844 L 218.476562 136.226562 "/>
<path style=" stroke:none;fill-rule:nonzero;fill:rgb(11.759949%,8.239746%,8.628845%);fill-opacity:1;" d="M 216.34375 136.085938 L 216.339844 136.078125 C 216.585938 136.050781 216.828125 136.03125 217.070312 136.011719 L 217.0625 136.0625 C 216.820312 136.066406 216.582031 136.074219 216.34375 136.085938 "/>
<path style=" stroke:none;fill-rule:nonzero;fill:rgb(75.289917%,69.018555%,65.489197%);fill-opacity:1;" d="M 217.050781 136.113281 C 216.894531 136.105469 216.746094 136.105469 216.59375 136.105469 C 216.527344 136.105469 216.457031 136.105469 216.390625 136.105469 L 216.34375 136.105469 L 216.34375 136.085938 C 216.582031 136.074219 216.820312 136.066406 217.0625 136.0625 L 217.050781 136.113281 "/>
<path style=" stroke:none;fill-rule:nonzero;fill:rgb(46.669006%,29.40979%,27.059937%);fill-opacity:1;" d="M 217.050781 136.113281 L 217.0625 136.0625 L 217.070312 136.011719 L 217.050781 136.113281 M 216.34375 136.105469 L 216.339844 136.105469 L 216.339844 136.078125 L 216.34375 136.085938 L 216.34375 136.105469 "/>
<path style=" stroke:none;fill-rule:nonzero;fill:rgb(11.759949%,8.239746%,8.628845%);fill-opacity:1;" d="M 216.144531 136.097656 C 216.179688 136.09375 216.21875 136.089844 216.257812 136.085938 L 216.257812 136.089844 C 216.21875 136.09375 216.179688 136.097656 216.144531 136.097656 "/>
<path style=" stroke:none;fill-rule:nonzero;fill:rgb(75.289917%,69.018555%,65.489197%);fill-opacity:1;" d="M 216.257812 136.105469 C 216.25 136.105469 216.246094 136.105469 216.242188 136.105469 L 216.234375 136.101562 L 216.097656 136.101562 C 216.113281 136.101562 216.125 136.101562 216.144531 136.097656 C 216.179688 136.097656 216.21875 136.09375 216.257812 136.089844 L 216.257812 136.105469 "/>
<path style=" stroke:none;fill-rule:nonzero;fill:rgb(7.449341%,3.138733%,1.959229%);fill-opacity:1;" d="M 216.097656 136.101562 L 216.074219 136.101562 L 216.097656 136.101562 M 216.097656 136.101562 L 216.109375 136.101562 L 216.097656 136.101562 M 216.113281 136.101562 L 216.128906 136.101562 L 216.113281 136.101562 M 216.070312 136.101562 L 216.050781 136.101562 L 216.070312 136.101562 M 216.132812 136.101562 L 216.144531 136.101562 L 216.132812 136.101562 M 216.050781 136.101562 L 216.03125 136.101562 L 216.050781 136.101562 M 216.148438 136.101562 L 216.164062 136.101562 L 216.148438 136.101562 M 216.027344 136.101562 L 216.011719 136.101562 L 216.027344 136.101562 M 216.167969 136.101562 L 216.179688 136.101562 L 216.167969 136.101562 M 216.003906 136.101562 L 215.984375 136.101562 L 216.003906 136.101562 M 216.179688 136.101562 L 216.199219 136.101562 L 216.179688 136.101562 M 215.980469 136.101562 L 215.964844 136.101562 L 215.980469 136.101562 M 216.199219 136.101562 L 216.214844 136.101562 L 216.199219 136.101562 M 215.957031 136.101562 L 215.941406 136.101562 L 215.957031 136.101562 M 216.21875 136.101562 L 216.230469 136.101562 L 216.21875 136.101562 M 215.933594 136.101562 L 215.917969 136.105469 L 215.933594 136.101562 M 216.234375 136.101562 L 216.246094 136.105469 L 216.234375 136.101562 M 215.910156 136.105469 L 215.898438 136.105469 L 215.910156 136.105469 M 216.253906 136.105469 L 216.257812 136.105469 L 216.253906 136.105469 M 215.890625 136.105469 L 215.875 136.105469 L 215.890625 136.105469 M 215.867188 136.105469 L 215.855469 136.105469 L 215.867188 136.105469 M 215.839844 136.105469 L 215.832031 136.105469 L 215.839844 136.105469 M 215.820312 136.105469 L 215.8125 136.105469 L 215.820312 136.105469 M 216.339844 136.105469 L 216.351562 136.105469 L 216.339844 136.105469 M 216.355469 136.105469 L 216.367188 136.105469 L 216.355469 136.105469 M 216.371094 136.105469 L 216.386719 136.105469 L 216.371094 136.105469 M 216.386719 136.105469 L 216.402344 136.105469 L 216.386719 136.105469 M 216.40625 136.105469 L 216.417969 136.105469 L 216.40625 136.105469 M 216.421875 136.105469 L 216.433594 136.105469 L 216.421875 136.105469 M 216.4375 136.105469 L 216.453125 136.105469 L 216.4375 136.105469 M 216.457031 136.105469 L 216.46875 136.105469 L 216.457031 136.105469 M 216.472656 136.105469 L 216.488281 136.105469 L 216.472656 136.105469 M 216.488281 136.105469 L 216.507812 136.105469 L 216.488281 136.105469 M 216.507812 136.105469 L 216.519531 136.105469 L 216.507812 136.105469 M 216.527344 136.105469 L 216.539062 136.113281 L 216.527344 136.105469 M 216.542969 136.113281 L 216.550781 136.113281 L 216.542969 136.113281 M 216.5625 136.113281 L 216.570312 136.113281 L 216.5625 136.113281 M 216.578125 136.113281 L 216.585938 136.117188 L 216.578125 136.113281 M 216.597656 136.117188 L 216.601562 136.117188 L 216.597656 136.117188 M 216.617188 136.117188 L 216.625 136.117188 L 216.617188 136.117188 M 216.632812 136.117188 L 216.636719 136.117188 L 216.632812 136.117188 M 216.652344 136.117188 L 216.65625 136.117188 L 216.652344 136.117188 M 216.664062 136.117188 L 216.667969 136.117188 L 216.664062 136.117188 M 216.683594 136.121094 L 216.683594 136.121094 M 216.71875 136.121094 L 216.71875 136.121094 M 220.3125 136.804688 C 220.605469 137.21875 220.847656 137.683594 221.035156 138.175781 C 221.285156 138.226562 221.535156 138.292969 221.789062 138.359375 C 221.679688 137.945312 221.527344 137.546875 221.34375 137.167969 C 221.007812 137.035156 220.660156 136.914062 220.3125 136.804688 M 210.746094 136.953125 C 210.378906 137.070312 210.023438 137.199219 209.671875 137.332031 C 209.636719 137.414062 209.605469 137.496094 209.570312 137.582031 C 209.414062 137.972656 209.289062 138.386719 209.199219 138.808594 C 209.460938 138.722656 209.722656 138.640625 209.992188 138.5625 C 210.171875 137.984375 210.425781 137.445312 210.746094 136.953125 "/>
<path style=" stroke:none;fill-rule:nonzero;fill:rgb(13.328552%,7.058716%,5.488586%);fill-opacity:1;" d="M 216.097656 136.101562 L 215.933594 136.101562 L 215.917969 136.105469 L 215.8125 136.105469 L 216.050781 137.632812 C 216.117188 137.632812 216.183594 137.632812 216.257812 137.632812 L 216.257812 136.105469 L 216.246094 136.105469 L 216.234375 136.101562 L 216.097656 136.101562 M 216.339844 136.105469 L 216.4375 137.632812 C 216.539062 137.632812 216.644531 137.636719 216.75 137.636719 L 217.046875 136.140625 C 216.9375 136.132812 216.828125 136.125 216.71875 136.121094 L 216.683594 136.121094 L 216.667969 136.117188 L 216.585938 136.117188 L 216.578125 136.113281 L 216.539062 136.113281 L 216.527344 136.105469 L 216.339844 136.105469 M 215.695312 136.105469 C 215.453125 136.117188 215.210938 136.125 214.972656 136.140625 L 215.515625 137.644531 C 215.625 137.640625 215.734375 137.636719 215.84375 137.636719 L 215.695312 136.105469 M 214.890625 136.144531 C 214.648438 136.164062 214.410156 136.1875 214.175781 136.210938 L 215.035156 137.667969 C 215.148438 137.660156 215.257812 137.65625 215.371094 137.652344 L 214.890625 136.144531 M 217.15625 136.148438 L 217.003906 137.644531 C 217.203125 137.648438 217.402344 137.660156 217.605469 137.675781 L 218.417969 136.324219 C 218.003906 136.246094 217.582031 136.1875 217.15625 136.148438 M 214.089844 136.222656 C 213.84375 136.253906 213.597656 136.285156 213.359375 136.324219 L 214.511719 137.707031 C 214.632812 137.695312 214.753906 137.683594 214.871094 137.679688 L 214.089844 136.222656 M 218.4375 136.328125 L 217.734375 137.683594 C 217.984375 137.695312 218.238281 137.71875 218.488281 137.75 L 219.761719 136.640625 C 219.324219 136.515625 218.882812 136.410156 218.4375 136.328125 M 213.28125 136.332031 C 213.097656 136.367188 212.914062 136.398438 212.730469 136.4375 L 214.03125 137.75 C 214.128906 137.738281 214.222656 137.726562 214.320312 137.71875 L 213.28125 136.332031 M 212.65625 136.449219 C 212.460938 136.488281 212.269531 136.535156 212.078125 136.582031 L 213.46875 137.816406 C 213.574219 137.800781 213.683594 137.789062 213.789062 137.777344 L 212.65625 136.449219 M 212.03125 136.589844 C 211.652344 136.679688 211.28125 136.785156 210.917969 136.902344 L 212.609375 137.945312 C 212.832031 137.910156 213.058594 137.875 213.289062 137.84375 L 212.03125 136.589844 M 219.761719 136.640625 L 218.648438 137.765625 C 218.851562 137.789062 219.058594 137.8125 219.265625 137.84375 L 220.167969 137.25 L 219.394531 137.863281 C 219.929688 137.945312 220.480469 138.046875 221.035156 138.175781 C 220.847656 137.683594 220.605469 137.21875 220.3125 136.804688 C 220.128906 136.75 219.945312 136.691406 219.761719 136.640625 M 210.910156 136.902344 C 210.855469 136.917969 210.800781 136.9375 210.746094 136.953125 C 210.425781 137.445312 210.171875 137.984375 209.992188 138.5625 C 210.261719 138.484375 210.539062 138.402344 210.820312 138.328125 L 210.507812 138.183594 L 210.882812 138.316406 C 211.160156 138.246094 211.441406 138.183594 211.730469 138.121094 L 210.6875 137.566406 L 211.796875 138.105469 C 212.007812 138.058594 212.226562 138.015625 212.4375 137.980469 L 210.910156 136.902344 "/>
<path style=" stroke:none;fill-rule:nonzero;fill:rgb(30.979919%,18.429565%,16.079712%);fill-opacity:1;" d="M 217.203125 135.710938 L 217.128906 135.714844 L 217.050781 136.113281 L 217.046875 136.140625 L 216.75 137.636719 C 216.832031 137.636719 216.917969 137.640625 217.003906 137.644531 L 217.15625 136.148438 L 217.160156 136.117188 L 217.203125 135.710938 M 216.320312 135.773438 L 216.257812 135.773438 L 216.257812 137.632812 L 216.277344 137.632812 C 216.332031 137.632812 216.382812 137.632812 216.4375 137.632812 L 216.339844 136.105469 L 216.320312 135.773438 M 215.765625 135.808594 L 215.667969 135.816406 L 215.695312 136.105469 L 215.84375 137.636719 C 215.910156 137.636719 215.980469 137.636719 216.050781 137.632812 L 215.8125 136.105469 L 215.765625 135.808594 M 214.875 135.867188 L 214.804688 135.871094 L 214.890625 136.144531 L 215.371094 137.652344 C 215.421875 137.648438 215.46875 137.648438 215.515625 137.644531 L 214.972656 136.140625 L 214.875 135.867188 M 214.007812 135.925781 L 213.933594 135.933594 L 214.089844 136.222656 L 214.871094 137.679688 C 214.925781 137.675781 214.984375 137.675781 215.035156 137.667969 L 214.175781 136.210938 L 214.007812 135.925781 M 213.082031 135.988281 L 213.023438 135.996094 L 213.28125 136.332031 L 214.320312 137.71875 C 214.386719 137.71875 214.445312 137.710938 214.511719 137.707031 L 213.359375 136.324219 L 213.082031 135.988281 M 212.339844 136.042969 L 212.304688 136.042969 L 212.65625 136.449219 L 213.789062 137.777344 C 213.871094 137.769531 213.953125 137.761719 214.03125 137.75 L 212.730469 136.4375 L 212.339844 136.042969 M 218.558594 136.089844 L 218.417969 136.324219 L 217.605469 137.675781 C 217.648438 137.675781 217.691406 137.679688 217.734375 137.683594 L 218.4375 136.328125 L 218.488281 136.226562 L 218.558594 136.089844 M 211.652344 136.203125 L 211.648438 136.203125 L 212.03125 136.589844 L 213.289062 137.84375 C 213.347656 137.835938 213.410156 137.824219 213.46875 137.816406 L 212.078125 136.582031 L 211.652344 136.203125 M 219.765625 136.632812 L 219.761719 136.640625 L 218.488281 137.75 C 218.542969 137.753906 218.597656 137.761719 218.648438 137.765625 L 219.761719 136.640625 L 219.765625 136.632812 M 210.800781 136.828125 L 210.910156 136.902344 L 212.4375 137.980469 C 212.496094 137.96875 212.550781 137.960938 212.609375 137.945312 L 210.917969 136.902344 L 210.800781 136.828125 M 220.167969 137.25 L 219.265625 137.84375 C 219.304688 137.851562 219.347656 137.855469 219.394531 137.863281 L 220.167969 137.25 M 210.6875 137.566406 L 211.730469 138.121094 L 211.796875 138.105469 L 210.6875 137.566406 M 210.507812 138.183594 L 210.820312 138.328125 L 210.882812 138.316406 L 210.507812 138.183594 "/>
<path style=" stroke:none;fill-rule:nonzero;fill:rgb(9.408569%,7.058716%,8.239746%);fill-opacity:1;" d="M 199.527344 145.160156 C 199.527344 145.160156 205.984375 137.191406 216.097656 136.101562 C 221.882812 135.480469 226.394531 136.300781 228.984375 137.117188 C 231.617188 137.949219 232.265625 138.78125 230.253906 138.101562 C 230.253906 138.101562 235.339844 138.214844 234.546875 133.308594 C 234.546875 133.308594 234.660156 138.816406 226.640625 137.140625 C 226.640625 137.140625 229.578125 136.660156 230.253906 134.265625 C 230.253906 134.265625 227.546875 137.140625 224.496094 135.824219 C 224.496094 135.824219 228.335938 136.660156 229.238281 131.753906 C 229.238281 131.753906 227.546875 136.058594 221.441406 134.863281 C 221.441406 134.863281 225.398438 134.507812 225.738281 131.515625 C 225.738281 131.515625 220.765625 135.585938 215.90625 134.625 C 215.90625 134.625 219.183594 132.671875 219.257812 131.316406 C 219.257812 131.316406 217.753906 133.386719 213.308594 134.507812 C 210.058594 135.324219 203.933594 138.101562 199.527344 145.160156 "/>
<path style=" stroke:none;fill-rule:nonzero;fill:rgb(30.979919%,18.429565%,16.079712%);fill-opacity:1;" d="M 200.429688 142.289062 C 200.429688 142.289062 208 126.488281 227.65625 131.992188 C 227.65625 131.992188 208.226562 124.453125 200.429688 142.289062 "/>
<path style=" stroke:none;fill-rule:nonzero;fill:rgb(75.289917%,69.018555%,65.489197%);fill-opacity:1;" d="M 218.417969 136.324219 C 218.382812 136.316406 218.347656 136.308594 218.3125 136.304688 C 218.125 136.273438 217.933594 136.242188 217.746094 136.214844 C 217.550781 136.1875 217.351562 136.164062 217.15625 136.148438 L 217.15625 136.144531 L 217.160156 136.117188 C 217.589844 136.136719 218.03125 136.171875 218.476562 136.226562 L 218.417969 136.324219 "/>
<path style=" stroke:none;fill-rule:nonzero;fill:rgb(14.898682%,8.239746%,6.269836%);fill-opacity:1;" d="M 218.3125 136.304688 C 218.125 136.273438 217.933594 136.242188 217.746094 136.214844 C 217.933594 136.242188 218.125 136.273438 218.3125 136.304688 "/>
<path style=" stroke:none;fill-rule:nonzero;fill:rgb(46.669006%,29.40979%,27.059937%);fill-opacity:1;" d="M 218.417969 136.324219 L 218.476562 136.226562 L 218.417969 136.324219 M 217.15625 136.148438 L 217.15625 136.144531 L 217.15625 136.148438 "/>
<path style=" stroke:none;fill-rule:nonzero;fill:rgb(14.898682%,8.239746%,6.269836%);fill-opacity:1;" d="M 218.417969 136.324219 C 218.003906 136.246094 217.582031 136.1875 217.15625 136.148438 C 217.351562 136.164062 217.550781 136.1875 217.746094 136.214844 C 217.933594 136.242188 218.125 136.273438 218.3125 136.304688 C 218.347656 136.308594 218.382812 136.316406 218.417969 136.324219 "/>
<path style=" stroke:none;fill-rule:nonzero;fill:rgb(11.759949%,8.239746%,8.628845%);fill-opacity:1;" d="M 231.042969 137.957031 C 230.527344 137.824219 229.78125 137.644531 228.875 137.445312 C 229.058594 137.453125 229.238281 137.460938 229.410156 137.460938 C 229.589844 137.460938 229.761719 137.453125 229.925781 137.445312 C 230.414062 137.632812 230.789062 137.808594 231.042969 137.957031 M 227 137.058594 C 224.824219 136.644531 222.15625 136.234375 219.515625 136.101562 C 219.679688 136.054688 219.851562 136.003906 220.019531 135.949219 C 220.09375 135.929688 220.167969 135.90625 220.242188 135.882812 C 223.347656 135.894531 225.914062 136.300781 227.808594 136.785156 C 227.492188 136.914062 227.210938 137.003906 227 137.058594 "/>
<path style=" stroke:none;fill-rule:nonzero;fill:rgb(75.289917%,69.018555%,65.489197%);fill-opacity:1;" d="M 228.171875 140.671875 C 226.566406 140.027344 224.71875 139.355469 224.71875 139.355469 C 223.726562 138.941406 222.75 138.613281 221.789062 138.359375 C 221.679688 137.945312 221.527344 137.546875 221.34375 137.167969 C 221.011719 137.039062 220.671875 136.917969 220.328125 136.808594 C 220.140625 136.75 219.949219 136.691406 219.761719 136.640625 L 219.765625 136.632812 L 219.761719 136.640625 C 219.324219 136.515625 218.882812 136.410156 218.4375 136.328125 L 218.488281 136.226562 C 219.460938 136.347656 220.460938 136.542969 221.457031 136.796875 L 219.503906 136.101562 C 219.507812 136.101562 219.511719 136.101562 219.515625 136.101562 C 222.15625 136.234375 224.824219 136.644531 227 137.058594 C 226.777344 137.121094 226.640625 137.140625 226.640625 137.140625 C 227.46875 137.316406 228.210938 137.410156 228.875 137.445312 C 229.78125 137.644531 230.527344 137.824219 231.042969 137.957031 C 231.085938 137.980469 231.121094 138.003906 231.15625 138.023438 C 230.714844 138.09375 230.382812 138.101562 230.285156 138.101562 C 230.265625 138.101562 230.253906 138.101562 230.253906 138.101562 C 230.773438 138.277344 231.117188 138.351562 231.292969 138.351562 C 231.523438 138.351562 231.46875 138.222656 231.15625 138.023438 C 231.164062 138.023438 231.171875 138.019531 231.179688 138.019531 C 231.3125 138.109375 231.429688 138.199219 231.527344 138.289062 C 231.453125 138.34375 231.378906 138.398438 231.300781 138.457031 C 230.835938 138.699219 230.363281 139.082031 229.828125 139.503906 C 229.324219 139.859375 228.769531 140.253906 228.171875 140.671875 M 228.039062 139.152344 C 228.3125 139.269531 228.570312 139.386719 228.824219 139.503906 C 228.695312 139.410156 228.617188 139.355469 228.617188 139.355469 L 228.039062 139.152344 M 219.761719 136.640625 L 219.765625 136.632812 L 219.761719 136.640625 "/>
<path style=" stroke:none;fill-rule:nonzero;fill:rgb(14.898682%,8.239746%,6.269836%);fill-opacity:1;" d="M 220.328125 136.808594 C 220.324219 136.808594 220.316406 136.808594 220.3125 136.804688 C 220.132812 136.75 219.949219 136.691406 219.761719 136.640625 C 219.949219 136.691406 220.140625 136.75 220.328125 136.808594 M 219.761719 136.640625 L 219.761719 136.640625 M 219.761719 136.640625 C 219.324219 136.515625 218.882812 136.410156 218.4375 136.328125 C 218.882812 136.410156 219.324219 136.515625 219.761719 136.640625 "/>
<path style=" stroke:none;fill-rule:nonzero;fill:rgb(11.759949%,8.239746%,8.628845%);fill-opacity:1;" d="M 228.171875 140.671875 C 228.769531 140.253906 229.324219 139.859375 229.828125 139.503906 C 229.339844 139.886719 228.800781 140.300781 228.171875 140.671875 M 231.300781 138.457031 C 231.378906 138.398438 231.453125 138.34375 231.527344 138.289062 C 231.542969 138.304688 231.554688 138.316406 231.566406 138.328125 C 231.476562 138.367188 231.390625 138.40625 231.300781 138.457031 "/>
<path style=" stroke:none;fill-rule:nonzero;fill:rgb(46.669006%,29.40979%,27.059937%);fill-opacity:1;" d="M 219.761719 136.640625 L 219.765625 136.632812 L 219.761719 136.640625 M 218.476562 136.25 L 218.488281 136.226562 L 218.476562 136.25 "/>
<path style=" stroke:none;fill-rule:nonzero;fill:rgb(59.21936%,50.19989%,45.489502%);fill-opacity:1;" d="M 228.824219 139.503906 C 228.570312 139.386719 228.3125 139.269531 228.039062 139.152344 L 228.617188 139.355469 C 228.617188 139.355469 228.695312 139.410156 228.824219 139.503906 "/>
<path style=" stroke:none;fill-rule:nonzero;fill:rgb(59.21936%,50.19989%,45.489502%);fill-opacity:1;" d="M 221.457031 136.796875 C 220.460938 136.542969 219.460938 136.347656 218.488281 136.226562 C 218.550781 136.234375 218.613281 136.234375 218.679688 136.234375 C 218.9375 136.234375 219.214844 136.179688 219.503906 136.101562 L 221.457031 136.796875 "/>
<path style=" stroke:none;fill-rule:nonzero;fill:rgb(10.198975%,5.099487%,3.529358%);fill-opacity:1;" d="M 221.789062 138.359375 C 221.679688 137.945312 221.527344 137.546875 221.34375 137.167969 C 221.007812 137.035156 220.660156 136.914062 220.3125 136.804688 C 220.316406 136.808594 220.324219 136.808594 220.328125 136.808594 C 220.671875 136.917969 221.011719 137.039062 221.34375 137.167969 C 221.527344 137.546875 221.679688 137.945312 221.789062 138.359375 "/>
<path style=" stroke:none;fill-rule:nonzero;fill:rgb(11.759949%,8.239746%,8.628845%);fill-opacity:1;" d="M 229.925781 137.445312 C 229.648438 137.339844 229.332031 137.226562 228.984375 137.117188 C 228.628906 137.003906 228.234375 136.890625 227.808594 136.785156 C 227.886719 136.75 227.964844 136.714844 228.046875 136.675781 C 228.636719 136.867188 229.394531 137.132812 230.074219 137.433594 C 230.027344 137.4375 229.976562 137.441406 229.925781 137.445312 "/>
<path style=" stroke:none;fill-rule:nonzero;fill:rgb(14.898682%,8.239746%,6.269836%);fill-opacity:1;" d="M 220.3125 136.804688 C 220.128906 136.75 219.945312 136.691406 219.761719 136.640625 C 219.949219 136.691406 220.132812 136.75 220.3125 136.804688 M 219.761719 136.640625 C 219.324219 136.515625 218.882812 136.410156 218.4375 136.328125 C 218.882812 136.410156 219.324219 136.515625 219.761719 136.640625 "/>
<path style=" stroke:none;fill-rule:nonzero;fill:rgb(11.759949%,8.239746%,8.628845%);fill-opacity:1;" d="M 231.292969 138.351562 C 231.117188 138.351562 230.773438 138.277344 230.253906 138.101562 C 230.253906 138.101562 230.265625 138.101562 230.285156 138.101562 C 230.382812 138.101562 230.714844 138.09375 231.15625 138.023438 C 231.46875 138.222656 231.523438 138.351562 231.292969 138.351562 M 231.15625 138.023438 C 231.121094 138.003906 231.085938 137.980469 231.042969 137.957031 C 230.789062 137.808594 230.414062 137.632812 229.925781 137.445312 C 229.976562 137.441406 230.027344 137.4375 230.074219 137.433594 C 230.488281 137.617188 230.871094 137.816406 231.179688 138.019531 C 231.171875 138.019531 231.164062 138.023438 231.15625 138.023438 M 229.410156 137.460938 C 229.238281 137.460938 229.058594 137.453125 228.875 137.445312 C 228.210938 137.410156 227.46875 137.316406 226.640625 137.140625 C 226.640625 137.140625 226.777344 137.121094 227 137.058594 C 227.210938 137.003906 227.492188 136.914062 227.808594 136.785156 C 228.234375 136.890625 228.628906 137.003906 228.984375 137.117188 C 229.332031 137.226562 229.648438 137.339844 229.925781 137.445312 C 229.761719 137.453125 229.589844 137.460938 229.410156 137.460938 M 227.808594 136.785156 C 225.914062 136.300781 223.347656 135.894531 220.242188 135.882812 C 220.640625 135.765625 221.03125 135.664062 221.398438 135.664062 C 221.535156 135.664062 221.664062 135.679688 221.789062 135.710938 L 227.023438 136.351562 C 227.089844 136.378906 227.496094 136.496094 228.046875 136.675781 C 227.964844 136.714844 227.886719 136.75 227.808594 136.785156 "/>
<path style=" stroke:none;fill-rule:nonzero;fill:rgb(75.289917%,69.018555%,65.489197%);fill-opacity:1;" d="M 202.539062 142.210938 C 204.222656 140.792969 206.570312 139.132812 209.457031 137.882812 C 209.367188 138.132812 209.296875 138.386719 209.234375 138.648438 C 209.222656 138.699219 209.210938 138.753906 209.199219 138.808594 C 206.210938 139.808594 203.902344 141.234375 202.539062 142.210938 "/>
<path style=" stroke:none;fill-rule:nonzero;fill:rgb(14.898682%,8.239746%,6.269836%);fill-opacity:1;" d="M 209.234375 138.648438 C 209.296875 138.386719 209.367188 138.132812 209.457031 137.882812 C 209.371094 138.132812 209.296875 138.386719 209.234375 138.648438 "/>
<path style=" stroke:none;fill-rule:nonzero;fill:rgb(10.198975%,5.099487%,3.529358%);fill-opacity:1;" d="M 209.199219 138.808594 C 209.210938 138.753906 209.222656 138.699219 209.234375 138.648438 C 209.296875 138.386719 209.371094 138.132812 209.457031 137.882812 C 209.351562 138.183594 209.265625 138.496094 209.199219 138.808594 "/>
<path style=" stroke:none;fill-rule:nonzero;fill:rgb(11.759949%,8.239746%,8.628845%);fill-opacity:1;" d="M 201.144531 143.304688 L 201.179688 143.238281 C 201.320312 142.964844 201.585938 142.628906 201.929688 142.25 C 203.910156 140.332031 206.601562 138.691406 209.570312 137.582031 C 209.53125 137.679688 209.492188 137.78125 209.457031 137.882812 C 206.570312 139.132812 204.222656 140.792969 202.539062 142.210938 C 201.632812 142.855469 201.144531 143.304688 201.144531 143.304688 "/>
<path style=" stroke:none;fill-rule:nonzero;fill:rgb(75.289917%,69.018555%,65.489197%);fill-opacity:1;" d="M 217.042969 136.140625 C 217.027344 136.140625 217.011719 136.136719 216.992188 136.136719 C 216.914062 136.128906 216.835938 136.125 216.757812 136.121094 C 216.746094 136.121094 216.730469 136.121094 216.71875 136.121094 L 216.714844 136.121094 C 216.652344 136.117188 216.59375 136.113281 216.535156 136.113281 L 216.527344 136.105469 L 216.4375 136.105469 L 216.453125 136.105469 L 216.4375 136.105469 C 216.488281 136.105469 216.542969 136.105469 216.59375 136.105469 C 216.746094 136.105469 216.894531 136.105469 217.050781 136.113281 L 217.042969 136.140625 M 216.71875 136.121094 L 216.71875 136.121094 M 216.507812 136.105469 L 216.519531 136.105469 L 216.507812 136.105469 M 216.488281 136.105469 L 216.507812 136.105469 L 216.488281 136.105469 M 216.472656 136.105469 L 216.488281 136.105469 L 216.472656 136.105469 M 216.457031 136.105469 L 216.46875 136.105469 L 216.457031 136.105469 "/>
<path style=" stroke:none;fill-rule:nonzero;fill:rgb(14.898682%,8.239746%,6.269836%);fill-opacity:1;" d="M 216.992188 136.136719 C 216.914062 136.132812 216.835938 136.125 216.757812 136.121094 C 216.835938 136.125 216.914062 136.128906 216.992188 136.136719 M 216.714844 136.121094 L 216.683594 136.121094 L 216.667969 136.117188 L 216.585938 136.117188 L 216.578125 136.113281 L 216.535156 136.113281 C 216.59375 136.113281 216.652344 136.117188 216.714844 136.121094 M 216.683594 136.121094 L 216.683594 136.121094 M 216.664062 136.117188 L 216.667969 136.117188 L 216.664062 136.117188 M 216.652344 136.117188 L 216.65625 136.117188 L 216.652344 136.117188 M 216.632812 136.117188 L 216.636719 136.117188 L 216.632812 136.117188 M 216.617188 136.117188 L 216.625 136.117188 L 216.617188 136.117188 M 216.597656 136.117188 L 216.601562 136.117188 L 216.597656 136.117188 M 216.578125 136.113281 L 216.585938 136.117188 L 216.578125 136.113281 M 216.5625 136.113281 L 216.570312 136.113281 L 216.5625 136.113281 M 216.542969 136.113281 L 216.550781 136.113281 L 216.542969 136.113281 "/>
<path style=" stroke:none;fill-rule:nonzero;fill:rgb(46.669006%,29.40979%,27.059937%);fill-opacity:1;" d="M 217.046875 136.140625 L 217.042969 136.140625 L 217.050781 136.113281 L 217.046875 136.140625 "/>
<path style=" stroke:none;fill-rule:nonzero;fill:rgb(10.198975%,5.099487%,3.529358%);fill-opacity:1;" d="M 216.71875 136.121094 L 216.71875 136.121094 M 216.683594 136.121094 L 216.683594 136.121094 M 216.667969 136.117188 L 216.664062 136.117188 L 216.667969 136.117188 M 216.65625 136.117188 L 216.652344 136.117188 L 216.65625 136.117188 M 216.636719 136.117188 L 216.632812 136.117188 L 216.636719 136.117188 M 216.625 136.117188 L 216.617188 136.117188 L 216.625 136.117188 M 216.601562 136.117188 L 216.597656 136.117188 L 216.601562 136.117188 M 216.585938 136.117188 L 216.578125 136.113281 L 216.585938 136.117188 M 216.570312 136.113281 L 216.5625 136.113281 L 216.570312 136.113281 M 216.550781 136.113281 L 216.542969 136.113281 L 216.550781 136.113281 M 216.519531 136.105469 L 216.507812 136.105469 L 216.519531 136.105469 M 216.507812 136.105469 L 216.488281 136.105469 L 216.507812 136.105469 M 216.488281 136.105469 L 216.472656 136.105469 L 216.488281 136.105469 M 216.46875 136.105469 L 216.457031 136.105469 L 216.46875 136.105469 M 216.453125 136.105469 L 216.4375 136.105469 L 216.453125 136.105469 "/>
<path style=" stroke:none;fill-rule:nonzero;fill:rgb(14.898682%,8.239746%,6.269836%);fill-opacity:1;" d="M 217.046875 136.140625 C 216.9375 136.132812 216.828125 136.125 216.71875 136.121094 L 216.683594 136.121094 L 216.667969 136.117188 L 216.585938 136.117188 L 216.578125 136.113281 L 216.539062 136.113281 L 216.527344 136.105469 L 216.4375 136.105469 L 216.527344 136.105469 L 216.535156 136.113281 L 216.578125 136.113281 L 216.585938 136.117188 L 216.667969 136.117188 L 216.683594 136.121094 L 216.71875 136.121094 C 216.730469 136.121094 216.746094 136.121094 216.757812 136.121094 C 216.835938 136.125 216.914062 136.132812 216.992188 136.136719 C 217.011719 136.136719 217.027344 136.140625 217.042969 136.140625 L 217.046875 136.140625 "/>
<path style=" stroke:none;fill-rule:nonzero;fill:rgb(9.408569%,7.058716%,8.239746%);fill-opacity:1;" d="M 240.074219 131.46875 C 240.074219 131.46875 240.109375 136.054688 235.3125 137.632812 C 230.042969 139.367188 227.65625 135.5 227.65625 135.5 L 229.65625 133.601562 C 229.65625 133.601562 236.316406 134.589844 240.074219 131.46875 "/>
<path style=" stroke:none;fill-rule:nonzero;fill:rgb(9.408569%,7.058716%,8.239746%);fill-opacity:1;" d="M 164.359375 144.53125 C 164.359375 144.53125 160.507812 134.847656 143.796875 133.257812 C 132.175781 132.152344 131.082031 136.109375 125.28125 136.351562 C 125.28125 136.351562 129.023438 138.167969 133.660156 138.238281 C 134.933594 138.257812 137.152344 137.804688 139.757812 137.347656 C 144.433594 136.535156 150.359375 135.722656 154.378906 137.632812 C 159.738281 140.175781 164.847656 145.160156 164.847656 145.160156 L 164.359375 144.53125 "/>
<g clip-path="url(#clip3)" clip-rule="nonzero">
<path style=" stroke:none;fill-rule:nonzero;fill:rgb(9.408569%,7.058716%,8.239746%);fill-opacity:1;" d="M 169.695312 128.621094 C 169.695312 128.621094 169.753906 131.316406 153.488281 125.878906 C 142.988281 122.371094 137.375 121.148438 132.796875 123.835938 C 127.3125 127.054688 121.03125 130.410156 121.03125 130.410156 L 130.507812 121.773438 C 130.507812 121.773438 135.910156 116.5625 147.933594 118.949219 C 158.980469 121.140625 170.683594 121.773438 169.695312 128.621094 "/>
</g>
<path style=" stroke:none;fill-rule:nonzero;fill:rgb(100%,100%,100%);fill-opacity:1;" d="M 132.527344 138.167969 C 132.527344 138.167969 142.136719 135.464844 149.144531 136.171875 C 156.144531 136.875 162.703125 141.132812 164.847656 145.160156 C 164.847656 145.160156 165.699219 146.015625 162.8125 144.546875 C 162.019531 144.144531 159.761719 145.859375 153.320312 146.464844 C 146.882812 147.070312 141.238281 147.535156 134.234375 140.671875 L 132.527344 138.167969 "/>
<path style=" stroke:none;fill-rule:nonzero;fill:rgb(13.328552%,7.058716%,5.488586%);fill-opacity:1;" d="M 148.277344 136.101562 C 150.628906 136.101562 152.777344 136.589844 154.699219 137.332031 C 155.09375 138.222656 155.320312 139.21875 155.320312 140.273438 C 155.320312 144.074219 152.410156 147.15625 148.820312 147.15625 C 145.234375 147.15625 142.324219 144.074219 142.324219 140.273438 C 142.324219 139.15625 142.578125 138.101562 143.027344 137.167969 C 144.695312 136.53125 146.4375 136.101562 148.277344 136.101562 "/>
<path style=" stroke:none;fill-rule:nonzero;fill:rgb(30.979919%,18.429565%,16.079712%);fill-opacity:1;" d="M 148.117188 137.632812 L 148.117188 138.917969 L 148.320312 137.632812 C 148.253906 137.632812 148.1875 137.632812 148.117188 137.632812 M 147.9375 137.632812 C 147.835938 137.632812 147.726562 137.636719 147.625 137.636719 L 147.863281 138.839844 L 147.9375 137.632812 M 148.53125 137.636719 L 148.410156 138.882812 L 148.855469 137.644531 C 148.75 137.640625 148.640625 137.636719 148.53125 137.636719 M 147.371094 137.644531 C 147.171875 137.648438 146.96875 137.660156 146.769531 137.675781 L 147.496094 138.882812 L 147.371094 137.644531 M 149 137.652344 L 148.59375 138.917969 L 149.335938 137.667969 C 149.226562 137.660156 149.113281 137.65625 149 137.652344 M 149.5 137.679688 L 148.816406 138.960938 L 149.859375 137.707031 C 149.738281 137.695312 149.621094 137.683594 149.5 137.679688 M 146.636719 137.683594 C 146.386719 137.695312 146.132812 137.71875 145.882812 137.75 L 147.3125 138.996094 L 146.636719 137.683594 M 150.050781 137.71875 L 149.035156 139.074219 L 150.339844 137.75 C 150.242188 137.738281 150.148438 137.726562 150.050781 137.71875 M 145.726562 137.765625 C 145.523438 137.789062 145.316406 137.8125 145.109375 137.84375 L 147.058594 139.109375 L 145.726562 137.765625 M 150.582031 137.777344 L 149.398438 139.152344 L 150.902344 137.816406 C 150.796875 137.800781 150.6875 137.789062 150.582031 137.777344 M 151.082031 137.84375 L 149.691406 139.230469 L 151.761719 137.945312 C 151.539062 137.910156 151.3125 137.875 151.082031 137.84375 M 144.980469 137.863281 C 144.441406 137.945312 143.890625 138.046875 143.335938 138.175781 C 143.066406 138.886719 142.917969 139.667969 142.917969 140.492188 C 142.917969 142.753906 144.050781 144.726562 145.753906 145.820312 L 147.3125 141.828125 L 145.152344 145.046875 L 147.058594 141.828125 L 144.753906 144.621094 L 146.914062 141.480469 L 144.3125 143.882812 L 146.730469 141.210938 L 143.652344 142.992188 C 143.652344 142.992188 146.691406 141.054688 146.546875 141.054688 C 146.398438 141.054688 144.203125 141.75 144.203125 141.75 L 146.511719 140.820312 L 143.363281 141.25 L 146.546875 140.585938 L 143.433594 140.585938 L 146.546875 140.394531 C 146.546875 140.394531 142.8125 140.042969 142.996094 140.042969 C 143.179688 140.042969 146.578125 140.042969 146.578125 140.042969 L 143.324219 139.386719 L 146.730469 139.695312 L 143.507812 138.613281 L 146.875 139.347656 L 144.980469 137.863281 M 151.933594 137.980469 L 149.878906 139.425781 L 152.574219 138.105469 C 152.363281 138.058594 152.148438 138.015625 151.933594 137.980469 M 152.644531 138.121094 L 149.910156 139.582031 L 153.488281 138.316406 C 153.214844 138.246094 152.929688 138.183594 152.644531 138.121094 M 153.550781 138.328125 L 150.902344 139.582031 L 154.160156 139.191406 L 150.277344 139.816406 L 154.488281 139.851562 L 150.242188 140.042969 L 154.453125 140.359375 L 150.09375 140.359375 L 152.839844 140.703125 L 150.277344 140.746094 C 150.277344 140.746094 153.972656 141.210938 153.828125 141.210938 C 153.683594 141.210938 149.984375 141.015625 149.984375 141.015625 L 153.792969 141.636719 L 150.058594 141.25 C 150.058594 141.25 154.085938 142.335938 153.9375 142.335938 C 153.792969 142.335938 149.65625 141.171875 149.65625 141.171875 L 153.316406 142.882812 L 149.4375 141.40625 C 149.4375 141.40625 153.167969 143.34375 153.023438 143.34375 C 152.917969 143.34375 151.265625 142.582031 150.382812 142.15625 C 150.878906 142.433594 151.605469 142.859375 152.105469 143.148438 C 152.40625 143.308594 152.621094 143.429688 152.65625 143.460938 L 152.664062 143.464844 C 152.648438 143.464844 152.421875 143.332031 152.105469 143.148438 C 151.214844 142.671875 149.582031 141.828125 149.582031 141.828125 C 149.582031 141.828125 152.292969 143.882812 152.144531 143.882812 C 151.996094 143.882812 149.289062 141.90625 149.289062 141.90625 L 151.925781 144.546875 L 149.144531 142.058594 L 151.265625 145.125 L 148.996094 142.140625 L 150.242188 145.164062 L 148.742188 142.214844 L 149.328125 146.25 L 148.59375 142.175781 L 148.59375 145.9375 L 148.410156 142.101562 L 147.863281 146.015625 L 148.191406 142.058594 L 147.386719 145.589844 L 147.9375 141.949219 L 146.835938 145.632812 L 147.644531 141.867188 L 145.757812 145.824219 C 146.640625 146.390625 147.683594 146.714844 148.792969 146.714844 C 152.039062 146.714844 154.667969 143.933594 154.667969 140.492188 C 154.667969 139.820312 154.566406 139.167969 154.378906 138.5625 C 154.109375 138.484375 153.832031 138.402344 153.550781 138.328125 "/>
<path style=" stroke:none;fill-rule:nonzero;fill:rgb(89.7995%,74.508667%,60.778809%);fill-opacity:1;" d="M 163.230469 143.105469 C 163.230469 143.105469 163.976562 144.328125 162.339844 144.417969 C 162.339844 144.417969 162.605469 144.539062 163.320312 144.695312 C 164.035156 144.84375 164.714844 145.929688 164.847656 145.410156 C 164.980469 144.882812 163.28125 142.972656 163.28125 142.972656 C 163.28125 142.972656 162.871094 142.738281 163.230469 143.105469 "/>
<path style=" stroke:none;fill-rule:nonzero;fill:rgb(89.7995%,74.508667%,60.778809%);fill-opacity:1;" d="M 133.609375 140.410156 C 133.609375 140.410156 139.371094 144.851562 145.808594 145.859375 C 151.308594 146.71875 156.5625 144.539062 159.648438 144.171875 C 162.738281 143.800781 159.234375 144.242188 160.25 144.582031 C 160.25 144.582031 155.847656 146.078125 151.96875 146.714844 C 148.085938 147.355469 141.648438 146.363281 138.523438 145.121094 C 135.398438 143.875 132.527344 140.410156 132.527344 140.410156 L 133.609375 140.410156 "/>
<path style=" stroke:none;fill-rule:nonzero;fill:rgb(9.408569%,7.058716%,8.239746%);fill-opacity:1;" d="M 162.8125 144.546875 C 162.8125 144.546875 162.003906 143.691406 159.796875 144.242188 C 157.597656 144.796875 147.933594 148.722656 139.628906 143.042969 C 135.117188 139.960938 131.515625 137.332031 131.515625 137.332031 C 131.515625 137.332031 133.253906 139.832031 128.988281 139.34375 C 128.988281 139.34375 133.695312 139.746094 132.976562 141.957031 C 132.976562 141.957031 133.261719 142.101562 131.484375 143.664062 C 131.484375 143.664062 131.96875 143.941406 134.230469 143.539062 C 134.230469 143.539062 135.246094 144.648438 136.828125 145 C 136.828125 145 135.546875 144.898438 134.828125 145.566406 C 134.828125 145.566406 136.433594 144.949219 139.992188 146.464844 C 139.992188 146.464844 138.804688 146.667969 138.746094 147.472656 C 138.746094 147.472656 139.597656 146.5625 141.628906 146.714844 C 143.664062 146.867188 147.070312 149.898438 159.421875 145.121094 C 159.421875 145.121094 160.628906 144.382812 162.8125 144.546875 "/>
<path style=" stroke:none;fill-rule:nonzero;fill:rgb(54.899597%,34.509277%,33.329773%);fill-opacity:1;" d="M 150.902344 139.582031 L 154.160156 139.191406 L 150.277344 139.816406 L 154.488281 139.851562 L 150.242188 140.042969 L 154.453125 140.359375 L 150.09375 140.359375 L 152.839844 140.703125 L 150.277344 140.746094 C 150.277344 140.746094 153.972656 141.210938 153.828125 141.210938 C 153.683594 141.210938 149.984375 141.015625 149.984375 141.015625 L 153.792969 141.636719 L 150.058594 141.25 C 150.058594 141.25 154.085938 142.335938 153.9375 142.335938 C 153.792969 142.335938 149.65625 141.171875 149.65625 141.171875 L 153.316406 142.882812 L 149.4375 141.40625 C 149.4375 141.40625 153.167969 143.34375 153.023438 143.34375 C 152.878906 143.34375 149.730469 141.867188 149.839844 141.867188 C 149.949219 141.867188 152.804688 143.570312 152.65625 143.460938 C 152.511719 143.34375 149.582031 141.828125 149.582031 141.828125 C 149.582031 141.828125 152.292969 143.882812 152.144531 143.882812 C 151.996094 143.882812 149.289062 141.90625 149.289062 141.90625 L 151.925781 144.546875 L 149.144531 142.058594 L 151.265625 145.125 L 149 142.140625 L 150.242188 145.164062 L 148.742188 142.214844 L 149.328125 146.25 L 148.59375 142.175781 L 148.59375 145.9375 L 148.410156 142.101562 L 147.863281 146.015625 L 148.191406 142.058594 L 147.386719 145.589844 L 147.9375 141.949219 L 146.835938 145.632812 L 147.644531 141.867188 L 145.703125 145.9375 L 147.3125 141.828125 L 145.152344 145.046875 L 147.058594 141.828125 L 144.753906 144.621094 L 146.914062 141.480469 L 144.3125 143.882812 L 146.730469 141.210938 L 143.652344 142.992188 C 143.652344 142.992188 146.691406 141.054688 146.546875 141.054688 C 146.398438 141.054688 144.203125 141.75 144.203125 141.75 L 146.511719 140.820312 L 143.363281 141.25 L 146.546875 140.585938 L 143.433594 140.585938 L 146.546875 140.394531 C 146.546875 140.394531 142.8125 140.042969 142.996094 140.042969 C 143.179688 140.042969 146.578125 140.042969 146.578125 140.042969 L 143.324219 139.386719 L 146.730469 139.695312 L 143.507812 138.613281 L 146.875 139.347656 L 144.203125 137.25 L 147.058594 139.109375 L 144.605469 136.632812 L 147.3125 138.996094 L 145.8125 136.089844 L 147.496094 138.882812 L 147.09375 134.964844 L 147.863281 138.839844 L 148.117188 134.65625 L 148.117188 138.917969 L 148.851562 134.265625 L 148.410156 138.882812 L 150.128906 134.113281 L 148.59375 138.917969 L 151.121094 134.65625 L 148.816406 138.960938 L 151.886719 135.277344 L 149.035156 139.074219 L 152.328125 135.738281 L 149.398438 139.152344 L 152.804688 136.128906 L 149.691406 139.230469 L 153.574219 136.828125 L 149.878906 139.425781 L 153.683594 137.566406 L 149.910156 139.582031 L 153.867188 138.183594 L 150.902344 139.582031 "/>
<path style=" stroke:none;fill-rule:nonzero;fill:rgb(13.328552%,7.058716%,5.488586%);fill-opacity:1;" d="M 146.519531 140.445312 C 146.519531 141.613281 147.414062 142.558594 148.515625 142.558594 C 149.617188 142.558594 150.507812 141.613281 150.507812 140.445312 C 150.507812 139.28125 149.617188 138.339844 148.515625 138.339844 C 147.414062 138.339844 146.519531 139.28125 146.519531 140.445312 "/>
<path style=" stroke:none;fill-rule:nonzero;fill:rgb(11.759949%,8.239746%,8.628845%);fill-opacity:1;" d="M 144.878906 136.097656 L 145.425781 135.902344 C 146.003906 135.921875 146.59375 135.953125 147.199219 136.003906 L 147.207031 136.058594 C 147.015625 136.054688 146.824219 136.054688 146.632812 136.054688 C 146.054688 136.054688 145.464844 136.070312 144.878906 136.097656 "/>
<path style=" stroke:none;fill-rule:nonzero;fill:rgb(75.289917%,69.018555%,65.489197%);fill-opacity:1;" d="M 145.695312 136.234375 C 145.433594 136.234375 145.15625 136.179688 144.867188 136.101562 L 144.878906 136.097656 C 145.464844 136.070312 146.054688 136.054688 146.632812 136.054688 C 146.824219 136.054688 147.015625 136.054688 147.207031 136.058594 L 147.210938 136.117188 C 146.78125 136.136719 146.34375 136.171875 145.894531 136.226562 L 145.8125 136.089844 L 145.882812 136.226562 C 145.820312 136.234375 145.757812 136.234375 145.695312 136.234375 "/>
<path style=" stroke:none;fill-rule:nonzero;fill:rgb(46.669006%,29.40979%,27.059937%);fill-opacity:1;" d="M 145.882812 136.226562 L 145.8125 136.089844 L 145.882812 136.226562 M 145.894531 136.226562 L 145.8125 136.089844 L 145.894531 136.226562 "/>
<path style=" stroke:none;fill-rule:nonzero;fill:rgb(11.759949%,8.239746%,8.628845%);fill-opacity:1;" d="M 148.03125 136.085938 C 147.792969 136.074219 147.550781 136.066406 147.3125 136.0625 L 147.300781 136.011719 C 147.542969 136.03125 147.785156 136.050781 148.03125 136.078125 L 148.03125 136.085938 "/>
<path style=" stroke:none;fill-rule:nonzero;fill:rgb(75.289917%,69.018555%,65.489197%);fill-opacity:1;" d="M 147.324219 136.113281 L 147.3125 136.0625 C 147.550781 136.066406 147.792969 136.074219 148.03125 136.085938 L 148.027344 136.105469 L 147.980469 136.105469 C 147.914062 136.105469 147.847656 136.105469 147.777344 136.105469 C 147.625 136.105469 147.476562 136.105469 147.324219 136.113281 "/>
<path style=" stroke:none;fill-rule:nonzero;fill:rgb(46.669006%,29.40979%,27.059937%);fill-opacity:1;" d="M 147.320312 136.113281 L 147.300781 136.011719 L 147.324219 136.113281 C 147.320312 136.113281 147.320312 136.113281 147.320312 136.113281 M 148.03125 136.105469 L 148.027344 136.105469 L 148.03125 136.085938 L 148.03125 136.078125 L 148.03125 136.105469 "/>
<path style=" stroke:none;fill-rule:nonzero;fill:rgb(11.759949%,8.239746%,8.628845%);fill-opacity:1;" d="M 148.230469 136.097656 C 148.191406 136.097656 148.152344 136.09375 148.117188 136.089844 L 148.117188 136.085938 C 148.15625 136.089844 148.191406 136.09375 148.230469 136.097656 "/>
<path style=" stroke:none;fill-rule:nonzero;fill:rgb(75.289917%,69.018555%,65.489197%);fill-opacity:1;" d="M 148.117188 136.105469 L 148.117188 136.089844 C 148.152344 136.09375 148.191406 136.097656 148.230469 136.097656 C 148.246094 136.101562 148.261719 136.101562 148.277344 136.101562 L 148.136719 136.101562 L 148.132812 136.105469 C 148.125 136.105469 148.121094 136.105469 148.117188 136.105469 "/>
<path style=" stroke:none;fill-rule:nonzero;fill:rgb(7.449341%,3.138733%,1.959229%);fill-opacity:1;" d="M 148.277344 136.101562 L 148.296875 136.101562 L 148.277344 136.101562 M 148.277344 136.101562 L 148.261719 136.101562 L 148.277344 136.101562 M 148.257812 136.101562 L 148.242188 136.101562 L 148.257812 136.101562 M 148.300781 136.101562 L 148.320312 136.101562 L 148.300781 136.101562 M 148.242188 136.101562 L 148.226562 136.101562 L 148.242188 136.101562 M 148.320312 136.101562 L 148.339844 136.101562 L 148.320312 136.101562 M 148.222656 136.101562 L 148.207031 136.101562 L 148.222656 136.101562 M 148.34375 136.101562 L 148.363281 136.101562 L 148.34375 136.101562 M 148.207031 136.101562 L 148.191406 136.101562 L 148.207031 136.101562 M 148.367188 136.101562 L 148.390625 136.101562 L 148.367188 136.101562 M 148.191406 136.101562 L 148.171875 136.101562 L 148.191406 136.101562 M 148.390625 136.101562 L 148.410156 136.101562 L 148.390625 136.101562 M 148.171875 136.101562 L 148.15625 136.101562 L 148.171875 136.101562 M 148.414062 136.101562 L 148.429688 136.101562 L 148.414062 136.101562 M 148.152344 136.101562 L 148.140625 136.101562 L 148.152344 136.101562 M 148.4375 136.101562 L 148.453125 136.105469 L 148.4375 136.101562 M 148.136719 136.101562 L 148.125 136.105469 L 148.136719 136.101562 M 148.460938 136.105469 L 148.472656 136.105469 L 148.460938 136.105469 M 148.117188 136.105469 L 148.117188 136.105469 M 148.484375 136.105469 L 148.496094 136.105469 L 148.484375 136.105469 M 148.503906 136.105469 L 148.515625 136.105469 L 148.503906 136.105469 M 148.53125 136.105469 L 148.539062 136.105469 L 148.53125 136.105469 M 148.550781 136.105469 L 148.558594 136.105469 L 148.550781 136.105469 M 148.03125 136.105469 L 148.023438 136.105469 L 148.03125 136.105469 M 148.015625 136.105469 L 148.003906 136.105469 L 148.015625 136.105469 M 148 136.105469 L 147.984375 136.105469 L 148 136.105469 M 147.984375 136.105469 L 147.972656 136.105469 L 147.984375 136.105469 M 147.96875 136.105469 L 147.953125 136.105469 L 147.96875 136.105469 M 147.949219 136.105469 L 147.9375 136.105469 L 147.949219 136.105469 M 147.933594 136.105469 L 147.917969 136.105469 L 147.933594 136.105469 M 147.914062 136.105469 L 147.90625 136.105469 L 147.914062 136.105469 M 147.898438 136.105469 L 147.882812 136.105469 L 147.898438 136.105469 M 147.882812 136.105469 L 147.867188 136.105469 L 147.882812 136.105469 M 147.863281 136.105469 L 147.851562 136.105469 L 147.863281 136.105469 M 147.847656 136.105469 L 147.835938 136.113281 L 147.847656 136.105469 M 147.828125 136.113281 L 147.820312 136.113281 L 147.828125 136.113281 M 147.808594 136.113281 L 147.800781 136.113281 L 147.808594 136.113281 M 147.792969 136.113281 L 147.789062 136.117188 L 147.792969 136.113281 M 147.773438 136.117188 L 147.769531 136.117188 L 147.773438 136.117188 M 147.753906 136.117188 L 147.75 136.117188 L 147.753906 136.117188 M 147.742188 136.117188 L 147.734375 136.117188 L 147.742188 136.117188 M 147.71875 136.117188 L 147.714844 136.117188 L 147.71875 136.117188 M 147.710938 136.117188 L 147.707031 136.117188 L 147.710938 136.117188 M 147.691406 136.121094 L 147.6875 136.121094 L 147.691406 136.121094 M 147.65625 136.121094 L 147.652344 136.121094 L 147.65625 136.121094 M 144.058594 136.804688 C 143.710938 136.914062 143.367188 137.035156 143.027344 137.167969 C 142.84375 137.546875 142.695312 137.945312 142.582031 138.359375 C 142.835938 138.292969 143.089844 138.226562 143.335938 138.175781 C 143.527344 137.683594 143.765625 137.21875 144.058594 136.804688 M 153.628906 136.953125 C 153.945312 137.445312 154.203125 137.984375 154.378906 138.5625 C 154.648438 138.640625 154.914062 138.722656 155.171875 138.808594 C 155.082031 138.386719 154.957031 137.972656 154.800781 137.582031 C 154.765625 137.496094 154.734375 137.414062 154.699219 137.332031 C 154.347656 137.199219 153.992188 137.070312 153.628906 136.953125 "/>
<path style=" stroke:none;fill-rule:nonzero;fill:rgb(13.328552%,7.058716%,5.488586%);fill-opacity:1;" d="M 148.277344 136.101562 L 148.136719 136.101562 L 148.125 136.105469 L 148.117188 136.105469 L 148.117188 137.632812 C 148.1875 137.632812 148.253906 137.632812 148.320312 137.632812 L 148.5625 136.105469 L 148.453125 136.105469 L 148.4375 136.101562 L 148.277344 136.101562 M 148.03125 136.105469 L 147.847656 136.105469 L 147.835938 136.113281 L 147.792969 136.113281 L 147.789062 136.117188 L 147.707031 136.117188 L 147.691406 136.121094 L 147.652344 136.121094 C 147.546875 136.125 147.433594 136.132812 147.328125 136.140625 L 147.625 137.636719 C 147.726562 137.636719 147.835938 137.632812 147.9375 137.632812 L 148.03125 136.105469 M 148.675781 136.105469 L 148.53125 137.636719 C 148.640625 137.636719 148.75 137.640625 148.855469 137.644531 L 149.398438 136.140625 C 149.160156 136.125 148.917969 136.117188 148.675781 136.105469 M 149.480469 136.144531 L 149 137.652344 C 149.113281 137.65625 149.226562 137.660156 149.335938 137.667969 L 150.199219 136.210938 C 149.960938 136.1875 149.722656 136.164062 149.480469 136.144531 M 147.214844 136.148438 C 146.789062 136.1875 146.367188 136.246094 145.953125 136.324219 L 146.769531 137.675781 C 146.96875 137.660156 147.171875 137.648438 147.371094 137.644531 L 147.214844 136.148438 M 150.28125 136.222656 L 149.5 137.679688 C 149.621094 137.683594 149.738281 137.695312 149.859375 137.707031 L 151.015625 136.324219 C 150.773438 136.285156 150.527344 136.253906 150.28125 136.222656 M 145.9375 136.328125 C 145.488281 136.410156 145.046875 136.515625 144.613281 136.640625 L 145.882812 137.75 C 146.132812 137.71875 146.386719 137.695312 146.636719 137.683594 L 145.9375 136.328125 M 151.089844 136.332031 L 150.050781 137.71875 C 150.148438 137.726562 150.242188 137.738281 150.339844 137.75 L 151.640625 136.4375 C 151.460938 136.398438 151.273438 136.367188 151.089844 136.332031 M 151.714844 136.449219 L 150.582031 137.777344 C 150.6875 137.789062 150.796875 137.800781 150.902344 137.816406 L 152.296875 136.582031 C 152.105469 136.535156 151.910156 136.488281 151.714844 136.449219 M 152.339844 136.589844 L 151.082031 137.84375 C 151.3125 137.875 151.539062 137.910156 151.761719 137.945312 L 153.457031 136.902344 C 153.089844 136.785156 152.71875 136.679688 152.339844 136.589844 M 144.613281 136.640625 C 144.425781 136.691406 144.242188 136.75 144.058594 136.804688 C 143.765625 137.21875 143.527344 137.683594 143.335938 138.175781 C 143.890625 138.046875 144.441406 137.945312 144.980469 137.863281 L 144.203125 137.25 L 145.109375 137.84375 C 145.316406 137.8125 145.523438 137.789062 145.726562 137.765625 L 144.613281 136.640625 M 153.464844 136.902344 L 151.933594 137.980469 C 152.148438 138.015625 152.363281 138.058594 152.574219 138.105469 L 153.683594 137.566406 L 152.644531 138.121094 C 152.929688 138.183594 153.214844 138.246094 153.488281 138.316406 L 153.867188 138.183594 L 153.550781 138.328125 C 153.832031 138.402344 154.109375 138.484375 154.378906 138.5625 C 154.203125 137.984375 153.945312 137.445312 153.628906 136.953125 L 153.625 136.953125 C 153.574219 136.9375 153.519531 136.917969 153.464844 136.902344 "/>
<path style=" stroke:none;fill-rule:nonzero;fill:rgb(30.979919%,18.429565%,16.079712%);fill-opacity:1;" d="M 147.171875 135.710938 L 147.210938 136.117188 L 147.214844 136.148438 L 147.371094 137.644531 C 147.453125 137.640625 147.539062 137.636719 147.625 137.636719 L 147.328125 136.140625 L 147.320312 136.113281 L 147.246094 135.714844 L 147.171875 135.710938 M 148.050781 135.773438 L 148.03125 136.105469 L 147.9375 137.632812 C 147.988281 137.632812 148.042969 137.632812 148.09375 137.632812 L 148.117188 137.632812 L 148.117188 135.773438 L 148.050781 135.773438 M 148.605469 135.808594 L 148.5625 136.105469 L 148.320312 137.632812 C 148.390625 137.636719 148.460938 137.636719 148.53125 137.636719 L 148.675781 136.105469 L 148.703125 135.816406 L 148.605469 135.808594 M 149.496094 135.867188 L 149.398438 136.140625 L 148.855469 137.644531 C 148.902344 137.648438 148.953125 137.648438 149 137.652344 L 149.480469 136.144531 L 149.566406 135.871094 L 149.496094 135.867188 M 150.367188 135.925781 L 150.199219 136.210938 L 149.335938 137.667969 C 149.390625 137.675781 149.445312 137.675781 149.5 137.679688 L 150.28125 136.222656 L 150.4375 135.933594 L 150.367188 135.925781 M 151.292969 135.988281 L 151.015625 136.324219 L 149.859375 137.707031 C 149.925781 137.710938 149.988281 137.71875 150.050781 137.71875 L 151.089844 136.332031 L 151.347656 135.996094 L 151.292969 135.988281 M 152.03125 136.042969 L 151.640625 136.4375 L 150.339844 137.75 C 150.421875 137.761719 150.5 137.769531 150.582031 137.777344 L 151.714844 136.449219 L 152.070312 136.042969 L 152.03125 136.042969 M 145.8125 136.089844 L 145.882812 136.226562 L 145.9375 136.328125 L 146.636719 137.683594 C 146.679688 137.679688 146.722656 137.675781 146.769531 137.675781 L 145.953125 136.324219 L 145.8125 136.089844 M 152.722656 136.203125 L 152.296875 136.582031 L 150.902344 137.816406 C 150.964844 137.824219 151.027344 137.835938 151.082031 137.84375 L 152.339844 136.589844 L 152.726562 136.203125 L 152.722656 136.203125 M 144.605469 136.632812 L 144.613281 136.640625 L 145.726562 137.765625 C 145.777344 137.761719 145.832031 137.753906 145.882812 137.75 L 144.613281 136.640625 L 144.605469 136.632812 M 153.574219 136.828125 L 153.457031 136.902344 L 151.761719 137.945312 C 151.820312 137.960938 151.878906 137.96875 151.933594 137.980469 L 153.464844 136.902344 L 153.574219 136.828125 M 144.203125 137.25 L 144.980469 137.863281 C 145.023438 137.855469 145.066406 137.851562 145.109375 137.84375 L 144.203125 137.25 M 153.683594 137.566406 L 152.574219 138.105469 L 152.644531 138.121094 L 153.683594 137.566406 M 153.867188 138.183594 L 153.488281 138.316406 L 153.550781 138.328125 L 153.867188 138.183594 "/>
<path style=" stroke:none;fill-rule:nonzero;fill:rgb(9.408569%,7.058716%,8.239746%);fill-opacity:1;" d="M 164.847656 145.160156 C 164.847656 145.160156 158.386719 137.191406 148.277344 136.101562 C 142.488281 135.480469 137.976562 136.300781 135.386719 137.117188 C 132.753906 137.949219 132.105469 138.78125 134.117188 138.101562 C 134.117188 138.101562 129.035156 138.214844 129.824219 133.308594 C 129.824219 133.308594 129.710938 138.816406 137.730469 137.140625 C 137.730469 137.140625 134.792969 136.660156 134.117188 134.265625 C 134.117188 134.265625 136.828125 137.140625 139.875 135.824219 C 139.875 135.824219 136.035156 136.660156 135.132812 131.753906 C 135.132812 131.753906 136.828125 136.058594 142.929688 134.863281 C 142.929688 134.863281 138.976562 134.507812 138.636719 131.515625 C 138.636719 131.515625 143.605469 135.585938 148.464844 134.625 C 148.464844 134.625 145.1875 132.671875 145.113281 131.316406 C 145.113281 131.316406 146.617188 133.386719 151.0625 134.507812 C 154.316406 135.324219 160.441406 138.101562 164.847656 145.160156 "/>
<path style=" stroke:none;fill-rule:nonzero;fill:rgb(30.979919%,18.429565%,16.079712%);fill-opacity:1;" d="M 163.941406 142.289062 C 163.941406 142.289062 156.371094 126.488281 136.714844 131.992188 C 136.714844 131.992188 156.144531 124.453125 163.941406 142.289062 "/>
<path style=" stroke:none;fill-rule:nonzero;fill:rgb(75.289917%,69.018555%,65.489197%);fill-opacity:1;" d="M 145.953125 136.324219 L 145.894531 136.226562 C 146.34375 136.171875 146.78125 136.136719 147.210938 136.117188 L 147.214844 136.136719 L 147.214844 136.148438 C 147.019531 136.164062 146.824219 136.1875 146.628906 136.214844 C 146.4375 136.242188 146.25 136.273438 146.058594 136.304688 C 146.023438 136.308594 145.988281 136.316406 145.953125 136.324219 "/>
<path style=" stroke:none;fill-rule:nonzero;fill:rgb(14.898682%,8.239746%,6.269836%);fill-opacity:1;" d="M 146.058594 136.304688 C 146.25 136.273438 146.4375 136.242188 146.628906 136.214844 C 146.4375 136.242188 146.25 136.273438 146.058594 136.304688 "/>
<path style=" stroke:none;fill-rule:nonzero;fill:rgb(46.669006%,29.40979%,27.059937%);fill-opacity:1;" d="M 145.953125 136.324219 L 145.894531 136.226562 L 145.953125 136.324219 M 147.214844 136.148438 L 147.214844 136.136719 L 147.214844 136.148438 "/>
<path style=" stroke:none;fill-rule:nonzero;fill:rgb(14.898682%,8.239746%,6.269836%);fill-opacity:1;" d="M 145.953125 136.324219 C 145.988281 136.316406 146.023438 136.308594 146.058594 136.304688 C 146.25 136.273438 146.4375 136.242188 146.628906 136.214844 C 146.824219 136.1875 147.019531 136.164062 147.214844 136.148438 C 146.789062 136.1875 146.367188 136.246094 145.953125 136.324219 "/>
<path style=" stroke:none;fill-rule:nonzero;fill:rgb(11.759949%,8.239746%,8.628845%);fill-opacity:1;" d="M 133.328125 137.957031 C 133.582031 137.808594 133.957031 137.632812 134.445312 137.445312 C 134.613281 137.453125 134.785156 137.460938 134.960938 137.460938 C 135.136719 137.460938 135.3125 137.453125 135.496094 137.445312 C 134.589844 137.644531 133.84375 137.824219 133.328125 137.957031 M 137.371094 137.058594 C 137.164062 137.003906 136.878906 136.914062 136.566406 136.785156 C 138.457031 136.300781 141.027344 135.894531 144.128906 135.882812 C 144.203125 135.90625 144.277344 135.929688 144.351562 135.949219 C 144.519531 136.003906 144.691406 136.054688 144.859375 136.101562 C 142.21875 136.234375 139.546875 136.644531 137.371094 137.058594 "/>
<path style=" stroke:none;fill-rule:nonzero;fill:rgb(75.289917%,69.018555%,65.489197%);fill-opacity:1;" d="M 136.199219 140.671875 C 135.605469 140.253906 135.050781 139.863281 134.542969 139.503906 C 134.007812 139.082031 133.539062 138.699219 133.074219 138.453125 C 132.996094 138.398438 132.917969 138.34375 132.84375 138.289062 C 132.945312 138.199219 133.0625 138.109375 133.191406 138.019531 C 133.199219 138.019531 133.207031 138.023438 133.214844 138.023438 C 132.902344 138.222656 132.847656 138.351562 133.078125 138.351562 C 133.257812 138.351562 133.597656 138.277344 134.117188 138.101562 C 134.117188 138.101562 134.105469 138.101562 134.085938 138.101562 C 133.988281 138.101562 133.65625 138.09375 133.214844 138.023438 C 133.25 138.003906 133.285156 137.980469 133.328125 137.957031 C 133.84375 137.824219 134.589844 137.644531 135.496094 137.445312 C 136.160156 137.410156 136.902344 137.316406 137.730469 137.140625 C 137.730469 137.140625 137.59375 137.121094 137.371094 137.058594 C 139.546875 136.644531 142.21875 136.234375 144.859375 136.101562 C 144.863281 136.101562 144.863281 136.101562 144.867188 136.101562 L 142.917969 136.796875 C 143.914062 136.542969 144.910156 136.347656 145.882812 136.226562 L 145.933594 136.328125 C 145.488281 136.410156 145.046875 136.515625 144.613281 136.640625 L 144.605469 136.632812 L 144.609375 136.640625 C 144.421875 136.691406 144.230469 136.75 144.042969 136.808594 C 143.699219 136.917969 143.363281 137.039062 143.027344 137.167969 C 142.84375 137.546875 142.695312 137.945312 142.582031 138.359375 C 141.625 138.613281 140.644531 138.941406 139.652344 139.355469 C 139.652344 139.355469 137.804688 140.027344 136.199219 140.671875 M 136.332031 139.152344 L 135.753906 139.355469 C 135.753906 139.355469 135.675781 139.410156 135.546875 139.503906 C 135.800781 139.386719 136.0625 139.269531 136.332031 139.152344 "/>
<path style=" stroke:none;fill-rule:nonzero;fill:rgb(14.898682%,8.239746%,6.269836%);fill-opacity:1;" d="M 144.042969 136.808594 C 144.230469 136.75 144.421875 136.691406 144.609375 136.640625 L 144.613281 136.640625 C 144.425781 136.691406 144.242188 136.75 144.058594 136.804688 C 144.054688 136.808594 144.050781 136.808594 144.042969 136.808594 M 144.613281 136.640625 C 145.046875 136.515625 145.488281 136.410156 145.933594 136.328125 L 145.9375 136.328125 C 145.488281 136.410156 145.046875 136.515625 144.613281 136.640625 "/>
<path style=" stroke:none;fill-rule:nonzero;fill:rgb(11.759949%,8.239746%,8.628845%);fill-opacity:1;" d="M 136.199219 140.671875 C 135.570312 140.300781 135.03125 139.886719 134.542969 139.503906 C 135.050781 139.863281 135.605469 140.253906 136.199219 140.671875 M 133.074219 138.453125 C 132.984375 138.40625 132.894531 138.367188 132.804688 138.328125 C 132.816406 138.316406 132.832031 138.304688 132.84375 138.289062 C 132.917969 138.34375 132.996094 138.398438 133.074219 138.453125 "/>
<path style=" stroke:none;fill-rule:nonzero;fill:rgb(46.669006%,29.40979%,27.059937%);fill-opacity:1;" d="M 144.613281 136.640625 L 144.605469 136.632812 L 144.613281 136.640625 M 144.613281 136.640625 L 144.605469 136.632812 L 144.613281 136.640625 M 145.894531 136.25 L 145.882812 136.226562 L 145.894531 136.25 "/>
<path style=" stroke:none;fill-rule:nonzero;fill:rgb(11.759949%,8.239746%,8.628845%);fill-opacity:1;" d="M 134.445312 137.445312 C 134.394531 137.441406 134.34375 137.4375 134.296875 137.433594 C 134.976562 137.128906 135.734375 136.867188 136.324219 136.675781 C 136.40625 136.714844 136.488281 136.75 136.566406 136.785156 C 136.136719 136.890625 135.742188 137.003906 135.386719 137.117188 C 135.039062 137.226562 134.726562 137.339844 134.445312 137.445312 "/>
<path style=" stroke:none;fill-rule:nonzero;fill:rgb(59.21936%,50.19989%,45.489502%);fill-opacity:1;" d="M 135.546875 139.503906 C 135.675781 139.410156 135.753906 139.355469 135.753906 139.355469 L 136.332031 139.152344 C 136.0625 139.269531 135.800781 139.386719 135.546875 139.503906 M 142.917969 136.796875 L 144.867188 136.101562 C 145.15625 136.179688 145.433594 136.234375 145.695312 136.234375 C 145.757812 136.234375 145.820312 136.234375 145.882812 136.226562 C 144.910156 136.347656 143.914062 136.542969 142.917969 136.796875 "/>
<path style=" stroke:none;fill-rule:nonzero;fill:rgb(10.198975%,5.099487%,3.529358%);fill-opacity:1;" d="M 142.582031 138.359375 C 142.695312 137.945312 142.84375 137.546875 143.027344 137.167969 C 143.363281 137.039062 143.699219 136.917969 144.042969 136.808594 C 144.050781 136.808594 144.054688 136.808594 144.058594 136.804688 C 143.710938 136.914062 143.367188 137.035156 143.027344 137.167969 C 142.84375 137.546875 142.695312 137.945312 142.582031 138.359375 "/>
<path style=" stroke:none;fill-rule:nonzero;fill:rgb(14.898682%,8.239746%,6.269836%);fill-opacity:1;" d="M 144.058594 136.804688 C 144.242188 136.75 144.425781 136.691406 144.613281 136.640625 C 144.425781 136.691406 144.242188 136.75 144.058594 136.804688 M 144.613281 136.640625 C 145.046875 136.515625 145.488281 136.410156 145.9375 136.328125 C 145.488281 136.410156 145.046875 136.515625 144.613281 136.640625 "/>
<path style=" stroke:none;fill-rule:nonzero;fill:rgb(11.759949%,8.239746%,8.628845%);fill-opacity:1;" d="M 133.078125 138.351562 C 132.847656 138.351562 132.902344 138.222656 133.214844 138.023438 C 133.65625 138.09375 133.988281 138.101562 134.085938 138.101562 C 134.105469 138.101562 134.117188 138.101562 134.117188 138.101562 C 133.597656 138.277344 133.257812 138.351562 133.078125 138.351562 M 133.214844 138.023438 C 133.207031 138.023438 133.199219 138.019531 133.191406 138.019531 C 133.5 137.816406 133.882812 137.617188 134.296875 137.433594 C 134.34375 137.4375 134.394531 137.441406 134.445312 137.445312 C 133.957031 137.632812 133.582031 137.808594 133.328125 137.957031 C 133.285156 137.980469 133.25 138.003906 133.214844 138.023438 M 134.960938 137.460938 C 134.785156 137.460938 134.613281 137.453125 134.445312 137.445312 C 134.726562 137.339844 135.039062 137.226562 135.386719 137.117188 C 135.742188 137.003906 136.136719 136.890625 136.566406 136.785156 C 136.878906 136.914062 137.164062 137.003906 137.371094 137.058594 C 137.59375 137.121094 137.730469 137.140625 137.730469 137.140625 C 136.902344 137.316406 136.160156 137.410156 135.496094 137.445312 C 135.3125 137.453125 135.136719 137.460938 134.960938 137.460938 M 136.566406 136.785156 C 136.488281 136.75 136.40625 136.714844 136.324219 136.675781 C 136.878906 136.496094 137.285156 136.378906 137.347656 136.351562 L 142.582031 135.710938 C 142.707031 135.679688 142.839844 135.664062 142.976562 135.664062 C 143.339844 135.664062 143.734375 135.765625 144.128906 135.882812 C 141.027344 135.894531 138.457031 136.300781 136.566406 136.785156 "/>
<path style=" stroke:none;fill-rule:nonzero;fill:rgb(75.289917%,69.018555%,65.489197%);fill-opacity:1;" d="M 161.835938 142.210938 C 160.46875 141.234375 158.160156 139.808594 155.171875 138.808594 C 155.160156 138.75 155.148438 138.6875 155.132812 138.628906 C 155.074219 138.375 155 138.125 154.917969 137.882812 C 157.800781 139.132812 160.148438 140.792969 161.835938 142.210938 "/>
<path style=" stroke:none;fill-rule:nonzero;fill:rgb(14.898682%,8.239746%,6.269836%);fill-opacity:1;" d="M 155.132812 138.628906 C 155.074219 138.375 155 138.125 154.914062 137.882812 C 154.914062 137.882812 154.914062 137.882812 154.917969 137.882812 C 155 138.125 155.074219 138.375 155.132812 138.628906 "/>
<path style=" stroke:none;fill-rule:nonzero;fill:rgb(10.198975%,5.099487%,3.529358%);fill-opacity:1;" d="M 155.171875 138.808594 C 155.105469 138.496094 155.019531 138.183594 154.914062 137.882812 C 155 138.125 155.074219 138.375 155.132812 138.628906 C 155.148438 138.6875 155.160156 138.75 155.171875 138.808594 "/>
<path style=" stroke:none;fill-rule:nonzero;fill:rgb(11.759949%,8.239746%,8.628845%);fill-opacity:1;" d="M 163.230469 143.304688 C 163.230469 143.304688 162.738281 142.855469 161.835938 142.210938 C 160.148438 140.792969 157.800781 139.132812 154.917969 137.882812 C 154.914062 137.882812 154.914062 137.882812 154.914062 137.882812 C 154.878906 137.78125 154.839844 137.679688 154.800781 137.582031 C 157.769531 138.691406 160.460938 140.332031 162.445312 142.25 C 162.785156 142.628906 163.054688 142.964844 163.191406 143.238281 L 163.230469 143.304688 "/>
<path style=" stroke:none;fill-rule:nonzero;fill:rgb(75.289917%,69.018555%,65.489197%);fill-opacity:1;" d="M 147.328125 136.140625 L 147.324219 136.113281 C 147.476562 136.105469 147.625 136.105469 147.777344 136.105469 C 147.828125 136.105469 147.882812 136.105469 147.933594 136.105469 L 147.917969 136.105469 L 147.933594 136.105469 L 147.847656 136.105469 L 147.835938 136.113281 C 147.777344 136.113281 147.71875 136.117188 147.660156 136.121094 L 147.652344 136.121094 C 147.640625 136.121094 147.628906 136.121094 147.613281 136.121094 C 147.535156 136.125 147.457031 136.128906 147.378906 136.136719 C 147.363281 136.136719 147.34375 136.140625 147.328125 136.140625 M 147.652344 136.121094 L 147.65625 136.121094 L 147.652344 136.121094 M 147.90625 136.105469 L 147.914062 136.105469 L 147.90625 136.105469 M 147.882812 136.105469 L 147.898438 136.105469 L 147.882812 136.105469 M 147.867188 136.105469 L 147.882812 136.105469 L 147.867188 136.105469 M 147.851562 136.105469 L 147.863281 136.105469 L 147.851562 136.105469 "/>
<path style=" stroke:none;fill-rule:nonzero;fill:rgb(14.898682%,8.239746%,6.269836%);fill-opacity:1;" d="M 147.378906 136.136719 C 147.457031 136.128906 147.535156 136.125 147.613281 136.121094 C 147.535156 136.125 147.457031 136.132812 147.378906 136.136719 M 147.691406 136.121094 L 147.660156 136.121094 C 147.71875 136.117188 147.777344 136.113281 147.835938 136.113281 L 147.792969 136.113281 L 147.789062 136.117188 L 147.707031 136.117188 L 147.691406 136.121094 M 147.6875 136.121094 L 147.691406 136.121094 L 147.6875 136.121094 M 147.734375 136.117188 L 147.742188 136.117188 L 147.734375 136.117188 M 147.714844 136.117188 L 147.71875 136.117188 L 147.714844 136.117188 M 147.707031 136.117188 L 147.710938 136.117188 L 147.707031 136.117188 M 147.792969 136.113281 L 147.789062 136.117188 L 147.792969 136.113281 M 147.769531 136.117188 L 147.773438 136.117188 L 147.769531 136.117188 M 147.75 136.117188 L 147.753906 136.117188 L 147.75 136.117188 M 147.820312 136.113281 L 147.828125 136.113281 L 147.820312 136.113281 M 147.800781 136.113281 L 147.808594 136.113281 L 147.800781 136.113281 "/>
<path style=" stroke:none;fill-rule:nonzero;fill:rgb(46.669006%,29.40979%,27.059937%);fill-opacity:1;" d="M 147.328125 136.140625 L 147.320312 136.113281 C 147.320312 136.113281 147.320312 136.113281 147.324219 136.113281 L 147.328125 136.140625 "/>
<path style=" stroke:none;fill-rule:nonzero;fill:rgb(10.198975%,5.099487%,3.529358%);fill-opacity:1;" d="M 147.691406 136.121094 L 147.6875 136.121094 L 147.691406 136.121094 M 147.65625 136.121094 L 147.652344 136.121094 L 147.65625 136.121094 M 147.742188 136.117188 L 147.734375 136.117188 L 147.742188 136.117188 M 147.71875 136.117188 L 147.714844 136.117188 L 147.71875 136.117188 M 147.710938 136.117188 L 147.707031 136.117188 L 147.710938 136.117188 M 147.789062 136.117188 L 147.792969 136.113281 L 147.789062 136.117188 M 147.773438 136.117188 L 147.769531 136.117188 L 147.773438 136.117188 M 147.753906 136.117188 L 147.75 136.117188 L 147.753906 136.117188 M 147.828125 136.113281 L 147.820312 136.113281 L 147.828125 136.113281 M 147.808594 136.113281 L 147.800781 136.113281 L 147.808594 136.113281 M 147.917969 136.105469 L 147.933594 136.105469 L 147.917969 136.105469 M 147.914062 136.105469 L 147.90625 136.105469 L 147.914062 136.105469 M 147.898438 136.105469 L 147.882812 136.105469 L 147.898438 136.105469 M 147.882812 136.105469 L 147.867188 136.105469 L 147.882812 136.105469 M 147.863281 136.105469 L 147.851562 136.105469 L 147.863281 136.105469 "/>
<path style=" stroke:none;fill-rule:nonzero;fill:rgb(14.898682%,8.239746%,6.269836%);fill-opacity:1;" d="M 147.328125 136.140625 C 147.34375 136.140625 147.363281 136.136719 147.378906 136.136719 C 147.457031 136.132812 147.535156 136.125 147.613281 136.121094 C 147.628906 136.121094 147.640625 136.121094 147.652344 136.121094 L 147.691406 136.121094 L 147.707031 136.117188 L 147.789062 136.117188 L 147.792969 136.113281 L 147.835938 136.113281 L 147.847656 136.105469 L 147.933594 136.105469 L 147.847656 136.105469 L 147.835938 136.113281 L 147.792969 136.113281 L 147.789062 136.117188 L 147.707031 136.117188 L 147.691406 136.121094 L 147.652344 136.121094 C 147.546875 136.125 147.433594 136.132812 147.328125 136.140625 "/>
<path style=" stroke:none;fill-rule:nonzero;fill:rgb(9.408569%,7.058716%,8.239746%);fill-opacity:1;" d="M 124.296875 131.46875 C 124.296875 131.46875 124.265625 136.054688 129.058594 137.632812 C 134.328125 139.367188 136.714844 135.5 136.714844 135.5 L 134.714844 133.601562 C 134.714844 133.601562 128.054688 134.589844 124.296875 131.46875 "/>
<g clip-path="url(#clip4)" clip-rule="nonzero">
<path style=" stroke:none;fill-rule:nonzero;fill:rgb(93.728638%,28.239441%,36.859131%);fill-opacity:1;" d="M 155.921875 199.382812 L 155.902344 199.367188 L 155.921875 199.382812 "/>
</g>
<g clip-path="url(#clip5)" clip-rule="nonzero">
<path style=" stroke:none;fill-rule:nonzero;fill:rgb(93.728638%,28.239441%,36.859131%);fill-opacity:1;" d="M 208.410156 199.367188 C 208.410156 199.785156 198.871094 198.972656 189.390625 196.316406 C 187.214844 195.707031 185.148438 196.320312 183.441406 197.640625 C 182.472656 198.421875 181.714844 198.257812 181.269531 198.007812 C 181.121094 197.882812 180.972656 197.761719 180.816406 197.644531 L 180.816406 197.640625 L 180.8125 197.640625 C 179.125 196.363281 177.082031 195.761719 174.921875 196.316406 C 166.835938 198.394531 156.386719 199.484375 155.921875 199.382812 C 156.363281 199.785156 165.851562 213.554688 172.070312 216.304688 C 172.070312 216.304688 182.910156 221.414062 192.539062 216.171875 C 198.910156 213.21875 208.410156 199.367188 208.410156 199.367188 "/>
</g>
<g clip-path="url(#clip6)" clip-rule="nonzero">
<path style=" stroke:none;fill-rule:nonzero;fill:rgb(78.42865%,26.269531%,31.369019%);fill-opacity:1;" d="M 208.410156 199.367188 C 203.3125 203.429688 202.398438 206.136719 189.410156 206.136719 C 187.363281 206.136719 186.203125 207.339844 182.765625 207.496094 C 179.480469 207.648438 177.675781 206.1875 176.496094 206.289062 C 164.027344 207.347656 155.921875 199.382812 155.921875 199.382812 C 155.921875 199.382812 164.558594 207.933594 183.007812 208.15625 C 201.410156 208.375 208.410156 199.367188 208.410156 199.367188 "/>
</g>
<path style=" stroke:none;fill-rule:nonzero;fill:rgb(94.509888%,42.749023%,50.19989%);fill-opacity:1;" d="M 159.628906 200.359375 C 159.628906 200.359375 170.015625 200.359375 174.445312 198.804688 C 178.875 197.25 179.894531 200.269531 183.472656 199.582031 C 187.050781 198.890625 186.425781 197.546875 190.117188 198.355469 C 196.503906 199.75 192.5 201.824219 186.285156 201.394531 C 177.382812 200.773438 177.851562 201.570312 171.382812 201.566406 C 168.359375 201.566406 160.394531 201.21875 159.203125 200.273438 "/>
<path style=" stroke:none;fill-rule:nonzero;fill:rgb(94.509888%,42.749023%,50.19989%);fill-opacity:1;" d="M 162.183594 206.136719 C 162.183594 206.136719 171.054688 216.675781 180.917969 216.84375 C 190.78125 217.011719 189.179688 212.785156 182.707031 212.527344 C 176.234375 212.269531 170.53125 212.433594 162.183594 206.136719 "/>
</g>
</svg>
